<svg width="150" height="124" viewBox="0 0 150 124" fill="none" xmlns="http://www.w3.org/2000/svg">
<g id="Illustration">
<g id="Group">
<path id="Path" d="M149.52 56.7682C149.395 55.3631 149.021 53.9904 148.414 52.712C148.096 52.082 147.696 51.4947 147.225 50.9647C146.752 50.4552 146.195 50.0271 145.578 49.6982C145.073 49.4392 144.623 49.0878 144.252 48.6627C143.704 48.1421 143.121 47.6592 142.506 47.2174C140.908 45.9983 138.786 45.6688 136.883 46.3443C135.791 46.6905 134.811 47.0355 133.8 47.4047C130.449 48.6505 127.343 50.0915 124.982 52.3758C124.778 52.5721 124.39 52.6022 124.113 52.7589C123.393 53.148 122.687 53.5651 122.003 54.0134C119.793 55.4634 117.847 57.233 115.486 58.5067C114.756 58.9184 114.197 59.5705 113.909 60.3478C113.686 60.957 113.218 61.4491 112.615 61.7081C111.895 62.119 111.264 62.6629 110.755 63.3098C109.715 64.4077 109.31 65.4646 110.344 66.5032C110.586 66.7482 110.342 67.0316 109.913 67.0396C109.765 67.0247 109.617 67.0291 109.471 67.0527C109.353 67.0854 109.143 67.2186 109.147 67.2708C109.202 68.1028 110.723 68.9963 111.469 68.6526C112.15 68.3286 112.953 68.1368 113.402 67.4671C113.837 66.6704 114.459 65.9872 115.217 65.4744C116.066 65.0032 116.296 64.0376 116.873 63.3321C117.853 62.1281 119.312 61.4732 120.308 60.2665C121.295 59.07 122.775 58.4322 123.994 57.4971C124.492 57.136 125.058 56.8748 125.659 56.7284C126.872 56.4651 127.951 55.7897 128.707 54.8211C129.174 54.2126 129.867 53.8096 130.634 53.6991C131.788 53.565 132.874 53.092 133.75 52.342C134.075 52.1011 134.47 51.9679 134.878 51.9616C135.622 51.8721 136.325 51.7853 137.013 51.7298C137.671 51.6711 138.332 51.6637 138.991 51.7077C139.803 51.7363 140.602 51.9106 141.349 52.2222C142.043 52.4901 142.548 53.089 142.687 53.8082C142.72 53.9861 142.848 54.1326 143.022 54.1915C144.028 54.5177 144.218 55.5518 143.766 56.4634C143.632 56.7618 143.634 57.1024 143.773 57.3988C143.937 57.7088 144.041 58.0462 144.08 58.3937C144.108 58.7399 144.074 59.0882 143.979 59.4227C143.884 59.7706 143.733 60.1014 143.533 60.4029C143.326 60.7285 143.079 61.0271 142.796 61.2915C142.693 61.3869 142.628 61.515 142.612 61.653C142.647 62.8815 141.565 63.5993 140.974 64.542C140.745 64.9137 140.482 65.2774 140.279 65.6637C140.048 66.0621 139.902 66.5029 139.852 66.9587C139.738 68.0564 139.16 69.0565 138.258 69.7144C137.608 70.1424 137.154 70.8028 136.992 71.5551C136.821 71.9839 136.501 72.339 136.089 72.5569C135.277 73.0584 134.688 73.8432 134.441 74.7537C134.222 75.3801 133.79 75.2675 133.367 75.352C132.428 75.5393 132.245 75.8374 132.464 76.9185C132.543 77.2995 132.526 77.5733 132.207 77.5759C131.584 77.5827 131.141 77.6567 130.907 78.4309C130.591 79.329 129.974 80.0953 129.158 80.6048C127.203 81.9445 125.642 83.7657 124.629 85.8857C124.363 86.2663 124.009 86.5808 123.598 86.8044C123.054 87.1321 122.628 87.6189 122.38 88.1964C122.208 88.7998 121.788 89.3056 121.221 89.593C120.429 89.9596 120.463 90.985 119.8 91.3919C119.139 91.8037 118.567 92.3399 118.118 92.9697C117.116 93.3072 116.677 94.1205 116.264 94.9807C116.213 95.0906 116.005 95.1569 115.859 95.2122C115.094 95.4584 114.541 96.1143 114.436 96.8988C114.323 97.5632 113.721 97.9002 113.272 98.3352C111.789 98.6619 110.867 99.7976 109.846 100.789C109.364 101.205 108.919 101.661 108.516 102.152C107.962 102.897 107.558 103.743 106.992 104.481C106.38 105.277 105.283 105.303 104.569 105.943C104.239 106.277 103.946 106.644 103.695 107.039C103.419 107.418 103.253 108.016 102.908 108.174C101.801 108.678 101.324 109.657 100.643 110.495C100.126 111.297 99.1762 111.725 98.2204 111.585C97.9184 111.497 97.5929 111.53 97.3158 111.677C97.0386 111.825 96.8325 112.074 96.7429 112.371C96.4128 113.451 95.3296 114.062 94.8715 115.075C94.527 115.818 93.6144 115.832 93.0726 116.324C92.5426 116.804 91.8784 117.056 91.5388 117.656C91.3365 118 90.9003 118.134 90.5344 117.966C90.3146 117.889 90.0997 117.799 89.8906 117.697C89.8099 117.645 89.7112 117.626 89.6167 117.646C89.5221 117.666 89.4396 117.722 89.3877 117.803C89.2434 117.987 89.0869 117.896 88.9554 117.824C88.9031 117.778 88.8397 117.747 88.7713 117.732C88.7139 117.71 88.6549 117.72 88.5726 117.793C88.4688 117.876 88.3448 117.93 88.213 117.95C88.0955 117.943 87.9773 117.918 87.9516 117.816C87.8876 117.515 87.7752 117.225 87.6187 116.959C87.4213 116.665 87.2517 116.354 87.1121 116.03C86.9545 115.482 86.892 114.911 86.9272 114.343C86.0616 113.495 86.2689 112.063 85.4786 110.867C85.264 110.633 85.206 110.299 85.3293 110.008C85.4829 109.655 85.4223 109.376 85.1276 109.236C84.5586 108.965 84.0507 108.551 84.5455 107.882C85.4205 106.705 85.0998 105.184 85.6914 103.942C85.7248 103.873 85.3452 103.54 85.1297 103.372C84.8143 103.125 84.7984 102.931 85.0285 102.65C86.0065 101.468 86.0146 101.431 85.2748 100.424C84.7785 99.6596 84.3583 98.8502 84.0202 98.0067C83.5023 97.0239 83.5055 95.8545 84.0289 94.8745C84.4343 93.8576 84.6384 92.7741 84.6304 91.682C84.7244 89.9614 84.8873 88.2464 85.0495 86.5272C85.1256 85.7532 85.4859 85.033 86.0631 84.5009C86.3815 84.1769 86.6639 83.8205 86.9056 83.4378C87.4105 82.6471 87.4173 81.644 86.9231 80.8468C86.654 80.5162 86.3426 80.2213 85.9964 79.9693C85.6927 79.7131 85.6317 79.4473 85.9179 79.2999C86.4363 79.0276 86.9594 78.8249 86.792 78.0099C86.6673 77.4128 86.5929 76.7967 86.4705 76.1923C86.3753 75.8854 86.4704 75.5522 86.714 75.3386C87.2939 74.8535 87.9151 74.4031 88.506 73.9372C88.8796 73.6663 89.059 73.2068 88.9656 72.7599C88.7924 71.662 89.1888 70.6158 89.4532 69.5578C89.6883 68.4951 90.3636 67.5769 91.3167 67.024C91.7597 66.7592 91.786 66.4894 91.4901 65.9082C91.3448 65.6227 91.1627 65.3772 91.3236 65.1198C91.57 64.7275 91.8664 64.3678 92.2056 64.0494C93.081 63.38 93.5334 62.3074 93.3967 61.2258C93.3432 60.4677 93.342 59.707 93.3932 58.9488C93.4036 58.3901 93.7835 58.1441 94.2614 58.3815C94.7972 58.6439 95.0427 58.5312 95.1239 58.0165C95.302 56.8225 95.4954 55.6015 95.6382 54.3964C95.6619 53.8061 95.9599 53.2591 96.4467 52.9123C96.7059 52.7753 96.9364 52.5914 97.1262 52.3704C97.7852 51.4518 98.5077 50.5788 99.2886 49.7576C99.4515 49.5814 99.6317 49.4214 99.8266 49.28C100.016 49.1329 100.2 48.9745 100.382 48.8459C100.744 48.5924 101.03 48.2478 101.209 47.8484C101.317 47.6033 101.505 47.4004 101.743 47.2721C101.963 47.1943 102.196 47.153 102.43 47.1496C102.645 47.1797 102.862 47.1964 103.08 47.1996C103.28 47.2352 103.487 47.1974 103.661 47.0934C103.854 47.0192 104.066 46.9444 104.288 46.8824C104.524 46.8528 104.756 46.8012 104.981 46.7284C105.47 46.6133 105.973 46.8548 106.181 47.3042C106.413 47.7385 106.736 47.5392 107.155 47.4511C107.902 47.3171 108.395 47.6471 108.419 48.2043C108.433 48.6187 108.389 49.033 108.291 49.4362C108.143 50.0524 108.916 50.2826 108.874 50.8171C108.838 51.3419 108.834 51.8682 108.86 52.3934C108.876 52.9136 108.903 53.4581 108.869 54.0089C108.939 54.9704 108.727 55.9975 108.826 56.9952C108.938 58.5057 109.242 59.9966 109.73 61.4332C109.876 61.6704 110.144 61.808 110.426 61.7904C111.005 61.6788 111.569 61.5004 112.105 61.2591C112.552 61.0581 112.883 60.6689 113.005 60.2005C113.304 59.1956 113.543 58.1747 113.723 57.1426C114.054 55.3505 114.109 53.5197 113.887 51.7114C113.62 49.726 112.878 47.831 111.722 46.1817C111.132 44.6808 109.951 43.4773 108.446 42.8443C107.558 42.3996 106.63 42.0361 105.674 41.7581L104.968 41.5671C104.729 41.5158 104.48 41.4926 104.232 41.4631C103.984 41.4366 103.733 41.4169 103.48 41.4062C103.228 41.4146 102.977 41.4355 102.727 41.4689C102.015 41.5595 101.314 41.7215 100.635 41.9523C100.005 42.181 99.395 42.4606 98.8116 42.7883C98.2628 43.0945 97.7359 43.4372 97.2345 43.8138C96.7702 44.175 96.3248 44.559 95.9 44.9644C94.3509 46.4769 93.0256 48.1956 91.9627 50.0701C91.5971 50.6813 91.2759 51.3172 91.0015 51.973C90.7546 52.5857 90.5991 53.2303 90.54 53.8868C90.4284 54.5303 90.1464 55.1336 89.7222 55.636C89.2439 56.2968 88.8262 56.9981 88.4741 57.7316C88.2052 58.3301 87.9287 58.9258 87.675 59.5307L86.9485 61.359C86.7111 61.9702 86.4611 62.5769 86.2364 63.1925L85.581 65.0462C85.3653 65.6654 85.1378 66.2813 84.941 66.9068L84.3612 68.7866C83.9701 70.0382 83.5795 71.2882 83.1894 72.5365C82.8618 73.4322 82.6558 74.3665 82.5768 75.3151C82.5035 76.1247 82.3808 76.9293 82.2094 77.7245C82.0606 78.529 81.9225 79.3396 81.8216 80.1472C81.7276 81.0963 81.693 82.0502 81.7178 83.0035C81.2287 84.0401 80.9466 85.1592 80.8866 86.3002C80.8012 87.4348 80.7751 88.5758 80.6013 89.6933C80.5879 90.1686 80.6705 90.6418 80.8443 91.0856C80.9428 91.3874 80.9093 91.7157 80.7521 91.9924C80.5647 92.3944 80.4267 92.8169 80.3409 93.2509C80.2603 93.6848 80.2211 94.1291 80.1783 94.5735C80.1413 95.4637 79.9658 96.3432 79.6579 97.1813C79.8307 97.9694 79.9623 98.7658 80.052 99.5671C80.1513 100.369 80.1236 101.182 79.9698 101.976C79.6218 103.151 79.4738 104.375 79.5318 105.598C79.6009 106.811 79.7717 108.016 80.0426 109.202C80.231 109.644 80.301 110.126 80.2459 110.602C80.1374 111.041 80.0711 111.488 80.0476 111.939C80.035 112.163 80.0315 112.386 80.0352 112.61C80.0436 112.843 80.0655 113.087 80.09 113.326C80.2212 114.325 80.4539 115.308 80.7847 116.262C81.0228 116.996 81.3012 117.731 81.6011 118.489C81.9229 119.316 82.3012 120.121 82.7336 120.898C83.4652 122.184 84.6471 123.166 86.0598 123.66C87.4473 124.146 88.9689 124.11 90.3308 123.558C91.4074 123.086 92.4535 122.549 93.4633 121.951C94.3464 121.451 95.235 120.948 96.1291 120.441C97.0501 119.934 98.0093 119.593 98.5916 118.735C99.22 117.824 100.487 117.69 101.252 116.788C101.88 116.052 102.654 115.45 103.529 115.02C104.311 114.641 104.648 113.87 105.308 113.516C106.296 112.992 106.517 112.069 106.967 111.289C107.347 110.634 107.676 110.406 108.401 110.526C108.976 110.621 108.976 109.879 109.305 109.609C109.796 109.207 110.457 108.988 110.895 108.551C111.457 107.988 111.806 107.234 112.342 106.645C113.43 105.459 114.514 104.264 116.113 103.72C116.52 103.475 116.674 102.969 116.471 102.544C116.142 102.091 115.764 101.676 115.44 101.218C115.227 100.917 115.283 100.665 115.525 100.616C115.668 100.594 115.815 100.623 115.939 100.696C116.301 100.917 116.632 101.183 116.999 101.396C117.543 101.71 118.236 101.617 118.674 101.17C119.229 100.827 119.67 100.331 119.941 99.7446C120.326 98.6918 120.968 97.7478 121.811 96.9955C122.485 96.3025 123.215 95.6629 123.992 95.0828C124.917 94.4341 125.082 93.1536 126.31 92.7324C126.876 92.4164 127.348 91.9594 127.677 91.4074C128.151 90.762 128.405 89.9625 128.922 89.3694C129.499 88.8264 130.105 88.3146 130.738 87.8365C130.936 87.6006 131.036 87.3001 131.018 86.995C130.998 86.7248 130.764 86.5075 130.648 86.2532C130.537 86.005 130.46 85.7399 130.366 85.482C130.651 85.4782 130.934 85.5245 131.202 85.6188C132.163 86.2009 132.344 85.531 132.658 84.7273C132.794 84.3772 133.367 84.1208 133.767 83.8685C134.639 83.4038 135.288 82.618 135.57 81.6838C135.895 80.4338 136.687 79.3499 137.789 78.6482C139.046 77.8735 139.96 76.6632 140.352 75.2571C140.713 73.8537 141.614 72.6423 142.864 71.8777C143.556 71.4387 143.985 70.6951 144.014 69.8866C144.079 69.0764 144.421 68.3116 144.984 67.7164C145.415 67.2151 145.906 66.7612 146.313 66.2246C146.851 65.5554 147.321 64.8362 147.715 64.0771C148.068 63.5049 148.002 62.7742 147.552 62.2721C147.284 62.0013 147.25 61.6456 147.541 61.4626C148.969 60.546 149.723 58.8697 149.52 56.7682Z" fill="white"/>
<path id="Path_2" d="M143.872 55.0793C143.215 53.6343 141.939 52.5511 140.388 52.1235C138.805 51.6616 137.108 51.747 135.581 52.3656L135.288 52.4671L135.103 52.5373C134.979 52.5825 134.857 52.6341 134.735 52.6851L134.005 52.9895C133.519 53.1915 133.044 53.4198 132.564 53.6296C131.375 54.0952 130.146 54.4562 128.891 54.7084C127.59 54.9851 126.4 55.6278 125.464 56.5581C125.225 56.8374 125.051 57.1649 124.955 57.5175C124.714 58.3198 124.122 58.4889 123.513 58.6518C122.924 58.8328 122.319 59.0094 122.229 59.8327C122.123 60.7673 121.189 61.0704 121.103 61.9571C121.054 62.9772 121.111 63.9996 121.275 65.0081C121.59 65.5389 122.027 65.9901 122.551 66.3256C123.243 66.9113 123.283 66.9317 123.574 66.3554C123.774 65.9562 124.475 65.5722 125.131 65.1995C125.781 64.815 126.4 64.4516 126.442 63.9517C126.423 63.4126 126.67 62.8975 127.106 62.5696C127.697 62.2027 128.192 61.6659 129.023 61.7099C129.732 61.7536 130.5 61.136 131.299 60.4861C131.949 59.8611 132.689 59.3341 133.496 58.922C134.776 58.5124 134.769 57.9213 135.176 57.736C135.71 58.1122 136.45 58.0178 136.868 57.5201C136.923 57.248 137.231 56.728 137.515 56.8105C137.702 56.8602 137.744 57.2101 137.868 57.2438C137.959 57.2656 138.306 56.9199 138.499 56.9244C138.846 57.0496 139.093 57.3531 139.141 57.7125C139.167 58.0436 139.094 58.375 138.932 58.6661C138.767 58.7393 138.608 58.826 138.458 58.9252C138.415 58.9508 138.374 58.9788 138.335 59.0091C138.282 59.0799 138.228 59.1532 138.172 59.228C138.068 59.378 137.955 59.5353 137.855 59.6945C137.448 60.3308 137.102 61.0028 137.226 61.3872C137.772 63.0592 136.468 64.6267 135.219 66.0896C133.961 67.5648 132.769 68.9676 133.263 70.8456C133.352 71.1149 131.09 73.9838 130.554 73.9154C130.089 73.8658 129.633 74.0709 129.368 74.4498C129.26 74.9829 129.363 75.6062 128.977 76.0354C128.491 76.5677 127.958 77.0969 127.448 77.6425C126.918 78.1717 126.409 78.7149 125.934 79.2486C125.043 80.2445 123.256 81.281 122.77 82.5643C122.695 82.7676 122.682 83.1361 122.525 83.1431C121.143 83.3009 119.87 83.9558 118.95 84.9816C117.937 85.9791 117.163 87.1872 116.687 88.5171C116.551 88.9316 116.677 89.3859 117.009 89.6748C117.341 89.9638 117.815 90.0328 118.217 89.8507C119.744 89.4557 120.946 88.201 121.95 87.0752C122.721 86.2094 124.394 87.1728 125.278 86.2242C126.706 84.673 128.346 83.6761 130.002 82.3922C130.368 81.874 130.643 81.2999 130.818 80.6932C130.972 80.0995 131.231 79.5372 131.585 79.0322C132.135 78.4091 132.758 77.8523 133.442 77.3734C134.138 76.8662 134.785 76.2969 135.375 75.6727C135.94 75.2837 136.535 74.9148 137.122 74.5378C137.958 73.4577 138.703 72.296 138.73 70.8112C138.732 70.3912 139.277 70.4027 139.418 70.1396C139.567 69.8611 139.413 69.4251 139.5 69.1041C139.729 68.1481 141.144 68.3009 141.049 67.0124C140.961 66.5472 141.002 66.0674 141.167 65.623C141.619 64.6913 142.085 63.7733 142.526 62.8275C142.747 62.3552 142.962 61.8766 143.162 61.3857C143.265 61.1418 143.361 60.893 143.455 60.6426C143.498 60.5416 143.56 60.3388 143.618 60.1591C143.675 59.9755 143.738 59.7987 143.791 59.6078C143.892 59.2257 144.011 58.8403 144.076 58.4533C144.163 58.0721 144.217 57.6843 144.236 57.2941C144.284 56.5384 144.16 55.7817 143.872 55.0793Z" fill="#FFC2C2"/>
<path id="Shape" fill-rule="evenodd" clip-rule="evenodd" d="M137.121 53.9119C137.181 54.4664 137.177 55.0259 137.108 55.5795C137.011 56.2931 136.817 56.9909 136.534 57.6548C136.377 57.9504 136.199 58.243 136.012 58.5332C136.369 59.1382 136.612 59.8021 136.728 60.4925C136.927 61.7307 136.87 62.9956 136.561 64.2119C136.529 64.3219 136.499 64.4321 136.47 64.5421L136.47 64.5421C136.414 64.7488 136.359 64.9551 136.285 65.1596C136.242 65.2681 136.202 65.3769 136.161 65.4856L136.161 65.4857L136.161 65.4858L136.161 65.4859L136.161 65.486C136.085 65.6899 136.009 65.8933 135.921 66.0933L135.484 67.003C135.419 67.1291 135.337 67.2711 135.272 67.3827L135.246 67.4269L135.064 67.7333C134.581 68.5015 134.042 69.2353 133.454 69.9294C132.889 70.601 132.3 71.2362 131.717 71.8208L131.683 71.8553C131.113 72.4297 130.544 73.003 129.954 73.5555C129.038 74.4273 128.228 75.3898 127.411 76.3598L127.411 76.3598C126.948 76.91 126.483 77.4627 125.995 78.0026C124.686 79.5776 123.068 80.8788 121.238 81.8292C120.748 82.0507 120.226 82.1969 119.69 82.2627C118.583 82.3801 117.947 83.0027 117.314 83.6209L117.251 83.6828L117.191 83.7415C116.531 84.4116 115.842 85.0354 114.734 85.0137C114.099 85.0283 113.476 85.1832 112.911 85.4669C112.352 85.7338 111.742 85.8822 111.12 85.9025C109.763 85.7816 108.419 85.5424 107.105 85.1878C106.615 84.7801 106.304 84.2037 106.235 83.5772C105.944 82.7243 105.949 82.6762 107.003 82.4412C108.037 82.0487 109.008 81.5105 109.884 80.8433C110.944 80.1418 111.962 79.4686 112.66 79.4775C113.497 79.5439 114.332 79.3346 115.034 78.8828C115.273 78.7129 115.521 78.554 115.768 78.3953L115.768 78.3953L115.768 78.3953L115.768 78.3953L115.768 78.3953C116.016 78.2362 116.264 78.0774 116.502 77.9078C116.987 77.567 117.402 77.1392 117.724 76.6469C117.864 76.4232 118.031 76.2173 118.222 76.0336C117.984 76.0454 117.714 76.0437 117.479 76.0333C117.072 76.0045 116.67 75.9313 116.279 75.815C116.007 75.7118 115.743 75.5963 115.49 75.4712C115.172 75.3033 114.869 75.1086 114.585 74.8894C114.414 74.7552 114.254 74.6073 114.107 74.4472C113.95 74.281 113.804 74.1053 113.669 73.9212C113.372 73.4812 113.133 73.0062 112.957 72.5074C112.817 72.0995 112.723 71.6777 112.678 71.2495C112.658 71.0675 112.645 70.8848 112.64 70.7031C112.636 70.5541 112.641 70.4051 112.655 70.2568C112.671 69.9907 112.726 69.7283 112.819 69.478C112.91 69.261 113.023 69.0541 113.157 68.8606C113.284 68.7061 113.418 68.5581 113.56 68.417C113.688 68.2917 113.816 68.1818 113.94 68.0756C114.086 67.9503 114.226 67.8301 114.353 67.6956C114.898 67.1052 115.342 66.4328 115.669 65.7041C116.012 64.971 116.634 64.3993 117.401 64.1119C118.119 63.9074 118.8 63.5936 119.419 63.1819C120.783 62.1701 122.125 61.222 123.496 60.3204C124.18 59.8685 124.873 59.4303 125.587 59.0087L125.667 58.9609L125.667 58.9609C125.999 58.7638 126.265 58.6063 126.893 58.278C127.008 58.2217 127.124 58.1647 127.24 58.1075C127.704 57.8778 128.174 57.6459 128.648 57.4572C128.752 57.417 128.856 57.3732 128.961 57.3294L128.961 57.3294C129.153 57.2488 129.346 57.168 129.538 57.1087L130.426 56.8342L130.865 56.7499C130.898 56.5722 130.895 56.39 130.858 56.2132C130.807 55.9913 130.666 55.7996 130.467 55.6824C130.281 55.5858 130.112 55.5388 129.964 55.4977C129.776 55.4455 129.622 55.4029 129.513 55.2802C129.494 55.2573 129.476 55.226 129.457 55.193L129.457 55.193C129.387 55.074 129.303 54.9317 129.143 55.0717C128.897 55.2928 128.674 55.4943 128.47 55.6783L128.47 55.6783C128.001 56.1024 127.635 56.4333 127.322 56.6963C127.117 56.8667 126.904 57.0265 126.683 57.175L126.208 57.4666L125.505 57.8815C124.79 58.2942 124.07 58.7221 123.365 59.141L123.365 59.141L123.365 59.1411L123.364 59.1412C122.203 59.8309 121.083 60.496 120.098 61.0279C119.743 61.2201 119.32 61.248 118.942 61.1041C118.598 60.9238 118.4 60.4118 118.937 59.2943C119.542 58.1266 120.389 57.0958 121.423 56.2681C121.945 55.8361 122.499 55.4426 123.08 55.0908C123.161 55.0438 123.241 54.9961 123.32 54.9485C123.528 54.8242 123.734 54.7009 123.949 54.5948L124.386 54.3692L124.602 54.2586L124.868 54.1334C125.383 53.8743 125.864 53.5536 126.299 53.1784C126.441 53.0553 126.583 52.9296 126.728 52.8018L126.728 52.8015L126.728 52.8015C127.031 52.5331 127.345 52.2552 127.688 51.9717C128.721 51.0149 130.016 50.3741 131.413 50.1276L132.02 50.1068C132.211 50.0905 132.403 50.093 132.593 50.1142C132.75 50.1337 132.911 50.1483 133.071 50.1628L133.071 50.1628C133.261 50.18 133.449 50.197 133.627 50.2219C134.295 50.3222 134.93 50.5703 135.485 50.9475C135.997 51.3276 136.406 51.8247 136.678 52.3957C136.903 52.876 137.052 53.3873 137.121 53.9119ZM124.271 65.7318C123.387 66.0518 122.566 66.5183 121.843 67.1109C120.796 67.9543 119.878 68.9412 119.117 70.0415C119.307 70.0389 119.5 70.0399 119.699 70.052C120.636 69.5583 121.485 68.9163 122.21 68.152C123.006 67.4412 123.699 66.627 124.271 65.7318ZM117.367 71.257L117.367 71.2571C117.291 71.6032 117.311 71.5119 117.367 71.257ZM127.238 69.3391L127.237 69.3395C127.206 69.3785 127.175 69.4175 127.143 69.4567C127.26 69.389 127.367 69.3068 127.463 69.2121C127.466 69.1658 127.474 69.1229 127.481 69.08V69.08V69.08L127.481 69.0799C127.485 69.0592 127.489 69.0385 127.492 69.0174C127.409 69.1269 127.323 69.233 127.238 69.3391L127.238 69.3391ZM130.904 65.0871C130.825 65.2765 130.716 65.4528 130.582 65.6097C130.439 65.7857 130.279 65.9488 130.106 66.097C129.843 66.3269 129.552 66.5376 129.264 66.7469L129.264 66.747C129.167 66.8168 129.071 66.8864 128.977 66.9566C128.963 66.967 128.949 66.9777 128.935 66.9883C128.924 66.9971 128.913 67.0059 128.901 67.0145L129.007 66.857C129.631 65.9312 130.237 65.0308 130.861 64.2547C130.852 64.267 130.844 64.2805 130.839 64.2948C130.814 64.3814 130.843 64.4859 130.874 64.6015C130.915 64.7501 130.961 64.9169 130.904 65.0871ZM130.872 64.2403C130.868 64.2449 130.864 64.2497 130.861 64.2547L130.872 64.2403ZM130.939 64.1566C130.919 64.1823 130.9 64.208 130.88 64.2325C130.924 64.1814 130.999 64.1214 131.082 64.0547C131.24 63.9281 131.428 63.7775 131.492 63.6177C131.504 63.5846 131.512 63.5506 131.517 63.5161C131.341 63.6925 131.172 63.8742 131.013 64.063C130.988 64.0927 130.964 64.1247 130.939 64.1566Z" fill="#292929"/>
</g>
<g id="Group_2">
<path id="Path_3" d="M122.205 13.6454C122.073 13.2048 121.966 12.7709 121.88 12.3384C121.806 11.9103 121.754 11.4787 121.723 11.0451C121.691 10.1305 121.724 9.21479 121.819 8.3048C121.923 7.19812 121.514 6.10535 120.713 5.34771C119.923 4.5365 119.189 3.67139 118.516 2.75845C117.914 1.96329 117.155 1.3043 116.288 0.823539C115.181 0.252469 113.952 -0.0297138 112.711 0.00247537C111.715 0.0324257 110.992 0.46663 110.79 1.1278C110.749 1.30566 110.64 1.4594 110.486 1.55401C110.332 1.64862 110.148 1.67604 109.974 1.63003C108.19 1.05174 106.187 1.5707 104.444 2.92861C102.191 4.68667 99.9769 6.54321 98.6623 8.93157C98.3876 9.43473 97.9917 9.85897 97.5117 10.1646C96.885 10.5649 96.3267 11.1289 95.7076 11.5103C94.1231 12.5858 92.942 14.1722 92.355 16.0133C91.9644 17.0618 91.5065 18.0833 90.9844 19.071C89.2368 22.4273 87.0253 25.6077 85.9532 29.2646C85.8624 29.5794 85.526 29.847 85.3416 30.1627C84.8573 30.9694 84.4138 31.8008 83.986 32.6406C82.6229 35.3558 81.581 38.2196 79.9336 40.7896C79.4345 41.5993 79.1865 42.5427 79.2217 43.4973C79.2629 44.2463 79.0261 44.9837 78.558 45.564C78.0599 46.3675 77.6879 47.2448 77.4552 48.1643C76.9198 49.8244 76.9065 51.1116 78.2558 51.7019C78.5727 51.8408 78.4458 52.2624 78.0474 52.4805C77.9024 52.5383 77.7656 52.6153 77.6405 52.7096C77.5417 52.8017 77.3933 53.0438 77.4155 53.097C77.7619 53.9491 79.4905 54.1713 80.0683 53.4283C80.6026 52.7454 81.2556 52.1193 81.4519 51.1759C81.5652 50.0963 81.8911 49.0508 82.4103 48.1016C83.0122 47.1411 82.883 46.0078 83.1321 44.9523C83.5719 43.1602 84.6785 41.6604 85.0946 39.8422C85.3326 38.9593 85.6712 38.1076 86.1033 37.3042C86.5327 36.4949 86.9802 35.6934 87.3384 34.8506C87.6428 34.192 88.0481 33.5866 88.5392 33.0568C89.5527 32.0187 90.2318 30.6925 90.4868 29.2538C90.646 28.3487 91.0871 27.5194 91.7452 26.8878C92.2608 26.382 92.7158 25.8162 93.1009 25.2021C93.4749 24.58 93.7634 23.9089 93.9581 23.2073C94.1345 22.7012 94.4132 22.2382 94.7763 21.848C96.0045 20.2668 97.1533 18.6237 98.2183 16.925C99.5776 14.8531 100.874 12.6082 103.044 11.4971C103.331 11.3274 103.56 11.0736 103.702 10.7689C104.295 9.38291 105.515 8.37673 106.973 8.07208C107.423 7.95147 107.828 7.6969 108.136 7.34101C108.631 6.6202 109.335 6.07397 110.15 5.77832C110.897 5.48326 111.718 5.44211 112.49 5.66103C112.607 5.70532 112.736 5.70195 112.851 5.65161C113.207 5.39522 113.675 5.36211 114.063 5.56578C114.312 5.73563 114.541 5.93295 114.747 6.15412C114.915 6.29562 115.074 6.48173 115.278 6.68091C115.513 6.93295 115.784 7.14744 116.082 7.31709C116.944 7.95155 117.346 9.05031 117.101 10.1026C117.076 10.3077 117.046 10.508 117.038 10.6973C116.981 11.3106 117.09 11.9278 117.351 12.4835C117.485 12.972 117.443 13.4929 117.233 13.9529C116.874 14.9212 116.817 15.9786 117.072 16.9806C117.204 17.7052 116.776 17.8454 116.447 18.1589C115.724 18.8563 115.696 19.2237 116.389 20.1768C116.627 20.5119 116.731 20.7972 116.45 20.9674C115.846 21.2043 115.503 21.8539 115.643 22.4959C115.71 23.5799 115.447 24.6586 114.889 25.5852C114.225 26.7605 113.686 28.0041 113.282 29.295C112.866 30.5924 112.592 31.9324 112.465 33.2906C112.337 33.816 112.106 34.31 111.787 34.7433C111.377 35.3467 111.136 36.0512 111.088 36.7824C111.102 37.5098 110.865 38.2191 110.418 38.7881C109.778 39.5377 110.15 40.6143 109.621 41.3377C109.101 42.0696 108.717 42.8914 108.487 43.7629C107.628 44.5679 107.424 45.6112 107.276 46.7039C107.257 46.8421 107.078 47.0048 106.954 47.1274C106.286 47.7304 105.948 48.6254 106.048 49.5274C106.122 50.2787 105.632 50.8968 105.309 51.5459C103.93 52.5076 103.368 54.1111 102.584 55.5615C102.215 56.198 101.894 56.8615 101.622 57.5464C101.266 58.5624 101.041 59.6052 100.66 60.6175C100.254 61.7122 99.1492 62.1494 98.5755 63.0958C98.3181 63.5722 98.1062 64.0726 97.9427 64.5901C97.756 65.1004 97.7036 65.7913 97.3898 66.0868C96.3753 67.0209 96.1065 68.2446 95.5639 69.3695C95.0629 70.4345 94.3849 71.2117 93.3137 71.3626C92.6003 71.4019 92.0187 71.9579 91.9373 72.6786C91.8297 73.3046 91.6042 73.9035 91.2731 74.4427C90.9295 74.9769 90.657 75.555 90.463 76.1619C90.2278 77.0389 89.2615 77.4165 88.7345 78.1915C88.2297 78.9458 87.5266 79.5922 87.2921 80.4846C87.1337 81.0056 86.7315 81.4132 86.2181 81.5731C85.6304 81.8557 84.9017 81.8813 84.6425 82.7531C84.5143 83.086 84.2802 83.3659 83.9774 83.5481C83.681 83.7177 83.4526 83.9874 83.3318 84.3103C83.208 84.7503 82.8719 85.37 82.5367 85.4911C81.2783 85.9374 80.4277 86.7187 79.5573 87.0617C79.1143 87.2263 78.6262 87.2134 78.1923 87.0254C77.9008 87.2987 77.4838 87.3846 77.1104 87.2482C76.6412 87.0946 76.1644 86.9657 75.6821 86.8621C75.3871 86.8032 75.1651 86.688 75.1064 86.349C75.0405 85.997 74.8622 85.801 74.5426 85.8421C73.9368 85.9129 73.2735 85.7528 73.3737 84.8851C73.4246 84.138 73.3373 83.3879 73.1165 82.6734C72.8928 81.9139 72.7587 81.13 72.7171 80.3383C72.7177 80.2496 72.226 80.019 71.9556 79.9101C71.794 79.8784 71.6548 79.7748 71.5764 79.6278C71.4979 79.4809 71.4884 79.306 71.5504 79.1511C71.9183 77.5062 71.9716 77.4346 70.8476 76.596C70.0562 75.9301 69.3305 75.1874 68.6808 74.3787C67.8072 73.4459 67.3409 72.1948 67.3874 70.9084C67.3716 69.6169 67.119 68.3396 66.6427 67.142L65.7931 64.2044C65.4952 63.2283 65.2365 62.2413 64.9957 61.2489C64.7575 60.3813 64.7947 59.4595 65.1021 58.6146C65.2745 58.1245 65.4002 57.6188 65.4775 57.1044C65.6346 56.0327 65.2621 54.9512 64.4814 54.2125C64.1217 53.9515 63.7279 53.7425 63.3114 53.5916C62.9394 53.4235 62.786 53.151 62.9937 52.8757C63.3721 52.3705 63.7711 51.9414 63.2881 51.1023C62.9318 50.4885 62.6583 49.8284 62.3212 49.2039C62.1221 48.8917 62.0895 48.4992 62.2343 48.1575C62.5889 47.3894 62.9448 46.6481 63.3336 45.8931C63.5789 45.4258 63.5784 44.8651 63.3322 44.3983C63.0759 43.8149 62.8976 43.1993 62.8022 42.5679C62.7103 41.9326 62.6734 41.2819 62.61 40.6393C62.4365 39.3899 62.7199 38.1193 63.4065 37.0677C63.7207 36.5931 63.6501 36.2817 63.1743 35.756C62.9406 35.4978 62.6872 35.2994 62.7447 34.9477C62.8249 34.4152 62.9687 33.8946 63.1728 33.3974C63.7466 32.2681 63.7893 30.9365 63.2889 29.7717C62.9778 28.9479 62.7156 28.1059 62.5039 27.2502C62.3215 26.6277 62.5872 26.197 63.1095 26.2598C63.6865 26.3258 63.8899 26.0993 63.7889 25.495C63.5429 24.0813 63.2959 22.6625 63.0534 21.2693C62.8881 20.5619 62.9697 19.8181 63.2843 19.1649C63.4687 18.8597 63.6032 18.5263 63.6825 18.1774C63.8341 16.9083 64.1367 15.6625 64.5836 14.4673C64.6719 14.2668 64.7832 14.0775 64.9152 13.9034C65.0327 13.7234 65.1963 13.6196 65.3029 13.4566C65.4111 13.2952 65.5679 13.2008 65.655 13.0253C65.7752 12.8641 65.8729 12.6869 65.9453 12.4987C66.055 12.242 66.2591 12.0389 66.5141 11.9328C66.7662 11.8607 67.0294 11.8381 67.2898 11.8661C67.8008 11.9917 68.3308 12.0164 68.851 11.9389C68.9867 11.9026 69.1271 11.871 69.2704 11.8404C69.414 11.8204 69.5604 11.8154 69.7083 11.8005C69.8588 11.7852 70.0085 11.7701 70.1553 11.7551C70.3046 11.7513 70.4536 11.7396 70.6017 11.7202C70.9169 11.6707 71.2394 11.7206 71.5258 11.8629C71.8026 11.9943 72.0455 12.1894 72.2351 12.4328C72.6356 12.91 72.9562 12.7133 73.4098 12.596C73.7481 12.5165 74.1025 12.5472 74.4227 12.6837C74.6824 12.8293 74.8733 13.0749 74.9524 13.3651C75.0132 13.5942 75.0497 13.8292 75.0611 14.0662C75.0807 14.2929 75.0891 14.5204 75.0863 14.748C75.0802 15.486 75.9217 15.7222 76.0043 16.3594C76.1696 17.6999 76.6001 18.9129 76.8327 20.285C77.1589 21.4356 77.2309 22.726 77.5988 23.8652C78.1006 25.5448 78.7975 27.1577 79.675 28.67C79.8621 28.889 80.1658 28.9627 80.4302 28.8532C80.9534 28.5335 81.4362 28.1499 81.8678 27.7111C82.2436 27.3162 82.4442 26.7825 82.4232 26.2338C82.4219 25.0564 82.38 23.856 82.2721 22.6343C82.1116 20.6113 81.7211 18.6139 81.1083 16.6821C80.7764 15.6589 80.3548 14.6681 79.8484 13.7215C79.3128 12.7161 78.6655 11.7763 77.9192 10.9205C77.049 9.42716 75.686 8.29513 74.0718 7.72533C73.144 7.34995 72.2705 6.98205 71.3589 6.65825C70.8973 6.51452 70.4267 6.38372 69.9455 6.27799C69.4464 6.18902 68.9405 6.14553 68.4338 6.14805C66.8484 6.1591 65.2857 6.53124 63.8609 7.23704C62.3405 8.00124 61.0509 9.16726 60.1278 10.6125C59.3592 11.8906 58.831 13.3024 58.57 14.7763C58.358 15.9395 58.2059 17.1132 58.1143 18.2925C57.9746 19.8366 57.7824 21.3586 58.1511 22.8607C58.2666 23.6179 58.2119 24.3918 57.9909 25.1245C57.7662 26.0511 57.6191 26.9954 57.5512 27.9472C57.5099 28.7172 57.4568 29.4871 57.4349 30.2579L57.4014 32.5711C57.3612 34.1135 57.4131 35.655 57.443 37.1969C57.5109 40.284 57.7947 43.362 57.9585 46.4366C58.0016 47.5561 58.1623 48.6678 58.4379 49.7527C58.8807 51.5907 59.156 53.5273 59.5568 55.401C59.8268 56.4922 60.2308 57.5417 60.5722 58.6039C60.5257 59.9469 60.7059 61.2881 61.1049 62.5695C61.4306 63.868 61.911 65.1276 62.1943 66.43C62.3591 66.9566 62.6133 67.4499 62.9454 67.8876C63.1611 68.1856 63.2652 68.5519 63.2391 68.9209C63.2708 69.9623 63.443 70.9945 63.7508 71.9885C64.0878 72.9765 64.2959 74.0051 64.3699 75.0479C64.7953 75.8887 65.3109 76.6822 65.7052 77.5387C66.1451 78.3812 66.4561 79.2868 66.6276 80.2244C66.8273 81.6482 67.2095 83.0393 67.7646 84.3624C68.3844 85.8043 69.2072 87.1472 70.2071 88.349C70.682 88.7997 71.1024 89.3064 71.4591 89.8582C72.1298 91.1007 73.1719 92.0949 74.435 92.6971C75.8236 93.3655 77.3724 93.6137 78.8963 93.4121C79.9324 93.2707 80.9467 92.9965 81.9149 92.5959C82.8234 92.2344 83.6739 91.8383 84.5012 91.444C86.6057 90.4618 88.2613 88.7006 89.1296 86.5204C89.5204 85.5549 90.0325 84.6447 90.653 83.8124C91.2572 82.9693 91.9337 82.1822 92.6746 81.4601C93.4744 80.6834 94.3414 80.0784 94.8535 78.9393C95.3866 77.758 96.6617 77.1808 97.3036 75.9359C97.842 74.9302 98.531 74.0157 99.3461 73.225C100.075 72.5294 100.293 71.5824 100.893 70.9541C101.796 70.0181 101.84 68.9361 102.142 67.9275C102.389 67.0748 102.666 66.7006 103.427 66.5507C104.029 66.4304 103.871 65.6304 104.146 65.2127C104.632 64.6477 105.085 64.0551 105.505 63.4378C105.935 62.6028 106.122 61.6576 106.522 60.8076C107.294 59.0701 108.108 57.3589 109.531 56.0841C109.868 55.6807 109.887 55.0943 109.577 54.6693C109.133 54.3253 108.65 54.0433 108.21 53.6929C107.921 53.4616 107.909 53.1696 108.134 53.0143C108.262 52.9318 108.416 52.8994 108.565 52.9233C108.98 53.0033 109.376 53.1446 109.793 53.2139C110.427 53.3178 110.925 52.9804 111.374 52.2402C111.825 51.6297 112.118 50.9131 112.224 50.1571C112.294 48.8378 112.646 47.5498 113.256 46.3824C113.687 45.3304 114.198 44.3137 114.783 43.3414C115.491 42.2279 115.223 40.7759 116.272 39.7547C116.726 39.1527 117.031 38.4484 117.16 37.7015C117.399 36.7885 117.389 35.8199 117.678 34.9402C117.953 34.07 118.523 33.2982 118.888 32.4398C118.997 32.1055 118.992 31.7435 118.873 31.4126C118.763 31.1349 118.467 31.0168 118.271 30.8026C118.081 30.5926 117.917 30.3482 117.739 30.1199C118.017 30.0264 118.32 29.8238 118.57 29.8564C119.67 30.0029 119.624 29.2036 119.632 28.187C119.77 27.6465 120.017 27.1411 120.358 26.7031C120.998 25.7311 121.291 24.5655 121.187 23.4008C120.99 21.8588 121.219 20.2916 121.848 18.874C122.589 17.2331 122.716 15.3744 122.205 13.6454Z" fill="#D1F6FE"/>
<path id="Shape_2" fill-rule="evenodd" clip-rule="evenodd" d="M77.1343 46.9056C77.3232 47.3687 77.4645 47.8503 77.556 48.3429C77.6928 49.0621 77.6649 49.8036 77.4746 50.5101C77.1139 51.7898 76.5194 52.9891 75.7223 54.0458C75.2083 54.7621 74.6297 55.4282 73.994 56.0354C73.6251 56.4015 73.236 56.7459 72.8285 57.067C72.6809 57.1634 72.5314 57.2528 72.3795 57.3436C72.3232 57.3772 72.2666 57.4111 72.2096 57.4456C71.0437 58.0816 69.6568 58.1478 68.4372 57.6256C67.9111 57.3919 67.435 57.056 67.0358 56.6367C66.6264 56.2016 66.2919 55.6998 66.0463 55.1521C65.7124 54.3496 65.4658 53.5124 65.3109 52.6555C65.09 51.9827 65.0275 51.2666 65.1285 50.5648C65.2199 50.2246 65.282 49.8769 65.314 49.5257C64.5637 48.8039 64.6391 47.8811 64.8832 46.9884C64.957 46.7485 65.0409 46.5091 65.1243 46.2711L65.1243 46.271L65.1243 46.271C65.1968 46.0643 65.2688 45.8587 65.3336 45.6546C65.5025 45.2379 65.599 44.7947 65.6188 44.3446C65.6223 44.2144 65.6166 44.0841 65.6019 43.9548C65.4129 43.8158 65.239 43.6567 65.0833 43.4801C64.9954 43.3836 64.9179 43.2941 64.8493 43.215C64.6573 42.9932 64.5356 42.8528 64.4552 42.8679C64.0049 42.8781 63.6196 42.624 63.5391 41.9162C63.5915 41.4135 63.6698 40.9139 63.7738 40.4195C63.8055 40.2582 63.8279 40.108 63.8508 39.9545L63.8508 39.9545L63.8508 39.9544C63.863 39.8725 63.8754 39.7897 63.8893 39.7037C63.9397 39.4592 63.967 39.2104 63.9707 38.9606C63.9558 37.6656 64.0369 36.3713 64.2133 35.0886L64.376 34.0592L64.4601 33.5445C64.4881 33.3706 64.5175 33.1921 64.5451 33.0868C64.6566 32.5948 64.7736 32.1095 64.8978 31.6378C65.0304 31.2038 65.1474 30.7059 65.2624 30.1771C65.3844 29.6507 65.5335 29.1025 65.6851 28.558C65.9399 27.5446 66.42 26.604 67.0887 25.8085C67.1525 25.7403 67.2376 25.6717 67.3218 25.6036C67.4897 25.4681 67.6545 25.335 67.643 25.2125C67.4447 23.6634 68.191 21.7305 69.4187 20.1169C70.5333 18.5963 72.0466 17.4249 73.7858 16.7363C74.306 16.5427 75.6356 16.771 74.9125 18.453C74.3466 19.8053 73.3672 21.0086 72.4222 22.1697C72.1867 22.4591 71.9533 22.7458 71.729 23.0316C71.3751 23.5953 71.2929 24.2919 71.5057 24.9244C71.7035 25.5707 71.6633 26.268 71.3925 26.8864C70.5956 28.3395 70.0891 29.9381 69.902 31.5904L69.937 31.5421L69.937 31.5421C69.9774 31.4861 70.0177 31.4302 70.0581 31.3789C70.304 31.0449 70.6218 30.7724 70.9872 30.5821L71.1928 30.5029L71.4742 30.3464L71.5448 30.3068C71.7236 30.2065 71.9195 30.0966 72.1534 29.9793C72.4797 29.811 72.8232 29.6793 73.1776 29.5864C73.7074 29.4479 74.2634 29.4491 74.7927 29.5897C75.0729 29.6702 75.3404 29.7906 75.5874 29.9473C76.2953 30.4021 76.7676 31.1528 76.8762 31.9962C76.9505 32.6051 76.8943 33.223 76.7116 33.8078C76.6766 33.9314 76.6356 34.0531 76.5927 34.1748L76.4725 34.4797L76.2945 34.9338L75.9399 35.8637L75.5753 36.811L75.3841 37.2856C75.3328 37.4182 75.2291 37.653 75.1119 37.8826C74.2979 39.6471 73.2149 41.2703 71.9028 42.6922C71.5555 43.0619 71.1583 43.3796 70.7229 43.6357C70.4903 44.6343 70.3173 45.6462 70.2047 46.6659L70.2329 46.6229C70.2651 46.5739 70.2972 46.525 70.3289 46.4809C70.5007 46.2511 70.6918 46.0369 70.9002 45.8408C71.1401 45.6205 71.4028 45.4274 71.6838 45.2648C72.2201 44.9563 72.8181 44.7746 73.4331 44.7332C73.6672 44.7222 73.9019 44.7301 74.1348 44.7567C74.3039 44.7829 74.4709 44.8215 74.6345 44.8723C75.1988 45.0596 75.7214 45.3576 76.1725 45.7494C76.424 45.9489 76.6521 46.1771 76.8523 46.4294L76.9935 46.6114L77.0422 46.7108C77.0532 46.7346 77.0651 46.758 77.077 46.7813C77.098 46.8223 77.1188 46.8632 77.1343 46.9056ZM73.0857 50.6552L73.0854 50.6545L73.0364 50.7174C72.944 50.8357 72.8445 50.9633 73.0857 50.6552ZM72.9199 50.5624C72.9799 50.5778 73.0355 50.6075 73.082 50.6491L73.0844 50.6541L73.0296 50.7241L73.0279 50.7218L72.9724 50.6501L72.9561 50.6284C72.9241 50.5862 72.8879 50.5384 72.9199 50.5624ZM68.2992 35.1837C68.2603 35.2601 68.2314 35.3413 68.2131 35.4253C68.1914 35.5418 68.1946 35.6617 68.2225 35.7769C68.2283 35.7613 68.233 35.7453 68.2364 35.7289C68.2388 35.5455 68.2599 35.3628 68.2992 35.1837Z" fill="white"/>
<path id="Shape_3" fill-rule="evenodd" clip-rule="evenodd" d="M74.1369 8.70499C75.0316 9.07904 75.7881 9.72904 76.2994 10.5632C76.7514 11.2591 76.9287 12.1023 76.7961 12.925C76.6985 13.2646 76.4448 13.535 76.1155 13.6505C75.688 13.7745 75.2282 13.6938 74.8665 13.4312C74.4619 13.2002 74.0715 12.9446 73.6973 12.6657C73.3079 12.368 72.8848 12.1184 72.4372 11.9223C72.0805 11.7847 71.7376 12.2102 71.533 12.6563C71.4841 12.7538 71.4403 12.8517 71.3981 12.9458C71.2457 13.2862 71.1159 13.5758 70.8545 13.61C69.7665 13.7696 68.9192 14.8283 68.3019 15.8924C68.4666 15.813 68.6371 15.7466 68.8118 15.6937C69.0076 15.6407 69.2079 15.6062 69.41 15.5907C69.6302 15.5814 69.8509 15.595 70.0684 15.6313C70.4565 15.7059 70.8263 15.8579 71.1562 16.0785C71.2843 16.1681 71.4081 16.2638 71.522 16.3608C71.6125 16.4465 71.6991 16.5336 71.781 16.6206C71.9174 16.7712 72.0441 16.9303 72.1606 17.0972C72.4341 17.515 72.6348 17.9775 72.7539 18.4645C72.8118 18.5547 72.8623 18.7035 72.9074 18.8364C72.939 18.9297 72.968 19.0151 72.995 19.0668C73.0659 19.2978 73.1088 19.5367 73.1227 19.7783C73.1473 20.4107 73.0304 21.0405 72.7808 21.6204C72.2413 22.9139 71.0707 24.0491 70.5195 24.2054C69.9317 24.3632 69.3718 24.6136 68.8604 24.9475C68.5963 25.1377 68.3539 25.3572 68.1377 25.6019L67.7682 25.9489L67.4425 26.2239C67.3896 26.8718 67.4281 27.524 67.557 28.1607C67.7847 29.0744 67.7716 30.0328 67.5188 30.9397C67.4136 31.2244 67.2473 31.4818 67.032 31.6932C66.5246 32.2564 66.7858 32.7096 67.0454 33.1599C67.3044 33.6092 67.5617 34.0557 67.0525 34.6058C66.7483 34.9428 66.7267 35.2998 66.7052 35.6557C66.685 35.9891 66.6649 36.3215 66.4127 36.6353C65.769 37.3775 65.0743 38.0723 64.3338 38.7146C63.7597 38.932 63.1462 39.021 62.5351 38.9757C61.6399 39.0214 61.5972 39.0113 61.7346 38.3978C61.8146 38.0482 61.6272 37.4852 61.4284 36.8878C61.1515 36.0557 60.8523 35.1568 61.2228 34.6751C61.6184 34.2836 61.8239 33.735 61.7845 33.1755C61.7533 32.9731 61.7407 32.7688 61.728 32.5636C61.6951 32.0314 61.6619 31.4932 61.3028 30.9659C60.8851 30.3351 60.9953 29.1603 61.3287 27.9864C61.4581 27.5275 61.6166 27.0788 61.7704 26.6595C61.2656 25.8036 61.1622 24.7639 61.4881 23.8228C61.5079 23.7523 61.4691 23.5235 61.4137 23.1974C61.3402 22.7647 61.2376 22.1606 61.2043 21.5273C61.1699 21.0749 61.1668 20.606 61.1641 20.1974C61.1602 19.6126 61.1571 19.1511 61.0644 19.0374C60.7113 18.557 60.6548 17.9157 60.9184 17.3793C61.1255 17.1173 61.3773 16.8951 61.6617 16.7232C61.9012 16.5631 62.0952 16.342 62.2245 16.0821C62.8268 14.6471 63.7039 13.348 64.8049 12.2603C65.3703 11.6655 65.9653 11.1006 66.5877 10.5677C67.2187 10.0061 68.0204 9.68139 68.8588 9.64773C68.9387 9.65145 69.0313 9.6713 69.1221 9.6908C69.2999 9.72894 69.4713 9.76573 69.5299 9.6779C69.9699 9.05265 70.6247 8.61763 71.3652 8.45876C71.8037 8.34925 72.2568 8.31291 72.7068 8.35117C73.1993 8.3894 73.6823 8.50891 74.1369 8.70499ZM66.7515 17.239C66.9481 16.9834 67.1639 16.7436 67.3969 16.5218L67.4204 16.5018C67.3749 16.5193 67.3292 16.5368 67.2831 16.5544C67.1934 16.5887 67.1025 16.6234 67.0104 16.6597C66.5806 16.7902 66.2012 17.0528 65.9245 17.4113C65.7813 17.6586 65.6815 17.9293 65.6296 18.2112C65.6255 18.2359 65.6225 18.261 65.6194 18.2862C65.6172 18.3051 65.6149 18.324 65.6122 18.3427C65.8236 18.2529 66.0216 18.1336 66.2005 17.9881C66.2279 17.9601 66.2786 17.8884 66.3546 17.7808C66.4476 17.6492 66.5786 17.4639 66.7515 17.239Z" fill="#FFC2C2"/>
</g>
<g id="Group_3">
<path id="Shape_4" fill-rule="evenodd" clip-rule="evenodd" d="M59.8096 101.072C60.1237 101.744 60.4466 102.434 60.2589 103.345C60.1853 103.692 60.2189 104.05 60.2537 104.421C60.2962 104.874 60.3405 105.345 60.1946 105.84C59.9061 106.854 59.7629 107.904 59.7693 108.958C59.7401 109.614 59.5724 110.257 59.2774 110.844C58.9691 111.48 58.7243 112.146 58.5466 112.831C58.2154 114.296 56.944 115.371 55.6269 116.031C54.4689 116.617 53.2108 116.98 51.9182 117.102C51.3144 117.178 50.7373 117.227 50.1722 117.275C49.6442 117.32 49.1265 117.364 48.6071 117.428C47.5894 117.551 46.5572 117.459 45.5769 117.16C44.6961 116.873 43.8642 116.454 43.1097 115.917C42.0112 115.166 40.8167 114.564 39.5581 114.129C39.4048 114.073 39.2497 114.019 39.0944 113.966C38.8148 113.869 38.5345 113.772 38.2622 113.657C37.8399 113.476 37.4203 113.287 37.0117 113.078C36.1819 112.684 35.4259 112.151 34.7767 111.502C34.4066 111.183 33.9617 110.962 33.4835 110.861C32.3125 110.441 31.1921 109.893 30.1427 109.226C29.0723 108.578 28.1296 107.74 27.3609 106.754C26.8044 106.145 26.1441 105.638 25.4104 105.259C24.9032 104.949 24.3752 104.676 23.8439 104.403C23.6446 104.3 23.4449 104.197 23.2457 104.092C22.7953 103.387 22.183 102.803 21.5719 102.22C20.8653 101.546 20.1603 100.873 19.7086 100.018C19.5738 99.729 19.3366 99.4994 19.0424 99.3739C18.5877 99.2151 18.169 98.9678 17.8107 98.6464C17.4099 98.2045 16.9692 97.7982 16.5277 97.3913C16.1167 97.0125 15.7051 96.6331 15.3244 96.2238C14.9173 95.8129 14.535 95.3782 14.1797 94.922C13.8133 94.4666 13.5187 93.9581 13.306 93.414C13.0945 93.2153 12.879 93.0194 12.6631 92.8232C12.1601 92.3661 11.6549 91.9069 11.1923 91.4045C10.8048 90.9757 10.4591 90.5092 10.1131 90.0425C9.96109 89.8374 9.80903 89.6323 9.65337 89.4302C9.30121 88.9476 8.91916 88.4876 8.54044 88.0317C8.38978 87.8503 8.23965 87.6696 8.09214 87.4883C7.46853 86.7415 6.92462 85.9319 6.46922 85.0726C6.23042 84.6253 5.99614 84.1751 5.76175 83.7247C5.3782 82.9876 4.99434 82.2499 4.58984 81.5233C4.13504 80.651 3.71388 79.7598 3.29293 78.869C3.14064 78.5468 2.98838 78.2246 2.83456 77.9034C2.4731 77.0892 2.1435 76.2606 1.81391 75.4319C1.64776 75.0142 1.4816 74.5965 1.31137 74.1806C0.762288 72.8263 0.353306 71.4195 0.0907961 69.9822C-0.0604434 68.9527 -0.0224946 67.9044 0.202784 66.8886C0.271237 66.5614 0.354495 66.2341 0.437728 65.9069C0.576758 65.3604 0.71572 64.8141 0.7855 64.2689C0.860277 63.7985 0.989709 63.3384 1.17118 62.8979C1.36913 62.4495 1.62112 62.0269 1.92159 61.6393C2.07375 61.4455 2.23175 61.2551 2.3956 61.0682C2.56871 60.8978 2.74965 60.7338 2.9333 60.5711C3.29897 60.2536 3.6903 59.9668 4.10329 59.7136C5.23078 59.0372 6.46884 58.5642 7.76075 58.3164C8.98915 58.0713 10.2473 58.0103 11.4937 58.1354C12.7569 58.2597 13.9949 58.5683 15.1683 59.0514C15.2379 59.0826 15.3089 59.114 15.3802 59.1455C15.6098 59.2469 15.8435 59.3502 16.0499 59.4576L16.8359 59.887C17.3416 60.1954 17.8404 60.5149 18.3061 60.8643C19.1105 61.4575 19.6776 62.1935 20.238 62.9208C20.5946 63.3836 20.9484 63.8429 21.3591 64.2597C22.2632 65.0974 22.9115 66.1731 23.2293 67.3627C23.96 68.4985 24.6111 69.6252 25.2437 70.7198C25.377 70.9506 25.5095 71.1799 25.6418 71.4075L26.7531 73.333C26.7523 73.1797 26.7509 73.0263 26.7496 72.873C26.7424 72.0476 26.7352 71.2225 26.8077 70.3998C26.85 69.5848 26.9375 68.7728 27.0697 67.9674C27.09 67.8412 27.1362 67.7133 27.1818 67.5871C27.2493 67.4004 27.3154 67.2175 27.2937 67.0496C26.9718 64.4496 27.4685 61.8609 27.9616 59.291C28.0917 58.6134 28.2214 57.9371 28.3359 57.2623C28.5087 56.3008 28.6122 55.3282 28.6456 54.3519C28.6663 53.5269 28.8203 52.7107 29.1017 51.9347C29.2378 51.5437 29.4166 51.1688 29.6348 50.8167C29.8708 50.4594 30.145 50.1288 30.4526 49.8306C30.6967 49.5989 30.9042 49.3254 31.1119 49.0514C31.3 48.8035 31.4883 48.5552 31.7044 48.3371C32.0605 47.9987 32.2984 47.5552 32.3833 47.0718C32.6075 45.9342 32.9897 44.8333 33.5189 43.8011L33.8925 43.0099C34.0421 42.7251 34.1978 42.4415 34.3635 42.1603C34.7063 41.5805 35.0786 41.0188 35.4791 40.4771C35.8003 40.0393 36.1821 39.6491 36.6132 39.3182C37.0952 38.9538 37.6393 38.6794 38.2193 38.5083C39.2748 38.1582 40.437 38.3863 41.281 39.1094C41.5748 39.3535 42 39.358 42.2989 39.1201C42.6143 38.906 43.0093 38.8442 43.3753 38.9519C43.8493 39.0846 44.2785 39.3427 44.6175 39.699C44.9695 40.0609 45.2808 40.4602 45.5457 40.8898C45.7237 41.171 45.8652 41.4422 46.007 41.7139C46.0635 41.8224 46.1202 41.9309 46.1791 42.0402C46.3952 42.4652 46.5628 42.9069 46.7294 43.346C46.8023 43.5379 46.8749 43.7294 46.9514 43.9187C47.2532 44.7074 47.785 45.3876 48.4781 45.8716C49.1958 46.343 49.6331 47.1383 49.6463 47.9956C49.6418 49.4941 50.1403 50.951 51.0625 52.1337C51.9722 53.3264 52.3859 54.8234 52.2175 56.3129C52.0768 57.6081 52.4297 58.9087 53.2061 59.9561C53.7458 60.7662 53.9534 61.7522 53.7863 62.7106C53.7755 62.8109 53.7599 62.9175 53.744 63.0263C53.6863 63.4216 53.6243 63.8457 53.7736 64.0997C53.7979 64.1413 53.8222 64.1822 53.8461 64.2226C54.2503 64.9058 54.5563 65.4229 53.5653 65.7794C53.4024 65.8386 53.2682 65.9897 53.1342 66.1406C53.0729 66.2097 53.0115 66.2787 52.9475 66.3388C53.0314 66.3672 53.1149 66.3973 53.1983 66.4274C53.3753 66.4912 53.552 66.555 53.7321 66.6015C53.8313 66.6267 53.9364 66.6366 54.0409 66.6465C54.2227 66.6637 54.4024 66.6807 54.5454 66.7778C54.7969 66.9532 54.9729 67.2168 55.0382 67.5161C55.0292 68.3022 55.0599 69.0882 55.1301 69.8712C55.2186 70.2902 55.4035 70.6862 55.5893 71.084C55.7434 71.414 55.8981 71.7452 55.9989 72.092C56.2378 72.6878 56.3125 73.3366 56.2153 73.9709C55.985 74.6735 56.1975 75.2745 56.4091 75.873C56.5635 76.3096 56.7174 76.7448 56.6986 77.2171C56.6895 78.1796 56.7646 79.141 56.923 80.0904C57.0167 81.2096 57.3885 82.2878 58.0048 83.2276C58.3167 83.7953 58.4536 84.4422 58.3984 85.0873C58.493 85.7038 58.1544 86.3052 57.5776 86.5453C57.3683 86.6314 57.1531 86.7002 56.9377 86.769C56.7522 86.8283 56.5666 86.8876 56.3846 86.958C56.2515 87.0114 56.1416 87.1102 56.0745 87.2367C55.9725 87.4569 56.1415 87.6534 56.5108 87.6679C56.8065 87.6791 57.1017 87.671 57.3969 87.663C57.661 87.6558 57.9253 87.6486 58.1899 87.6552C58.6521 87.7516 58.9684 88.1786 58.9252 88.6479C58.4094 90.2386 58.7267 91.8175 59.0436 93.392C59.1185 93.7538 59.2418 94.1054 59.3649 94.4567C59.5071 94.8623 59.6492 95.2675 59.7165 95.6874C59.7204 96.324 59.692 96.9604 59.6315 97.5941C59.6392 97.7484 59.7215 97.907 59.8038 98.0657C59.9499 98.3472 60.0962 98.6289 59.8257 98.8871C59.2933 99.3941 59.2744 99.7962 59.5652 100.522C59.639 100.707 59.724 100.889 59.8096 101.072ZM53.4979 108.495C53.1883 107.891 53.5096 107.416 54.0407 107.094C54.896 106.585 55.0858 105.741 54.9254 104.787C54.8799 104.517 54.8163 104.252 54.7527 103.988C54.5767 103.256 54.4016 102.528 54.6168 101.7C54.678 101.468 54.5403 101.179 54.4003 100.884C54.3263 100.729 54.2517 100.572 54.2054 100.422C54.046 99.9928 53.9325 99.5485 53.8669 99.0959C53.8315 98.6888 53.9312 98.2919 54.0312 97.8937C54.1604 97.3795 54.29 96.8632 54.13 96.3204C53.9922 95.8555 53.8104 95.407 53.6286 94.9586C53.4612 94.5456 53.2938 94.1326 53.1608 93.7069C53.0048 93.0915 52.8994 92.4644 52.8456 91.8319C52.8164 91.607 52.7824 91.3818 52.7484 91.1567C52.5694 89.9717 52.3906 88.7871 52.9045 87.6358C52.8843 87.4871 52.8744 87.3348 52.8644 87.1823C52.8329 86.7004 52.8013 86.2171 52.4478 85.8426C51.88 85.2823 51.6811 84.4484 51.9351 83.6928C51.9394 83.6775 51.944 83.6616 51.9487 83.6452C51.9898 83.5033 52.0403 83.3289 51.9899 83.2323C51.5484 82.3816 51.1668 81.5356 51.4904 80.54C51.2485 79.8016 51.1611 79.0214 51.2336 78.2479C51.2679 77.888 51.105 77.564 50.9395 77.2347C50.7502 76.8581 50.5574 76.4745 50.6519 76.0223C50.7568 75.3996 50.6078 74.7608 50.2382 74.2483C49.9296 73.6945 49.8012 73.0587 49.8706 72.4288C49.9416 71.9671 49.9035 71.4952 49.7595 71.0508C48.6978 68.929 48.22 66.5638 48.3752 64.1973C48.4714 63.2413 48.2544 62.2799 47.7568 61.4574C47.3039 60.7775 47.5198 60.3953 47.9049 59.9124C48.1022 59.6664 47.8976 59.4806 47.5502 59.2998C46.5656 58.7819 46.4428 58.4637 46.894 57.6276C46.9345 57.5513 46.9817 57.4798 47.028 57.4095C47.2081 57.1362 47.3759 56.8815 47.096 56.4405C46.5345 55.7057 46.2717 54.7864 46.3602 53.8666C46.4396 53.4244 46.3469 52.9686 46.101 52.5924C45.5972 52.0518 45.3186 51.34 45.3219 50.6018C45.3026 49.5462 44.7657 48.5672 43.8852 47.982C43.5216 47.7521 43.2134 47.445 42.9825 47.0825C42.828 46.8774 42.6983 46.6513 42.5689 46.4258C42.4862 46.2818 42.4038 46.1381 42.3151 46.0003C42.1729 45.7661 42.0506 45.5205 41.9497 45.2658C41.9052 45.1724 41.8617 45.0778 41.8182 44.983C41.747 44.8281 41.6756 44.6725 41.5985 44.5198C41.3529 44.023 41.0495 43.6525 40.6624 43.6589C40.6396 43.7092 40.6318 43.6655 40.6543 43.6185C40.7713 43.2983 40.5691 43.0315 40.3645 43.062C40.253 43.0843 40.1655 43.1708 40.1421 43.2819C40.1293 43.3158 40.1299 43.3425 40.1307 43.3736C40.1315 43.4086 40.1325 43.4494 40.1145 43.5127C40.0747 43.641 40.0461 43.7725 40.0291 43.9057C39.9444 44.1962 39.7285 44.4306 39.4456 44.5393C38.9315 44.7665 38.4996 45.1454 38.2079 45.6249C37.8643 46.2113 37.6684 46.8721 37.6373 47.5506C37.6059 47.8487 37.476 48.1278 37.268 48.344C35.7652 49.7242 35.166 51.6703 34.5894 53.5432C34.5481 53.6774 34.5069 53.8111 34.4655 53.9443C34.32 54.3798 34.1807 54.8153 34.0417 55.2499C33.6732 56.4019 33.3069 57.5474 32.8321 58.668C32.6262 59.0643 32.5229 59.5058 32.5314 59.9521C32.5602 60.2569 32.5637 60.5635 32.5418 60.8688C32.5326 61.1667 32.4966 61.4632 32.434 61.7546C32.3013 62.3482 32.0756 62.9172 31.7652 63.4406C31.4064 64.1194 31.3078 64.9055 31.4881 65.6516C31.6379 66.238 31.6907 66.8448 31.6445 67.4482C31.5724 68.0489 31.4098 68.6353 31.1621 69.1875C30.9267 69.7479 30.7987 70.3474 30.7847 70.955C30.7679 71.7176 30.7232 72.4797 30.6706 73.2439C30.6481 73.6256 30.6327 74.0075 30.6429 74.3874C30.6683 74.768 30.7298 75.1453 30.8267 75.5143C31.0108 76.2599 31.0332 77.0134 31.0555 77.765C31.0782 78.5313 31.1009 79.2957 31.2948 80.048C31.3849 80.3394 31.5179 80.6168 31.6502 80.8929C31.9118 81.4391 32.1711 81.9802 32.0926 82.6142C32.1034 83.5139 32.3114 84.4004 32.702 85.2114C32.9497 85.8 32.8229 86.398 32.6969 86.9918C32.665 87.1424 32.6331 87.2927 32.6074 87.4425C32.4666 88.2432 30.877 88.9849 30.1619 88.5545C30.1168 88.5279 30.1258 88.2794 30.1658 88.1636C30.2287 88.0307 30.3088 87.9066 30.4042 87.7946C30.6408 87.4387 30.5449 87.0775 30.203 87.1357C28.7593 87.3866 28.0861 86.4506 27.793 84.9579C27.533 84.1707 27.4432 83.3375 27.5297 82.5132C27.6717 81.8716 27.5323 81.2001 27.1466 80.6676C27.1381 80.6546 27.1313 80.6405 27.1245 80.6265C27.1183 80.6139 27.1122 80.6013 27.1049 80.5894C26.0163 79.9808 25.0146 79.229 24.1266 78.3542C23.3992 77.5077 22.7536 76.5944 22.1985 75.6266C21.5177 74.5406 21.0095 73.3559 20.692 72.1147C20.6449 71.8596 20.4584 71.6719 20.2689 71.4813C20.0263 71.2372 19.7788 70.9882 19.8127 70.5865C19.8633 70.141 19.8866 69.6929 19.8827 69.2446C19.8636 68.6558 19.4502 68.2682 18.6506 68.189C18.5823 68.1815 18.5143 68.1774 18.4478 68.1733C18.096 68.1519 17.7839 68.1328 17.6608 67.6364C17.5489 67.0535 17.1526 66.5649 16.6047 66.3342C16.3617 66.2365 16.1293 66.1145 15.899 65.9936C15.6308 65.8528 15.3653 65.7135 15.089 65.6156C14.6292 65.3791 14.2401 65.0257 13.9611 64.5909C13.792 64.3933 13.5903 64.2258 13.3648 64.0958C13.1225 63.9782 12.8444 63.9576 12.5873 64.0382C12.1825 64.1392 11.7586 64.1359 11.3554 64.0287C10.9408 63.9203 10.5167 63.8517 10.0891 63.8237C9.15835 63.7968 8.23105 63.9473 7.35683 64.267C7.13742 64.3184 6.91098 64.333 6.68677 64.3103C6.56812 64.3113 6.45027 64.3298 6.337 64.3651C6.24151 64.4084 6.15412 64.4677 6.07855 64.5403C5.92234 64.6899 5.8185 64.8858 5.78235 65.0989C5.62635 65.8547 5.7149 66.6405 6.03524 67.3429C6.17144 67.645 5.98195 67.7715 5.39667 67.7632C4.86695 67.7374 4.61534 68.05 4.87293 68.4606C5.20592 69.0363 5.62064 69.561 6.1042 70.0181C6.48452 70.3305 6.75889 70.7524 6.8898 71.2263C7.01368 71.7237 7.05355 72.2382 7.00777 72.7486C6.98215 73.2031 7.00815 73.659 7.08527 74.1076C7.12714 74.3629 7.35056 74.4437 7.59836 74.5334C7.63896 74.5481 7.68021 74.563 7.72142 74.579C8.31725 74.8101 8.46655 75.0255 8.34118 75.5047C8.06037 76.5421 8.20381 77.6483 8.73996 78.5802C9.20415 79.5582 9.85328 80.4374 10.6517 81.1697C11.0178 81.4303 11.2114 81.8702 11.1558 82.3156C11.1335 82.5551 11.1095 82.7953 11.0855 83.0364C11.036 83.532 10.9861 84.0315 10.95 84.5378C10.9312 84.8586 11.1012 85.161 11.3853 85.3123C11.8844 85.6567 12.4033 86.0122 12.935 86.3206C13.6129 86.7136 13.4794 87.1877 13.3321 87.7113C13.3217 87.7482 13.3112 87.7854 13.301 87.8229C13.2148 88.1328 13.448 88.272 13.8361 88.2258C14.2488 88.1469 14.6697 88.1202 15.0891 88.1465C16.015 88.2828 16.7736 88.9505 17.0248 89.8502C17.1439 90.2865 17.2201 90.7333 17.2525 91.1843C17.3001 91.9537 17.623 92.6805 18.1622 93.2324C18.8835 94.043 19.6761 94.7838 20.4677 95.5235C20.9339 95.9593 21.3998 96.3947 21.8506 96.8439C21.9464 96.929 22.0431 97.0136 22.1398 97.0983C22.8651 97.733 23.5941 98.3711 23.9995 99.272C24.2143 99.7779 24.5669 100.214 25.0172 100.53C25.4617 100.839 25.9651 101.055 26.4962 101.163L27.8131 101.475C28.2603 101.56 28.7148 101.601 29.1701 101.598C30.4142 101.572 30.4267 101.62 30.7992 103.057L30.8111 103.103C30.9008 103.459 31.0692 103.557 31.4547 103.434C31.7175 103.353 32.2073 103.228 32.2455 103.293C32.5504 103.787 32.978 104.198 33.4081 104.611C33.9703 105.151 34.5367 105.696 34.8384 106.433C35.1337 107.19 35.7472 107.02 36.2794 106.702C36.5541 106.539 36.8145 106.646 37.0215 106.972C37.1883 107.243 37.5076 107.379 37.8185 107.312C38.5075 107.315 39.1881 107.462 39.8171 107.742C40.4372 108.035 41.1147 108.186 41.8005 108.185C42.4035 108.631 43.0364 109.035 43.6947 109.394C44.0037 109.549 44.3226 109.675 44.6397 109.801C44.8839 109.897 45.1271 109.993 45.3639 110.102C45.9275 110.347 46.4409 110.693 46.8783 111.124C47.2523 111.36 47.7094 111.425 48.1345 111.302C48.4465 111.223 48.6815 111.364 48.908 111.5C49.1344 111.635 49.3524 111.766 49.6303 111.667C50.0841 111.487 50.3242 111.746 50.57 112.012C50.6599 112.108 50.7505 112.206 50.8526 112.284C51.1453 112.521 51.469 112.694 51.7844 112.401C52.0191 112.158 52.2478 112.058 52.4488 111.971C52.5987 111.906 52.7332 111.847 52.8434 111.741C52.9168 111.66 53.0247 111.629 53.1413 111.596C53.2146 111.575 53.2913 111.553 53.365 111.517C53.5885 111.443 53.7243 111.218 53.6839 110.986C53.6418 110.602 53.6518 110.213 53.7136 109.832C53.7723 109.375 53.6974 108.911 53.4979 108.495Z" fill="#FFC2C2"/>
<path id="Shape_5" d="M50.9489 101.678C50.6853 100.861 50.19 100.137 49.523 99.5945C49.1234 99.2555 48.6474 99.0183 48.1357 98.9032C47.4853 98.806 47.3667 99.0672 47.184 99.482C46.5016 100.053 46.8735 100.685 47.2219 101.345C47.6125 101.633 47.8501 102.082 47.867 102.566C47.8647 102.915 47.7492 103.253 47.5378 103.53C47.265 103.977 46.772 104.243 46.2478 104.225C46.1862 104.213 46.1294 104.184 46.084 104.14C46.0015 103.93 46.0699 104.104 46.0456 104.043L46.0332 104.041C45.9072 104.027 45.798 104.016 45.6709 103.994C45.3094 103.928 45.0049 103.686 44.86 103.349C44.5308 102.6 43.9091 102.458 43.0286 102.124C42.1968 101.84 41.3407 101.513 40.8755 100.509C40.8529 100.459 40.82 100.411 40.7955 100.362C40.7373 100.129 40.662 99.9003 40.5699 99.6785C40.3109 99.0563 39.9461 98.4834 39.4917 97.9851C39.2243 97.712 38.9554 97.4374 38.685 97.1613C36.5251 94.92 34.3333 92.4518 33.8775 89.8501C33.7748 89.2476 32.8912 88.1074 31.8733 87.0584C31.0769 86.1869 30.1572 85.4362 29.1434 84.8299C29.0979 84.8115 28.7832 84.4785 28.3008 83.9877C28.0458 83.7435 27.7501 83.4605 27.4331 83.1569C27.2563 83.0067 27.0735 82.8514 26.8874 82.6934C26.6944 82.521 26.4894 82.3624 26.2741 82.2187C26.0429 82.0613 25.8309 81.905 25.5814 81.7542C25.2932 81.6049 25.0022 81.4647 24.7173 81.3369L24.6109 81.2895C24.5572 81.2691 24.4673 81.2415 24.3966 81.221C24.2195 81.1694 24.0377 81.1355 23.8539 81.1198C23.7323 81.1095 23.6101 81.1084 23.4883 81.1165C23.3485 81.1226 23.2097 81.1426 23.074 81.1763C22.3386 81.345 21.7258 81.8495 21.42 82.5379C20.2584 81.3023 19.2122 79.9635 18.2945 78.538C17.2429 76.8564 15.2013 77.1497 14.3711 75.5228C13.8513 74.4783 13.345 73.3667 12.8808 72.2874C12.4145 71.205 11.966 70.1667 11.4797 69.1824C11.3209 68.8134 11.0932 68.4779 10.8088 68.1938C10.6454 68.0333 10.4143 67.9614 10.1885 68.0008C9.79841 68.1442 9.50697 68.474 9.41326 68.8781C9.16911 69.9983 9.14569 71.1552 9.34431 72.2844C9.56627 73.5804 9.97872 74.8367 10.5683 76.0125C11.751 78.3819 13.4342 80.2289 15.0454 81.073C15.2429 81.1749 15.2873 81.6828 15.3987 82.0061C16.1165 84.0723 18.5907 86.4559 19.9511 88.2254C21.4097 90.1405 23.1694 92.085 24.8052 93.8727C25.4586 94.5882 25.5724 95.4313 25.9351 96.2221C26.3638 96.7834 26.9919 97.1593 27.69 97.2722C28.0087 97.297 29.2213 98.437 30.4946 99.5362C31.0765 100.053 31.6821 100.538 32.1776 100.931C32.213 100.97 32.2473 101.01 32.2829 101.049C32.6613 101.467 33.0504 101.869 33.4394 102.243C33.7243 102.722 34.0841 103.153 34.5052 103.518C34.8093 103.778 35.136 104.01 35.4815 104.211C35.6831 104.337 35.8948 104.445 36.1143 104.536C36.5129 104.701 36.9366 104.798 37.3675 104.821C37.4446 104.825 37.533 104.819 37.6166 104.817C38.222 105.206 38.7902 105.653 39.4029 106.039C39.7959 106.279 40.1454 106.583 40.4367 106.939C40.7212 107.28 41.0247 107.691 41.3605 108.127C41.8482 108.64 42.4671 109.011 43.1506 109.2C43.7034 109.383 44.2766 109.497 44.8572 109.54C45.6057 109.595 46.3579 109.521 47.0814 109.322C47.2755 109.272 47.4662 109.209 47.6523 109.135L47.9316 109.024C48.0153 108.991 48.1807 108.908 48.2986 108.847C48.792 108.594 49.2422 108.265 49.6321 107.871C50.2453 107.24 50.7007 106.473 50.9617 105.632C51.3714 104.345 51.367 102.963 50.9489 101.678Z" fill="white"/>
<path id="Path_4" d="M54.6677 103.853C54.5269 103.494 54.3 103.174 54.007 102.923C53.7518 102.555 53.5435 102.157 53.3869 101.738C53.1048 101.129 52.7393 100.39 52.3689 99.6888C51.8208 98.7616 51.3429 97.7949 50.9391 96.7966C51.0303 95.9453 50.9218 95.0844 50.6224 94.282C50.7469 93.9554 50.8533 93.6223 50.9411 93.2841C51.0204 93.0037 51.0387 92.7097 50.9947 92.4217C50.9731 92.0901 50.9261 91.7606 50.8541 91.4362C50.5987 90.6404 50.1854 89.9041 49.6388 89.2711C49.5008 88.7341 49.3978 88.1887 49.3304 87.6385C49.296 87.4585 49.2522 87.2577 49.1938 87.0287C49.1323 86.814 49.0536 86.5829 48.9559 86.3163C48.858 86.051 48.7397 85.7549 48.597 85.4244C48.5256 85.2656 48.4501 85.0977 48.3704 84.9208C48.3078 84.8033 48.2416 84.6793 48.172 84.5487C47.6557 83.5846 47.0769 81.8357 46.3039 80.1486C45.5442 78.4675 44.5302 76.8377 43.4923 76.2237C43.1945 76.0471 42.9126 75.8452 42.6497 75.6201C42.3654 75.3953 42.1007 75.1544 41.8417 74.9048C41.5261 74.6421 41.2591 74.3846 40.9062 74.1112C40.7083 73.9697 40.5067 73.8316 40.302 73.6995L40.148 73.6015L40.0599 73.5483L39.8412 73.4381C39.3039 73.1764 38.7047 73.0674 38.1093 73.123C37.6504 73.1634 37.2065 73.307 36.8111 73.543C36.6092 73.6613 36.4222 73.8031 36.2539 73.9655C36.1028 74.1078 35.967 74.2654 35.8485 74.4357C35.7521 74.575 35.666 74.7212 35.591 74.873C35.5372 74.9837 35.4901 75.0975 35.4498 75.2138C35.4133 75.3159 35.3735 75.447 35.3544 75.5277L35.3057 75.7589C35.2819 75.8875 35.2651 76.0172 35.2554 76.1476C35.2453 76.2676 35.2417 76.3693 35.2412 76.4463C35.238 76.6336 35.245 76.7643 35.2484 76.8755C35.2614 77.2493 35.2882 77.5861 35.3231 77.9337C35.3896 78.6381 35.4987 79.338 35.6498 80.0293C35.8899 80.8639 36.4 81.5956 37.1006 82.1104C37.2022 82.1877 37.3057 82.2665 37.4112 82.3466L37.6353 82.5013C37.7783 82.5984 37.9288 82.6933 38.0848 82.7858C38.3953 82.9732 38.7278 83.15 39.0657 83.3193C39.1438 83.3586 39.223 83.3948 39.3017 83.4327C38.7779 83.4647 38.2624 83.5783 37.7739 83.7694C37.298 83.9756 36.8778 84.2915 36.5478 84.691C36.3077 84.9779 36.1075 85.2957 35.9524 85.6359L35.8434 85.9057L35.7927 86.0456L35.7657 86.1338C35.7291 86.2513 35.6981 86.3715 35.6727 86.4945C35.4776 87.6302 35.6823 88.7983 36.252 89.8005C36.8115 90.8019 37.4917 91.7311 38.2774 92.5675C38.7152 93.0608 39.2217 93.4888 39.7814 93.8384C39.827 93.865 40.2611 94.3315 40.9002 94.9386C41.6019 95.6141 42.3797 96.2061 43.2181 96.7027C43.928 97.1393 44.7016 97.4633 45.5111 97.6628L45.5182 97.6643C45.9375 98.5998 46.4049 99.513 46.9188 100.4C47.5732 101.087 48.1985 101.768 48.7164 102.413C48.9188 102.809 49.1294 103.221 49.3437 103.64C49.4426 103.838 49.5386 104.034 49.6221 104.226C49.6637 104.321 49.7087 104.419 49.7422 104.512C49.7735 104.552 49.8026 104.594 49.8294 104.637C50.0467 104.972 50.2076 105.615 49.8753 105.947C49.8361 105.984 49.7915 106.016 49.7431 106.041C49.3563 106.139 48.9473 106.008 48.69 105.704C48.6396 105.654 48.5762 105.62 48.5071 105.606L48.2355 105.506L47.6967 105.308C47.3424 105.179 46.9802 105.072 46.6123 104.988C43.9711 105.003 41.3823 104.253 39.1597 102.829C38.4747 102.44 37.6867 102.27 36.9019 102.342C36.1224 102.42 35.343 102.192 34.7293 101.706C33.0944 100.2 31.3669 98.3709 29.3673 97.3185C27.384 96.2719 27.3218 97.7712 27.5647 98.3513C28.4782 100.348 29.7964 102.134 31.4361 103.597C33.2132 105.22 35.424 106.406 37.2377 106.471C37.4531 106.483 37.703 106.917 37.9433 107.157C38.9076 108.004 40.0489 108.626 41.2844 108.978C42.5512 109.362 43.84 109.67 45.1437 109.9C46.2864 110.134 47.451 110.244 48.6174 110.229C50.1406 110.222 51.7448 110.023 52.7988 109.009C52.9939 108.823 53.1668 108.615 53.3139 108.389C53.6507 107.87 53.9311 107.425 54.2041 106.959C54.4965 106.471 54.7196 105.945 54.8668 105.396C54.907 104.873 54.8392 104.348 54.6677 103.853Z" fill="#292929"/>
</g>
<path id="Path_5" d="M107.687 40.4469C108.095 40.687 108.704 40.8944 108.624 41.7464C108.606 41.9448 108.682 41.9882 108.883 41.9362C109.445 41.7899 109.726 41.9918 109.574 42.5721C109.428 43.0626 109.684 43.1144 110.156 42.9985C110.441 42.9299 110.227 43.3196 110.229 43.5081C110.889 43.2524 111.127 43.4823 111.339 43.737C112.001 44.5178 112.58 45.3652 113.066 46.2656C113.563 47.2146 113.931 48.2259 114.159 49.2724C114.25 49.673 114.278 50.0761 114.351 50.4601C114.398 50.6913 114.132 50.9191 113.957 51.1432C113.533 51.6725 113.576 51.8532 114.161 52.342C114.28 52.4403 114.331 52.5015 114.152 52.6208C113.974 52.7149 113.839 52.8736 113.775 53.0642C113.722 53.4141 113.786 53.7562 113.725 54.0949C113.68 54.3486 113.979 54.5614 114.338 54.7756C114.714 55.0008 114.78 55.2461 114.335 55.4508C113.731 55.7311 113.906 55.9718 114.391 56.2367C114.614 56.3581 114.571 56.5006 114.294 56.6348C113.667 56.9384 113.592 57.2503 114.25 57.56C114.819 57.8271 114.724 58.0947 114.186 58.3513C113.988 58.446 114.046 58.5127 114.117 58.6109C114.28 58.8383 114.151 58.8844 113.644 58.8872C112.988 58.8902 112.3 58.9227 111.685 58.8777C110.725 58.8078 109.853 58.6664 109.688 58.3441C109.596 58.1616 109.607 57.9782 109.249 57.8093C108.595 57.5 108.837 57.2024 109.354 56.8853C109.922 56.5383 109.856 56.2082 109.242 55.8171C108.954 55.6336 108.778 55.4751 109.172 55.2999C109.376 55.2085 109.444 55.1292 109.299 55.0485C109.153 54.9664 108.89 54.8843 108.886 54.8014C108.855 54.0244 108.857 53.2946 108.815 52.6019C109.147 52.4032 109.519 52.1749 108.989 52.0258C109.738 51.66 109.496 51.347 109.431 51.046C109.363 50.7506 109.532 50.3764 108.812 50.2788C108.635 50.2606 109.042 50.0123 108.966 49.9343C108.888 49.8519 108.486 49.8897 108.384 49.8285C108.277 49.7692 108.225 49.6742 108.396 49.5223C108.844 49.1169 108.846 48.8369 108.718 48.6177C108.305 47.9128 107.813 47.2571 107.252 46.6633C106.959 46.3421 106.636 46.0086 106.316 45.6913C106.033 45.4066 105.734 45.1378 105.421 44.8861C105.131 44.6603 104.859 44.6326 104.938 43.7906C104.941 43.739 104.846 43.8464 104.79 43.9149C104.462 44.3165 104.472 44.1384 104.461 43.631C104.259 43.9074 104.211 44.0685 104.115 43.5742C104.041 43.2615 103.908 43.3134 103.776 43.211C103.613 42.8166 103.508 42.4006 103.465 41.976C103.469 41.1655 103.6 40.1902 104.197 40.2235C104.704 40.3244 105.23 40.2056 105.644 39.8968C105.864 39.7496 106.14 39.713 106.391 39.7979C106.852 39.952 107.288 40.1706 107.687 40.4469Z" fill="white"/>
</g>
</svg>
