<svg width="200" height="200" viewBox="0 0 200 200" fill="none" xmlns="http://www.w3.org/2000/svg">
<path d="M62.6163 29.9703L62.6233 29.9689C62.6206 29.9514 62.6196 29.9367 62.6167 29.9189L62.6163 29.9703Z" fill="#F6C4C3"/>
<path d="M190.179 92.0463L190.115 90.8682C190.024 89.299 189.911 87.7371 189.789 86.1853C189.706 85.6336 189.486 85.1114 189.15 84.6666C188.807 84.1853 188.492 83.6851 188.205 83.1683C187.593 81.9088 186.33 80.6437 186.706 79.4595C187.095 78.1979 186.48 77.1747 185.987 76.0871C185.512 74.9981 185.143 73.8664 184.883 72.7072C184.327 70.8061 183.632 68.9482 182.804 67.1486C182.385 66.2424 181.917 65.3592 181.404 64.5027C180.9 63.6367 180.376 62.7879 179.83 61.9563C179.558 61.5407 179.282 61.1295 179.002 60.7228C178.712 60.3152 178.405 59.9109 178.102 59.5117C177.49 58.7144 176.879 57.926 176.221 57.1804C174.935 55.6678 173.57 54.2589 172.201 52.9092C170.035 50.8203 167.728 48.8839 165.294 47.1139C162.981 45.4409 160.581 43.8917 158.104 42.4729C155.104 40.7438 152.279 39.0755 149.295 37.7706C148.247 37.3191 147.192 36.9033 146.112 36.5468C145.046 36.1741 143.964 35.8516 142.9 35.5381C141.848 35.2111 140.774 34.9405 139.762 34.6206C138.729 34.3257 137.735 34.0056 136.769 33.6639C133.175 32.4053 129.922 30.747 126.448 29.5742C124.737 28.7777 122.952 28.2082 121.207 27.5662L121.259 27.533C119.892 27.7312 118.659 27.872 117.777 27.3255C116.891 26.79 116.354 25.5503 116.299 23.1103C116.26 21.308 115.098 21.4722 114.032 23.3042C113.635 24.0758 113.29 24.8721 112.996 25.6883C112.218 25.5551 111.537 25.4386 110.934 25.3356C110.331 25.2498 109.81 25.1664 109.353 25.0693C108.591 24.9487 107.868 24.6511 107.242 24.2004C106.154 23.3386 105.552 21.8513 104.07 18.8263C103.941 18.6106 103.739 18.4486 103.501 18.3701C103.262 18.2917 103.003 18.3021 102.772 18.3994C102.401 18.611 101.985 19.5004 101.914 20.1342C101.76 21.5491 101.8 22.9949 101.712 25.2365C100.483 24.2317 98.9997 23.5859 97.4265 23.3703C96.0178 23.2055 94.5902 23.3565 93.2472 23.8124C92.4966 24.0414 91.8155 23.7344 91.1409 23.3741C90.4645 23.0267 89.7886 22.6445 89.1167 22.6843C88.389 22.7964 87.7087 23.1148 87.1566 23.6019C86.556 24.1 85.9277 24.5637 85.2746 24.9906C84.7372 25.2933 84.0234 25.09 83.3767 24.9908C82.6432 24.8768 81.8964 24.8372 81.1482 24.7442C80.3729 24.6746 79.6097 24.5058 78.8774 24.2418C77.436 23.6677 75.9648 22.2901 74.1374 21.1672C73.9576 22.6609 73.9004 23.8189 73.7946 24.9444C73.7555 25.7877 73.5191 26.6101 73.1043 27.3455C72.9546 27.6142 72.7468 27.846 72.496 28.0241C72.2452 28.2021 71.9578 28.3218 71.6548 28.3745C68.5959 28.8797 65.5158 29.3127 62.6233 29.969C62.9383 31.965 61.8332 31.9072 61.0456 32.3453C60.8159 32.4737 60.5823 32.5964 60.3463 32.7161L59.6598 33.0683C59.1997 33.3003 58.7366 33.5301 58.285 33.7773C57.3987 34.234 56.6069 34.8542 55.9512 35.6053C54.121 37.8574 52.0059 38.8264 48.3839 37.9277C47.7337 37.7016 47.0247 37.7116 46.3812 37.9562C45.9072 38.2081 45.6456 38.7405 45.7056 39.6469L45.6952 39.6133C45.1791 39.3472 44.6645 39.0819 44.1457 38.8144L44.1655 38.8743C44.6794 39.1321 45.1889 39.3877 45.6985 39.6433C45.9118 41.1348 44.7966 40.7105 43.6119 40.3556C43.2107 40.2315 43.0322 40.5543 42.7677 40.672C44.5126 42.6983 44.3732 43.0011 43.7822 42.9116C43.1947 42.8202 42.1368 42.3485 42.1123 42.7783C41.9955 44.8987 39.5739 44.9735 39.144 47.0616C38.9496 48.0278 37.413 47.8958 36.4498 48.2897L36.4403 48.283C36.4333 48.2893 36.4257 48.2948 36.4189 48.3013L36.5073 48.3297C36.4655 49.323 36.2934 50.1476 35.0683 50.0643C34.4621 50.0213 33.6196 49.9046 33.4859 50.3114C33.2212 51.1055 33.8384 52.6183 33.2873 53.0631C32.6543 53.5609 30.3247 52.7755 30.0834 53.5201C29.9327 54.0092 29.6643 54.4539 29.3017 54.8152C28.9383 55.1775 28.5083 55.4662 28.0354 55.6652C27.0536 56.1096 25.829 56.2742 24.4884 56.5054C23.7539 56.5791 23.074 56.9262 22.5835 57.4777C22.3793 57.7316 22.2249 58.0217 22.1285 58.3329C22.0199 58.6934 21.9573 59.0662 21.942 59.4424C22.9985 59.8905 23.7395 59.7158 24.5076 59.7264C25.2772 59.7271 26.0765 59.8602 27.2611 60.8179C27.0475 61.2377 26.9494 61.7633 26.5639 62.1155C25.9824 62.5273 25.361 62.8797 24.7091 63.1672C23.2221 62.8683 21.6316 62.4018 20.2531 62.3918C18.5257 62.3867 18.737 63.8729 20.5413 65.4C21.1931 65.9581 21.7859 66.5429 22.7157 67.3822C21.8484 67.3702 21.1121 67.3919 20.4413 67.4245C19.7705 67.4535 19.1651 67.4867 18.5588 67.5257C20.0064 69.0657 20.0571 70.3018 19.914 71.5458C19.8364 72.2829 19.2296 72.8934 19.4213 73.654C19.5877 74.2304 19.6272 74.836 19.5372 75.4291C19.4551 75.9402 19.2302 76.4177 18.8886 76.8066C18.2069 77.5906 17.0351 78.1298 15.4509 78.5369C12.5868 76.7675 10.9872 75.8202 9.89799 75.9084C8.80978 75.9685 8.24599 77.14 7.60513 79.4386C7.43065 80.0714 6.8649 80.8266 8.33788 81.5862C8.76138 81.2368 9.44204 80.9913 9.62466 80.5683C10.2004 79.2346 11.0857 78.6953 13.3489 79.5942C13.8268 79.7823 14.79 78.9937 15.5302 78.6851C16.9871 81.5039 16.6023 83.6167 15.0489 85.8656C13.5561 85.8973 12.0743 86.0532 10.5586 85.9971C9.16264 85.9434 7.73122 85.619 6.22351 85.4102C6.32388 86.2203 6.30836 87.008 6.62249 87.5945C6.93695 88.1828 7.58744 88.5699 9.04979 88.6535C10.545 88.7096 12.0056 89.1198 13.3114 89.8503C14.3496 90.4869 14.9245 91.2927 14.7805 92.1812C14.5146 93.9533 14.8508 95.8492 14.8373 97.651C14.8748 98.582 14.7773 99.5135 14.5477 100.417C14.2776 101.425 13.8098 102.37 13.1715 103.196C12.604 103.926 12.3964 105.129 12.8823 105.801C13.6532 106.885 13.7876 107.79 13.483 108.674C13.1735 109.557 12.3948 110.432 11.3588 111.401C9.42045 113.212 9.62651 115.281 11.4413 117.212C12.5118 115.392 13.3276 114.134 14.1926 112.87C14.5577 115.503 14.5604 118.102 17.8298 119.202L17.7564 119.181C18.1087 120.256 19.7636 121.139 18.1672 122.45C16.0486 124.199 16.5653 125.691 17.0413 127.066C17.6875 128.964 18.7689 130.643 19.733 132.31L19.7383 132.31C19.7354 132.331 19.6968 132.608 19.6968 132.608L19.9876 132.322C20.8464 131.777 22.3556 130.927 22.3396 131.718C22.3337 132.252 22.413 132.783 22.5744 133.292C22.7333 133.761 22.9367 134.213 23.1819 134.643C23.4199 135.073 23.6795 135.494 23.928 135.914C24.1851 136.326 24.4116 136.755 24.6057 137.199L24.6069 137.199C22.3445 140.216 22.4333 140.301 24.9099 140.595C24.8248 139.378 24.7701 138.305 24.7395 137.11C25.8779 136.355 26.9285 135.883 27.4127 136.734C28.7139 138.96 29.9673 141.213 31.5638 143.131C32.3377 144.053 32.6427 145.396 33.228 146.501C33.495 147.053 33.8908 147.533 34.3822 147.9C34.9864 148.288 35.7037 148.461 36.4183 148.392C36.5688 148.38 36.2616 149.128 36.3454 149.396C36.4974 149.933 36.5757 150.639 37.0409 150.802C38.6965 151.321 40.3909 151.707 42.1079 151.957L42.0711 151.976C42.1169 152.096 42.164 152.22 42.21 152.341C42.179 152.224 42.1469 152.104 42.115 151.984C42.787 152.124 43.7061 151.985 44.0419 152.469C45.2065 154.108 46.2675 155.818 47.2186 157.589C47.6589 158.47 48.4137 159.153 49.3338 159.504C50.3031 159.836 51.3582 159.819 52.3162 159.455C55.3238 158.452 57.2389 158.564 58.4486 161.024C58.6407 161.395 59.1774 161.28 59.4865 161.51C60.0107 161.886 60.4907 162.38 61.0128 162.799C61.4849 163.237 62.0677 163.538 62.6983 163.669C64.0561 163.834 64.9753 164.154 65.3308 166.479C65.5301 167.759 66.9142 167.895 68.2366 166.199C69.3333 164.779 69.3506 165.806 69.3886 167.069C69.416 168.2 70.0324 168.164 70.5798 167.365C72.4721 164.614 73.4659 165.279 74.1522 167.416C74.7469 169.237 75.6951 170.163 76.9277 170.406L79.1864 170.842C79.9397 170.972 80.6931 171.06 81.4475 171.163C82.9557 171.35 84.4676 171.55 85.9754 171.654C86.4267 171.678 86.9723 171.592 87.0737 170.08C86.5378 169.779 85.5756 168.598 85.1502 167.519C85.8148 167.624 86.469 167.685 87.1213 167.741C87.774 167.798 88.4241 167.854 89.079 167.91C90.3888 168.011 91.7189 168.143 93.1184 168.15C91.8496 168.778 90.8428 169.148 89.8301 169.664C89.7051 169.725 89.5941 170.518 89.5233 170.993C89.5013 171.158 89.6146 171.538 89.6981 171.564C90.4985 171.815 91.3046 172.195 92.1237 172.184C93.3197 172.193 94.521 171.857 95.7062 171.852C97.4877 171.872 99.2684 171.893 101.048 171.913C101.88 171.925 102.723 171.798 103.558 171.774C104.407 171.681 105.266 171.815 106.046 172.162C107.422 172.799 108.939 173.072 110.451 172.953C111.579 172.889 112.707 172.776 113.836 172.649C114.964 172.52 116.094 172.396 117.225 172.223C118.357 172.066 119.496 171.93 120.652 171.849C121.229 171.806 121.812 171.788 122.398 171.767C122.984 171.737 123.575 171.723 124.175 171.732C126.492 171.752 128.607 171.056 130.661 170.163C132.727 169.304 134.757 168.464 137.1 168.135C137.621 168.074 138.527 168.024 137.638 166.049C136.369 166.263 135.113 166.463 133.794 166.658C132.467 166.804 131.074 166.936 129.547 167.061C130.127 165.688 130.886 165.202 131.7 164.992C132.106 164.901 132.517 164.841 132.932 164.814C133.325 164.775 133.712 164.691 134.086 164.565C135.557 164.01 136.3 163.747 137.108 163.86C137.917 163.964 138.785 164.471 140.547 165.332C139.84 162.6 139.897 161.962 141.022 162.557C141.999 163.08 143.072 163.975 144.031 164.295C144.942 164.607 144.803 163.766 144.044 162.593C143.741 162.016 143.473 161.421 143.242 160.812C143.921 160.796 144.612 160.792 145.3 160.75C145.985 160.698 146.671 160.646 147.358 160.594L147.362 160.6C147.368 160.597 147.374 160.596 147.38 160.592L147.343 160.571C147.632 160.142 147.954 159.736 148.306 159.356C148.46 159.215 148.819 159.352 149.086 159.357C149.168 159.849 149.42 160.53 149.289 160.8C149.02 161.225 148.671 161.594 148.262 161.887C149.93 162.391 151.494 162.606 152.716 162.234C153.955 161.883 154.811 160.826 155.036 158.952L155.097 158.986C155.311 158.82 155.528 158.651 155.745 158.482C155.791 158.485 155.838 158.488 155.884 158.491C155.831 158.465 155.778 158.439 155.727 158.415L155.052 158.94C152.733 156.548 152.447 155.806 153.562 155.176C154.333 154.736 155.124 154.314 155.919 153.888C156.707 153.447 157.483 152.97 158.255 152.488C159.024 152.001 159.781 151.493 160.504 150.946C161.231 150.417 161.903 149.816 162.511 149.153C163.544 148.008 164.721 147.001 166.013 146.157C166.339 145.945 166.682 145.746 167.027 145.552C167.363 145.354 167.712 145.166 168.074 144.988C168.817 144.625 169.585 144.315 170.371 144.06C170.391 144.068 170.411 144.075 170.43 144.083C170.426 144.07 170.422 144.056 170.418 144.043L170.34 144.048L171.63 142.443C172.056 141.906 172.493 141.372 172.877 140.816L172.899 140.872C172.933 140.871 172.966 140.868 172.999 140.867C172.97 140.854 172.941 140.842 172.912 140.83C173.151 140.063 173.238 139.202 173.648 138.571C174.35 137.46 175.658 136.685 176.004 135.387C176.53 133.225 177.607 131.458 178.824 129.742C179.97 128.004 181.246 126.309 182.187 124.439C185.18 118.186 187.93 111.722 189.29 104.836C189.854 101.773 190.152 98.6665 190.18 95.5519C190.193 94.7712 190.197 93.9918 190.194 93.2135C190.19 92.8237 190.193 92.4375 190.179 92.0463ZM59.7633 46.6896C59.7442 46.6664 59.7248 46.6423 59.7064 46.6203L59.7707 46.6877L59.7633 46.6896ZM65.7263 78.0884L65.771 78.118C65.7773 78.1308 65.7829 78.1429 65.7892 78.1557L65.7263 78.0884ZM78.4734 168.039L78.2982 167.753L78.5896 167.455L78.4734 168.039ZM81.7082 168.307C81.534 168.369 81.3564 168.433 81.1822 168.496C81.1997 168.291 81.2213 167.932 81.2378 167.922C81.4064 167.832 81.5841 167.76 81.7678 167.708C81.748 167.907 81.728 168.108 81.7082 168.307ZM94.0268 86.6891L94.1015 86.9255C94.1084 86.949 94.1132 86.9703 94.1195 86.9932L94.0268 86.6891ZM96.1763 81.7643L96.1756 81.7537C96.1993 81.5769 96.1935 81.6395 96.1763 81.7643H96.1763ZM99.4719 84.6553C99.439 84.6785 99.409 84.694 99.3767 84.7156L99.5213 84.6201L99.4719 84.6553ZM112.13 170.637L111.991 169.923C112.093 169.931 112.203 169.885 112.301 169.971C112.355 170.135 112.391 170.305 112.408 170.477C112.314 170.531 112.223 170.584 112.13 170.637ZM116.374 169.699C116.282 169.679 116.173 169.541 116.076 169.453C116.23 169.339 116.387 169.224 116.536 169.115C116.582 169.259 116.615 169.407 116.633 169.557C116.61 169.605 116.573 169.644 116.526 169.669C116.48 169.694 116.426 169.705 116.374 169.699V169.699ZM120.214 169.146C121.307 167.861 122.421 166.905 124.151 167.991C122.843 168.395 121.537 168.836 120.214 169.146ZM126.505 167.408C126.457 167.074 126.411 166.745 126.363 166.411C126.49 166.497 126.659 166.542 126.731 166.685C126.788 166.887 126.817 167.096 126.815 167.306C126.711 167.34 126.606 167.375 126.505 167.408V167.408Z" fill="#F6C4C3"/>
<path d="M173.711 153.93L170.549 156.115C170.192 156.414 169.955 156.833 169.882 157.293C169.884 157.701 170.038 158.093 170.315 158.393C170.598 158.669 171.263 158.951 171.445 158.847C172.762 158.067 173.926 157.052 174.876 155.852C175.346 155.249 175.752 154.599 176.086 153.912C176.418 153.19 176.665 152.431 176.821 151.651L175.301 152.816L173.711 153.93Z" fill="#F6C4C3"/>
<path d="M79.0744 175.563C78.3056 175.446 77.5224 175.462 76.759 175.611C76.5867 175.633 76.2357 176.231 76.1558 176.606C76.0773 176.994 76.1353 177.397 76.3197 177.747C76.5984 178.048 76.9415 178.283 77.3234 178.434C77.7053 178.585 78.1163 178.648 78.5259 178.618C79.6141 178.455 80.6464 178.03 81.5346 177.381C80.6585 176.217 79.8589 175.729 79.0744 175.563Z" fill="#F6C4C3"/>
<path d="M111.279 179.14C110.103 179.333 108.969 179.725 107.925 180.3C111.691 181.618 111.766 181.553 114.683 179.792C113.641 179.233 112.454 179.005 111.279 179.14Z" fill="#F6C4C3"/>
<path d="M37.1034 47.6316C37.2853 46.9228 36.4016 45.708 35.4485 45.3705C34.7582 45.1256 33.8566 44.7646 33.5441 44.9826C32.6198 45.6279 31.9584 46.5545 31.1995 47.375C33.162 47.8385 33.7389 46.3093 36.4404 48.283C36.6796 48.0665 37.0211 47.9581 37.1034 47.6316Z" fill="#F6C4C3"/>
<path d="M84.5076 178.027C84.4604 178.436 84.5549 178.85 84.7753 179.198C86.5461 180.373 88.5292 179.832 90.4689 178.984C88.6641 178.379 86.859 177.775 85.0536 177.171C84.9182 177.129 84.5389 177.722 84.5076 178.027Z" fill="#F6C4C3"/>
<path d="M126.233 178.665C128.276 179.692 128.332 179.735 130.444 178.069C128.119 176.827 128.165 176.811 126.233 178.665Z" fill="#F6C4C3"/>
<path d="M102.152 180.066C100.424 179.995 98.7024 179.953 96.9822 179.802C98.6753 182.165 100.543 181.99 102.152 180.066Z" fill="#F6C4C3"/>
<path d="M69.4934 173.51C69.3082 174.034 69.1225 174.56 68.9395 175.079C69.5718 175.478 70.2358 175.825 70.9247 176.116C71.0902 176.169 71.5262 175.694 71.6432 175.348C71.7565 175.016 71.7193 174.227 71.5853 174.163C70.905 173.894 70.2058 173.676 69.4934 173.51Z" fill="#F6C4C3"/>
<path d="M138.523 174.566C138.326 174.649 138.2 175.228 138.307 175.579C138.466 176.005 138.757 176.369 139.138 176.618C140.164 177.062 141.104 177.123 141.224 175.574C140.115 174.006 139.291 174.239 138.523 174.566Z" fill="#F6C4C3"/>
<path d="M153.084 168.784C152.351 169.066 151.638 169.397 150.949 169.775C151.109 170.106 151.272 170.442 151.435 170.779C152.286 170.76 153.134 170.678 153.973 170.534C154.151 170.494 154.187 169.842 154.029 169.54C153.864 169.227 153.246 168.731 153.084 168.784Z" fill="#F6C4C3"/>
<path d="M52.8383 33.587C53.1028 32.8773 53.2571 32.0424 53.4637 31.2469C53.2397 30.9871 53.0121 30.7232 52.7888 30.4644C52.2754 30.9796 51.8022 31.5334 51.3734 32.121C51.4827 32.5351 51.6889 32.9173 51.9751 33.2359C52.2314 33.4899 52.7868 33.7247 52.8383 33.587Z" fill="#F6C4C3"/>
<path d="M159.684 165.316C159.937 165.68 160.19 166.043 160.446 166.41C161.305 165.748 162.159 165.079 163.007 164.402C162.797 164.136 162.582 163.865 162.372 163.599C161.479 164.18 160.583 164.753 159.684 165.316Z" fill="#F6C4C3"/>
<path d="M183.359 127.573C182.995 127.985 182.559 128.294 182.433 128.738C182.396 128.867 183.275 129.403 183.737 129.755C184.113 129.438 184.441 129.068 184.711 128.657C184.757 128.579 184.077 128.132 183.359 127.573Z" fill="#F6C4C3"/>
<path d="M40.1146 160.031C40.0559 160.52 40.0663 161.015 40.1455 161.502C40.1922 161.641 40.7846 161.286 41.3513 161.064C41.2665 160.528 41.2906 159.984 41.0967 159.674C41.0068 159.542 40.4575 159.897 40.1146 160.031Z" fill="#F6C4C3"/>
<path d="M47.1628 163.572C46.4237 165.506 47.3148 165.604 47.7865 166.004C47.9951 166.179 48.5951 165.775 49.0154 165.628C48.9702 165.297 49.0376 164.801 48.8748 164.663C48.3265 164.265 47.7548 163.901 47.1628 163.572Z" fill="#F6C4C3"/>
<path d="M39.5021 41.5753C39.5756 41.5246 39.1912 40.9664 39.0147 40.6373C38.681 40.5819 38.3402 40.5833 38.0069 40.6415C37.9354 40.6633 38.2949 41.2201 38.546 41.7119C38.9104 41.6641 39.2924 41.7278 39.5021 41.5753Z" fill="#F6C4C3"/>
<path d="M186.242 121.493C186.086 121.55 185.829 121.565 185.793 121.667C185.612 122.132 185.495 122.623 185.354 123.102C185.599 123.214 185.85 123.328 186.096 123.44C186.41 123.059 186.674 122.64 186.884 122.193C186.929 122.065 186.469 121.732 186.242 121.493Z" fill="#F6C4C3"/>
<path d="M13.1674 132.418C13.4067 132.978 13.7012 133.512 14.0466 134.013C14.3267 133.838 14.5554 133.696 14.715 133.596C14.8012 133.548 14.8839 133.494 14.9625 133.435C14.5795 132.817 14.1721 132.209 13.7766 131.597C13.5599 131.871 13.1132 132.244 13.1674 132.418Z" fill="#F6C4C3"/>
<path d="M10.5175 107.147C10.4126 106.353 10.2575 105.567 10.053 104.794C9.66905 104.832 9.29144 104.87 8.90808 104.909C8.96971 105.77 9.02256 106.635 9.14083 107.486C9.16057 107.625 9.58798 107.837 9.62607 107.813C9.96136 107.61 10.536 107.346 10.5175 107.147Z" fill="#F6C4C3"/>
<path d="M62.7678 172.142C63.0208 172.435 63.2428 172.817 63.557 172.96C63.6688 173.008 64.0018 172.489 64.3544 172.087C64.0296 171.812 63.7828 171.482 63.4541 171.396C63.3265 171.36 63.0045 171.875 62.7678 172.142Z" fill="#F6C4C3"/>
<path d="M93.5176 180.103C93.5033 180.154 93.6877 180.548 93.7495 180.517C93.9494 180.37 94.1284 180.197 94.2816 180.003C94.1455 179.713 94.0065 179.417 93.867 179.12C93.7488 179.443 93.6137 179.754 93.5176 180.103Z" fill="#F6C4C3"/>
<path d="M172.239 146.222C172.628 146.315 173.099 145.773 172.942 145.439C172.28 144.057 171.293 144.406 170.43 144.083C170.692 144.898 170.74 145.864 172.239 146.222Z" fill="#F6C4C3"/>
<path d="M167.09 161.23C167.116 161.228 167.143 161.226 167.169 161.224C167.316 161.163 167.46 161.103 167.604 161.044L167.144 161.142C167.126 161.171 167.108 161.201 167.09 161.23Z" fill="#F6C4C3"/>
<path d="M165.684 162.447C165.712 162.508 166.144 162.663 166.199 162.589C166.521 162.153 166.819 161.699 167.09 161.23C166.493 161.256 165.899 161.323 165.312 161.432C165.234 161.45 165.513 162.094 165.684 162.447Z" fill="#F6C4C3"/>
<path d="M6.38344 103.498C6.19919 103.815 6.01766 104.127 5.83374 104.444C5.99433 104.585 6.15601 104.719 6.32723 104.853C6.52709 104.551 6.69829 104.231 6.83862 103.898C6.87293 103.798 6.5448 103.636 6.38344 103.498Z" fill="#F6C4C3"/>
<path d="M111.976 20.1606L111.199 20.1612C111.163 20.3651 111.128 20.5623 111.091 20.7653C111.348 20.7711 111.605 20.7587 111.86 20.7281C111.911 20.5417 111.949 20.3521 111.976 20.1606Z" fill="#F6C4C3"/>
<path d="M175.43 141.087C175.266 140.949 175.079 140.842 174.877 140.769C174.234 140.783 173.62 140.832 172.999 140.866C173.757 141.182 174.52 141.517 175.264 141.745C175.4 141.784 175.406 141.332 175.43 141.087Z" fill="#F6C4C3"/>
<path d="M148.204 161.894L148.222 161.922C148.235 161.909 148.249 161.899 148.262 161.887C148.246 161.882 148.23 161.878 148.214 161.873C148.211 161.88 148.208 161.887 148.204 161.894Z" fill="#F6C4C3"/>
<path d="M146.765 160.974C146.664 161.403 146.61 161.841 146.604 162.282C146.984 162.436 147.388 162.524 147.797 162.544C148.024 162.508 148.077 162.13 148.204 161.894L147.362 160.6C147.15 160.711 146.856 160.735 146.765 160.974Z" fill="#F6C4C3"/>
<path d="M96.4878 20.3567C96.4702 20.3693 96.4516 20.3802 96.4343 20.3934L96.4636 20.4467C96.4719 20.4169 96.4798 20.3866 96.4878 20.3567Z" fill="#F6C4C3"/>
<path d="M97.2373 19.7502C97.3357 19.6005 97.2313 19.0917 97.2162 18.7407C97.0933 18.865 96.92 18.9464 96.8533 19.1238C96.711 19.5284 96.5889 19.9399 96.4878 20.3568C96.7734 20.2032 97.0276 19.9974 97.2373 19.7502Z" fill="#F6C4C3"/>
<path d="M179.646 133.879L180.432 134.552C180.543 134.482 180.761 134.44 180.734 134.334C180.632 134.065 180.502 133.807 180.348 133.564L179.646 133.879Z" fill="#F6C4C3"/>
<path d="M56.1103 170.005C56.0798 170.095 56.2586 170.342 56.3265 170.288C56.5731 170.077 56.8012 169.845 57.0086 169.596C56.8601 169.393 56.7134 169.19 56.5741 168.984C56.4005 169.316 56.2457 169.657 56.1103 170.005Z" fill="#F6C4C3"/>
<path d="M156.955 167.716C156.918 167.851 156.881 167.986 156.845 168.117C157.085 168.211 157.331 168.308 157.571 168.402C157.523 168.226 157.511 167.985 157.419 167.894C157.278 167.802 157.12 167.742 156.955 167.716Z" fill="#F6C4C3"/>
<path d="M17.1842 68.4031C17.5166 68.3732 17.9763 68.4345 18.161 68.2994C18.4035 68.1217 18.4371 67.7886 18.5589 67.5256C18.1675 67.5186 17.7774 67.5737 17.4033 67.6889C17.1902 67.8084 17.2427 68.1555 17.1842 68.4031Z" fill="#F6C4C3"/>
<path d="M59.2781 170.703C59.3961 170.885 59.5282 171.058 59.673 171.22C59.6797 171.23 59.8707 170.912 59.9766 170.741C59.8624 170.56 59.7331 170.39 59.59 170.231C59.5822 170.221 59.3881 170.541 59.2781 170.703Z" fill="#F6C4C3"/>
<path d="M6.37141 96.7208L6.76464 96.4243C6.65353 96.3068 6.54141 96.1882 6.42827 96.0686C6.29198 96.1725 6.06649 96.2658 6.05924 96.3727C6.04546 96.4839 6.25629 96.6079 6.37141 96.7208Z" fill="#F6C4C3"/>
<path d="M51.3842 166.802C51.3108 167.004 51.2528 167.212 51.2106 167.422C51.4366 167.449 51.6648 167.451 51.8912 167.428C51.8801 167.139 51.8476 166.851 51.794 166.566C51.7853 166.518 51.5182 166.722 51.3842 166.802Z" fill="#F6C4C3"/>
<path d="M8.92651 120.34L9.32784 119.997L8.81628 119.907L8.92651 120.34Z" fill="#F6C4C3"/>
<path d="M10.1733 92.8902C10.1415 92.8218 9.78671 92.8135 9.5838 92.7761C9.54778 92.9401 9.44523 93.1257 9.51522 93.2687C9.553 93.343 9.9014 93.3475 10.1111 93.384C10.14 93.2201 10.2419 93.0417 10.1733 92.8902Z" fill="#F6C4C3"/>
<path d="M156.433 158.529C156.25 158.516 156.067 158.504 155.884 158.491C155.978 158.543 156.078 158.584 156.182 158.612C156.282 158.631 156.351 158.56 156.433 158.529Z" fill="#F6C4C3"/>
<path d="M28.2355 150.846L28.2933 150.39L27.847 150.739L28.2355 150.846Z" fill="#F6C4C3"/>
<path d="M53.7932 168.381L54.0715 167.876L53.6821 167.959L53.7932 168.381Z" fill="#F6C4C3"/>
<path d="M156.689 95.8109C156.595 94.7347 156.313 93.6833 155.857 92.7042C155.617 92.2216 155.316 91.7718 154.962 91.3658C154.606 90.9755 154.187 90.6477 153.723 90.3957C153.342 90.1974 153.004 89.9282 152.724 89.6026C152.312 89.2038 151.873 88.834 151.41 88.4956C150.819 88.0362 150.12 87.734 149.381 87.617C148.641 87.5001 147.883 87.5723 147.179 87.8268C146.356 88.092 145.619 88.3562 144.858 88.639C142.337 89.5933 139.998 90.697 138.222 92.4466C138.068 92.597 137.776 92.6201 137.568 92.7401C137.026 93.0381 136.495 93.3576 135.979 93.701C134.317 94.8115 132.852 96.1669 131.075 97.1426C130.526 97.4579 130.105 97.9574 129.888 98.5527C129.805 98.7836 129.676 98.9951 129.509 99.1743C129.341 99.3535 129.139 99.4965 128.914 99.5947C128.373 99.9094 127.897 100.326 127.514 100.822C126.732 101.662 126.427 102.472 127.205 103.267C127.388 103.455 127.203 103.672 126.88 103.678C126.77 103.667 126.658 103.67 126.548 103.688C126.459 103.713 126.301 103.815 126.304 103.855C126.346 104.493 127.491 105.177 128.052 104.914C128.564 104.666 129.169 104.519 129.507 104.006C129.834 103.396 130.302 102.872 130.872 102.479C131.511 102.119 131.685 101.379 132.119 100.839C132.857 99.9164 133.954 99.4148 134.704 98.4905C135.447 97.5741 136.561 97.0855 137.478 96.3693C137.853 96.0927 138.279 95.8926 138.731 95.7805C139.644 95.5788 140.456 95.0615 141.025 94.3196C141.377 93.8535 141.898 93.5448 142.476 93.4602C143.344 93.3575 144.161 92.9952 144.82 92.4207C145.065 92.2362 145.363 92.1342 145.67 92.1294C146.229 92.0608 146.759 91.9944 147.276 91.9518C147.771 91.9069 148.269 91.9012 148.765 91.9349C149.376 91.9568 149.977 92.0903 150.54 92.329C150.797 92.4299 151.024 92.5943 151.2 92.8067C151.376 93.0192 151.495 93.2728 151.546 93.5438C151.559 93.6107 151.589 93.6731 151.633 93.7247C151.677 93.7763 151.735 93.8152 151.799 93.8373C152.556 94.0872 152.699 94.8793 152.359 95.5775C152.309 95.6905 152.283 95.8128 152.284 95.9363C152.285 96.0598 152.312 96.1817 152.364 96.2939C152.488 96.5314 152.566 96.7898 152.595 97.056C152.616 97.3212 152.59 97.588 152.519 97.8442C152.447 98.1106 152.334 98.364 152.183 98.5949C152.028 98.8444 151.841 99.0731 151.629 99.2756C151.551 99.3487 151.502 99.4467 151.49 99.5524C151.516 100.493 150.702 101.043 150.257 101.765C150.085 102.05 149.887 102.329 149.734 102.624C149.56 102.93 149.451 103.267 149.413 103.616C149.371 104.032 149.242 104.435 149.036 104.798C148.829 105.161 148.549 105.478 148.214 105.727C147.724 106.055 147.382 106.561 147.26 107.137C147.132 107.465 146.891 107.737 146.581 107.904C145.97 108.288 145.527 108.89 145.341 109.587C145.176 110.067 144.85 109.98 144.533 110.045C143.826 110.189 143.688 110.417 143.853 111.245C143.912 111.537 143.899 111.747 143.659 111.749C143.19 111.754 142.857 111.81 142.681 112.403C142.443 113.091 141.979 113.678 141.365 114.069C139.894 115.095 138.718 116.49 137.956 118.113C137.756 118.405 137.49 118.646 137.18 118.817C136.771 119.068 136.45 119.441 136.264 119.883C136.2 120.112 136.089 120.325 135.939 120.509C135.789 120.693 135.602 120.844 135.391 120.953C134.795 121.234 134.821 122.019 134.322 122.331C133.824 122.646 133.394 123.057 133.056 123.539C132.302 123.798 131.971 124.421 131.661 125.08C131.622 125.164 131.465 125.215 131.356 125.257C131.074 125.349 130.824 125.52 130.634 125.748C130.444 125.977 130.323 126.254 130.285 126.549C130.2 127.058 129.746 127.316 129.409 127.649C128.293 127.899 127.599 128.769 126.831 129.529C126.468 129.847 126.133 130.196 125.83 130.572C125.412 131.143 125.108 131.791 124.682 132.357C124.222 132.966 123.396 132.986 122.859 133.476C122.611 133.732 122.39 134.013 122.201 134.315C121.994 134.606 121.869 135.064 121.609 135.185C120.776 135.571 120.417 136.321 119.904 136.963C119.714 137.264 119.44 137.503 119.116 137.651C118.793 137.799 118.433 137.85 118.081 137.798C117.968 137.764 117.85 137.753 117.734 137.765C117.617 137.777 117.503 137.812 117.4 137.868C117.297 137.924 117.206 138 117.132 138.091C117.058 138.182 117.002 138.287 116.969 138.4C116.721 139.227 115.905 139.695 115.56 140.471C115.301 141.04 114.614 141.05 114.207 141.428C113.808 141.795 113.308 141.988 113.052 142.448C112.979 142.575 112.86 142.67 112.721 142.714C112.581 142.758 112.429 142.747 112.296 142.685C112.131 142.626 111.969 142.557 111.812 142.479C111.782 142.459 111.748 142.446 111.713 142.439C111.677 142.432 111.641 142.433 111.606 142.44C111.57 142.448 111.537 142.462 111.508 142.483C111.478 142.503 111.453 142.53 111.433 142.56C111.325 142.701 111.207 142.631 111.108 142.577C111.069 142.542 111.021 142.517 110.969 142.506C110.926 142.489 110.882 142.497 110.82 142.553C110.742 142.616 110.648 142.657 110.549 142.673C110.461 142.667 110.372 142.648 110.353 142.57C110.304 142.34 110.22 142.118 110.102 141.914C109.953 141.689 109.826 141.45 109.721 141.202C109.602 140.782 109.555 140.346 109.582 139.91C108.93 139.261 109.086 138.164 108.491 137.248C108.412 137.16 108.36 137.052 108.34 136.935C108.32 136.818 108.334 136.699 108.379 136.59C108.495 136.319 108.449 136.106 108.227 135.998C107.799 135.791 107.417 135.474 107.789 134.961C108.448 134.06 108.206 132.895 108.652 131.944C108.677 131.89 108.391 131.636 108.229 131.507C107.991 131.318 107.979 131.169 108.153 130.954C108.889 130.049 108.895 130.02 108.338 129.249C107.964 128.663 107.648 128.043 107.394 127.397C107.202 127.027 107.102 126.615 107.103 126.197C107.104 125.779 107.206 125.368 107.4 124.998C107.705 124.219 107.859 123.39 107.853 122.553C107.924 121.235 108.046 119.922 108.168 118.605C108.226 118.012 108.497 117.46 108.931 117.053C109.171 116.805 109.383 116.532 109.565 116.238C109.752 115.942 109.852 115.599 109.854 115.248C109.856 114.897 109.761 114.553 109.578 114.254C109.376 114.001 109.142 113.775 108.881 113.582C108.652 113.386 108.607 113.182 108.822 113.069C109.212 112.86 109.606 112.705 109.48 112.081C109.386 111.624 109.33 111.152 109.238 110.689C109.203 110.574 109.201 110.451 109.234 110.335C109.266 110.219 109.331 110.115 109.421 110.035C109.858 109.663 110.325 109.318 110.77 108.961C110.908 108.86 111.013 108.721 111.075 108.561C111.136 108.401 111.15 108.227 111.116 108.06C110.985 107.219 111.284 106.417 111.483 105.607C111.57 105.204 111.74 104.824 111.981 104.49C112.223 104.156 112.53 103.876 112.885 103.666C113.219 103.464 113.238 103.257 113.016 102.812C112.906 102.593 112.769 102.405 112.89 102.208C113.076 101.907 113.299 101.632 113.554 101.388C113.878 101.136 114.131 100.804 114.288 100.425C114.445 100.046 114.501 99.6325 114.451 99.2253C114.41 98.6446 114.409 98.0619 114.448 97.4812C114.456 97.0533 114.742 96.8648 115.101 97.0467C115.505 97.2477 115.689 97.1614 115.75 96.7671C115.884 95.8525 116.03 94.9174 116.138 93.9943C116.146 93.7711 116.206 93.5529 116.311 93.356C116.417 93.1591 116.565 92.9887 116.746 92.8576C116.941 92.7526 117.115 92.6118 117.257 92.4425C117.753 91.7389 118.297 91.0703 118.885 90.4413C119.007 90.3063 119.143 90.1837 119.29 90.0754C119.432 89.9628 119.571 89.8414 119.708 89.7429C119.98 89.5487 120.195 89.2848 120.33 88.9789C120.411 88.7911 120.553 88.6358 120.732 88.5375C120.898 88.4779 121.073 88.4462 121.249 88.4437C121.411 88.4667 121.575 88.4795 121.738 88.482C121.889 88.5092 122.045 88.4802 122.176 88.4006C122.321 88.3438 122.481 88.2865 122.648 88.239C122.825 88.2163 123 88.1768 123.169 88.121C123.348 88.0783 123.535 88.0989 123.7 88.1794C123.864 88.2599 123.996 88.3952 124.072 88.5621C124.247 88.8947 124.49 88.7421 124.805 88.6746C125.368 88.572 125.739 88.8247 125.757 89.2515C125.767 89.5689 125.734 89.8862 125.66 90.195C125.549 90.667 126.13 90.8433 126.099 91.2528C126.072 91.6547 126.069 92.0578 126.088 92.4601C126.1 92.8586 126.12 93.2756 126.095 93.6975C126.148 94.434 125.988 95.2207 126.062 95.9849C126.147 97.1418 126.376 98.2837 126.743 99.3841C126.797 99.4732 126.874 99.5459 126.967 99.5941C127.059 99.6423 127.163 99.6643 127.267 99.6577C127.703 99.5722 128.127 99.4356 128.531 99.2507C128.697 99.1747 128.844 99.0625 128.961 98.9222C129.078 98.7819 129.163 98.6171 129.208 98.44C129.433 97.6703 129.613 96.8882 129.748 96.0978C129.997 94.7251 130.039 93.3228 129.872 91.9377C129.671 90.417 129.112 88.9655 128.242 87.7023C128.022 87.1333 127.691 86.6139 127.268 86.1749C126.844 85.7358 126.337 85.386 125.777 85.146C125.108 84.8054 124.41 84.527 123.69 84.3141L123.159 84.1678C122.979 84.1284 122.792 84.1107 122.605 84.0881C122.418 84.0678 122.229 84.0527 122.04 84.0446C121.85 84.0509 121.661 84.0669 121.473 84.0925C120.937 84.1619 120.409 84.286 119.898 84.4628C119.424 84.638 118.965 84.8521 118.526 85.1031C118.113 85.3377 117.716 85.6001 117.339 85.8886C116.99 86.1653 116.654 86.4594 116.335 86.7699C115.169 87.9284 114.171 89.2448 113.371 90.6806C113.096 91.1488 112.854 91.6358 112.648 92.1381C112.462 92.6074 112.345 93.1011 112.301 93.604C112.217 94.0968 112.004 94.5589 111.685 94.9437C111.325 95.4499 111.011 95.9871 110.746 96.5489C110.543 97.0073 110.335 97.4636 110.144 97.9269L109.598 99.3273C109.419 99.7954 109.231 100.26 109.062 100.732L108.568 102.151C108.406 102.626 108.235 103.097 108.087 103.577L107.65 105.016C107.356 105.975 107.062 106.932 106.769 107.889C106.522 108.575 106.367 109.29 106.307 110.017C106.252 110.637 106.16 111.253 106.031 111.862C105.919 112.479 105.815 113.099 105.739 113.718C105.668 114.445 105.642 115.176 105.661 115.906C105.293 116.7 105.081 117.557 105.035 118.431C104.971 119.3 104.952 120.174 104.821 121.03C104.811 121.394 104.873 121.756 105.004 122.096C105.04 122.211 105.053 122.331 105.041 122.451C105.029 122.57 104.993 122.686 104.934 122.791C104.793 123.099 104.689 123.422 104.625 123.755C104.564 124.087 104.535 124.427 104.502 124.768C104.475 125.45 104.342 126.123 104.111 126.765C104.241 127.369 104.34 127.979 104.407 128.593C104.482 129.207 104.461 129.83 104.345 130.438C104.084 131.338 103.972 132.275 104.016 133.212C104.068 134.141 104.196 135.064 104.4 135.972C104.542 136.311 104.595 136.68 104.553 137.045C104.472 137.381 104.422 137.724 104.404 138.069C104.395 138.24 104.392 138.411 104.395 138.583C104.401 138.761 104.418 138.948 104.436 139.131C104.535 139.896 104.71 140.65 104.959 141.38C105.138 141.942 105.348 142.505 105.573 143.086C105.815 143.72 106.1 144.336 106.426 144.931C106.976 145.916 107.866 146.668 108.929 147.046C109.973 147.419 111.118 147.391 112.143 146.969C112.953 146.607 113.741 146.195 114.501 145.737C115.165 145.354 115.834 144.969 116.507 144.581C117.2 144.193 117.922 143.932 118.36 143.274C118.833 142.576 119.786 142.474 120.362 141.783C120.835 141.219 121.418 140.758 122.076 140.429C122.665 140.138 122.918 139.548 123.415 139.277C124.159 138.875 124.325 138.168 124.664 137.571C124.95 137.069 125.197 136.895 125.743 136.986C126.176 137.059 126.176 136.491 126.423 136.284C126.793 135.977 127.29 135.808 127.62 135.473C128.043 135.043 128.305 134.465 128.709 134.014C129.528 133.106 130.343 132.19 131.547 131.774C131.695 131.683 131.804 131.541 131.854 131.375C131.904 131.209 131.89 131.03 131.817 130.873C131.569 130.526 131.284 130.208 131.04 129.857C130.88 129.626 130.922 129.433 131.104 129.396C131.212 129.379 131.323 129.401 131.416 129.457C131.689 129.627 131.937 129.83 132.213 129.994C132.413 130.11 132.645 130.157 132.874 130.125C133.103 130.094 133.314 129.987 133.475 129.821C133.892 129.557 134.224 129.178 134.428 128.729C134.718 127.922 135.201 127.199 135.835 126.623C136.343 126.092 136.892 125.602 137.476 125.158C138.173 124.661 138.297 123.68 139.221 123.358C139.647 123.116 140.002 122.766 140.25 122.343C140.607 121.848 140.798 121.236 141.187 120.782C141.621 120.366 142.077 119.974 142.554 119.608C142.703 119.427 142.778 119.197 142.764 118.963C142.749 118.756 142.573 118.59 142.486 118.395C142.402 118.205 142.344 118.002 142.274 117.804C142.488 117.801 142.701 117.837 142.903 117.909C143.626 118.355 143.763 117.842 143.999 117.226C144.101 116.958 144.532 116.762 144.833 116.568C145.49 116.212 145.978 115.611 146.191 114.895C146.435 113.937 147.031 113.107 147.86 112.57C148.806 111.976 149.495 111.049 149.789 109.972C150.061 108.898 150.739 107.97 151.68 107.384C151.937 107.218 152.149 106.993 152.3 106.728C152.451 106.462 152.535 106.164 152.545 105.859C152.594 105.238 152.852 104.653 153.275 104.197C153.6 103.813 153.969 103.465 154.276 103.054C154.68 102.541 155.034 101.991 155.331 101.409C155.46 101.196 155.518 100.946 155.496 100.698C155.474 100.449 155.373 100.214 155.208 100.027C155.007 99.8192 154.981 99.5468 155.2 99.4066C156.275 98.7045 156.842 97.4206 156.689 95.8109Z" fill="#121212"/>
<path d="M152.439 94.517C152.195 93.9703 151.834 93.4841 151.38 93.0928C150.927 92.7016 150.393 92.4149 149.817 92.2531C148.625 91.8993 147.348 91.9647 146.199 92.4385L145.979 92.5163L145.839 92.57C145.746 92.6047 145.654 92.6442 145.562 92.6832L145.013 92.9164C144.647 93.0711 144.29 93.246 143.929 93.4066C143.034 93.7633 142.108 94.0398 141.164 94.233C140.185 94.4449 139.289 94.9372 138.585 95.6497C138.405 95.8637 138.274 96.1145 138.202 96.3846C138.02 96.9991 137.575 97.1286 137.117 97.2534C136.674 97.392 136.218 97.5273 136.151 98.1579C136.07 98.8737 135.368 99.1059 135.303 99.7851C135.266 100.566 135.309 101.349 135.432 102.122C135.669 102.529 135.998 102.874 136.393 103.131C136.914 103.58 136.944 103.595 137.163 103.154C137.313 102.848 137.841 102.554 138.335 102.269C138.823 101.974 139.29 101.696 139.321 101.313C139.314 101.109 139.356 100.907 139.442 100.723C139.529 100.539 139.659 100.378 139.821 100.254C140.266 99.9732 140.638 99.5621 141.264 99.5958C141.797 99.6292 142.375 99.1561 142.976 98.6584C143.465 98.1797 144.023 97.776 144.63 97.4603C145.594 97.1466 145.588 96.6939 145.895 96.552C146.088 96.6908 146.328 96.751 146.564 96.7203C146.8 96.6896 147.016 96.5703 147.168 96.3866C147.209 96.1782 147.441 95.7798 147.655 95.843C147.795 95.8811 147.827 96.1491 147.92 96.175C147.989 96.1917 148.25 95.9269 148.395 95.9303C148.523 95.9774 148.636 96.0584 148.721 96.1648C148.806 96.2712 148.861 96.3989 148.878 96.534C148.898 96.7875 148.843 97.0413 148.721 97.2644C148.597 97.3204 148.477 97.3868 148.364 97.4628C148.332 97.4824 148.301 97.5039 148.272 97.5271C148.232 97.5813 148.191 97.6374 148.149 97.6947C148.071 97.8096 147.986 97.9301 147.91 98.0521C147.604 98.5394 147.344 99.0541 147.437 99.3485C147.848 100.629 146.867 101.83 145.926 102.95C144.98 104.08 144.083 105.155 144.455 106.593C144.522 106.799 142.819 108.997 142.416 108.944C142.244 108.926 142.07 108.954 141.913 109.026C141.756 109.098 141.621 109.211 141.523 109.354C141.442 109.762 141.52 110.24 141.229 110.568C140.863 110.976 140.462 111.381 140.078 111.799C139.68 112.205 139.296 112.621 138.939 113.029C138.268 113.792 136.923 114.586 136.557 115.569C136.501 115.725 136.491 116.007 136.373 116.012C135.333 116.133 134.375 116.635 133.683 117.421C132.92 118.185 132.338 119.11 131.979 120.129C131.929 120.284 131.925 120.451 131.969 120.608C132.012 120.766 132.1 120.907 132.222 121.015C132.344 121.124 132.495 121.194 132.656 121.218C132.818 121.242 132.983 121.218 133.131 121.15C134.28 120.848 135.185 119.886 135.941 119.024C136.521 118.361 137.779 119.099 138.445 118.372C139.52 117.184 140.754 116.421 142.001 115.437C142.276 115.04 142.483 114.601 142.614 114.136C142.73 113.681 142.926 113.25 143.192 112.864C143.606 112.386 144.075 111.96 144.589 111.593C145.113 111.205 145.6 110.769 146.044 110.291C146.469 109.993 146.917 109.71 147.359 109.421C147.988 108.594 148.549 107.704 148.569 106.567C148.57 106.245 148.981 106.254 149.087 106.052C149.199 105.839 149.083 105.505 149.148 105.259C149.321 104.527 150.386 104.644 150.314 103.657C150.248 103.301 150.279 102.933 150.404 102.593C150.743 101.879 151.094 101.176 151.426 100.452C151.592 100.09 151.754 99.7234 151.905 99.3474C151.982 99.1606 152.054 98.97 152.125 98.7782C152.157 98.7009 152.204 98.5455 152.248 98.4079C152.291 98.2673 152.338 98.1318 152.378 97.9856C152.454 97.693 152.543 97.3978 152.592 97.1013C152.658 96.8094 152.698 96.5123 152.713 96.2135C152.749 95.6347 152.656 95.055 152.439 94.517Z" fill="white"/>
<path d="M147.349 94.9007C147.4 94.4767 147.403 94.0482 147.358 93.6234C147.306 93.2216 147.194 92.83 147.024 92.4621C146.82 92.0248 146.512 91.644 146.127 91.3529C145.709 91.0639 145.231 90.8739 144.729 90.7971C144.481 90.762 144.209 90.7473 143.95 90.7146C143.807 90.6983 143.663 90.6964 143.519 90.709C143.368 90.7142 143.215 90.7195 143.062 90.7249C142.01 90.9137 141.036 91.4045 140.259 92.1374C139.878 92.458 139.544 92.7691 139.214 93.0616C138.886 93.349 138.524 93.5947 138.136 93.7931L137.936 93.889L137.773 93.9737L137.445 94.1465C137.221 94.2589 137.01 94.3965 136.791 94.5264C136.353 94.7959 135.936 95.0973 135.543 95.4282C134.765 96.0622 134.128 96.8516 133.673 97.7461C133.268 98.602 133.417 98.9942 133.676 99.1323C133.817 99.1867 133.968 99.2097 134.118 99.1996C134.268 99.1895 134.415 99.1466 134.547 99.0739C135.738 98.4191 137.192 97.5006 138.616 96.6639C138.793 96.5577 138.969 96.4518 139.145 96.3461L139.502 96.1228C139.669 96.009 139.829 95.8866 139.983 95.7561C140.321 95.4673 140.741 95.0715 141.354 94.5118C141.508 94.3748 141.568 94.5907 141.632 94.6715C141.779 94.8393 142.032 94.8115 142.35 94.9795C142.424 95.024 142.488 95.0829 142.539 95.1528C142.59 95.2226 142.626 95.302 142.645 95.3861C142.672 95.5216 142.674 95.6611 142.65 95.7972L142.32 95.8617L141.651 96.072C141.429 96.1421 141.203 96.2515 140.981 96.3389C140.535 96.5195 140.095 96.7517 139.661 96.9676C139.15 97.2391 138.958 97.3581 138.677 97.5273C138.14 97.8503 137.619 98.1859 137.104 98.532C136.072 99.2226 135.062 99.9488 134.035 100.724C133.569 101.039 133.057 101.279 132.517 101.436C131.939 101.656 131.471 102.094 131.213 102.656C130.967 103.214 130.633 103.729 130.223 104.181C130.046 104.371 129.836 104.524 129.626 104.734C129.519 104.842 129.418 104.955 129.323 105.073C129.222 105.222 129.136 105.38 129.069 105.546C128.998 105.738 128.957 105.939 128.945 106.143C128.934 106.256 128.93 106.371 128.933 106.485C128.937 106.624 128.947 106.764 128.962 106.903C128.996 107.231 129.067 107.554 129.172 107.867C129.305 108.249 129.485 108.612 129.708 108.949C129.809 109.09 129.919 109.225 130.037 109.352C130.148 109.475 130.268 109.588 130.398 109.691C130.611 109.859 130.839 110.008 131.078 110.137C131.269 110.233 131.468 110.321 131.672 110.4C131.966 110.489 132.269 110.545 132.575 110.567C132.752 110.575 132.956 110.576 133.135 110.567C132.991 110.708 132.865 110.866 132.76 111.037C132.517 111.414 132.205 111.742 131.84 112.003C131.481 112.262 131.096 112.489 130.735 112.75C130.207 113.096 129.578 113.256 128.949 113.205C128.424 113.198 127.657 113.714 126.859 114.251C126.2 114.762 125.469 115.175 124.691 115.475C123.898 115.655 123.894 115.692 124.113 116.345C124.165 116.825 124.399 117.267 124.767 117.579C125.757 117.851 126.768 118.034 127.79 118.127C128.257 118.111 128.716 117.997 129.137 117.793C129.563 117.576 130.032 117.457 130.51 117.446C131.343 117.462 131.862 116.985 132.358 116.471C132.866 115.969 133.352 115.434 134.239 115.339C134.642 115.288 135.035 115.176 135.405 115.007C136.782 114.279 137.999 113.282 138.985 112.076C139.999 110.933 140.883 109.716 141.964 108.669C142.417 108.238 142.854 107.789 143.291 107.341C143.73 106.893 144.173 106.406 144.598 105.892C145.041 105.36 145.446 104.798 145.81 104.21L145.947 103.975C145.998 103.886 146.071 103.76 146.126 103.65L146.455 102.954C146.557 102.719 146.636 102.478 146.729 102.239C146.815 101.999 146.866 101.755 146.937 101.513C147.169 100.581 147.212 99.6123 147.062 98.6638C146.975 98.135 146.792 97.6265 146.523 97.1631C146.664 96.9409 146.798 96.7167 146.916 96.4903C147.13 95.9818 147.275 95.4473 147.349 94.9007ZM133.256 107.052C133.263 107.055 133.257 107.056 133.257 107.056C133.257 107.056 133.249 107.062 133.25 107.059L133.252 107.051L133.256 107.052ZM135.86 103.733C136.404 103.279 137.022 102.922 137.687 102.677C137.257 103.363 136.735 103.986 136.136 104.531C135.59 105.116 134.951 105.608 134.246 105.986C134.097 105.977 133.951 105.976 133.808 105.978C134.381 105.135 135.072 104.379 135.86 103.733ZM132.503 105.988L132.504 105.994L132.497 105.991C132.499 105.991 132.499 105.977 132.503 105.988ZM132.49 106.909L132.491 106.909C132.433 107.174 132.448 107.104 132.49 106.909ZM139.848 105.53C139.936 105.418 140.025 105.308 140.11 105.193C140.103 105.243 140.092 105.29 140.089 105.342C140.017 105.415 139.936 105.478 139.848 105.53V105.53ZM142.679 102.183C142.62 102.328 142.538 102.463 142.437 102.583C142.329 102.718 142.209 102.843 142.079 102.956C141.815 103.191 141.514 103.4 141.229 103.615C141.21 103.629 141.191 103.645 141.172 103.659C141.672 102.903 142.156 102.165 142.655 101.534C142.645 101.547 142.636 101.561 142.631 101.576C142.587 101.728 142.756 101.951 142.679 102.183V102.183ZM142.66 101.529C142.693 101.486 142.726 101.44 142.76 101.399C142.88 101.254 143.006 101.115 143.139 100.98C143.135 101.006 143.129 101.032 143.12 101.058C143.046 101.244 142.756 101.415 142.66 101.529V101.529Z" fill="#121212"/>
<path d="M136.117 63.7458C136.015 63.413 135.934 63.0852 135.868 62.7586C135.811 62.4352 135.771 62.1092 135.747 61.7817C135.723 61.0909 135.748 60.3992 135.821 59.7119C135.86 59.2995 135.804 58.8835 135.657 58.4963C135.51 58.109 135.276 57.7607 134.973 57.4783C134.367 56.8656 133.804 56.2122 133.288 55.5226C132.826 54.922 132.244 54.4243 131.579 54.0611C130.73 53.6298 129.787 53.4166 128.835 53.441C128.071 53.4636 127.517 53.7915 127.362 54.2909C127.346 54.3574 127.318 54.4202 127.278 54.4755C127.238 54.5308 127.187 54.5775 127.129 54.6129C127.071 54.6482 127.006 54.6715 126.938 54.6814C126.871 54.6913 126.802 54.6875 126.736 54.6703C125.368 54.2335 123.832 54.6255 122.495 55.6511C120.767 56.979 119.069 58.3813 118.061 60.1853C117.85 60.5654 117.547 60.8858 117.178 61.1167C116.698 61.419 116.27 61.845 115.795 62.1331C114.579 62.9454 113.674 64.1437 113.223 65.5343C112.924 66.3263 112.573 67.0978 112.172 67.8438C110.832 70.379 109.136 72.7812 108.314 75.5433C108.244 75.7811 107.986 75.9832 107.845 76.2217C107.473 76.831 107.133 77.459 106.805 78.0933C105.759 80.1442 104.96 82.3072 103.697 84.2484C103.314 84.8601 103.124 85.5726 103.151 86.2936C103.182 86.8593 103.001 87.4164 102.642 87.8547C102.26 88.4616 101.974 89.1242 101.796 89.8187C101.385 91.0726 101.375 92.0449 102.41 92.4908C102.653 92.5957 102.556 92.9141 102.25 93.0789C102.139 93.1225 102.034 93.1807 101.938 93.2519C101.862 93.3215 101.749 93.5043 101.766 93.5445C102.031 94.1882 103.357 94.356 103.8 93.7948C104.21 93.2789 104.711 92.806 104.861 92.0935C104.948 91.278 105.198 90.4883 105.596 89.7714C106.058 89.0459 105.959 88.1899 106.15 87.3926C106.487 86.039 107.336 84.9062 107.655 83.5329C107.838 82.866 108.097 82.2226 108.429 81.6158C108.758 81.0046 109.101 80.3992 109.376 79.7626C109.609 79.2651 109.92 78.8078 110.297 78.4077C111.074 77.6236 111.595 76.6219 111.791 75.5352C111.913 74.8516 112.251 74.2251 112.756 73.7481C113.151 73.366 113.5 72.9387 113.795 72.4749C114.082 72.005 114.304 71.498 114.453 70.9681C114.588 70.5859 114.802 70.2361 115.08 69.9414C116.022 68.7471 116.903 67.5061 117.72 66.2229C118.763 64.658 119.757 62.9624 121.421 62.1231C121.641 61.995 121.817 61.8032 121.926 61.5731C122.15 61.0573 122.495 60.6029 122.932 60.2483C123.368 59.8938 123.884 59.6495 124.434 59.5361C124.78 59.445 125.091 59.2527 125.326 58.9839C125.706 58.4395 126.246 58.0269 126.871 57.8036C127.444 57.5807 128.074 57.5496 128.666 57.715C128.756 57.7485 128.855 57.7459 128.943 57.7079C129.077 57.6129 129.235 57.5566 129.399 57.5452C129.563 57.5337 129.726 57.5676 129.873 57.6431C130.063 57.7713 130.239 57.9204 130.397 58.0874C130.526 58.1943 130.647 58.3349 130.804 58.4853C130.984 58.6757 131.192 58.8377 131.421 58.9659C131.744 59.2002 131.991 59.5251 132.13 59.8995C132.269 60.2739 132.294 60.6811 132.202 61.0698C132.183 61.2248 132.16 61.376 132.154 61.519C132.111 61.9822 132.194 62.4485 132.394 62.8682C132.497 63.2372 132.465 63.6306 132.304 63.9781C132.028 64.7094 131.985 65.5081 132.18 66.265C132.281 66.8123 131.953 66.9181 131.701 67.1549C131.146 67.6817 131.125 67.9592 131.656 68.6791C131.839 68.9322 131.918 69.1477 131.703 69.2763C131.479 69.3629 131.293 69.527 131.179 69.7388C131.066 69.9506 131.032 70.1962 131.084 70.4308C131.136 71.2495 130.934 72.0643 130.506 72.7642C129.997 73.6519 129.584 74.5912 129.273 75.5663C128.954 76.5463 128.744 77.5584 128.646 78.5843C128.548 78.9811 128.371 79.3542 128.126 79.6815C127.812 80.1373 127.627 80.6694 127.591 81.2217C127.601 81.7711 127.42 82.3069 127.077 82.7366C126.586 83.3029 126.872 84.116 126.466 84.6624C126.067 85.2153 125.772 85.836 125.596 86.4942C124.937 87.1023 124.781 87.8903 124.667 88.7156C124.652 88.82 124.515 88.943 124.42 89.0355C124.168 89.26 123.973 89.5418 123.852 89.8572C123.731 90.1727 123.688 90.5126 123.726 90.8483C123.782 91.4158 123.407 91.8827 123.159 92.3729C122.1 93.0993 121.67 94.3105 121.068 95.406C120.786 95.8868 120.539 96.3879 120.331 96.9053C120.058 97.6727 119.885 98.4603 119.593 99.2249C119.281 100.052 118.434 100.382 117.994 101.097C117.797 101.457 117.634 101.835 117.509 102.226C117.366 102.611 117.326 103.133 117.085 103.356C116.307 104.062 116.101 104.986 115.684 105.836C115.3 106.64 114.78 107.227 113.959 107.341C113.694 107.355 113.442 107.463 113.249 107.645C113.056 107.827 112.933 108.071 112.903 108.335C112.821 108.808 112.648 109.26 112.394 109.667C112.13 110.071 111.921 110.508 111.772 110.966C111.592 111.628 110.851 111.914 110.447 112.499C110.059 113.069 109.52 113.557 109.34 114.231C109.281 114.425 109.174 114.601 109.031 114.744C108.887 114.888 108.711 114.994 108.517 115.053C108.066 115.267 107.507 115.286 107.308 115.945C107.21 116.196 107.03 116.407 106.798 116.545C106.571 116.673 106.396 116.877 106.303 117.121C106.208 117.453 105.95 117.921 105.693 118.013C104.728 118.35 104.076 118.94 103.408 119.199C103.069 119.323 102.694 119.313 102.361 119.171C102.252 119.273 102.116 119.342 101.97 119.372C101.824 119.401 101.672 119.39 101.532 119.34C101.172 119.224 100.806 119.126 100.436 119.048C100.21 119.004 100.04 118.917 99.9946 118.661C99.9441 118.395 99.8073 118.247 99.5622 118.278C99.0976 118.331 98.5889 118.21 98.6657 117.555C98.7048 116.991 98.6379 116.424 98.4685 115.884C98.2969 115.311 98.1941 114.719 98.1622 114.121C98.1626 114.054 97.7855 113.879 97.5782 113.797C97.5169 113.785 97.4591 113.76 97.4088 113.723C97.3585 113.686 97.317 113.639 97.2873 113.584C97.2576 113.529 97.2404 113.468 97.2369 113.406C97.2335 113.344 97.2439 113.282 97.2674 113.224C97.5495 111.981 97.5904 111.927 96.7283 111.294C96.1214 110.791 95.5648 110.23 95.0665 109.619C94.7349 109.27 94.4763 108.859 94.3059 108.409C94.1356 107.959 94.0569 107.479 94.0746 106.998C94.0624 106.022 93.8687 105.058 93.5034 104.153L92.8518 101.934C92.6233 101.197 92.4249 100.451 92.2403 99.7018C92.0576 99.0465 92.0861 98.3503 92.3219 97.7121C92.4541 97.342 92.5505 96.96 92.6097 96.5714C92.6691 96.1727 92.6305 95.7655 92.4975 95.385C92.3644 95.0044 92.1408 94.662 91.8458 94.3871C91.5699 94.1899 91.2679 94.0321 90.9485 93.9181C90.6631 93.7911 90.5455 93.5853 90.7048 93.3774C90.9951 92.9958 91.301 92.6717 90.9306 92.0378C90.6574 91.5743 90.4476 91.0757 90.189 90.604C90.1138 90.4879 90.0684 90.355 90.0568 90.2171C90.0452 90.0793 90.0677 89.9407 90.1224 89.8136C90.3943 89.2334 90.6673 88.6735 90.9655 88.1032C91.0582 87.9295 91.1065 87.7355 91.1063 87.5386C91.1061 87.3417 91.0574 87.1478 90.9644 86.9742C90.7678 86.5336 90.6311 86.0686 90.558 85.5916C90.4874 85.1118 90.4591 84.6203 90.4105 84.1349C90.2775 83.1912 90.4948 82.2315 91.0214 81.4372C91.2624 81.0787 91.2083 80.8435 90.8433 80.4464C90.6641 80.2514 90.4698 80.1015 90.5138 79.8359C90.5754 79.4337 90.6856 79.0405 90.8422 78.665C91.0595 78.2438 91.1802 77.7794 91.1956 77.3057C91.211 76.832 91.1207 76.3608 90.9312 75.9264C90.6926 75.3041 90.4915 74.6681 90.3291 74.0218C90.1893 73.5516 90.393 73.2263 90.7937 73.2737C91.2361 73.3236 91.3922 73.1525 91.3147 72.696C91.126 71.6283 90.9365 70.5566 90.7506 69.5043C90.6239 68.97 90.6864 68.4082 90.9277 67.9148C91.0691 67.6843 91.1722 67.4324 91.2331 67.1689C91.3494 66.2103 91.5814 65.2694 91.9242 64.3666C91.9919 64.2151 92.0773 64.0722 92.1785 63.9407C92.2686 63.8047 92.3941 63.7263 92.4758 63.6032C92.5588 63.4813 92.6791 63.41 92.7459 63.2774C92.8381 63.1557 92.913 63.0218 92.9686 62.8797C93.0527 62.6858 93.2092 62.5324 93.4048 62.4522C93.5981 62.3978 93.8 62.3807 93.9997 62.4018C94.3916 62.4967 94.7981 62.5154 95.1971 62.4568C95.3011 62.4294 95.4088 62.4055 95.5187 62.3824C95.6288 62.3673 95.7411 62.3635 95.8545 62.3523C95.97 62.3408 96.0848 62.3293 96.1974 62.318C96.3119 62.3151 96.4262 62.3063 96.5398 62.2916C96.7815 62.2543 97.0288 62.2919 97.2485 62.3994C97.4608 62.4987 97.6471 62.6461 97.7925 62.8299C98.0997 63.1903 98.3455 63.0417 98.6934 62.9531C98.9529 62.8931 99.2247 62.9163 99.4703 63.0194C99.5689 63.0738 99.6556 63.1474 99.7253 63.2358C99.7951 63.3242 99.8465 63.4256 99.8765 63.5341C99.9232 63.7071 99.9511 63.8846 99.9599 64.0636C99.9749 64.2348 99.9814 64.4067 99.9792 64.5786C99.9745 65.136 100.62 65.3145 100.683 65.7957C100.81 66.8083 101.14 67.7245 101.319 68.7608C101.569 69.6299 101.624 70.6046 101.906 71.4651C102.291 72.7337 102.826 73.952 103.498 75.0942C103.568 75.1749 103.662 75.2316 103.766 75.2565C103.87 75.2813 103.979 75.273 104.078 75.2326C104.479 74.9911 104.849 74.7014 105.18 74.37C105.323 74.2224 105.434 74.0474 105.507 73.8556C105.581 73.6638 105.614 73.4592 105.606 73.2541C105.605 72.3648 105.573 71.4581 105.49 70.5353C105.367 69.0073 105.068 67.4986 104.598 66.0395C104.343 65.2666 104.02 64.5182 103.632 63.8032C103.221 63.0439 102.724 62.334 102.152 61.6876C101.485 60.5597 100.439 59.7046 99.2012 59.2742C98.4896 58.9907 97.8197 58.7128 97.1205 58.4682C96.7665 58.3597 96.4055 58.2609 96.0365 58.181C95.6537 58.1138 95.2657 58.081 94.8771 58.0829C93.6612 58.0912 92.4627 58.3723 91.3699 58.9054C90.2038 59.4826 89.2148 60.3633 88.5068 61.455C87.9174 62.4203 87.5122 63.4867 87.3121 64.5999C87.1494 65.4786 87.0328 66.3651 86.9626 67.2559C86.8555 68.4222 86.708 69.5717 86.9908 70.7063C87.0794 71.2782 87.0374 71.8628 86.8679 72.4162C86.6956 73.1161 86.5828 73.8293 86.5307 74.5482C86.499 75.1298 86.4583 75.7114 86.4415 76.2936L86.4158 78.0408C86.385 79.2058 86.4248 80.3702 86.4477 81.5348C86.4998 83.8666 86.7174 86.1914 86.8431 88.5137C86.8762 89.3594 86.9994 90.199 87.2107 91.0185C87.5503 92.4068 87.7615 93.8696 88.0689 95.2848C88.2759 96.109 88.5858 96.9017 88.8476 97.704C88.812 98.7184 88.9502 99.7315 89.2562 100.699C89.506 101.68 89.8744 102.632 90.0917 103.615C90.2181 104.013 90.413 104.386 90.6677 104.716C90.8332 104.941 90.9131 105.218 90.893 105.497C90.9174 106.283 91.0494 107.063 91.2855 107.814C91.5439 108.56 91.7036 109.337 91.7603 110.125C92.0866 110.76 92.482 111.359 92.7844 112.006C93.1217 112.642 93.3603 113.326 93.4919 114.034C93.645 115.11 93.9381 116.161 94.3638 117.16C94.8392 118.249 95.4702 119.263 96.2371 120.171C96.6014 120.512 96.9237 120.894 97.1974 121.311C97.7117 122.25 98.5109 123.001 99.4797 123.455C100.545 123.96 101.733 124.148 102.901 123.995C103.696 123.889 104.474 123.682 105.216 123.379C105.913 123.106 106.565 122.807 107.2 122.509C108.814 121.767 110.084 120.437 110.75 118.79C111.049 118.061 111.442 117.373 111.918 116.745C112.381 116.108 112.9 115.513 113.469 114.968C114.082 114.381 114.747 113.924 115.14 113.064C115.549 112.172 116.526 111.736 117.019 110.795C117.432 110.036 117.96 109.345 118.585 108.748C119.144 108.222 119.312 107.507 119.772 107.032C120.464 106.325 120.498 105.508 120.729 104.746C120.919 104.102 121.131 103.82 121.715 103.706C122.177 103.616 122.056 103.011 122.267 102.696C122.639 102.269 122.987 101.821 123.309 101.355C123.639 100.725 123.782 100.011 124.089 99.3685C124.681 98.0561 125.305 96.7636 126.396 95.8007C126.522 95.6527 126.594 95.4666 126.6 95.2725C126.607 95.0785 126.547 94.888 126.432 94.7321C126.091 94.4723 125.721 94.2593 125.384 93.9946C125.162 93.8199 125.153 93.5994 125.325 93.4821C125.423 93.4197 125.541 93.3953 125.656 93.4133C125.974 93.4738 126.278 93.5804 126.597 93.6328C127.084 93.7113 127.466 93.4564 127.81 92.8974C128.156 92.4362 128.381 91.895 128.462 91.3239C128.516 90.3274 128.786 89.3546 129.253 88.4728C129.584 87.6782 129.976 86.9103 130.425 86.1759C130.968 85.3349 130.762 84.2381 131.567 83.4668C131.915 83.0121 132.149 82.4801 132.248 81.9159C132.431 81.2264 132.423 80.4947 132.645 79.8302C132.856 79.173 133.293 78.59 133.573 77.9417C133.656 77.6891 133.652 77.4157 133.561 77.1657C133.477 76.9561 133.25 76.8668 133.1 76.705C132.954 76.5464 132.828 76.3618 132.692 76.1894C132.905 76.1188 133.137 75.9657 133.329 75.9903C134.173 76.101 134.137 75.4972 134.144 74.7294C134.249 74.3211 134.439 73.9394 134.7 73.6086C135.191 72.8744 135.416 71.994 135.336 71.1143C135.185 69.9496 135.361 68.7658 135.843 67.695C136.411 66.4556 136.509 65.0518 136.117 63.7458Z" fill="#121212"/>
<path d="M101.872 89.9536C101.802 89.5815 101.694 89.2177 101.549 88.8679C101.53 88.8176 101.501 88.7703 101.478 88.7208L101.441 88.6457L101.333 88.5083C101.179 88.3177 101.004 88.1453 100.811 87.9947C100.465 87.6987 100.064 87.4736 99.6316 87.3322C99.5061 87.2938 99.378 87.2646 99.2483 87.2448C99.0697 87.2247 98.8897 87.2188 98.7101 87.2271C98.2385 87.2584 97.7799 87.3956 97.3686 87.6286C97.153 87.7514 96.9515 87.8973 96.7675 88.0637C96.6078 88.2118 96.4611 88.3736 96.3294 88.5472C96.2979 88.5903 96.266 88.6393 96.2341 88.6869C96.3205 87.9167 96.4532 87.1524 96.6316 86.3981C96.9655 86.2047 97.2702 85.9647 97.5365 85.6855C98.5428 84.6115 99.3734 83.3855 99.9977 82.0527C100.088 81.8792 100.167 81.7018 100.206 81.6017L100.353 81.2432C100.447 81.0038 100.54 80.7653 100.633 80.5278C100.724 80.2915 100.815 80.0573 100.905 79.8253C100.95 79.7103 100.996 79.5959 101.041 79.4824L101.133 79.2521C101.166 79.1602 101.198 79.0682 101.225 78.9749C101.365 78.5332 101.408 78.0664 101.351 77.6065C101.31 77.2919 101.2 76.9901 101.029 76.7226C100.858 76.4552 100.631 76.2286 100.362 76.0589C100.173 75.9406 99.9678 75.8496 99.7529 75.7888C99.3469 75.6826 98.9206 75.6818 98.5142 75.7864C98.2424 75.8565 97.979 75.956 97.7287 76.0831C97.5254 76.1835 97.3595 76.2768 97.2078 76.3604L96.9919 76.4786L96.8343 76.5384C96.554 76.6821 96.3103 76.888 96.1217 77.1403C96.0818 77.1901 96.042 77.2459 96.002 77.3C96.1455 76.052 96.534 74.8445 97.1451 73.7469C97.3528 73.2799 97.3837 72.7532 97.2319 72.2651C97.1514 72.0292 97.1249 71.7782 97.1546 71.5307C97.1842 71.2832 97.2692 71.0456 97.4032 70.8354C98.2655 69.7535 99.3026 68.6531 99.8448 67.377C100.399 66.1066 99.3796 65.9341 98.9806 66.0804C97.6468 66.6004 96.4861 67.4853 95.6314 68.6338C94.6897 69.8526 94.1174 71.3125 94.2695 72.4827C94.2827 72.6216 93.9907 72.7787 93.8444 72.9328C93.3315 73.5337 92.9632 74.2441 92.7679 75.0096C92.6515 75.4208 92.5372 75.8349 92.4436 76.2326C92.3554 76.632 92.2657 77.008 92.164 77.3358C92.0688 77.6921 91.979 78.0587 91.8935 78.4303C91.8724 78.5098 91.8498 78.6447 91.8283 78.776L91.7639 79.1647L91.6391 79.9423C91.5037 80.9111 91.4415 81.8887 91.453 82.8669C91.4501 83.0555 91.4292 83.2435 91.3906 83.4282C91.3598 83.6147 91.3393 83.7819 91.3019 83.9689C91.2222 84.3423 91.1622 84.7196 91.1219 85.0993C91.1837 85.6339 91.4793 85.8259 91.8246 85.8182C91.9083 85.8027 92.0502 86.0035 92.3063 86.2806C92.4257 86.414 92.5591 86.5341 92.7041 86.6391C92.7153 86.7368 92.7197 86.8352 92.717 86.9336C92.7018 87.2735 92.6278 87.6083 92.4983 87.923C92.3913 88.2548 92.2586 88.5919 92.1528 88.9305C91.9656 89.6048 91.9078 90.3018 92.4832 90.847C92.4587 91.1122 92.4111 91.3748 92.341 91.6318C92.2635 92.1619 92.3114 92.7028 92.4808 93.211C92.5997 93.8582 92.7888 94.4906 93.0448 95.0967C93.2332 95.5104 93.4898 95.8894 93.8037 96.2181C94.1099 96.5347 94.475 96.7885 94.8786 96.965C95.3404 97.1597 95.84 97.2486 96.3406 97.2251C96.8413 97.2016 97.3303 97.0662 97.7718 96.829C97.9334 96.7327 98.0913 96.6429 98.2464 96.543C98.559 96.3006 98.8574 96.0404 99.1403 95.7639C99.6279 95.3052 100.072 94.8021 100.466 94.2611C101.077 93.463 101.533 92.5571 101.81 91.5905C101.956 91.0569 101.977 90.4968 101.872 89.9536ZM98.443 91.6995L98.4432 91.7C98.2236 91.9766 98.3727 91.7884 98.443 91.6995ZM98.3168 91.63C98.3628 91.6416 98.4054 91.6641 98.441 91.6954L98.4429 91.6992L98.4009 91.7521L98.3996 91.7504L98.357 91.6962C98.3317 91.6626 98.2879 91.6086 98.3168 91.63ZM94.7073 80.1966C94.7213 80.1332 94.7435 80.0719 94.7733 80.0141C94.7431 80.1494 94.727 80.2874 94.7251 80.426C94.7225 80.4383 94.719 80.4504 94.7145 80.4622C94.6931 80.3752 94.6907 80.2847 94.7073 80.1966ZM100.005 91.0216L100.009 91.0215L100.016 91.0245L100.018 91.026L100.005 91.0216Z" fill="#121212"/>
<path d="M100.911 61.4178C100.519 60.7877 99.9389 60.2968 99.2527 60.0142C98.9041 59.8661 98.5336 59.7759 98.1559 59.747C97.8108 59.7181 97.4633 59.7455 97.1269 59.8282C96.5591 59.9482 96.0568 60.2768 95.7194 60.7491C95.6515 60.8493 95.3858 60.7346 95.2047 60.7263C94.5617 60.7517 93.9468 60.997 93.4629 61.4212C92.9855 61.8237 92.5292 62.2504 92.0956 62.6996C91.2511 63.5212 90.5784 64.5025 90.1165 65.5863C90.0174 65.7827 89.8686 65.9496 89.6849 66.0706C89.4668 66.2004 89.2737 66.3682 89.1148 66.5661C89.0157 66.7648 88.9736 66.9871 88.9934 67.2082C89.0132 67.4293 89.094 67.6406 89.2268 67.8185C89.3475 67.9644 89.2699 68.8685 89.3341 69.6992C89.3789 70.5382 89.5871 71.3092 89.5517 71.4331C89.4283 71.7842 89.3836 72.1582 89.4211 72.5285C89.4585 72.8988 89.577 73.2564 89.7682 73.5757C89.6503 73.8924 89.5287 74.2313 89.4295 74.5779C89.1738 75.4646 89.0893 76.352 89.4096 76.8284C89.7912 77.3803 89.693 77.9478 89.7791 78.4974C89.794 78.7062 89.7632 78.9157 89.6888 79.1113C89.6144 79.3069 89.4982 79.484 89.3483 79.6301C88.8601 80.2551 89.8876 81.8099 89.7408 82.4419C89.6354 82.9053 89.6682 82.9129 90.3547 82.8784C90.8234 82.9126 91.2939 82.8454 91.7343 82.6812C92.3022 82.1961 92.835 81.6712 93.3287 81.1107C93.7286 80.6205 93.3675 80.0706 93.8193 79.5777C94.6013 78.7457 93.0262 78.2277 93.8036 77.3778C93.9688 77.2181 94.0963 77.0237 94.177 76.8086C94.3708 76.1236 94.3809 75.3997 94.2063 74.7096C94.1074 74.2286 94.0779 73.736 94.1185 73.2467C94.2023 73.177 94.2856 73.1077 94.3682 73.039C94.4637 72.9507 94.5582 72.8633 94.6517 72.7769C94.8175 72.592 95.0034 72.4262 95.2059 72.2826C95.5982 72.0304 96.0275 71.8413 96.4784 71.7221C96.9011 71.604 97.7989 70.7465 98.2126 69.7695C98.4041 69.3315 98.4938 68.8558 98.4749 68.3782C98.4642 68.1957 98.4313 68.0152 98.3769 67.8408C98.3267 67.746 98.2677 67.5018 98.192 67.3858C98.1007 67.018 97.9468 66.6686 97.737 66.353C97.6477 66.227 97.5504 66.1068 97.4458 65.9931C97.383 65.9273 97.3166 65.8616 97.2472 65.7968C97.1598 65.7235 97.0649 65.6512 96.9667 65.5836C96.7136 65.417 96.4301 65.3022 96.1324 65.2458C95.9655 65.2184 95.7963 65.2081 95.6274 65.2151C95.4724 65.2268 95.3188 65.2529 95.1686 65.2929C95.0346 65.3328 94.9039 65.383 94.7776 65.443C95.251 64.6392 95.9008 63.8396 96.7352 63.7191C96.9912 63.6861 97.0826 63.3387 97.2556 62.9987C97.4125 62.6617 97.6756 62.3404 97.9491 62.4443C98.2924 62.5924 98.6169 62.7809 98.9156 63.0058C99.2025 63.2164 99.502 63.4095 99.8123 63.584C99.9492 63.6819 100.106 63.7476 100.272 63.7763C100.438 63.805 100.608 63.7958 100.77 63.7496C100.895 63.7066 101.007 63.6345 101.098 63.5391C101.189 63.4438 101.255 63.328 101.292 63.2016C101.394 62.5803 101.258 61.9434 100.911 61.4178ZM94.0833 65.9183C93.9046 66.0858 93.7391 66.2669 93.5883 66.46C93.3472 66.7689 93.2124 66.9788 93.1657 67.0259C93.0285 67.1357 92.8766 67.2259 92.7145 67.2937C92.7194 67.2607 92.7223 67.227 92.7278 67.1944C92.7677 66.9814 92.8442 66.777 92.9541 66.5902C93.1663 66.3194 93.4572 66.1211 93.7869 66.0225C93.8937 65.981 93.9986 65.9422 94.1013 65.9032L94.0833 65.9183Z" fill="white"/>
<path d="M88.8245 132.415C89.0064 131.531 88.5585 130.919 88.2961 130.261C88.0747 129.707 88.0891 129.4 88.4946 129.014C88.8167 128.705 88.3628 128.353 88.3467 128.027C88.3928 127.543 88.4144 127.058 88.4114 126.572C88.3158 125.974 88.0218 125.415 87.8989 124.82C87.6576 123.618 87.4159 122.413 87.8087 121.199C87.8246 121.026 87.7764 120.854 87.6731 120.714C87.5698 120.574 87.4188 120.477 87.2487 120.442C86.8221 120.431 86.3967 120.468 85.97 120.452C85.6887 120.441 85.56 120.291 85.6377 120.122C85.6888 120.026 85.7725 119.951 85.8738 119.91C86.1734 119.794 86.4857 119.717 86.7825 119.595C86.9959 119.506 87.1735 119.348 87.2868 119.146C87.4 118.945 87.4426 118.711 87.4076 118.482C87.4496 117.99 87.3453 117.496 87.1078 117.063C86.6385 116.346 86.3553 115.523 86.2839 114.669C86.1633 113.944 86.1061 113.21 86.113 112.476C86.1469 111.621 85.4415 110.926 85.7449 109.999C85.819 109.514 85.7621 109.019 85.5801 108.565C85.4107 107.981 85.0418 107.455 84.9184 106.87C84.8649 106.272 84.8416 105.672 84.8484 105.072C84.7987 104.844 84.6647 104.643 84.4731 104.509C84.3017 104.392 84.0608 104.427 83.8538 104.374C83.6519 104.322 83.4558 104.242 83.2562 104.174C83.4114 104.028 83.5458 103.813 83.7267 103.747C84.5261 103.459 84.2174 103.033 83.8853 102.465C83.7404 102.218 83.857 101.76 83.895 101.405C84.0223 100.674 83.8642 99.9213 83.4532 99.303C82.8619 98.5037 82.5931 97.5111 82.7002 96.5227C82.8285 95.3859 82.5134 94.2435 81.8206 93.3332C81.1183 92.4306 80.7386 91.3188 80.742 90.1752C80.7371 89.853 80.6535 89.5368 80.4984 89.2543C80.3433 88.9718 80.1215 88.7315 79.8524 88.5543C79.3245 88.1849 78.9195 87.6658 78.6896 87.0639C78.4982 86.5887 78.3379 86.0964 78.1015 85.6303C77.9439 85.3378 77.8087 85.0525 77.6191 84.7523C77.4173 84.4245 77.1803 84.1198 76.9121 83.8436C76.654 83.5717 76.3271 83.3747 75.9661 83.2734C75.8284 83.2329 75.6835 83.2233 75.5418 83.2455C75.4 83.2677 75.2649 83.3211 75.1463 83.4018C75.0359 83.4899 74.8985 83.5371 74.7573 83.5357C74.616 83.5342 74.4797 83.484 74.3711 83.3936C74.0551 83.1223 73.6743 82.9375 73.2656 82.8571C72.857 82.7767 72.4345 82.8035 72.0393 82.9349C71.5976 83.0654 71.1832 83.2748 70.8161 83.553C70.4879 83.8055 70.1971 84.1033 69.9524 84.4374C69.6474 84.8508 69.3639 85.2795 69.1028 85.7219C68.9766 85.9366 68.858 86.1529 68.7441 86.3704L68.4596 86.9741C68.0566 87.7619 67.7654 88.602 67.5947 89.4702C67.5301 89.8391 67.3489 90.1776 67.0776 90.4358C66.7312 90.7862 66.4785 91.2388 66.1243 91.5756C65.8901 91.8032 65.6812 92.0555 65.5015 92.3282C65.3353 92.5969 65.1991 92.883 65.0954 93.1814C64.8811 93.7736 64.7638 94.3965 64.7481 95.0261C64.7227 95.7711 64.6439 96.5134 64.5122 97.2472C64.0945 99.7155 63.4087 102.209 63.7185 104.716C63.7462 104.931 63.5862 105.178 63.5479 105.417C63.4472 106.032 63.3806 106.651 63.3484 107.273C63.2829 108.018 63.3028 108.765 63.3068 109.512L62.4604 108.042C61.8819 107.044 61.2969 106.005 60.6231 104.955C60.3811 104.048 59.8873 103.227 59.1987 102.587C58.3945 101.769 57.876 100.737 56.8736 99.9961C56.5189 99.7295 56.1391 99.4856 55.754 99.2503L55.1553 98.9226C54.9493 98.8151 54.7075 98.7131 54.4839 98.6125C53.5903 98.2439 52.6474 98.0084 51.6854 97.9135C50.7361 97.818 49.7779 97.8646 48.8424 98.0516C47.8585 98.2407 46.9156 98.6017 46.0569 99.118C45.7424 99.3112 45.4444 99.53 45.1659 99.7723C45.026 99.8965 44.8882 100.022 44.7564 100.152C44.6316 100.294 44.5112 100.44 44.3953 100.588C44.1665 100.883 43.9746 101.206 43.8238 101.548C43.6856 101.884 43.5871 102.235 43.5301 102.594C43.4452 103.26 43.2255 103.927 43.0863 104.594C42.9148 105.369 42.8859 106.169 43.001 106.954C43.201 108.051 43.5124 109.125 43.9306 110.159C44.3174 111.106 44.6766 112.065 45.0907 113C45.5316 113.922 45.9558 114.856 46.4275 115.762C46.9238 116.656 47.3793 117.571 47.8588 118.471C48.2056 119.127 48.6198 119.745 49.0948 120.314C49.4895 120.801 49.9089 121.282 50.2838 121.796C50.6721 122.302 51.0311 122.832 51.4558 123.303C51.9594 123.851 52.5294 124.332 53.0656 124.837C53.2276 125.252 53.4519 125.64 53.731 125.988C54.0016 126.336 54.2928 126.667 54.6028 126.981C55.2042 127.629 55.9069 128.179 56.4964 128.83C56.7693 129.075 57.0881 129.264 57.4344 129.385C57.6584 129.481 57.8391 129.656 57.9418 129.877C58.5833 131.094 59.8961 131.827 60.6356 132.985C61.192 133.28 61.7531 133.551 62.2842 133.876C62.8429 134.166 63.3459 134.552 63.7697 135.017C64.3551 135.77 65.0731 136.409 65.8883 136.904C66.6875 137.413 67.5408 137.831 68.4326 138.152C68.7968 138.229 69.1356 138.397 69.4175 138.641C69.9119 139.136 70.4876 139.543 71.1196 139.844C71.4308 140.003 71.7504 140.147 72.072 140.286C72.3946 140.422 72.732 140.525 73.059 140.646C74.0175 140.978 74.9272 141.437 75.7638 142.01C76.3384 142.42 76.972 142.74 77.6428 142.959C78.3894 143.187 79.1755 143.257 79.9506 143.163C80.7695 143.061 81.5827 143.027 82.4723 142.914C83.4567 142.822 84.4149 142.544 85.2968 142.097C86.2999 141.594 87.2682 140.773 87.5205 139.655C87.6558 139.132 87.8422 138.624 88.077 138.138C88.3017 137.69 88.4293 137.2 88.4517 136.699C88.4468 135.895 88.5558 135.094 88.7755 134.32C88.9778 133.633 88.7001 133.003 88.8245 132.415ZM84.088 135.277C83.6835 135.522 83.4388 135.885 83.6746 136.346C83.8265 136.663 83.8836 137.017 83.8389 137.366C83.7918 137.657 83.7842 137.954 83.8162 138.247C83.8311 138.333 83.8147 138.421 83.7702 138.495C83.7256 138.569 83.6557 138.625 83.5734 138.652C83.4279 138.723 83.2672 138.723 83.1761 138.823C82.9795 139.013 82.6816 139.003 82.3696 139.326C82.1294 139.551 81.8828 139.419 81.66 139.237C81.3694 139.016 81.201 138.579 80.7291 138.766C80.3056 138.918 80.065 138.367 79.5899 138.488C79.4298 138.535 79.2618 138.546 79.0969 138.523C78.932 138.499 78.774 138.441 78.6332 138.352C78.3 138.023 77.909 137.759 77.4798 137.572C77.0652 137.382 76.6251 137.242 76.2086 137.032C75.7072 136.758 75.2252 136.45 74.766 136.11C74.2436 136.11 73.7277 135.995 73.2554 135.772C72.7764 135.558 72.258 135.446 71.7333 135.443C71.6178 135.468 71.4974 135.456 71.3887 135.41C71.28 135.364 71.1883 135.285 71.1263 135.184C70.9687 134.935 70.7703 134.853 70.5611 134.978C70.1558 135.22 69.6886 135.35 69.4637 134.773C69.0582 133.779 68.0248 133.245 67.489 132.376C67.4599 132.327 67.0868 132.422 66.8867 132.484C66.5931 132.577 66.4649 132.502 66.3965 132.231C66.1039 131.1 66.1042 131.062 65.1467 131.082C64.8 131.085 64.4539 131.054 64.1133 130.989C63.7817 130.91 63.4428 130.83 63.1104 130.751C62.7058 130.668 62.3225 130.504 61.984 130.267C61.641 130.026 61.3725 129.693 61.2089 129.307C60.859 128.528 60.1924 128.006 59.5723 127.454C58.6462 126.529 57.6361 125.681 56.7633 124.698C56.3526 124.277 56.1067 123.722 56.0704 123.135C56.0458 122.791 55.9877 122.45 55.8971 122.117C55.8034 121.781 55.6143 121.479 55.3526 121.248C55.0909 121.018 54.7679 120.868 54.4228 120.817C54.1034 120.797 53.7828 120.817 53.4685 120.877C53.173 120.912 52.9954 120.806 53.061 120.57C53.1795 120.136 53.335 119.744 52.7822 119.423C52.3773 119.188 51.9821 118.917 51.602 118.654C51.496 118.597 51.4085 118.512 51.3497 118.407C51.291 118.302 51.2635 118.183 51.2705 118.063C51.3114 117.488 51.3754 116.925 51.4272 116.367C51.448 116.2 51.4233 116.031 51.3557 115.877C51.2881 115.723 51.1802 115.59 51.0433 115.492C50.4353 114.933 49.9409 114.262 49.5874 113.516C49.179 112.805 49.0698 111.961 49.2837 111.169C49.3791 110.803 49.2654 110.639 48.8117 110.463C48.5887 110.376 48.3643 110.33 48.3272 110.103C48.2684 109.76 48.2486 109.413 48.2681 109.066C48.303 108.676 48.2726 108.283 48.1783 107.904C48.0786 107.542 47.8696 107.22 47.58 106.982C47.2117 106.633 46.8959 106.233 46.6423 105.793C46.4461 105.48 46.6377 105.241 47.0411 105.261C47.4869 105.267 47.6312 105.171 47.5275 104.94C47.2835 104.404 47.2161 103.805 47.3349 103.228C47.3624 103.065 47.4415 102.916 47.5605 102.801C47.618 102.746 47.6846 102.701 47.7573 102.668C47.8436 102.641 47.9333 102.627 48.0237 102.626C48.1944 102.643 48.3669 102.632 48.534 102.593C49.1998 102.349 49.906 102.234 50.6148 102.255C50.9405 102.276 51.2635 102.328 51.5792 102.411C51.8863 102.493 52.2092 102.495 52.5175 102.418C52.7132 102.357 52.9251 102.372 53.1096 102.462C53.2814 102.561 53.4349 102.689 53.5637 102.84C53.7762 103.172 54.0725 103.442 54.4228 103.622C54.8138 103.761 55.1765 104.009 55.5771 104.17C55.7825 104.257 55.9635 104.393 56.1038 104.567C56.2441 104.74 56.3395 104.945 56.3814 105.164C56.4929 105.615 56.8079 105.55 57.1352 105.586C57.7441 105.646 58.059 105.942 58.0736 106.392C58.0766 106.734 58.0588 107.076 58.0203 107.416C57.9743 107.962 58.6082 108.138 58.6899 108.582C58.9317 109.529 59.3188 110.433 59.8372 111.262C60.26 112.001 60.7517 112.698 61.3057 113.344C61.982 114.011 62.7449 114.585 63.5739 115.049C63.5857 115.069 63.5934 115.09 63.6057 115.109C63.7509 115.31 63.852 115.539 63.9023 115.782C63.9526 116.025 63.9509 116.276 63.8975 116.518C63.8316 117.147 63.8999 117.783 64.098 118.383C64.3212 119.522 64.8339 120.237 65.9334 120.045C66.1938 120.001 66.2668 120.277 66.0866 120.548C66.014 120.634 65.953 120.728 65.9051 120.83C65.8746 120.918 65.8677 121.108 65.9021 121.128C66.4467 121.457 67.6574 120.891 67.7646 120.279C67.8613 119.714 68.0732 119.14 67.8366 118.577C67.5391 117.958 67.3807 117.281 67.3725 116.595C67.4625 115.866 66.9694 115.298 66.7649 114.636C66.4724 113.499 66.6916 112.325 66.4084 111.176C66.3346 110.895 66.2878 110.607 66.2685 110.316C66.2607 110.026 66.2724 109.735 66.2895 109.444C66.3296 108.86 66.3636 108.279 66.3764 107.697C66.3871 107.233 66.4846 106.776 66.6639 106.348C66.8525 105.927 66.9764 105.479 67.0313 105.021C67.0664 104.56 67.0262 104.097 66.9121 103.65C66.7748 103.08 66.8499 102.48 67.1232 101.962C67.3595 101.563 67.5314 101.129 67.6325 100.676C67.6802 100.453 67.7076 100.227 67.7146 99.9995C67.7313 99.7665 67.7287 99.5325 67.7067 99.2999C67.7002 98.9593 67.7789 98.6224 67.9357 98.3199C68.4337 97.1421 68.7751 95.9283 69.1797 94.715C69.6514 93.1945 70.0876 91.5699 71.314 90.4411C71.4724 90.2761 71.5714 90.0631 71.5953 89.8356C71.619 89.3178 71.7682 88.8134 72.0299 88.366C72.252 88 72.581 87.7108 72.9725 87.5375C73.0788 87.4965 73.1742 87.4316 73.2513 87.3477C73.3284 87.2639 73.385 87.1633 73.4169 87.054C73.4298 86.9523 73.4516 86.8519 73.4819 86.754C73.5078 86.6629 73.4821 86.6329 73.503 86.5779C73.5117 86.5364 73.5324 86.4984 73.5625 86.4686C73.5926 86.4387 73.6308 86.4184 73.6723 86.41C73.8281 86.3868 73.9821 86.5904 73.893 86.8347C73.8759 86.8706 73.8819 86.904 73.8992 86.8656C74.194 86.8607 74.425 87.1435 74.6121 87.5226C74.7067 87.7104 74.7903 87.9041 74.8796 88.0919C74.9565 88.2863 75.0496 88.4737 75.1579 88.6524C75.3312 88.9224 75.4734 89.2219 75.6661 89.4783C75.842 89.755 76.0767 89.9894 76.3537 90.1648C76.684 90.3848 76.9561 90.6816 77.1467 91.0298C77.3373 91.378 77.4406 91.7672 77.4478 92.1641C77.4453 92.7275 77.6575 93.2707 78.0412 93.6832C78.2284 93.9704 78.299 94.3182 78.2385 94.6557C78.1712 95.3577 78.3713 96.0592 78.799 96.62C79.067 97.0431 78.796 97.2416 78.6451 97.5259C78.3015 98.164 78.395 98.4069 79.1449 98.802C79.4095 98.9401 79.5653 99.0818 79.415 99.2696C79.1217 99.6381 78.9573 99.9298 79.3022 100.449C79.6812 101.076 79.8464 101.81 79.7732 102.54C79.655 104.346 80.0188 106.151 80.8274 107.77C80.9371 108.109 80.9661 108.469 80.9121 108.822C80.8592 109.302 80.957 109.788 81.192 110.21C81.3314 110.404 81.431 110.623 81.4851 110.856C81.5392 111.088 81.5467 111.329 81.5071 111.564C81.3722 112.211 82.006 112.674 81.9501 113.263C81.8949 113.853 81.9614 114.448 82.1457 115.012C81.8993 115.772 82.1898 116.417 82.5261 117.066C82.5689 117.149 82.5161 117.305 82.4843 117.418C82.3895 117.7 82.3759 118.004 82.4449 118.294C82.5139 118.584 82.6629 118.849 82.8749 119.058C83.2292 119.435 83.1588 119.955 83.2226 120.427C82.7569 121.473 83.0383 122.554 83.1778 123.629C83.2188 124.112 83.299 124.591 83.4178 125.06C83.6291 125.738 83.9544 126.373 84.156 127.055C84.3722 127.79 83.8938 128.461 83.9556 129.173C84.0056 129.518 84.092 129.857 84.2134 130.185C84.3156 130.517 84.5979 130.89 84.5268 131.16C84.3036 132.02 84.6311 132.739 84.7618 133.516C84.8839 134.244 84.7394 134.889 84.088 135.277H84.088Z" fill="white"/>
<path d="M81.7333 131.144C81.5325 130.52 81.1553 129.967 80.6473 129.553C80.343 129.295 79.9805 129.114 79.5908 129.026C79.0955 128.952 79.0051 129.151 78.866 129.468C78.3462 129.903 78.6295 130.386 78.8948 130.889C79.0417 130.998 79.1621 131.138 79.2472 131.299C79.3323 131.461 79.3798 131.639 79.3862 131.821C79.3844 132.087 79.2964 132.345 79.1354 132.557C79.0333 132.724 78.8886 132.862 78.716 132.955C78.5434 133.048 78.3491 133.094 78.153 133.087C78.1061 133.078 78.0628 133.056 78.0282 133.022C77.9654 132.862 78.0175 132.995 77.999 132.948L77.9896 132.946C77.8935 132.936 77.8104 132.928 77.7136 132.911C77.5781 132.886 77.4507 132.828 77.343 132.743C77.2352 132.657 77.1504 132.546 77.096 132.419C76.8453 131.847 76.3718 131.739 75.7013 131.484C75.0678 131.267 74.4158 131.017 74.0615 130.251C74.0443 130.213 74.0192 130.177 74.0005 130.139C73.9563 129.961 73.8988 129.787 73.8288 129.617C73.6314 129.143 73.3536 128.705 73.0076 128.325C72.8039 128.117 72.5991 127.907 72.3932 127.696C70.7482 125.986 69.079 124.102 68.7319 122.117C68.6537 121.657 67.9807 120.787 67.2055 119.986C66.5989 119.321 65.8985 118.748 65.1264 118.286C65.0918 118.272 64.8521 118.017 64.4847 117.643C64.2905 117.457 64.0653 117.24 63.8239 117.009C63.6892 116.894 63.55 116.776 63.4083 116.655C63.2613 116.524 63.1052 116.402 62.9412 116.293C62.7651 116.173 62.6036 116.053 62.4136 115.938C62.1941 115.824 61.9726 115.717 61.7555 115.62L61.6745 115.584C61.6336 115.568 61.5651 115.547 61.5113 115.531C61.3764 115.492 61.238 115.466 61.098 115.454C61.0054 115.446 60.9123 115.445 60.8196 115.452C60.7131 115.456 60.6074 115.472 60.504 115.497C60.2278 115.561 59.9701 115.688 59.7515 115.868C59.5328 116.048 59.3592 116.277 59.2443 116.536C58.3597 115.593 57.5629 114.572 56.864 113.484C56.0631 112.201 54.5082 112.424 53.876 111.183C53.4801 110.386 53.0945 109.537 52.741 108.714C52.3858 107.888 52.0443 107.095 51.6739 106.344C51.5529 106.062 51.3796 105.806 51.163 105.59C51.1016 105.529 51.0268 105.484 50.9446 105.459C50.8624 105.433 50.7753 105.427 50.6905 105.442C50.5443 105.496 50.4138 105.586 50.3107 105.702C50.2076 105.819 50.1353 105.96 50.1001 106.112C49.9142 106.967 49.8964 107.85 50.0476 108.711C50.2167 109.7 50.5308 110.659 50.9798 111.556C51.8805 113.365 53.1624 114.774 54.3895 115.418C54.5399 115.496 54.5738 115.884 54.6586 116.131C55.2053 117.707 57.0896 119.526 58.1256 120.877C59.2365 122.338 60.5767 123.822 61.8225 125.187C62.3201 125.733 62.4068 126.376 62.683 126.98C63.0095 127.408 63.4879 127.695 64.0195 127.781C64.2623 127.8 65.1858 128.67 66.1555 129.509C66.5986 129.903 67.0599 130.273 67.4373 130.573C67.4642 130.603 67.4903 130.633 67.5175 130.663C67.8056 130.982 68.102 131.289 68.3982 131.574C68.6152 131.94 68.8892 132.269 69.2099 132.548C69.4415 132.746 69.6903 132.923 69.9534 133.077C70.107 133.172 70.2682 133.255 70.4354 133.324C70.7389 133.451 71.0617 133.524 71.3899 133.542C71.4486 133.545 71.5158 133.54 71.5795 133.539C72.0406 133.835 72.4733 134.177 72.94 134.472C73.2392 134.655 73.5054 134.887 73.7273 135.158C73.944 135.419 74.1751 135.732 74.4308 136.065C74.8023 136.457 75.2736 136.74 75.7941 136.884C76.2152 137.023 76.6517 137.11 77.0939 137.143C77.6639 137.185 78.2368 137.129 78.7878 136.977C78.9356 136.939 79.0809 136.891 79.2226 136.834L79.4353 136.749C79.4991 136.724 79.6251 136.661 79.7148 136.614C80.0906 136.422 80.4334 136.17 80.7304 135.87C81.1974 135.388 81.5443 134.802 81.743 134.161C82.0551 133.179 82.0517 132.124 81.7333 131.144ZM78.0435 133.062L78.038 133.047L78.0415 133.056L78.0425 133.059L78.0431 133.06L78.0433 133.061L78.0435 133.061V133.062Z" fill="#121212"/>
<path d="M84.5663 132.803C84.4591 132.529 84.2863 132.286 84.0632 132.094C83.8688 131.813 83.7101 131.51 83.5909 131.19C83.376 130.725 83.0977 130.161 82.8156 129.626C82.3981 128.918 82.0342 128.18 81.7267 127.419C81.7961 126.769 81.7135 126.112 81.4855 125.499C81.5803 125.25 81.6614 124.996 81.7282 124.738C81.7886 124.524 81.8025 124.299 81.769 124.08C81.7526 123.827 81.7168 123.575 81.6619 123.328C81.4674 122.72 81.1526 122.158 80.7363 121.675C80.6313 121.265 80.5528 120.849 80.5015 120.429C80.4753 120.292 80.442 120.139 80.3975 119.964C80.3506 119.8 80.2907 119.624 80.2163 119.42C80.1417 119.218 80.0517 118.992 79.9429 118.74C79.8886 118.618 79.8311 118.49 79.7704 118.355C79.7227 118.266 79.6723 118.171 79.6193 118.071C79.226 117.336 78.7853 116.001 78.1965 114.713C77.618 113.43 76.8457 112.187 76.0552 111.718C75.8284 111.583 75.6137 111.429 75.4135 111.257C75.1971 111.086 74.9955 110.902 74.7982 110.712C74.5578 110.511 74.3545 110.314 74.0857 110.106C73.935 109.998 73.7815 109.892 73.6256 109.792L73.5083 109.717L73.4412 109.676L73.2746 109.592C72.8654 109.392 72.409 109.309 71.9556 109.352C71.6061 109.383 71.2681 109.492 70.9669 109.672C70.8132 109.762 70.6707 109.871 70.5426 109.995C70.4275 110.103 70.3241 110.224 70.2338 110.354C70.1604 110.46 70.0948 110.571 70.0377 110.687C69.9967 110.772 69.9608 110.859 69.9301 110.947C69.9024 111.025 69.8721 111.125 69.8575 111.187L69.8204 111.363C69.8023 111.461 69.7895 111.56 69.7821 111.66C69.7744 111.752 69.7717 111.829 69.7713 111.888C69.7689 112.031 69.7742 112.131 69.7768 112.216C69.7867 112.501 69.8071 112.758 69.8337 113.023C69.8843 113.561 69.9674 114.095 70.0825 114.622C70.2653 115.259 70.6538 115.818 71.1874 116.211C71.2648 116.27 71.3436 116.33 71.424 116.391L71.5946 116.509C71.7036 116.583 71.8181 116.655 71.937 116.726C72.1734 116.869 72.4267 117.004 72.684 117.133C72.7435 117.163 72.8038 117.191 72.8637 117.22C72.4648 117.244 72.0722 117.331 71.7002 117.477C71.3377 117.634 71.0177 117.875 70.7664 118.18C70.5836 118.399 70.431 118.641 70.3129 118.901L70.2299 119.107L70.1913 119.214L70.1708 119.281C70.1429 119.371 70.1193 119.462 70.0999 119.556C69.9513 120.423 70.1072 121.314 70.5411 122.079C70.9672 122.844 71.4852 123.553 72.0837 124.191C72.4171 124.567 72.8028 124.894 73.2291 125.161C73.2638 125.181 73.5944 125.537 74.0812 126C74.6155 126.516 75.2079 126.968 75.8465 127.347C76.3871 127.68 76.9762 127.927 77.5928 128.08L77.5982 128.081C77.9175 128.795 78.2735 129.492 78.6648 130.169C79.1632 130.693 79.6394 131.212 80.0339 131.705C80.188 132.007 80.3484 132.321 80.5116 132.641C80.5869 132.792 80.6601 132.942 80.7236 133.088C80.7553 133.161 80.7896 133.235 80.8151 133.307C80.8389 133.337 80.8611 133.369 80.8815 133.402C81.047 133.658 81.1695 134.148 80.9165 134.401C80.8866 134.43 80.8527 134.454 80.8158 134.473C80.6714 134.51 80.5196 134.505 80.3778 134.46C80.2359 134.414 80.1098 134.33 80.0138 134.216C79.9754 134.178 79.9271 134.152 79.8745 134.141L79.6676 134.065L79.2573 133.914C78.9874 133.816 78.7116 133.734 78.4314 133.67C76.4199 133.682 74.4483 133.109 72.7555 132.022C72.2339 131.726 71.6338 131.596 71.036 131.65C70.4424 131.71 69.8488 131.536 69.3814 131.165C68.1363 130.016 66.8206 128.62 65.2977 127.817C63.7873 127.018 63.7399 128.162 63.9249 128.605C64.6207 130.129 65.6246 131.492 66.8734 132.608C68.2268 133.847 69.9105 134.752 71.2918 134.801C71.4558 134.811 71.6461 135.142 71.8292 135.325C72.5636 135.972 73.4328 136.446 74.3737 136.715C75.3385 137.008 76.32 137.243 77.3129 137.418C78.1832 137.597 79.0701 137.681 79.9584 137.669C81.1185 137.664 82.3403 137.512 83.143 136.738C83.2916 136.596 83.4232 136.437 83.5353 136.265C83.7918 135.869 84.0053 135.53 84.2132 135.174C84.4359 134.802 84.6058 134.4 84.718 133.981C84.7486 133.582 84.697 133.181 84.5663 132.803Z" fill="#121212"/>
<path d="M129.964 97.3472C129.484 97.1205 129.539 96.8921 129.996 96.6699C130.198 96.5717 130.23 96.4673 130.067 96.3785C129.713 96.1846 129.585 96.0083 130.026 95.8032C130.351 95.6533 130.303 95.4737 130.028 95.3089C129.766 95.1521 129.548 94.9963 129.581 94.8105C129.625 94.5626 129.579 94.3122 129.618 94.056C129.664 93.9165 129.763 93.8003 129.892 93.7314C130.023 93.6441 129.986 93.5993 129.9 93.5273C129.472 93.1695 129.441 93.0372 129.75 92.6497C129.878 92.4857 130.073 92.3189 130.038 92.1496C129.985 91.8685 129.964 91.5735 129.898 91.2802C129.731 90.5141 129.463 89.7737 129.1 89.079C128.745 88.4199 128.323 87.7995 127.839 87.2279C127.684 87.0415 127.511 86.8732 127.029 87.0603C127.028 86.9224 127.184 86.6371 126.976 86.6873C126.631 86.7721 126.444 86.7342 126.551 86.3752C126.662 85.9503 126.456 85.8025 126.046 85.9097C125.899 85.9477 125.844 85.9159 125.857 85.7707C125.916 85.147 125.471 84.9951 125.173 84.8194C124.882 84.6171 124.564 84.4571 124.227 84.3443C124.137 84.3137 124.041 84.3042 123.946 84.3168C123.851 84.3293 123.761 84.3635 123.682 84.4167C123.532 84.5285 123.361 84.6075 123.179 84.6488C122.997 84.69 122.808 84.6924 122.625 84.6559C122.19 84.6315 122.095 85.3455 122.091 85.9389C122.123 86.2496 122.199 86.5542 122.318 86.8429C122.415 86.9179 122.512 86.8799 122.566 87.1088C122.636 87.4706 122.671 87.3527 122.818 87.1504C122.826 87.5218 122.819 87.6522 123.059 87.3582C123.099 87.308 123.169 87.2294 123.167 87.2672C123.109 87.8836 123.308 87.9039 123.519 88.0692C123.748 88.2534 123.966 88.4502 124.173 88.6586C124.406 88.8909 124.642 89.135 124.855 89.3702C125.265 89.8049 125.625 90.2849 125.926 90.8009C126.019 90.9614 126.018 91.1664 125.691 91.4632C125.566 91.5743 125.604 91.6439 125.682 91.6873C125.756 91.7321 126.05 91.7044 126.107 91.7648C126.163 91.8218 125.865 92.0036 125.995 92.0169C126.52 92.0884 126.397 92.3623 126.446 92.5786C126.494 92.799 126.671 93.0281 126.124 93.2959C126.511 93.405 126.239 93.5721 125.996 93.7176C126.027 94.2247 126.026 94.759 126.048 95.3278C126.051 95.3885 126.243 95.4485 126.35 95.5087C126.456 95.5677 126.406 95.6258 126.257 95.6927C125.969 95.821 126.098 95.937 126.309 96.0713C126.756 96.3576 126.805 96.5993 126.39 96.8533C126.012 97.0854 125.836 97.3033 126.314 97.5298C126.575 97.6534 126.567 97.7876 126.634 97.9213C126.755 98.1572 127.391 98.2607 128.092 98.3119C128.541 98.3448 129.043 98.3211 129.522 98.3188C129.892 98.3168 129.986 98.283 129.867 98.1165C129.815 98.0446 129.773 97.9959 129.918 97.9265C130.31 97.7386 130.38 97.5427 129.964 97.3472Z" fill="#121212"/>
</svg>
