<svg xmlns="http://www.w3.org/2000/svg" width="200" height="167" viewBox="0 0 200 167">
    <g fill="none" fill-rule="evenodd">
        <g fill-rule="nonzero">
            <g>
                <g>
                    <path fill="#FFF" d="M93.264 20.56c-.167-1.873-.665-3.704-1.473-5.408-.425-.84-.957-1.623-1.585-2.33-.63-.68-1.371-1.25-2.193-1.689-.673-.345-1.273-.814-1.767-1.38-.73-.695-1.507-1.338-2.326-1.927C81.79 6.2 78.964 5.76 76.43 6.66c-1.456.462-2.76.922-4.107 1.414-4.464 1.661-8.603 3.583-11.748 6.629-.272.261-.789.302-1.157.51-.96.52-1.9 1.075-2.812 1.673-2.943 1.933-5.536 4.293-8.68 5.991-.973.55-1.718 1.419-2.102 2.455-.296.812-.92 1.469-1.724 1.814-.958.548-1.8 1.273-2.477 2.136-1.386 1.464-1.925 2.873-.548 4.258.323.326-.003.704-.575.715-.196-.02-.393-.014-.588.017-.158.044-.437.221-.432.291.074 1.11 2.1 2.3 3.093 1.843.908-.432 1.978-.688 2.576-1.581.579-1.062 1.408-1.973 2.417-2.657 1.131-.628 1.439-1.916 2.207-2.857 1.306-1.605 3.248-2.478 4.575-4.087 1.316-1.596 3.287-2.446 4.911-3.693.664-.481 1.418-.83 2.218-1.025 1.616-.35 3.054-1.251 4.06-2.543.623-.811 1.546-1.349 2.568-1.496 1.537-.179 2.983-.81 4.15-1.81.434-.32.96-.498 1.503-.507.991-.119 1.928-.235 2.844-.309.877-.078 1.758-.088 2.636-.03 1.08.039 2.145.271 3.141.687.924.357 1.597 1.156 1.782 2.115.044.237.215.432.447.51 1.34.436 1.593 1.814.99 3.03-.178.398-.175.852.01 1.247.219.413.357.863.409 1.327.037.461-.009.926-.135 1.372-.127.464-.327.905-.594 1.307-.275.434-.605.832-.982 1.184-.137.128-.223.298-.245.482.047 1.639-1.395 2.596-2.182 3.853-.305.495-.655.98-.926 1.495-.308.531-.501 1.12-.568 1.727-.152 1.464-.923 2.797-2.124 3.674-.866.571-1.471 1.452-1.687 2.455-.227.571-.653 1.045-1.203 1.335-1.082.67-1.866 1.716-2.195 2.93-.292.835-.868.685-1.43.797-1.251.25-1.496.648-1.203 2.09.105.507.081.872-.343.876-.83.009-1.42.107-1.732 1.14-.42 1.197-1.242 2.219-2.33 2.898-2.604 1.786-4.684 4.215-6.032 7.042-.356.507-.827.926-1.375 1.225-.724.436-1.291 1.086-1.622 1.856-.23.804-.789 1.479-1.544 1.862-1.055.489-1.01 1.856-1.893 2.398-.88.55-1.642 1.264-2.24 2.104-1.335.45-1.92 1.535-2.47 2.682-.069.146-.346.235-.54.308-1.019.329-1.756 1.203-1.896 2.25-.15.885-.953 1.334-1.55 1.914-1.976.436-3.204 1.95-4.564 3.272-.642.555-1.235 1.163-1.772 1.817-.738.993-1.276 2.121-2.03 3.107-.816 1.06-2.277 1.095-3.228 1.948-.44.446-.83.935-1.165 1.461-.367.506-.588 1.303-1.048 1.514-1.474.673-2.11 1.978-3.017 3.096-.69 1.069-1.954 1.638-3.228 1.453-.402-.118-.835-.074-1.205.122-.369.197-.643.53-.763.925-.44 1.44-1.882 2.255-2.493 3.605-.459.992-1.674 1.01-2.396 1.666-.706.64-1.591.977-2.043 1.777-.27.458-.851.637-1.338.413-.293-.103-.58-.223-.858-.36-.108-.069-.24-.093-.365-.067-.126.027-.236.102-.305.209-.192.246-.4.124-.576.029-.07-.062-.154-.104-.245-.123-.077-.03-.155-.016-.265.081-.138.11-.303.182-.479.209-.156-.01-.314-.043-.348-.178-.085-.402-.235-.788-.444-1.144-.263-.391-.488-.806-.675-1.238-.21-.73-.293-1.491-.246-2.25-1.153-1.13-.877-3.039-1.93-4.634-.285-.312-.363-.758-.198-1.146.204-.47.123-.842-.27-1.029-.757-.361-1.434-.913-.775-1.805 1.166-1.57.739-3.598 1.527-5.253.044-.093-.461-.536-.748-.761-.42-.329-.442-.588-.135-.963 1.303-1.575 1.313-1.625.328-2.968-.661-1.019-1.221-2.098-1.671-3.223-.69-1.31-.686-2.87.011-4.176.54-1.356.812-2.8.801-4.257.126-2.294.343-4.58.559-6.873.101-1.032.581-1.992 1.35-2.702.424-.432.8-.907 1.122-1.417.673-1.055.682-2.392.024-3.455-.359-.44-.774-.834-1.235-1.17-.404-.342-.486-.696-.104-.893.69-.363 1.387-.633 1.164-1.72-.166-.796-.265-1.617-.428-2.423-.127-.41 0-.854.324-1.139.773-.646 1.6-1.247 2.387-1.868.498-.361.737-.974.613-1.57-.231-1.464.297-2.859.65-4.27.312-1.416 1.212-2.64 2.482-3.378.59-.353.625-.713.23-1.488-.193-.38-.435-.708-.221-1.051.328-.523.723-1.003 1.175-1.427 1.166-.893 1.769-2.323 1.587-3.765-.072-1.01-.073-2.025-.005-3.036.014-.745.52-1.073 1.157-.757.713.35 1.04.2 1.148-.486.238-1.592.495-3.22.686-4.827.031-.787.428-1.517 1.077-1.979.345-.183.652-.428.905-.723.878-1.224 1.84-2.388 2.88-3.483.218-.235.458-.449.717-.637.252-.196.498-.408.74-.579.483-.338.863-.798 1.102-1.33.143-.327.394-.597.71-.769.295-.103.604-.158.916-.163.287.04.576.063.866.067.267.047.543-.003.775-.142.256-.099.54-.198.835-.281.314-.04.623-.108.923-.205.651-.154 1.321.168 1.598.767.31.58.74.314 1.298.196.996-.178 1.652.262 1.684 1.004.018.553-.04 1.105-.171 1.643-.197.822.832 1.129.777 1.841-.047.7-.054 1.402-.02 2.102.022.694.058 1.42.013 2.154.094 1.282-.189 2.652-.058 3.982.15 2.014.555 4.002 1.205 5.917.194.317.552.5.927.477.772-.15 1.522-.387 2.237-.709.596-.268 1.037-.787 1.199-1.411.398-1.34.717-2.701.956-4.077.442-2.39.515-4.831.219-7.242-.356-2.648-1.344-5.174-2.885-7.373-.785-2.002-2.358-3.606-4.363-4.45-1.184-.593-2.42-1.078-3.694-1.449l-.94-.254c-.318-.069-.65-.1-.98-.14-.331-.034-.665-.06-1.001-.075-.336.011-.671.04-1.004.084-.949.12-1.882.336-2.786.644-.84.305-1.653.678-2.43 1.115-.731.408-1.433.865-2.1 1.367-.62.482-1.213.994-1.779 1.535-2.063 2.016-3.829 4.308-5.245 6.807-.487.815-.915 1.663-1.28 2.537-.33.817-.536 1.677-.615 2.552-.149.858-.524 1.663-1.09 2.333-.637.88-1.193 1.816-1.662 2.794-.358.798-.727 1.592-1.065 2.399l-.968 2.438c-.316.814-.649 1.623-.948 2.444l-.873 2.472c-.288.825-.59 1.647-.853 2.48l-.772 2.507-1.561 5c-.437 1.195-.711 2.44-.816 3.705-.098 1.08-.261 2.152-.49 3.213-.198 1.072-.382 2.153-.516 3.23-.125 1.266-.172 2.537-.139 3.809-.651 1.382-1.027 2.874-1.107 4.395-.114 1.513-.148 3.035-.38 4.525-.018.633.092 1.264.324 1.856.13.402.086.84-.123 1.209-.25.536-.434 1.1-.548 1.678C1 69.784.946 70.376.89 70.97c-.05 1.187-.283 2.36-.694 3.477.23 1.05.406 2.112.525 3.181.133 1.07.096 2.153-.11 3.212-.463 1.567-.66 3.199-.583 4.83.092 1.617.32 3.224.68 4.805.252.59.345 1.232.272 1.867-.145.585-.233 1.182-.264 1.782-.017.298-.022.597-.017.895.011.31.04.637.073.954.175 1.332.485 2.644.925 3.915.318.979.689 1.959 1.088 2.97.429 1.103.933 2.176 1.509 3.212.974 1.715 2.549 3.024 4.43 3.683 1.849.648 3.876.6 5.69-.136 1.434-.63 2.828-1.346 4.173-2.143l3.552-2.013c1.227-.676 2.504-1.13 3.28-2.275.837-1.216 2.524-1.393 3.544-2.596.836-.982 1.868-1.785 3.033-2.358 1.042-.505 1.49-1.533 2.37-2.005 1.316-.699 1.61-1.93 2.21-2.97.507-.873.944-1.177 1.911-1.017.766.126.766-.863 1.204-1.223.654-.535 1.534-.828 2.118-1.41.749-.75 1.213-1.756 1.928-2.542 1.449-1.58 2.893-3.175 5.023-3.9.542-.326.748-1.001.478-1.567-.44-.605-.943-1.158-1.374-1.768-.284-.403-.21-.738.113-.804.19-.029.386.01.552.107.482.295.923.65 1.411.934.726.418 1.648.294 2.233-.301.739-.458 1.326-1.12 1.687-1.901.513-1.404 1.368-2.663 2.49-3.666.9-.924 1.87-1.777 2.906-2.55 1.233-.865 1.452-2.573 3.088-3.134.755-.422 1.383-1.03 1.822-1.767.63-.86.97-1.927 1.659-2.717.767-.724 1.575-1.407 2.418-2.044.263-.315.397-.715.373-1.122-.027-.36-.339-.65-.492-.99-.149-.33-.251-.684-.376-1.028.38-.005.757.057 1.114.183 1.28.776 1.521-.117 1.939-1.189.181-.467.944-.809 1.477-1.145 1.162-.62 2.026-1.667 2.403-2.913.432-1.667 1.487-3.112 2.955-4.048 1.674-1.033 2.893-2.646 3.414-4.521.481-1.872 1.681-3.487 3.348-4.506.92-.586 1.493-1.577 1.531-2.655.087-1.08.542-2.1 1.292-2.894.574-.668 1.229-1.273 1.771-1.989.716-.892 1.342-1.851 1.868-2.863.47-.763.381-1.738-.218-2.407-.356-.361-.402-.835-.015-1.08 1.903-1.222 2.908-3.457 2.637-6.259z" transform="translate(-88 -97) translate(88 97) translate(106.383 55.958)"/>
                    <path fill="#FFC2C2" d="M85.74 18.308c-.874-1.927-2.575-3.371-4.64-3.941-2.11-.616-4.37-.502-6.405.323l-.39.135-.247.094c-.165.06-.327.129-.49.197l-.972.406c-.648.269-1.28.573-1.92.853-1.584.62-3.221 1.102-4.892 1.438-1.733.37-3.32 1.226-4.566 2.467-.319.372-.55.809-.678 1.28-.321 1.069-1.11 1.294-1.92 1.512-.785.24-1.592.476-1.711 1.574-.142 1.246-1.386 1.65-1.5 2.833-.066 1.36.01 2.723.228 4.068.42.708 1.002 1.31 1.7 1.757.923.78.976.808 1.364.04.266-.533 1.2-1.045 2.074-1.542.865-.513 1.69-.997 1.747-1.664-.027-.719.303-1.405.883-1.843.788-.489 1.448-1.205 2.554-1.146.945.058 1.968-.765 3.032-1.632.866-.833 1.852-1.536 2.927-2.085 1.706-.546 1.697-1.334 2.238-1.582.712.502 1.697.376 2.255-.288.072-.362.483-1.056.86-.946.25.067.306.533.471.578.121.03.583-.432.841-.426.462.167.79.572.855 1.051.035.442-.062.883-.278 1.272-.22.097-.432.213-.632.345-.057.034-.112.072-.164.112l-.217.292c-.139.2-.289.41-.422.622-.542.848-1.003 1.744-.838 2.257.727 2.23-1.01 4.32-2.674 6.27-1.675 1.967-3.263 3.837-2.605 6.341.118.36-2.895 4.185-3.609 4.094-.62-.067-1.227.207-1.58.712-.145.71-.006 1.542-.521 2.114-.648.71-1.358 1.416-2.037 2.143-.705.706-1.384 1.43-2.017 2.142-1.186 1.327-3.568 2.71-4.215 4.42-.1.272-.117.763-.326.772-1.84.21-3.537 1.084-4.762 2.452-1.35 1.33-2.381 2.94-3.016 4.714-.18.553-.012 1.158.43 1.544.441.385 1.073.477 1.61.234 2.034-.527 3.635-2.2 4.972-3.7 1.028-1.155 3.255.13 4.433-1.135 1.903-2.069 4.087-3.398 6.294-5.11.487-.69.854-1.456 1.086-2.265.205-.792.551-1.542 1.022-2.215.733-.83 1.563-1.573 2.474-2.212.927-.676 1.79-1.435 2.575-2.267.753-.519 1.545-1.01 2.328-1.514 1.113-1.44 2.106-2.989 2.142-4.969.002-.56.728-.544.916-.895.198-.371-.006-.953.109-1.38.306-1.275 2.19-1.072 2.064-2.79-.117-.62-.063-1.26.158-1.852.601-1.243 1.223-2.467 1.81-3.728.294-.63.58-1.268.847-1.922.136-.325.264-.657.39-.991.057-.135.14-.405.217-.645.076-.244.16-.48.23-.735.136-.51.293-1.023.38-1.54.116-.507.188-1.025.214-1.545.064-1.007-.102-2.016-.485-2.953z" transform="translate(-88 -97) translate(88 97) translate(106.383 55.958)"/>
                    <path fill="#292929" d="M76.73 18.976c.092-.739.097-1.485.016-2.224-.09-.7-.29-1.381-.59-2.022-.361-.76-.907-1.424-1.588-1.93-.74-.504-1.586-.834-2.475-.968-.438-.061-.92-.087-1.378-.144-.253-.028-.509-.031-.763-.01l-.809.028c-1.861.329-3.586 1.183-4.962 2.46-.674.557-1.265 1.099-1.85 1.608-.58.5-1.22.928-1.908 1.273l-.354.167-.288.148-.581.3c-.396.196-.77.436-1.158.662-.774.47-1.512.994-2.208 1.57-1.377 1.103-2.505 2.478-3.31 4.035-.716 1.49-.453 2.173.005 2.413.504.192 1.068.155 1.541-.102 2.109-1.14 4.682-2.738 7.203-4.195l.937-.553.632-.389c.294-.198.578-.411.85-.638.599-.503 1.342-1.192 2.427-2.167.273-.238.379.138.493.279.26.292.708.243 1.271.536.265.156.453.412.521.708.05.235.052.478.01.715l-.585.113-1.184.366c-.393.122-.792.312-1.186.464-.788.315-1.567.719-2.337 1.095-.903.472-1.244.68-1.74.974-.951.562-1.874 1.146-2.786 1.749-1.827 1.202-3.614 2.466-5.431 3.815-.825.55-1.732.968-2.688 1.24-1.022.384-1.85 1.146-2.307 2.123-.436.972-1.028 1.869-1.753 2.656-.313.331-.686.598-1.057.962-.19.188-.368.385-.536.591-.18.258-.33.534-.45.823-.125.334-.198.684-.22 1.039-.018.198-.025.396-.02.595.007.242.025.486.05.729.061.57.186 1.133.373 1.677.234.665.553 1.298.948 1.885.18.245.374.48.583.701.196.214.41.41.638.59.378.292.781.552 1.205.776.337.166.69.32 1.051.458.52.155 1.057.253 1.599.291.312.014.673.016.99 0-.254.245-.477.52-.664.818-.43.657-.982 1.227-1.627 1.681-.636.452-1.318.847-1.956 1.3-.936.603-2.048.882-3.163.793-.93-.011-2.286.886-3.698 1.822-1.168.89-2.46 1.607-3.838 2.13-1.404.313-1.411.378-1.023 1.515.092.835.507 1.604 1.158 2.147 1.751.473 3.541.792 5.35.953.828-.027 1.64-.225 2.385-.58.753-.379 1.584-.585 2.43-.605 1.475.03 2.393-.803 3.272-1.696.899-.874 1.759-1.805 3.329-1.972.714-.088 1.41-.283 2.063-.578 2.438-1.267 4.592-3.002 6.337-5.102 1.795-1.99 3.36-4.108 5.274-5.93.802-.751 1.574-1.531 2.348-2.313.777-.78 1.562-1.626 2.314-2.522.784-.925 1.5-1.904 2.145-2.928l.242-.408c.09-.156.22-.374.317-.566l.582-1.213c.181-.409.322-.828.485-1.245.152-.417.244-.84.368-1.263.412-1.622.487-3.309.223-4.96-.155-.92-.478-1.805-.955-2.612.25-.387.487-.777.696-1.171.378-.886.635-1.816.765-2.767zM56.395 34.35c.963-.79 2.057-1.412 3.234-1.838-.762 1.193-1.686 2.279-2.746 3.226-.966 1.02-2.096 1.876-3.345 2.534-.264-.016-.522-.018-.775-.014 1.014-1.467 2.237-2.783 3.632-3.908zM50.43 39.88c-.1.461-.074.34 0 0zm13.025-2.401c.155-.195.312-.386.463-.586-.013.087-.031.168-.038.26-.127.126-.27.236-.425.326zm5.01-5.827c-.105.253-.25.488-.428.697-.191.235-.403.452-.634.65-.468.409-1 .772-1.505 1.146l-.1.077c.885-1.315 1.742-2.601 2.625-3.699-.019.022-.034.046-.044.073-.077.264.222.653.086 1.056zm-.034-1.139c.059-.073.117-.154.176-.226.213-.251.438-.494.672-.729-.007.046-.018.091-.033.136-.131.325-.645.622-.815.82z" transform="translate(-88 -97) translate(88 97) translate(106.383 55.958)"/>
                </g>
                <g>
                    <path fill="#D1F6FE" d="M86.665 18.38c-.176-.587-.318-1.165-.432-1.742-.099-.57-.169-1.146-.21-1.724-.042-1.22 0-2.441.128-3.654.138-1.476-.406-2.933-1.473-3.943-1.052-1.082-2.03-2.235-2.927-3.453-.802-1.06-1.813-1.939-2.968-2.58C77.308.523 75.67.147 74.018.19c-1.328.04-2.29.619-2.56 1.5-.054.237-.2.442-.404.568-.205.127-.451.163-.683.102-2.376-.771-5.044-.08-7.366 1.731-3.002 2.344-5.951 4.82-7.703 8.004-.365.671-.893 1.237-1.532 1.645-.835.533-1.579 1.285-2.404 1.794-2.11 1.434-3.684 3.55-4.466 6.004-.52 1.398-1.13 2.76-1.826 4.077-2.328 4.475-5.274 8.716-6.702 13.592-.121.42-.57.776-.815 1.197-.645 1.076-1.236 2.185-1.806 3.304-1.815 3.62-3.204 7.439-5.398 10.866-.665 1.08-.995 2.337-.949 3.61.055.999-.26 1.982-.884 2.756-.663 1.071-1.159 2.241-1.469 3.467-.713 2.214-.73 3.93 1.067 4.717.422.185.253.747-.278 1.038-.193.077-.375.18-.542.306-.131.122-.33.445-.3.516.462 1.136 2.765 1.433 3.534.442.712-.91 1.582-1.745 1.844-3.003.15-1.44.585-2.834 1.276-4.1.802-1.28.63-2.791.962-4.199.586-2.39 2.06-4.389 2.614-6.813.317-1.178.768-2.313 1.344-3.384.572-1.08 1.168-2.148 1.645-3.272.406-.878.946-1.685 1.6-2.392 1.35-1.384 2.255-3.152 2.594-5.07.212-1.207.8-2.313 1.677-3.155.687-.675 1.293-1.43 1.806-2.248.498-.83.882-1.724 1.142-2.66.235-.675.606-1.292 1.09-1.812 1.636-2.109 3.166-4.3 4.585-6.564 1.81-2.763 3.538-5.756 6.429-7.238.382-.226.687-.565.876-.97.79-1.849 2.416-3.19 4.357-3.597.6-.16 1.14-.5 1.55-.974.659-.962 1.597-1.69 2.682-2.084.996-.393 2.09-.448 3.118-.156.156.059.328.054.481-.013.475-.342 1.098-.386 1.615-.114.331.226.637.49.911.784.224.189.435.437.707.702.313.336.674.622 1.07.849 1.15.846 1.685 2.31 1.359 3.714-.033.273-.074.54-.084.793-.076.817.069 1.64.417 2.381.178.652.123 1.346-.157 1.96-.479 1.29-.554 2.7-.215 4.037.176.966-.394 1.153-.832 1.57-.964.93-1 1.42-.078 2.691.317.447.456.828.081 1.055-.804.316-1.261 1.182-1.075 2.038.09 1.445-.26 2.883-1.004 4.119-.884 1.567-1.602 3.225-2.141 4.946-.554 1.73-.92 3.517-1.089 5.328-.17.7-.477 1.36-.903 1.937-.545.804-.867 1.744-.93 2.719.018.97-.298 1.915-.892 2.674-.853 1-.357 2.435-1.063 3.4-.692.976-1.204 2.071-1.51 3.233-1.145 1.074-1.416 2.465-1.614 3.922-.026.184-.264.401-.428.564-.89.804-1.34 1.998-1.207 3.2.098 1.002-.554 1.827-.985 2.692-1.838 1.282-2.585 3.42-3.63 5.354-.492.849-.92 1.734-1.282 2.647-.474 1.355-.774 2.745-1.28 4.095-.542 1.46-2.014 2.042-2.778 3.304-.343.635-.625 1.303-.843 1.993-.249.68-.319 1.601-.737 1.995-1.351 1.246-1.71 2.877-2.432 4.377-.667 1.42-1.57 2.457-2.998 2.658-.95.052-1.725.794-1.833 1.755-.144.834-.444 1.633-.885 2.352-.458.712-.82 1.483-1.08 2.292-.313 1.17-1.6 1.673-2.302 2.706-.672 1.006-1.609 1.868-1.921 3.058-.211.695-.747 1.238-1.431 1.451-.783.377-1.754.411-2.1 1.574-.17.444-.482.817-.885 1.06-.395.226-.7.585-.86 1.016-.165.587-.613 1.413-1.06 1.574-1.676.596-2.809 1.637-3.968 2.095-.59.22-1.24.202-1.819-.049-.388.365-.944.48-1.441.297-.625-.205-1.26-.376-1.903-.515-.393-.078-.689-.232-.767-.684-.088-.47-.325-.73-.75-.676-.808.095-1.691-.119-1.558-1.276.068-.996-.048-1.996-.343-2.949-.298-1.012-.476-2.058-.532-3.113.001-.118-.654-.426-1.014-.571-.215-.042-.4-.18-.505-.376-.105-.196-.117-.43-.035-.636.49-2.193.561-2.289-.936-3.407-1.054-.888-2.021-1.878-2.887-2.957-1.163-1.243-1.785-2.911-1.723-4.627-.02-1.722-.357-3.425-.992-5.022l-1.132-3.917c-.396-1.301-.741-2.617-1.062-3.94-.317-1.157-.268-2.386.142-3.513.23-.653.397-1.328.5-2.014.21-1.428-.287-2.87-1.327-3.855-.48-.348-1.004-.627-1.559-.828-.495-.225-.7-.588-.423-.955.504-.674 1.036-1.246.392-2.365-.474-.818-.839-1.698-1.288-2.53-.265-.417-.308-.94-.115-1.396.472-1.024.946-2.013 1.464-3.02.327-.622.326-1.37-.002-1.992-.341-.778-.579-1.6-.706-2.441-.122-.847-.172-1.715-.256-2.572-.231-1.665.146-3.36 1.061-4.762.419-.633.325-1.048-.31-1.749-.31-.344-.648-.609-.572-1.078.107-.71.299-1.404.57-2.067.765-1.505.822-3.281.155-4.834-.414-1.098-.763-2.221-1.045-3.362-.243-.83.11-1.404.807-1.32.768.087 1.04-.215.905-1.02l-.98-5.635c-.22-.943-.112-1.935.307-2.806.246-.407.425-.851.53-1.316.203-1.693.606-3.354 1.201-4.947.118-.268.266-.52.442-.752.156-.24.374-.379.516-.596.145-.215.353-.341.47-.575.16-.215.29-.451.386-.702.146-.343.418-.613.758-.755.336-.096.686-.126 1.033-.089.681.168 1.387.2 2.08.097.18-.048.368-.09.559-.131.191-.027.386-.033.583-.053l.596-.06c.199-.006.397-.021.594-.047.42-.066.85 0 1.231.19.37.175.693.435.945.76.534.636.96.374 1.565.217.45-.106.923-.065 1.35.117.345.194.6.522.705.909.081.305.13.619.145.935.026.302.037.605.033.909-.008.984 1.113 1.299 1.223 2.148.22 1.788.794 3.405 1.104 5.235.435 1.534.53 3.254 1.02 4.773.669 2.24 1.597 4.39 2.766 6.407.25.292.654.39 1.006.244.697-.426 1.34-.937 1.915-1.523.501-.526.768-1.238.74-1.97-.001-1.57-.057-3.17-.2-4.799-.215-2.697-.735-5.36-1.551-7.936-.442-1.365-1.004-2.686-1.679-3.948-.713-1.34-1.575-2.593-2.57-3.735-1.159-1.99-2.975-3.5-5.125-4.26-1.236-.5-2.4-.991-3.614-1.423-.615-.191-1.242-.366-1.883-.507-.665-.118-1.339-.176-2.014-.173-2.112.015-4.193.51-6.092 1.452-2.025 1.019-3.743 2.574-4.973 4.5-1.023 1.705-1.727 3.587-2.075 5.553-.282 1.55-.485 3.116-.607 4.688-.186 2.059-.442 4.088.05 6.091.153 1.01.08 2.042-.214 3.018-.3 1.236-.496 2.495-.586 3.764C.48 38.477.41 39.503.38 40.531l-.045 3.085c-.053 2.056.016 4.112.056 6.167.09 4.117.468 8.22.687 12.32.057 1.493.271 2.975.638 4.422.59 2.45.957 5.033 1.49 7.531.36 1.455.899 2.855 1.353 4.27-.062 1.792.178 3.58.71 5.288.434 1.732 1.074 3.411 1.451 5.148.22.702.558 1.36 1 1.943.288.398.427.886.392 1.378.042 1.389.272 2.765.682 4.09.449 1.318.726 2.69.825 4.08.566 1.12 1.253 2.179 1.778 3.32.586 1.124 1 2.332 1.23 3.582.265 1.898.774 3.753 1.514 5.517.826 1.923 1.922 3.714 3.254 5.316.632.601 1.192 1.277 1.668 2.012.893 1.657 2.281 2.983 3.964 3.786 1.85.89 3.913 1.222 5.943.953 1.38-.188 2.731-.554 4.021-1.088 1.21-.482 2.343-1.01 3.446-1.536 2.803-1.31 5.009-3.658 6.165-6.565.521-1.288 1.203-2.501 2.03-3.61.805-1.125 1.706-2.175 2.693-3.137 1.065-1.036 2.22-1.843 2.903-3.362.71-1.575 2.408-2.344 3.264-4.004.717-1.341 1.635-2.56 2.72-3.615.971-.927 1.262-2.19 2.061-3.028 1.203-1.248 1.261-2.69 1.663-4.035.33-1.137.699-1.636 1.713-1.836.802-.16.592-1.227.958-1.784.647-.754 1.251-1.544 1.81-2.367.573-1.113.821-2.373 1.354-3.507 1.03-2.317 2.114-4.598 4.01-6.298.449-.538.474-1.32.06-1.886-.591-.46-1.234-.835-1.82-1.302-.385-.309-.401-.698-.101-.905.17-.11.374-.153.574-.122.552.107 1.08.296 1.635.388.846.139 1.509-.311 2.106-1.298.602-.814.992-1.77 1.133-2.778.094-1.759.562-3.476 1.374-5.033.575-1.403 1.255-2.758 2.035-4.055.943-1.484.586-3.42 1.983-4.782.606-.803 1.011-1.742 1.184-2.738.318-1.217.304-2.509.69-3.682.366-1.16 1.125-2.189 1.611-3.333.146-.446.139-.929-.02-1.37-.146-.37-.54-.528-.8-.813-.255-.28-.473-.606-.71-.91.37-.125.774-.396 1.107-.352 1.465.195 1.404-.87 1.415-2.226.183-.72.512-1.395.966-1.979.853-1.296 1.243-2.85 1.105-4.403-.262-2.056.043-4.146.88-6.036.988-2.188 1.157-4.666.476-6.971z" transform="translate(-88 -97) translate(88 97) translate(76.596 .64)"/>
                    <path fill="#FFF" d="M27.184 64.645c-.122-.657-.31-1.299-.562-1.916-.033-.09-.082-.173-.123-.26l-.065-.133-.188-.242c-.266-.337-.57-.64-.905-.907-.601-.522-1.297-.92-2.05-1.17-.217-.067-.44-.119-.665-.154-.31-.035-.623-.045-.935-.03-.819.054-1.616.297-2.33.708-.374.217-.724.474-1.044.768-.277.261-.532.547-.761.853-.055.077-.11.163-.165.247.15-1.36.38-2.709.69-4.04.58-.342 1.11-.765 1.572-1.258 1.748-1.896 3.19-4.06 4.275-6.413.156-.306.294-.62.362-.796l.255-.633.486-1.263.472-1.24.237-.605.16-.407c.058-.162.112-.325.159-.49.243-.78.318-1.603.22-2.415-.146-1.125-.775-2.126-1.718-2.732-.329-.209-.685-.37-1.058-.477-.706-.187-1.446-.189-2.152-.004-.472.124-.93.3-1.364.524-.354.177-.642.342-.905.49l-.375.208-.274.105c-.487.254-.91.618-1.238 1.063-.07.088-.138.186-.208.282.25-2.203.924-4.335 1.986-6.272.36-.825.414-1.754.15-2.616-.283-.844-.173-1.772.298-2.524 1.498-1.91 3.3-3.852 4.241-6.105.963-2.243-.808-2.547-1.5-2.289-2.318.918-4.334 2.48-5.818 4.508-1.636 2.151-2.63 4.728-2.366 6.794.023.245-.484.523-.738.795-.891 1.06-1.53 2.314-1.87 3.666-.202.726-.4 1.457-.563 2.159-.154.705-.31 1.368-.486 1.947-.166.63-.321 1.276-.47 1.932-.037.14-.076.379-.113.61l-.112.687-.217 1.372c-.235 1.71-.343 3.436-.323 5.163-.005.333-.041.665-.108.991-.054.33-.09.624-.154.954-.139.66-.243 1.326-.313 1.996.107.944.62 1.283 1.22 1.269.146-.027.392.327.837.816.207.236.44.448.691.633.02.173.027.346.022.52-.026.6-.154 1.191-.38 1.747-.185.585-.416 1.18-.6 1.778-.325 1.19-.425 2.42.574 3.383-.042.469-.125.932-.247 1.386-.134.936-.051 1.89.243 2.788.207 1.142.535 2.258.98 3.328.327.73.773 1.4 1.318 1.98.532.559 1.166 1.007 1.867 1.318 1.625.697 3.472.609 5.025-.24.281-.17.555-.328.825-.504.543-.429 1.061-.888 1.552-1.376.847-.81 1.618-1.698 2.303-2.653 1.062-1.409 1.854-3.008 2.334-4.714.254-.942.29-1.93.109-2.89zm-5.957 3.082v.001c-.38.488-.122.156 0 0zm-.219-.122c.08.02.154.06.216.115l.003.007-.073.093-.002-.003-.074-.096c-.044-.059-.12-.154-.07-.116zm-6.27-20.184c.025-.112.063-.22.115-.322-.052.239-.08.483-.084.727-.004.022-.01.043-.018.064-.037-.153-.041-.313-.012-.469z" transform="translate(-88 -97) translate(88 97) translate(76.596 .64)"/>
                    <path fill="#FFC2C2" d="M25.514 14.271c-.68-1.112-1.689-1.979-2.88-2.478-.606-.261-1.25-.42-1.906-.471-.6-.051-1.203-.003-1.787.143-.986.212-1.859.792-2.445 1.626-.118.177-.58-.026-.894-.04-1.117.044-2.185.477-3.025 1.226-.83.71-1.622 1.464-2.375 2.257-1.467 1.45-2.635 3.182-3.438 5.096-.172.346-.43.641-.75.855-.378.229-.714.525-.99.874-.35.716-.276 1.57.195 2.211.21.258.075 1.854.186 3.32.078 1.481.44 2.842.378 3.061-.434 1.255-.296 2.641.376 3.782-.205.56-.416 1.158-.588 1.77-.444 1.565-.591 3.131-.035 3.972.663.975.493 1.976.642 2.947.053.746-.221 1.477-.748 2-.848 1.102.937 3.847.682 4.963-.183.818-.126.831 1.066.77.814.06 1.631-.058 2.396-.348.987-.856 1.912-1.783 2.77-2.772.694-.865.067-1.836.852-2.706 1.358-1.469-1.378-2.384-.027-3.884.286-.282.508-.625.648-1.005.337-1.209.354-2.487.051-3.705-.172-.849-.223-1.719-.153-2.582l.434-.367.493-.463c.288-.326.61-.619.962-.872.682-.446 1.427-.78 2.21-.99.735-.208 2.294-1.722 3.013-3.447.332-.773.488-1.613.455-2.456-.018-.322-.075-.64-.17-.948-.087-.168-.19-.599-.32-.804-.16-.649-.427-1.266-.791-1.823-.155-.222-.324-.434-.506-.635-.11-.116-.224-.232-.345-.347-.152-.129-.317-.257-.487-.376-.44-.294-.932-.497-1.45-.596-.29-.049-.583-.067-.877-.054-.269.02-.536.066-.796.137-.233.07-.46.159-.68.265.823-1.419 1.951-2.83 3.4-3.043.445-.059.604-.672.905-1.272.272-.595.729-1.162 1.204-.979.597.262 1.16.594 1.679.991.498.372 1.018.713 1.557 1.021.482.35 1.095.458 1.664.293.439-.154.777-.515.907-.968.177-1.097-.06-2.221-.662-3.149zm-11.86 7.945c-.31.296-.597.615-.86.956-.418.545-.652.916-.733.999-.239.194-.503.353-.784.473.008-.058.013-.118.023-.176.07-.376.202-.736.393-1.066.369-.478.874-.828 1.446-1.002.186-.074.368-.142.547-.21l-.032.026z" transform="translate(-88 -97) translate(88 97) translate(76.596 .64)"/>
                </g>
                <g>
                    <path fill="#FFC2C2" d="M80.739 86.919c.318-1.545-.466-2.615-.925-3.764-.387-.968-.362-1.504.348-2.18.563-.538-.231-1.153-.26-1.724.081-.845.12-1.693.114-2.542-.167-1.045-.681-2.021-.896-3.06-.423-2.1-.845-4.206-.158-6.327.057-.625-.364-1.195-.98-1.323-.746-.019-1.49.045-2.237.017-.491-.02-.717-.281-.58-.575.089-.169.235-.3.412-.372.524-.203 1.07-.336 1.59-.55.768-.32 1.22-1.122 1.093-1.944.074-.86-.109-1.723-.524-2.48-.821-1.253-1.317-2.69-1.441-4.183-.211-1.266-.311-2.548-.3-3.83.06-1.494-1.174-2.71-.643-4.33.13-.845.03-1.71-.288-2.505-.297-1.02-.942-1.939-1.158-2.96-.093-1.045-.134-2.093-.122-3.14-.087-.4-.322-.752-.657-.985-.3-.204-.721-.143-1.083-.235-.353-.092-.696-.233-1.045-.35.271-.256.506-.631.823-.747 1.398-.503.858-1.247.277-2.24-.253-.431-.05-1.232.017-1.851.223-1.278-.054-2.593-.773-3.673-1.034-1.397-1.504-3.13-1.317-4.858.225-1.986-.327-3.982-1.539-5.572-1.228-1.577-1.892-3.52-1.886-5.518-.018-1.143-.6-2.203-1.556-2.832-.924-.645-1.632-1.552-2.034-2.604-.335-.83-.615-1.69-1.029-2.505-.276-.51-.512-1.01-.844-1.534-.353-.572-.767-1.105-1.236-1.587-.452-.475-1.024-.82-1.655-.996-.488-.144-1.014-.062-1.434.224-.398.317-.965.311-1.356-.015C54.333.305 52.784.001 51.378.468c-.772.228-1.497.594-2.14 1.08-.574.441-1.082.961-1.51 1.545-.534.722-1.03 1.471-1.486 2.244-.221.375-.428.754-.628 1.133l-.497 1.055c-.705 1.377-1.215 2.844-1.513 4.361-.113.645-.43 1.236-.905 1.687-.606.613-1.048 1.403-1.667 1.992-.41.397-.775.838-1.09 1.315-.29.47-.528.969-.71 1.49-.375 1.035-.58 2.123-.607 3.223-.045 1.302-.183 2.599-.413 3.881-.73 4.313-1.93 8.67-1.388 13.05.048.375-.232.806-.299 1.224-.176 1.074-.292 2.156-.349 3.243-.114 1.3-.08 2.606-.073 3.911l-1.48-2.567c-1.012-1.744-2.035-3.56-3.214-5.393-.423-1.587-1.287-3.02-2.491-4.138-1.407-1.43-2.314-3.233-4.067-4.527-.62-.466-1.285-.892-1.959-1.303l-1.047-.573c-.36-.188-.783-.366-1.174-.542-1.563-.644-3.213-1.055-4.895-1.22-1.66-.168-3.337-.086-4.973.24-1.721.33-3.37.962-4.873 1.864-.55.337-1.071.72-1.558 1.143-.245.217-.486.435-.717.663-.218.249-.428.503-.631.761-.4.517-.736 1.08-1 1.678-.241.588-.414 1.201-.514 1.828-.148 1.162-.532 2.328-.776 3.493-.3 1.355-.35 2.753-.149 4.125.35 1.917.895 3.792 1.626 5.598.677 1.655 1.305 3.331 2.03 4.964.77 1.612 1.512 3.243 2.337 4.827.869 1.56 1.665 3.16 2.504 4.732.607 1.146 1.331 2.226 2.162 3.221.69.85 1.424 1.69 2.08 2.59.68.882 1.307 1.809 2.05 2.632.88.958 1.878 1.797 2.816 2.68.283.725.676 1.403 1.164 2.01.473.609.982 1.188 1.525 1.736 1.052 1.132 2.28 2.092 3.312 3.23.477.429 1.035.759 1.64.97.392.168.709.474.888.86 1.122 2.125 3.419 3.406 4.712 5.43.973.515 1.955.988 2.884 1.557.977.506 1.857 1.181 2.598 1.994 1.024 1.315 2.28 2.432 3.706 3.296 1.398.89 2.89 1.62 4.45 2.18.638.135 1.23.429 1.723.854.865.866 1.872 1.577 2.978 2.102.544.278 1.103.53 1.665.772.565.238 1.155.419 1.727.63 1.676.58 3.268 1.381 4.731 2.383 1.005.716 2.113 1.275 3.287 1.658 1.306.399 2.68.52 4.036.357 1.433-.178 2.855-.238 4.411-.435 1.722-.162 3.398-.646 4.941-1.427 1.755-.88 3.448-2.314 3.89-4.268.236-.913.562-1.8.973-2.65.393-.782.616-1.639.655-2.513-.008-1.406.183-2.806.567-4.158.354-1.2-.132-2.3.086-3.327zm-8.285 4.999c-.708.43-1.136 1.062-.724 1.868.266.554.366 1.173.288 1.782-.082.51-.096 1.027-.04 1.54.054.308-.127.61-.425.707-.254.124-.535.123-.694.3-.344.33-.866.314-1.411.879-.42.391-.852.16-1.241-.156-.509-.386-.803-1.15-1.629-.823-.74.266-1.161-.698-1.992-.486-.567.163-1.176.077-1.674-.238-.583-.574-1.267-1.036-2.017-1.362-.726-.333-1.495-.578-2.224-.945-.877-.478-1.72-1.017-2.523-1.611-.914.001-1.816-.2-2.643-.59-.837-.374-1.744-.57-2.662-.575-.414.09-.84-.092-1.062-.452-.276-.435-.622-.578-.988-.36-.71.424-1.527.65-1.92-.359-.71-1.736-2.517-2.669-3.454-4.187-.051-.086-.704.08-1.054.188-.513.163-.738.033-.857-.442-.512-1.976-.511-2.042-2.186-2.007-.607.005-1.212-.05-1.808-.163l-1.754-.416c-.708-.144-1.378-.432-1.97-.845-.6-.421-1.07-1.002-1.356-1.677-.612-1.361-1.778-2.272-2.863-3.237-1.62-1.616-3.387-3.098-4.913-4.816-.719-.736-1.149-1.705-1.212-2.73-.043-.602-.145-1.198-.304-1.78-.334-1.2-1.345-2.09-2.578-2.271-.559-.035-1.12 0-1.67.106-.516.061-.827-.124-.712-.538.207-.757.479-1.442-.488-2.003-.708-.41-1.4-.885-2.064-1.344-.379-.202-.605-.605-.58-1.033.071-1.003.183-1.987.274-2.963.074-.594-.184-1.18-.672-1.528-1.063-.976-1.928-2.148-2.546-3.452-.715-1.243-.906-2.718-.532-4.101.167-.64-.031-.926-.825-1.235-.39-.15-.783-.232-.848-.628-.102-.598-.137-1.206-.103-1.812.061-.68.008-1.367-.157-2.03-.174-.632-.54-1.194-1.047-1.61-.644-.61-1.196-1.31-1.64-2.078-.343-.547-.008-.964.698-.93.78.012 1.032-.157.85-.56-.426-.937-.544-1.984-.336-2.992.048-.284.186-.545.394-.745.1-.097.217-.176.345-.233.15-.047.307-.072.466-.074.298.03.6.011.892-.057 1.165-.427 2.4-.627 3.64-.591.57.037 1.135.128 1.687.273.537.143 1.102.147 1.641.013.342-.108.713-.08 1.036.076.3.174.569.397.794.66.372.58.89 1.052 1.503 1.367.684.243 1.318.676 2.019.958.73.308 1.258.96 1.407 1.736.195.787.746.675 1.318.737 1.065.106 1.616.623 1.642 1.408.005.598-.026 1.195-.094 1.789-.08.954 1.029 1.262 1.172 2.038.423 1.655 1.1 3.234 2.007 4.682.74 1.29 1.6 2.509 2.568 3.637 1.183 1.167 2.518 2.169 3.968 2.98.02.034.034.072.055.105.514.71.7 1.605.51 2.46-.115 1.1.005 2.21.351 3.26.39 1.99 1.288 3.239 3.21 2.904.456-.077.584.404.269.879-.127.15-.234.315-.318.492-.053.154-.065.485-.005.52.953.575 3.07-.414 3.258-1.482.17-.987.54-1.99.126-2.975-.52-1.081-.797-2.263-.812-3.463.158-1.272-.705-2.265-1.063-3.421-.511-1.987-.128-4.038-.623-6.045-.13-.492-.211-.996-.245-1.503-.014-.507.007-1.016.037-1.525.07-1.019.13-2.035.152-3.052.018-.81.189-1.61.503-2.356.33-.737.546-1.519.642-2.32.062-.804-.009-1.613-.208-2.395-.24-.995-.109-2.043.369-2.948.413-.698.714-1.457.89-2.248.084-.389.132-.784.145-1.181.029-.407.024-.816-.014-1.223-.012-.595.126-1.183.4-1.712.871-2.058 1.469-4.178 2.176-6.298.825-2.657 1.588-5.495 3.734-7.467.277-.289.45-.66.492-1.058.041-.905.302-1.786.76-2.568.388-.64.964-1.145 1.648-1.447.377-.145.665-.458.778-.845.023-.178.06-.353.114-.524.045-.16 0-.212.036-.308.032-.148.148-.263.297-.293.272-.04.542.315.386.742-.03.062-.02.12.01.054.516-.009.92.485 1.248 1.147.165.329.311.667.467.995.135.34.298.667.487.98.303.471.552.995.89 1.443.307.483.717.892 1.202 1.199 1.173.78 1.888 2.086 1.914 3.493-.005.984.366 1.933 1.038 2.654.327.502.45 1.11.345 1.7-.118 1.226.232 2.451.98 3.431.469.74-.005 1.086-.269 1.583-.601 1.115-.437 1.54.874 2.23.463.24.735.488.473.817-.513.643-.8 1.153-.198 2.06.663 1.096.952 2.378.824 3.653-.207 3.155.43 6.309 1.844 9.138.192.593.243 1.222.148 1.837-.092.84.079 1.688.49 2.427.492.683.69 1.535.551 2.365-.236 1.13.873 1.939.775 2.968-.097 1.03.02 2.071.342 3.056-.43 1.327.077 2.455.666 3.59.074.143-.018.416-.074.614-.338 1.007-.073 2.119.684 2.866.62.657.496 1.566.608 2.391-.815 1.827-.323 3.716-.078 5.595.071.843.212 1.68.42 2.5.369 1.184.938 2.294 1.29 3.485.379 1.284-.458 2.457-.35 3.7.087.604.239 1.196.45 1.768.18.58.674 1.232.549 1.705-.39 1.503.183 2.758.411 4.116.214 1.272-.039 2.398-1.178 3.076z" transform="translate(-88 -97) translate(88 97) translate(0 51.703)"/>
                    <path fill="#FFF" d="M68.335 84.697c-.352-1.09-1.011-2.055-1.9-2.779-.532-.452-1.166-.768-1.848-.921-.866-.13-1.024.218-1.268.772-.909.76-.413 1.604.05 2.484.521.383.838.983.86 1.628-.003.465-.157.916-.439 1.285-.363.596-1.02.95-1.718.927-.082-.016-.158-.056-.218-.113l-.051-.13-.017-.003c-.168-.019-.313-.033-.482-.062-.482-.088-.888-.41-1.08-.86-.44-1-1.268-1.188-2.44-1.634-1.109-.379-2.249-.815-2.869-2.153-.03-.067-.074-.13-.106-.197-.078-.31-.178-.615-.3-.91-.346-.83-.832-1.594-1.437-2.258l-1.075-1.099c-2.877-2.988-5.797-6.28-6.404-9.748-.137-.804-1.314-2.324-2.67-3.723-1.061-1.162-2.286-2.163-3.637-2.971-.06-.025-.48-.469-1.122-1.123L37.008 60l-.727-.618c-.257-.23-.53-.441-.817-.633-.308-.21-.59-.418-.923-.62-.384-.198-.771-.385-1.151-.556l-.142-.063c-.071-.027-.191-.064-.285-.091-.236-.069-.478-.114-.723-.135-.162-.014-.325-.015-.487-.005-.186.009-.371.035-.552.08-.98.225-1.796.898-2.204 1.816-1.547-1.648-2.94-3.433-4.163-5.334-1.401-2.242-4.12-1.85-5.227-4.02-.692-1.393-1.367-2.875-1.985-4.314-.621-1.443-1.219-2.828-1.867-4.14-.211-.492-.515-.94-.893-1.318-.218-.214-.526-.31-.827-.257-.52.19-.908.63-1.032 1.17-.326 1.493-.357 3.035-.092 4.541.295 1.728.845 3.403 1.63 4.971 1.576 3.16 3.818 5.622 5.964 6.748.264.135.323.813.471 1.244.956 2.755 4.252 5.933 6.065 8.292 1.943 2.554 4.287 5.147 6.466 7.53.87.954 1.022 2.078 1.505 3.133.571.748 1.408 1.25 2.338 1.4.425.033 2.04 1.553 3.736 3.019.775.688 1.582 1.335 2.242 1.86l.14.156c.505.558 1.023 1.094 1.541 1.593.38.639.859 1.213 1.42 1.7.405.346.84.656 1.3.924.27.168.551.312.844.433.53.22 1.095.349 1.67.38.102.006.22-.003.33-.005.807.518 1.564 1.115 2.38 1.63.524.32.99.725 1.378 1.2.379.455.783 1.001 1.23 1.583.65.685 1.475 1.18 2.385 1.431.736.244 1.5.396 2.274.454.997.073 1.999-.025 2.963-.29.258-.068.512-.151.76-.25l.372-.149c.112-.044.332-.154.489-.236.657-.337 1.257-.776 1.776-1.3.817-.843 1.424-1.866 1.772-2.986.546-1.716.54-3.56-.017-5.272z" transform="translate(-88 -97) translate(88 97) translate(0 51.703)"/>
                    <path fill="#292929" d="M73.29 87.596c-.187-.479-.49-.904-.88-1.24-.34-.49-.617-1.02-.826-1.579-.376-.812-.863-1.797-1.356-2.733-.73-1.236-1.367-2.525-1.905-3.856.122-1.135-.023-2.283-.422-3.353.166-.435.308-.88.425-1.33.106-.374.13-.766.071-1.15-.029-.443-.091-.882-.187-1.314-.34-1.061-.891-2.043-1.62-2.887-.183-.716-.32-1.443-.41-2.177-.046-.24-.104-.508-.182-.813-.082-.287-.187-.595-.317-.95-.13-.354-.288-.749-.478-1.19l-.302-.67-.264-.497c-.688-1.285-1.459-3.617-2.489-5.867-1.012-2.241-2.363-4.415-3.745-5.233-.397-.236-.772-.505-1.123-.805-.378-.3-.731-.621-1.076-.954-.42-.35-.776-.694-1.246-1.058-.264-.189-.532-.373-.805-.549l-.205-.13-.118-.072-.291-.147c-.716-.348-1.514-.494-2.307-.42-.612.054-1.203.246-1.73.56-.269.158-.518.347-.742.564-.201.19-.382.4-.54.627-.128.185-.243.38-.343.583-.072.147-.134.3-.188.454-.049.136-.102.311-.127.419l-.065.308c-.032.171-.054.344-.067.518-.013.16-.018.296-.019.399-.004.25.005.424.01.572.017.498.053.947.1 1.41.088.94.233 1.873.434 2.795.32 1.113 1 2.088 1.933 2.775l.414.315.298.206c.19.13.391.256.6.38.413.25.856.485 1.306.71.104.053.21.101.314.152-.697.043-1.384.194-2.035.449-.634.275-1.194.696-1.633 1.229-.32.382-.587.806-.794 1.26l-.145.36-.067.186-.036.118c-.049.156-.09.317-.124.48-.26 1.515.013 3.072.772 4.409.745 1.335 1.651 2.574 2.698 3.689.583.658 1.258 1.228 2.003 1.695.061.035.64.657 1.49 1.467.936.9 1.972 1.69 3.089 2.352.945.582 1.976 1.014 3.054 1.28l.01.002c.558 1.247 1.18 2.465 1.865 3.648.872.916 1.705 1.823 2.395 2.684l.836 1.635c.132.264.26.526.37.781.056.128.116.258.16.382.042.054.081.11.117.168.29.446.504 1.302.061 1.745-.052.05-.112.093-.176.126-.515.13-1.06-.044-1.403-.45-.067-.065-.152-.11-.244-.13l-.361-.133-.718-.264c-.472-.172-.955-.315-1.445-.426-3.518.02-6.967-.98-9.928-2.88-.912-.518-1.962-.745-3.008-.65-1.038.105-2.076-.199-2.894-.847-2.178-2.008-4.48-4.447-7.143-5.85-2.642-1.396-2.725.603-2.401 1.377 1.217 2.662 2.973 5.044 5.157 6.994 2.367 2.164 5.313 3.745 7.729 3.832.287.017.62.595.94.915 1.284 1.13 2.805 1.96 4.45 2.428 1.688.512 3.405.923 5.142 1.23 1.522.311 3.073.458 4.627.438 2.03-.009 4.166-.275 5.57-1.627.26-.248.49-.525.687-.826.448-.693.822-1.285 1.186-1.907.39-.65.686-1.352.883-2.084.053-.697-.037-1.397-.266-2.058z" transform="translate(-88 -97) translate(88 97) translate(0 51.703)"/>
                </g>
                <path fill="#FFF" d="M143.922 54.756c.544.32 1.355.597 1.248 1.733-.024.264.078.322.346.253.748-.195 1.123.074.92.848-.194.654.146.723.776.568.38-.091.095.428.096.68.88-.341 1.197-.035 1.48.305.882 1.041 1.653 2.17 2.3 3.371.663 1.266 1.152 2.614 1.456 4.01.122.534.159 1.071.257 1.583.062.309-.292.612-.526.911-.565.706-.508.947.273 1.599.157.13.225.212-.013.371-.237.126-.417.337-.502.591-.07.467.014.923-.066 1.375-.06.338.338.622.816.907.5.3.589.628-.004.9-.805.374-.572.695.075 1.049.297.162.239.352-.13.53-.835.405-.936.821-.059 1.234.759.356.632.713-.084 1.055-.265.126-.187.215-.093.346.217.304.045.365-.63.369-.873.004-1.79.047-2.61-.013-1.278-.093-2.44-.282-2.66-.711-.122-.244-.108-.488-.584-.713-.873-.413-.55-.81.14-1.233.756-.462.668-.902-.15-1.424-.384-.245-.619-.456-.093-.69.271-.121.362-.227.17-.335-.196-.11-.546-.219-.552-.33-.04-1.035-.038-2.008-.094-2.932.442-.265.938-.57.233-.768.997-.488.674-.905.587-1.307-.09-.393.135-.892-.824-1.022-.236-.025.307-.356.206-.46-.105-.11-.64-.06-.776-.14-.142-.08-.211-.207.016-.41.597-.54.6-.913.429-1.205-.55-.94-1.205-1.815-1.954-2.606-.39-.429-.82-.873-1.246-1.296-.377-.38-.775-.738-1.192-1.074-.386-.3-.749-.338-.643-1.46.003-.07-.123.074-.197.165-.438.536-.425.298-.44-.378-.268.368-.332.583-.46-.076-.098-.417-.276-.348-.452-.484-.217-.526-.357-1.081-.414-1.647.006-1.08.18-2.381.975-2.337.675.135 1.376-.024 1.927-.435.294-.197.662-.246.996-.132.614.205 1.195.497 1.726.865z" transform="translate(-88 -97) translate(88 97)"/>
            </g>
        </g>
    </g>
</svg>
