<?xml version="1.0" encoding="UTF-8"?>
<svg width="24px" height="24px" viewBox="0 0 24 24" version="1.1" xmlns="http://www.w3.org/2000/svg" xmlns:xlink="http://www.w3.org/1999/xlink">
    <title>Icon / ic_corona</title>
    <g id="Icon-/-ic_corona" stroke="none" stroke-width="1" fill="none" fill-rule="evenodd">
        <path d="M21.25,10.5 C20.84,10.5 20.5,10.84 20.5,11.25 L18.96,11.25 C18.81,9.88 18.27,8.62 17.44,7.6 L18.53,6.51 L18.54,6.52 C18.83,6.81 19.31,6.81 19.6,6.52 C19.89,6.23 19.89,5.75 19.6,5.46 L18.54,4.4 C18.25,4.11 17.77,4.11 17.48,4.4 C17.19,4.69 17.19,5.16 17.47,5.45 L16.38,6.54 C15.36,5.72 14.11,5.18 12.74,5.03 L12.74,3.5 L12.75,3.5 C13.16,3.5 13.5,3.16 13.5,2.75 C13.5,2.34 13.16,2 12.75,2 L11.25,2 C10.84,2 10.5,2.34 10.5,2.75 C10.5,3.16 10.83,3.49 11.24,3.5 L11.24,5.05 C9.87,5.19 8.62,5.74 7.6,6.56 L6.51,5.47 L6.52,5.46 C6.81,5.17 6.81,4.69 6.52,4.4 C6.23,4.11 5.75,4.11 5.46,4.4 L4.4,5.46 C4.11,5.75 4.11,6.23 4.4,6.52 C4.69,6.81 5.16,6.81 5.45,6.53 L6.54,7.62 C5.72,8.64 5.18,9.88 5.04,11.25 L3.5,11.25 C3.5,10.84 3.16,10.5 2.75,10.5 C2.34,10.5 2,10.84 2,11.25 L2,12.75 C2,13.16 2.34,13.5 2.75,13.5 C3.16,13.5 3.5,13.16 3.5,12.75 L5.04,12.75 C5.19,14.12 5.73,15.36 6.54,16.38 L5.45,17.47 C5.16,17.18 4.69,17.19 4.4,17.48 C4.11,17.77 4.11,18.25 4.4,18.54 L5.46,19.6 C5.75,19.89 6.23,19.89 6.52,19.6 C6.81,19.31 6.81,18.83 6.52,18.54 L6.51,18.53 L7.6,17.44 C8.62,18.26 9.86,18.8 11.23,18.95 L11.23,20.5 C10.82,20.51 10.49,20.84 10.49,21.25 C10.49,21.66 10.83,22 11.24,22 L12.74,22 C13.15,22 13.49,21.66 13.49,21.25 C13.49,20.84 13.15,20.5 12.74,20.5 L12.73,20.5 L12.73,18.96 C14.1,18.82 15.35,18.27 16.37,17.45 L17.46,18.54 C17.17,18.83 17.18,19.3 17.47,19.59 C17.76,19.88 18.24,19.88 18.53,19.59 L19.59,18.53 C19.88,18.24 19.88,17.76 19.59,17.47 C19.3,17.18 18.82,17.18 18.53,17.47 L18.52,17.48 L17.43,16.39 C18.25,15.37 18.8,14.12 18.95,12.74 L20.49,12.74 C20.49,13.15 20.83,13.49 21.24,13.49 C21.65,13.49 21.99,13.15 21.99,12.74 L21.99,11.24 C22,10.84 21.66,10.5 21.25,10.5 Z M13.75,8 C14.3,8 14.75,8.45 14.75,9 C14.75,9.55 14.3,10 13.75,10 C13.2,10 12.75,9.55 12.75,9 C12.75,8.45 13.2,8 13.75,8 Z M12,13 C11.45,13 11,12.55 11,12 C11,11.45 11.45,11 12,11 C12.55,11 13,11.45 13,12 C13,12.55 12.55,13 12,13 Z M10.25,8 C10.8,8 11.25,8.45 11.25,9 C11.25,9.55 10.8,10 10.25,10 C9.7,10 9.25,9.55 9.25,9 C9.25,8.45 9.7,8 10.25,8 Z M8.5,13 C7.95,13 7.5,12.55 7.5,12 C7.5,11.45 7.95,11 8.5,11 C9.05,11 9.5,11.45 9.5,12 C9.5,12.55 9.05,13 8.5,13 Z M10.25,16 C9.7,16 9.25,15.55 9.25,15 C9.25,14.45 9.7,14 10.25,14 C10.8,14 11.25,14.45 11.25,15 C11.25,15.55 10.8,16 10.25,16 Z M13.75,16 C13.2,16 12.75,15.55 12.75,15 C12.75,14.45 13.2,14 13.75,14 C14.3,14 14.75,14.45 14.75,15 C14.75,15.55 14.3,16 13.75,16 Z M14.5,12 C14.5,11.45 14.95,11 15.5,11 C16.05,11 16.5,11.45 16.5,12 C16.5,12.55 16.05,13 15.5,13 C14.95,13 14.5,12.55 14.5,12 Z" id="Shape" fill="#FFFFFF"></path>
        <rect id="Path" x="0" y="0" width="24" height="24"></rect>
    </g>
</svg>