<svg width="18" height="21" viewBox="0 0 18 21" fill="none" xmlns="http://www.w3.org/2000/svg">
<path d="M1.5 20.5C1.1 20.5 0.75 20.35 0.45 20.05C0.15 19.75 0 19.4 0 19V3.5C0 3.1 0.15 2.75 0.45 2.45C0.75 2.15 1.1 2 1.5 2H3.125V1.3C3.125 1.07333 3.20167 0.883333 3.355 0.73C3.50833 0.576667 3.69833 0.5 3.925 0.5C4.15875 0.5 4.35469 0.576667 4.51283 0.73C4.67094 0.883333 4.75 1.07333 4.75 1.3V2H13.25V1.3C13.25 1.07333 13.3267 0.883333 13.48 0.73C13.6333 0.576667 13.8233 0.5 14.05 0.5C14.2838 0.5 14.4797 0.576667 14.6378 0.73C14.7959 0.883333 14.875 1.07333 14.875 1.3V2H16.5C16.9 2 17.25 2.15 17.55 2.45C17.85 2.75 18 3.1 18 3.5V19C18 19.4 17.85 19.75 17.55 20.05C17.25 20.35 16.9 20.5 16.5 20.5H1.5ZM1.5 19H16.5V8.25H1.5V19ZM1.5 6.75H16.5V3.5H1.5V6.75ZM9 12.5C8.71667 12.5 8.47917 12.4042 8.2875 12.2125C8.09583 12.0208 8 11.7833 8 11.5C8 11.2167 8.09583 10.9792 8.2875 10.7875C8.47917 10.5958 8.71667 10.5 9 10.5C9.28333 10.5 9.52083 10.5958 9.7125 10.7875C9.90417 10.9792 10 11.2167 10 11.5C10 11.7833 9.90417 12.0208 9.7125 12.2125C9.52083 12.4042 9.28333 12.5 9 12.5ZM5 12.5C4.71667 12.5 4.47917 12.4042 4.2875 12.2125C4.09583 12.0208 4 11.7833 4 11.5C4 11.2167 4.09583 10.9792 4.2875 10.7875C4.47917 10.5958 4.71667 10.5 5 10.5C5.28333 10.5 5.52083 10.5958 5.7125 10.7875C5.90417 10.9792 6 11.2167 6 11.5C6 11.7833 5.90417 12.0208 5.7125 12.2125C5.52083 12.4042 5.28333 12.5 5 12.5ZM13 12.5C12.7167 12.5 12.4792 12.4042 12.2875 12.2125C12.0958 12.0208 12 11.7833 12 11.5C12 11.2167 12.0958 10.9792 12.2875 10.7875C12.4792 10.5958 12.7167 10.5 13 10.5C13.2833 10.5 13.5208 10.5958 13.7125 10.7875C13.9042 10.9792 14 11.2167 14 11.5C14 11.7833 13.9042 12.0208 13.7125 12.2125C13.5208 12.4042 13.2833 12.5 13 12.5ZM9 16.5C8.71667 16.5 8.47917 16.4042 8.2875 16.2125C8.09583 16.0208 8 15.7833 8 15.5C8 15.2167 8.09583 14.9792 8.2875 14.7875C8.47917 14.5958 8.71667 14.5 9 14.5C9.28333 14.5 9.52083 14.5958 9.7125 14.7875C9.90417 14.9792 10 15.2167 10 15.5C10 15.7833 9.90417 16.0208 9.7125 16.2125C9.52083 16.4042 9.28333 16.5 9 16.5ZM5 16.5C4.71667 16.5 4.47917 16.4042 4.2875 16.2125C4.09583 16.0208 4 15.7833 4 15.5C4 15.2167 4.09583 14.9792 4.2875 14.7875C4.47917 14.5958 4.71667 14.5 5 14.5C5.28333 14.5 5.52083 14.5958 5.7125 14.7875C5.90417 14.9792 6 15.2167 6 15.5C6 15.7833 5.90417 16.0208 5.7125 16.2125C5.52083 16.4042 5.28333 16.5 5 16.5ZM13 16.5C12.7167 16.5 12.4792 16.4042 12.2875 16.2125C12.0958 16.0208 12 15.7833 12 15.5C12 15.2167 12.0958 14.9792 12.2875 14.7875C12.4792 14.5958 12.7167 14.5 13 14.5C13.2833 14.5 13.5208 14.5958 13.7125 14.7875C13.9042 14.9792 14 15.2167 14 15.5C14 15.7833 13.9042 16.0208 13.7125 16.2125C13.5208 16.4042 13.2833 16.5 13 16.5Z" fill="#F07D7D"/>
</svg>
