<svg width="24" height="24" viewBox="0 0 24 24" fill="none" xmlns="http://www.w3.org/2000/svg">
<path d="M10.9 21.95C9.63333 21.8167 8.45833 21.4667 7.37499 20.9C6.29166 20.3333 5.35416 19.6 4.56249 18.7C3.77083 17.8 3.14999 16.775 2.69999 15.625C2.24999 14.475 2.02499 13.2583 2.02499 11.975C2.02499 9.39167 2.87083 7.15 4.56249 5.25C6.25416 3.35 8.37499 2.26667 10.925 2V3.5C8.79166 3.81667 7.02499 4.775 5.62499 6.375C4.22499 7.975 3.52499 9.84167 3.52499 11.975C3.52499 14.1083 4.22083 15.975 5.61249 17.575C7.00416 19.175 8.76666 20.1333 10.9 20.45V21.95ZM12 17L6.99999 12L8.07499 10.925L11.25 14.1V7H12.75V14.1L15.925 10.925L17 12L12 17ZM13.1 21.95V20.45C13.8667 20.35 14.6042 20.1542 15.3125 19.8625C16.0208 19.5708 16.675 19.1833 17.275 18.7L18.375 19.8C17.6083 20.3833 16.7792 20.8667 15.8875 21.25C14.9958 21.6333 14.0667 21.8667 13.1 21.95ZM17.3 5.275C16.6667 4.825 16 4.44583 15.3 4.1375C14.6 3.82917 13.8667 3.61667 13.1 3.5V2C14.0667 2.11667 14.9917 2.3625 15.875 2.7375C16.7583 3.1125 17.5917 3.59167 18.375 4.175L17.3 5.275ZM19.8 18.25L18.725 17.2C19.2083 16.5833 19.5917 15.9208 19.875 15.2125C20.1583 14.5042 20.35 13.7667 20.45 13H21.975C21.8583 13.9667 21.6167 14.8958 21.25 15.7875C20.8833 16.6792 20.4 17.5 19.8 18.25ZM20.45 10.95C20.35 10.1833 20.1583 9.44167 19.875 8.725C19.5917 8.00833 19.2083 7.35 18.725 6.75L19.9 5.725C20.4833 6.49167 20.95 7.31667 21.3 8.2C21.65 9.08333 21.875 10 21.975 10.95H20.45Z" fill="white"/>
</svg>
