<svg width="21" height="21" viewBox="0 0 21 21" fill="none" xmlns="http://www.w3.org/2000/svg">
<path d="M1.71896 19.2799H2.97954L15.6712 6.5798L14.4106 5.31839L1.71896 18.0185V19.2799ZM19.3097 5.34706L15.6426 1.67751L16.8408 0.478508C17.1688 0.150217 17.5764 -0.00915068 18.0634 0.000405447C18.5505 0.00996158 18.9563 0.177194 19.281 0.502102L20.513 1.73484C20.8377 2.05975 21 2.46111 21 2.93892C21 3.41672 20.838 3.81773 20.514 4.14193L19.3097 5.34706ZM0.86885 21C0.622675 21 0.416323 20.9167 0.249794 20.7502C0.0832645 20.5836 0 20.3772 0 20.131V17.6762C0 17.5604 0.0190996 17.4547 0.0572988 17.3591C0.095498 17.2636 0.162347 17.168 0.257844 17.0724L14.4393 2.88158L18.1064 6.55113L3.92497 20.742C3.82947 20.8375 3.7319 20.9044 3.63226 20.9427C3.53259 20.9809 3.42962 21 3.32333 21H0.86885ZM15.0409 5.9491L14.4106 5.31839L15.6712 6.5798L15.0409 5.9491Z" fill="white"/>
</svg>
