<svg width="16" height="19" viewBox="0 0 16 19" fill="none" xmlns="http://www.w3.org/2000/svg">
<path d="M8 18.5C5.76667 18.5 3.875 17.725 2.325 16.175C0.775 14.625 0 12.7333 0 10.5C0 8.56665 0.595833 6.69165 1.7875 4.87499C2.97917 3.05832 4.61667 1.50832 6.7 0.224987C6.98333 0.0416539 7.27083 0.0374872 7.5625 0.212487C7.85417 0.387487 8 0.649987 8 0.999987V2.79999C8 3.36665 8.19583 3.84165 8.5875 4.22499C8.97917 4.60832 9.45833 4.79999 10.025 4.79999C10.325 4.79999 10.6042 4.73749 10.8625 4.61249C11.1208 4.48749 11.35 4.29999 11.55 4.04999C11.6833 3.89999 11.8333 3.79582 12 3.73749C12.1667 3.67915 12.325 3.69999 12.475 3.79999C13.575 4.54999 14.4375 5.51665 15.0625 6.69999C15.6875 7.88332 16 9.14999 16 10.5C16 12.7333 15.225 14.625 13.675 16.175C12.125 17.725 10.2333 18.5 8 18.5ZM1.5 10.5C1.5 11.55 1.7375 12.5375 2.2125 13.4625C2.6875 14.3875 3.35 15.1583 4.2 15.775C4.13333 15.575 4.08333 15.3708 4.05 15.1625C4.01667 14.9542 4 14.75 4 14.55C4 14.0167 4.1 13.5167 4.3 13.05C4.5 12.5833 4.79167 12.1583 5.175 11.775L8 8.99999L10.825 11.775C11.2083 12.1583 11.5 12.5833 11.7 13.05C11.9 13.5167 12 14.0167 12 14.55C12 14.75 11.9833 14.9542 11.95 15.1625C11.9167 15.3708 11.8667 15.575 11.8 15.775C12.65 15.1583 13.3125 14.3875 13.7875 13.4625C14.2625 12.5375 14.5 11.55 14.5 10.5C14.5 9.59999 14.3083 8.72082 13.925 7.86249C13.5417 7.00415 12.9917 6.21665 12.275 5.49999C11.925 5.74999 11.5583 5.94582 11.175 6.08749C10.7917 6.22915 10.4083 6.29999 10.025 6.29999C9.00833 6.29999 8.16667 5.95415 7.5 5.26249C6.83333 4.57082 6.5 3.69999 6.5 2.64999V2.14999C4.96667 3.24999 3.75 4.55415 2.85 6.06249C1.95 7.57082 1.5 9.04999 1.5 10.5ZM8 11.1L6.225 12.85C5.99167 13.0833 5.8125 13.3417 5.6875 13.625C5.5625 13.9083 5.5 14.2167 5.5 14.55C5.5 15.2333 5.74167 15.8125 6.225 16.2875C6.70833 16.7625 7.3 17 8 17C8.7 17 9.29167 16.7625 9.775 16.2875C10.2583 15.8125 10.5 15.2333 10.5 14.55C10.5 14.2167 10.4375 13.9083 10.3125 13.625C10.1875 13.3417 10.0083 13.0833 9.775 12.85L8 11.1Z" fill="#F0E57D"/>
</svg>
