<svg width="40" height="40" viewBox="0 0 40 40" fill="none" xmlns="http://www.w3.org/2000/svg">
<path d="M11.7083 27.0833V25H16.75V22.6666H13.3333V20.625H16.75V18.25H11.7083V16.2083H17C17.5278 16.2083 17.9653 16.3819 18.3125 16.7291C18.6597 17.0764 18.8333 17.5139 18.8333 18.0416V25.25C18.8333 25.7778 18.6597 26.2153 18.3125 26.5625C17.9653 26.9097 17.5278 27.0833 17 27.0833H11.7083ZM23.0417 27.0833C22.5139 27.0833 22.0764 26.9097 21.7292 26.5625C21.3819 26.2153 21.2083 25.7778 21.2083 25.25V18.0416C21.2083 17.5139 21.3819 17.0764 21.7292 16.7291C22.0764 16.3819 22.5139 16.2083 23.0417 16.2083H26.5C27.0278 16.2083 27.4653 16.3819 27.8125 16.7291C28.1597 17.0764 28.3333 17.5139 28.3333 18.0416V25.25C28.3333 25.7778 28.1597 26.2153 27.8125 26.5625C27.4653 26.9097 27.0278 27.0833 26.5 27.0833H23.0417ZM23.2917 25H26.25V18.25H23.2917V25ZM20 36.6666C17.9167 36.6666 15.9653 36.2778 14.1458 35.5C12.3264 34.7222 10.7361 33.6528 9.375 32.2916C8.01389 30.9305 6.94444 29.3403 6.16667 27.5208C5.38889 25.7014 5 23.75 5 21.6666C5 19.5833 5.38889 17.6319 6.16667 15.8125C6.94444 13.993 8.01389 12.4028 9.375 11.0416C10.7361 9.68054 12.3264 8.61109 14.1458 7.83331C15.9653 7.05553 17.9167 6.66665 20 6.66665H20.875L17.625 3.41665L19.3333 1.70831L25.4583 7.83331L19.3333 13.9583L17.625 12.25L20.7083 9.16665H20C16.5278 9.16665 13.5764 10.3819 11.1458 12.8125C8.71528 15.243 7.5 18.1944 7.5 21.6666C7.5 25.1389 8.71528 28.0903 11.1458 30.5208C13.5764 32.9514 16.5278 34.1666 20 34.1666C23.4722 34.1666 26.4236 32.9514 28.8542 30.5208C31.2847 28.0903 32.5 25.1389 32.5 21.6666H35C35 23.75 34.6111 25.7014 33.8333 27.5208C33.0556 29.3403 31.9861 30.9305 30.625 32.2916C29.2639 33.6528 27.6736 34.7222 25.8542 35.5C24.0347 36.2778 22.0833 36.6666 20 36.6666Z" fill="white"/>
</svg>
