<?xml version="1.0" encoding="UTF-8"?>
<svg width="24px" height="24px" viewBox="0 0 24 24" version="1.1" xmlns="http://www.w3.org/2000/svg" xmlns:xlink="http://www.w3.org/1999/xlink">
    <title>Icon / ic_gift</title>
    <g id="Icon-/-ic_gift" stroke="none" stroke-width="1" fill="none" fill-rule="evenodd">
        <path d="M9.32727273,2.0000386 C7.60909091,1.99058697 5.93636364,3.71786777 6.7,5.86273293 L3.81818182,5.86273293 C2.81402773,5.86273293 2,6.71254607 2,7.7608437 L2,9.65895446 C2,10.1831033 2.40701386,10.6080098 2.90909091,10.6080098 L11.0909091,10.6080098 L11.0909091,7.7608437 L12.9090909,7.7608437 L12.9090909,10.6080098 L21.0909091,10.6080098 C21.5929861,10.6080098 22,10.1831033 22,9.65895446 L22,7.7608437 C22,6.71254607 21.1859723,5.86273293 20.1818182,5.86273293 L17.3,5.86273293 C18.3636364,2.75932183 14.3636364,0.5670039 12.5181818,3.24334008 L12,3.96462217 L11.4818182,3.22435897 C10.9090909,2.37969968 10.1181818,2.00956808 9.32727273,2.0000386 M9.27272727,3.96462217 C10.0818182,3.96462217 10.4909091,4.98960198 9.91818182,5.58750687 C9.34545455,6.18541176 8.36363636,5.75833684 8.36363636,4.91367755 C8.36363636,4.38952874 8.77065023,3.96462217 9.27272727,3.96462217 M14.7272727,3.96462217 C15.5363636,3.96462217 15.9454545,4.98960198 15.3727273,5.58750687 C14.8,6.18541176 13.8181818,5.75833684 13.8181818,4.91367755 C13.8181818,4.38952874 14.2251957,3.96462217 14.7272727,3.96462217 M2.90909091,11.5570652 L2.90909091,19.1495083 C2.90909091,20.1978059 3.72311864,21.047619 4.72727273,21.047619 L19.2727273,21.047619 C20.2768814,21.047619 21.0909091,20.1978059 21.0909091,19.1495083 L21.0909091,11.5570652 L12.9090909,11.5570652 L12.9090909,19.1495083 L11.0909091,19.1495083 L11.0909091,11.5570652 L2.90909091,11.5570652 Z" id="Shape" fill="#FFFFFF"></path>
        <polygon id="Path" points="0 0 24 0 24 24 0 24"></polygon>
    </g>
</svg>