<svg width="32" height="32" viewBox="0 0 32 32" fill="none" xmlns="http://www.w3.org/2000/svg">
<g clip-path="url(#clip0_1722_3582)">
<path d="M15.999 32C24.835 32 31.999 24.8366 31.999 16C31.999 7.16344 24.835 0 15.999 0C7.16211 0 -0.000976562 7.16344 -0.000976562 16C-0.000976562 24.8366 7.16211 32 15.999 32Z" fill="#FADD8D"/>
<path d="M16.0004 18.6668C12.78 18.6668 10.6431 18.2916 8.00043 17.7779C7.39688 17.6614 6.22266 17.7779 6.22266 19.5556C6.22266 23.1112 10.3071 27.5556 16.0004 27.5556C21.6929 27.5556 25.7782 23.1112 25.7782 19.5556C25.7782 17.7779 24.604 17.6605 24.0004 17.7779C21.3578 18.2916 19.2209 18.6668 16.0004 18.6668Z" fill="#121212"/>
<path d="M8 19.5557C8 19.5557 10.6667 20.4446 16 20.4446C21.3333 20.4446 24 19.5557 24 19.5557C24 19.5557 22.2222 23.1112 16 23.1112C9.77778 23.1112 8 19.5557 8 19.5557Z" fill="white"/>
<path d="M10.6675 15.1111C11.8948 15.1111 12.8898 13.7182 12.8898 12C12.8898 10.2818 11.8948 8.88892 10.6675 8.88892C9.44024 8.88892 8.44531 10.2818 8.44531 12C8.44531 13.7182 9.44024 15.1111 10.6675 15.1111Z" fill="#121212"/>
<path d="M21.3316 15.1111C22.5589 15.1111 23.5538 13.7182 23.5538 12C23.5538 10.2818 22.5589 8.88892 21.3316 8.88892C20.1043 8.88892 19.1094 10.2818 19.1094 12C19.1094 13.7182 20.1043 15.1111 21.3316 15.1111Z" fill="#121212"/>
</g>
<defs>
<clipPath id="clip0_1722_3582">
<rect width="32" height="32" fill="white"/>
</clipPath>
</defs>
</svg>
