<svg width="16" height="21" viewBox="0 0 16 21" fill="none" xmlns="http://www.w3.org/2000/svg">
<path d="M3.9 19H12.1V15.8226C12.1 14.6575 11.7042 13.6542 10.9125 12.8125C10.1208 11.9708 9.15 11.55 8 11.55C6.85 11.55 5.87917 11.9708 5.0875 12.8125C4.29583 13.6542 3.9 14.6575 3.9 15.8226V19ZM15.25 20.5H0.75C0.5375 20.5 0.359375 20.4277 0.215625 20.2831C0.071875 20.1385 0 19.9594 0 19.7456C0 19.5319 0.071875 19.3542 0.215625 19.2125C0.359375 19.0708 0.5375 19 0.75 19H2.4V15.825C2.4 14.6583 2.70417 13.5875 3.3125 12.6125C3.92083 11.6375 4.76667 10.9333 5.85 10.5C4.76667 10.0667 3.92083 9.35833 3.3125 8.375C2.70417 7.39167 2.4 6.31667 2.4 5.15V2H0.75C0.5375 2 0.359375 1.92771 0.215625 1.78312C0.071875 1.63852 0 1.45936 0 1.24562C0 1.03187 0.071875 0.854167 0.215625 0.7125C0.359375 0.570833 0.5375 0.5 0.75 0.5H15.25C15.4625 0.5 15.6406 0.572292 15.7844 0.716875C15.9281 0.861475 16 1.04064 16 1.25438C16 1.46813 15.9281 1.64583 15.7844 1.7875C15.6406 1.92917 15.4625 2 15.25 2H13.6V5.15C13.6 6.31667 13.2917 7.39167 12.675 8.375C12.0583 9.35833 11.2167 10.0667 10.15 10.5C11.2333 10.9333 12.0792 11.6375 12.6875 12.6125C13.2958 13.5875 13.6 14.6583 13.6 15.825V19H15.25C15.4625 19 15.6406 19.0723 15.7844 19.2169C15.9281 19.3615 16 19.5406 16 19.7544C16 19.9681 15.9281 20.1458 15.7844 20.2875C15.6406 20.4292 15.4625 20.5 15.25 20.5Z" fill="#917DF0"/>
</svg>
