<svg xmlns="http://www.w3.org/2000/svg" width="44" height="16" viewBox="0 0 44 16">
    <path fill="#EBE7E4" fill-rule="evenodd" d="M14.044 11.41c0-1.88-.204-2.82-.612-2.82-.408 0-.966.547-1.675 1.64-.709 1.092-1.471 2.196-2.287 3.311-.816 1.115-1.568 1.672-2.255 1.672-.364 0-.908-.62-1.633-1.859l-.138-.24c-.795-1.398-1.665-2.786-2.61-4.163C1.89 7.574 1.053 6.885.323 6.885.107 6.885 0 6.776 0 6.557c0-.667.744-1.853 2.23-3.556l.218-.247C4.08.918 5.25 0 5.959 0c.68 0 1.674 1.044 2.984 3.132l.424.683c1.257 2.003 2.108 3.005 2.551 3.005.451 0 1.342-.817 2.674-2.45l.193-.239c1.439-1.792 2.577-2.688 3.414-2.688.838 0 1.46.338 1.868 1.016.408.678.645 1.41.709 2.197.064.787.14 1.519.225 2.196.086.678.258 1.017.516 1.017.43 0 1.535-1.082 3.318-3.246 1.782-2.164 3.081-3.246 3.897-3.246.902 0 2.405 1.377 4.51 4.131.773 1.05 1.75 2 2.93 2.853 1.182.852 2.159 1.278 2.932 1.278.773 0 1.525-.13 2.255-.393.73-.262 1.353-.394 1.868-.394.515 0 .773.175.773.525 0 .175-.075.328-.225.46l-.153.136c-.13.118-.312.287-.548.509l-.637.597c-.392.366-.73.67-1.012.914l-.163.138c-.365.306-.88.732-1.546 1.279-.666.546-1.235.973-1.707 1.279-1.289.786-2.502 1.18-3.64 1.18-1.138 0-2.405-.645-3.8-1.935-1.304-1.203-2.438-2.407-3.404-3.61l-.385-.486c-.918-1.138-1.598-1.707-2.042-1.707-.458 0-1.189.617-2.192 1.85l-.095.117c-1.052 1.312-2.126 2.623-3.221 3.935C18.135 15.344 17.19 16 16.395 16c-.794 0-1.395-.372-1.803-1.115-.408-.743-.612-1.552-.612-2.426l.064-1.05z"/>
</svg>
