<svg width="32" height="32" viewBox="0 0 32 32" fill="none" xmlns="http://www.w3.org/2000/svg">
<path d="M12.863 9.36358C12.2498 9.45273 11.4191 9.95554 10.8736 10.5653C10.5849 10.8898 9.77914 11.9561 9.26932 12.6907C8.7096 13.5037 8.32456 14.085 8.06787 14.5129C7.45823 15.5256 7.41902 15.572 7.23719 15.4864C7.18372 15.4614 7.11241 15.3794 7.07676 15.3045C7.00546 15.1655 6.84503 14.5129 6.68103 13.7284C6.57051 13.1935 6.40652 12.6693 6.27817 12.4446C6.08209 12.0916 5.71845 11.9026 5.30845 11.9382C4.93411 11.9703 4.43143 12.2271 4.08205 12.5658C3.66493 12.9652 3.18007 13.8139 2.96972 14.5129C2.91625 14.6912 2.82712 14.9658 2.77008 15.1298C2.71303 15.2938 2.66669 15.4472 2.66669 15.4721C2.66669 15.5221 3.05172 15.7431 3.14085 15.7431C3.1765 15.7431 3.20146 15.7895 3.21215 15.8751C3.28346 16.3529 3.30841 16.574 3.34406 17.0804C3.46528 18.7457 3.72553 19.7799 4.20683 20.5037C4.85925 21.4808 5.91453 21.8267 6.90564 21.3881C7.54736 21.1028 8.12135 20.543 8.97698 19.3626C9.04828 19.2628 9.14811 19.1273 9.19802 19.0595C9.24793 18.9918 9.39767 18.7742 9.52958 18.5781C10.428 17.2587 10.8558 16.7309 11.1517 16.5812L11.3193 16.4956L11.3621 16.681C11.387 16.7844 11.4512 17.33 11.5082 17.9006C11.5688 18.4676 11.6401 19.1201 11.6687 19.3448C11.9218 21.2205 12.2961 22.2261 12.9699 22.8502C13.2765 23.1319 13.6152 23.3138 13.9824 23.3886C14.8095 23.5562 15.4727 23.3138 16.2427 22.5542C16.4923 22.3081 17.2089 21.4915 17.3123 21.3311C17.3408 21.2883 17.3836 21.2348 17.4085 21.2169C17.4442 21.1849 17.815 20.732 18.913 19.384C19.2232 19.0025 19.9754 18.2393 20.2072 18.0682C20.6314 17.7615 20.8988 17.6973 21.1555 17.8435C21.3587 17.9612 21.4977 18.1609 21.8257 18.7956C22.3356 19.787 22.5922 20.1899 23.1377 20.8675C23.9007 21.8125 24.5673 22.276 25.3944 22.4294C26.3285 22.6077 27.2804 22.2154 28.0433 21.3418C28.4747 20.8496 28.9382 20.2042 29.5657 19.22C29.8152 18.8313 30.5853 17.437 30.6637 17.2266C30.6922 17.1517 30.5104 17.0019 30.3215 16.952C30.2395 16.9271 30.0042 16.9092 29.7974 16.9128C29.3232 16.9128 28.9275 16.9984 28.0148 17.2944C27.1307 17.5832 26.7884 17.6545 26.5638 17.601C26.3463 17.544 26.1645 17.4477 26.0397 17.3264C25.915 17.1981 25.6119 16.6917 25.5442 16.4849C25.5121 16.4029 25.455 16.2424 25.4123 16.1354C25.3124 15.8894 25.0593 15.0014 24.9345 14.4594C24.8811 14.2347 24.8098 13.9459 24.7705 13.8175C24.7313 13.6891 24.6565 13.4181 24.6101 13.2113C24.4283 12.466 24.1787 11.8491 23.9149 11.5067C23.7794 11.332 23.4372 11.0681 23.1841 10.9469C23.0129 10.8684 22.8097 10.8078 22.5495 10.765C22.1823 10.7008 22.1537 10.7008 21.7865 10.765C21.3551 10.8363 21.1519 10.9184 20.7455 11.1787C20.4496 11.3677 19.9041 11.9061 19.6225 12.2841C19.5441 12.3911 19.4121 12.5587 19.3301 12.6586C19.2517 12.7548 19.0735 12.9795 18.9415 13.1578C18.6563 13.5287 18.3176 13.9708 17.8257 14.6056C17.6367 14.8516 17.4335 15.1155 17.3729 15.194C16.7953 15.95 15.9932 16.8843 15.929 16.8843C15.9147 16.8843 15.8933 16.8629 15.8827 16.8379C15.872 16.8165 15.8042 16.6596 15.7329 16.492C15.5226 16.0035 15.4548 15.3794 15.3942 13.4217C15.3443 11.8348 15.3015 11.3819 15.1411 10.847C14.9593 10.2266 14.6063 9.78794 14.093 9.53832C13.6865 9.34575 13.3336 9.29226 12.863 9.36358Z" fill="white"/>
</svg>
