<svg width="21" height="11" viewBox="0 0 21 11" fill="none" xmlns="http://www.w3.org/2000/svg">
<path d="M7.64722 0.0226822C7.18732 0.0895443 6.56431 0.466648 6.15521 0.923986C5.93863 1.16737 5.33434 1.96704 4.95198 2.51799C4.53218 3.12777 4.24341 3.56371 4.05089 3.88465C3.59366 4.64421 3.56425 4.67898 3.42788 4.61479C3.38777 4.59607 3.3343 4.53456 3.30756 4.47839C3.25408 4.37409 3.13376 3.88465 3.01076 3.29626C2.92787 2.89509 2.80487 2.50194 2.70861 2.33345C2.56155 2.06867 2.28882 1.92692 1.98133 1.95367C1.70057 1.97774 1.32356 2.1703 1.06152 2.42438C0.748679 2.72392 0.385035 3.36045 0.227278 3.88465C0.18717 4.01838 0.120323 4.22431 0.0775418 4.34734C0.0347601 4.47037 0 4.58537 0 4.60409C0 4.64154 0.288776 4.80735 0.355623 4.80735C0.382361 4.80735 0.401078 4.84212 0.4091 4.90631C0.462577 5.26469 0.481294 5.43051 0.508032 5.81029C0.598943 7.05928 0.794135 7.83488 1.1551 8.37781C1.64442 9.11062 2.43588 9.37004 3.17921 9.04108C3.66051 8.82712 4.091 8.40723 4.73272 7.52197C4.7862 7.44708 4.86107 7.34545 4.8985 7.29464C4.93593 7.24382 5.04824 7.08068 5.14717 6.93358C5.82098 5.94402 6.14184 5.54819 6.36377 5.43586L6.48944 5.37167L6.52153 5.51075C6.54025 5.58831 6.58838 5.99751 6.63116 6.42542C6.67661 6.85067 6.73009 7.3401 6.75148 7.5086C6.94132 8.91538 7.22208 9.66959 7.72744 10.1376C7.95739 10.3489 8.2114 10.4853 8.48681 10.5415C9.10715 10.6672 9.60448 10.4853 10.182 9.91564C10.3692 9.7311 10.9066 9.11864 10.9842 8.99829C11.0056 8.9662 11.0377 8.92608 11.0564 8.91271C11.0831 8.88864 11.3612 8.54897 12.1848 7.53801C12.4174 7.25184 12.9816 6.6795 13.1554 6.55113C13.4735 6.32112 13.6741 6.27298 13.8666 6.38263C14.019 6.47089 14.1233 6.62066 14.3693 7.09672C14.7517 7.84023 14.9442 8.14245 15.3533 8.65061C15.9255 9.35935 16.4255 9.70703 17.0458 9.82203C17.7464 9.95576 18.4603 9.66156 19.0325 9.00631C19.356 8.63723 19.7036 8.15315 20.1742 7.41499C20.3614 7.12347 20.9389 6.07774 20.9978 5.91994C21.0192 5.86378 20.8828 5.75145 20.7411 5.71401C20.6796 5.69529 20.5031 5.68191 20.348 5.68459C19.9924 5.68459 19.6956 5.74878 19.0111 5.97076C18.348 6.18739 18.0913 6.24088 17.9228 6.20077C17.7597 6.15797 17.6234 6.08576 17.5298 5.99483C17.4362 5.89855 17.2089 5.51877 17.1581 5.36365C17.1341 5.30214 17.0913 5.18178 17.0592 5.10155C16.9843 4.91701 16.7945 4.25106 16.7009 3.84454C16.6608 3.67604 16.6073 3.45941 16.5779 3.36313C16.5485 3.26685 16.4923 3.06358 16.4576 2.90846C16.3212 2.34949 16.134 1.8868 15.9362 1.63005C15.8346 1.499 15.5779 1.30109 15.388 1.21016C15.2597 1.15132 15.1073 1.10585 14.9121 1.07376C14.6367 1.02562 14.6153 1.02562 14.3399 1.07376C14.0163 1.12725 13.8639 1.18876 13.5591 1.384C13.3372 1.52575 12.9281 1.9296 12.7168 2.21309C12.658 2.29333 12.5591 2.41903 12.4976 2.49392C12.4388 2.56613 12.3051 2.73462 12.2061 2.86834C11.9922 3.14649 11.7382 3.47813 11.3692 3.95419C11.2275 4.13873 11.0751 4.33664 11.0296 4.39548C10.5965 4.96248 9.99487 5.66319 9.94674 5.66319C9.93604 5.66319 9.92 5.64715 9.91198 5.62842C9.90395 5.61238 9.85315 5.4947 9.79967 5.369C9.64192 5.00259 9.59111 4.53456 9.54566 3.06626C9.50822 1.87611 9.47614 1.53645 9.35581 1.13527C9.21945 0.669909 8.95474 0.340947 8.5697 0.153732C8.26488 0.00930882 8.00017 -0.0308084 7.64722 0.0226822Z" fill="white"/>
</svg>
