<svg width="24" height="24" viewBox="0 0 24 24" fill="none" xmlns="http://www.w3.org/2000/svg">
<path d="M11.9964 20C11.6655 20 11.3833 19.8821 11.15 19.6464C10.9167 19.4108 10.8 19.1274 10.8 18.7964C10.8 18.4655 10.9178 18.1833 11.1535 17.95C11.3892 17.7167 11.6726 17.6 12.0035 17.6C12.3345 17.6 12.6167 17.7179 12.85 17.9536C13.0833 18.1892 13.2 18.4726 13.2 18.8036C13.2 19.1345 13.0821 19.4167 12.8464 19.65C12.6108 19.8833 12.3274 20 11.9964 20ZM11.9964 13.2C11.6655 13.2 11.3833 13.0821 11.15 12.8464C10.9167 12.6108 10.8 12.3274 10.8 11.9964C10.8 11.6655 10.9178 11.3833 11.1535 11.15C11.3892 10.9167 11.6726 10.8 12.0035 10.8C12.3345 10.8 12.6167 10.9179 12.85 11.1536C13.0833 11.3892 13.2 11.6726 13.2 12.0036C13.2 12.3345 13.0821 12.6167 12.8464 12.85C12.6108 13.0833 12.3274 13.2 11.9964 13.2ZM11.9964 6.4C11.6655 6.4 11.3833 6.28215 11.15 6.04645C10.9167 5.81077 10.8 5.52743 10.8 5.19645C10.8 4.86548 10.9178 4.58333 11.1535 4.35C11.3892 4.11667 11.6726 4 12.0035 4C12.3345 4 12.6167 4.11785 12.85 4.35355C13.0833 4.58923 13.2 4.87257 13.2 5.20355C13.2 5.53452 13.0821 5.81667 12.8464 6.05C12.6108 6.28333 12.3274 6.4 11.9964 6.4Z" fill="white"/>
</svg>
