<svg width="32" height="32" viewBox="0 0 32 32" fill="none" xmlns="http://www.w3.org/2000/svg">
<path d="M32 16C32 24.8364 24.8364 32 16 32C7.16444 32 0 24.8364 0 16C0 7.16444 7.16444 0 16 0C24.8364 0 32 7.16444 32 16Z" fill="#FADD8D"/>
<path d="M10.2222 17.7779C11.4495 17.7779 12.4444 16.385 12.4444 14.6668C12.4444 12.9486 11.4495 11.5557 10.2222 11.5557C8.99492 11.5557 8 12.9486 8 14.6668C8 16.385 8.99492 17.7779 10.2222 17.7779Z" fill="#121212"/>
<path d="M21.7769 17.7779C23.0042 17.7779 23.9991 16.385 23.9991 14.6668C23.9991 12.9486 23.0042 11.5557 21.7769 11.5557C20.5496 11.5557 19.5547 12.9486 19.5547 14.6668C19.5547 16.385 20.5496 17.7779 21.7769 17.7779Z" fill="#121212"/>
<path d="M22.224 23.111H9.77951C9.28885 23.111 8.89062 22.7137 8.89062 22.2221C8.89062 21.7306 9.28885 21.3333 9.77951 21.3333H22.224C22.7155 21.3333 23.1128 21.7306 23.1128 22.2221C23.1128 22.7137 22.7155 23.111 22.224 23.111Z" fill="#121212"/>
</svg>
