<?xml version="1.0" encoding="UTF-8"?>
<svg width="24px" height="24px" viewBox="0 0 24 24" version="1.1" xmlns="http://www.w3.org/2000/svg" xmlns:xlink="http://www.w3.org/1999/xlink">
    <title>Icon / ic_psychology</title>
    <g id="Icon-/-ic_psychology" stroke="none" stroke-width="1" fill="none" fill-rule="evenodd">
        <path d="M13,3 C16.87,3 20,6.13 20,10 C20,12.79 18.36,15.2 16,16.32 L16,16.32 L16,21 L9,21 L9,18 L8,18 C6.9,18 6,17.1 6,16 L6,16 L6,13 L4.5,13 C4.09,13 3.85,12.53 4.1,12.2 L4.1,12.2 L6.02,9.64 C6.2,5.94 9.25,3 13,3 Z M13.8,6 L12.2,6 C12.1,6 12.02,6.07 12,6.17 L12,6.17 L11.85,7.23 C11.61,7.33 11.38,7.47 11.18,7.62 L11.18,7.62 L10.18,7.22 C10.09,7.19 9.99,7.22 9.94,7.31 L9.94,7.31 L9.14,8.69 C9.09,8.79 9.11,8.89 9.19,8.95 L9.19,8.95 L10.04,9.61 C10.02,9.73 10,9.87 10,10 C10,10.13 10.01,10.26 10.02,10.39 L10.02,10.39 L9.18,11.05 C9.1,11.11 9.08,11.22 9.13,11.3 L9.13,11.3 L9.93,12.69 C9.98,12.78 10.09,12.81 10.18,12.78 L10.18,12.78 L11.17,12.38 C11.38,12.54 11.6,12.67 11.85,12.77 L11.85,12.77 L12,13.83 C12.02,13.93 12.1,14 12.2,14 L12.2,14 L13.8,14 C13.9,14 13.99,13.93 14,13.83 L14,13.83 L14.16,12.77 C14.4,12.67 14.62,12.54 14.83,12.38 L14.83,12.38 L15.82,12.78 C15.9,12.81 16.01,12.78 16.06,12.69 L16.06,12.69 L16.86,11.3 C16.91,11.21 16.89,11.11 16.81,11.05 L16.81,11.05 L15.98,10.39 C15.99,10.26 16,10.13 16,10 C16,9.86 15.99,9.73 15.96,9.61 L15.96,9.61 L16.81,8.95 C16.89,8.89 16.91,8.78 16.86,8.69 L16.86,8.69 L16.06,7.31 C16.02,7.22 15.91,7.19 15.82,7.22 L15.82,7.22 L14.82,7.62 C14.61,7.46 14.39,7.33 14.15,7.23 L14.15,7.23 L14,6.17 C13.98,6.07 13.9,6 13.8,6 L13.8,6 Z M13,8.57 C13.79,8.57 14.43,9.21 14.43,10 C14.43,10.79 13.79,11.43 13,11.43 C12.21,11.43 11.57,10.79 11.57,10 C11.57,9.21 12.21,8.57 13,8.57 Z" id="Shape" fill="#FFFFFF"></path>
        <rect id="Path" x="0" y="0" width="24" height="24"></rect>
    </g>
</svg>