<svg width="20" height="21" viewBox="0 0 20 21" fill="none" xmlns="http://www.w3.org/2000/svg">
<path d="M8.45 14.2L13.5 10.975C13.6833 10.8583 13.775 10.7 13.775 10.5C13.775 10.3 13.6833 10.1417 13.5 10.025L8.45 6.8C8.26667 6.66667 8.075 6.65417 7.875 6.7625C7.675 6.87083 7.575 7.04167 7.575 7.275V13.725C7.575 13.9583 7.675 14.1292 7.875 14.2375C8.075 14.3458 8.26667 14.3333 8.45 14.2ZM10 20.5C8.63333 20.5 7.34167 20.2375 6.125 19.7125C4.90833 19.1875 3.84583 18.4708 2.9375 17.5625C2.02917 16.6542 1.3125 15.5917 0.7875 14.375C0.2625 13.1583 0 11.8667 0 10.5C0 9.11667 0.2625 7.81667 0.7875 6.6C1.3125 5.38333 2.02917 4.325 2.9375 3.425C3.84583 2.525 4.90833 1.8125 6.125 1.2875C7.34167 0.7625 8.63333 0.5 10 0.5C11.3833 0.5 12.6833 0.7625 13.9 1.2875C15.1167 1.8125 16.175 2.525 17.075 3.425C17.975 4.325 18.6875 5.38333 19.2125 6.6C19.7375 7.81667 20 9.11667 20 10.5C20 11.8667 19.7375 13.1583 19.2125 14.375C18.6875 15.5917 17.975 16.6542 17.075 17.5625C16.175 18.4708 15.1167 19.1875 13.9 19.7125C12.6833 20.2375 11.3833 20.5 10 20.5ZM10 19C12.3667 19 14.375 18.1708 16.025 16.5125C17.675 14.8542 18.5 12.85 18.5 10.5C18.5 8.13333 17.675 6.125 16.025 4.475C14.375 2.825 12.3667 2 10 2C7.65 2 5.64583 2.825 3.9875 4.475C2.32917 6.125 1.5 8.13333 1.5 10.5C1.5 12.85 2.32917 14.8542 3.9875 16.5125C5.64583 18.1708 7.65 19 10 19Z" fill="#9BF07D"/>
</svg>
