<svg width="40" height="40" viewBox="0 0 40 40" fill="none" xmlns="http://www.w3.org/2000/svg">
<path d="M15 27.0833V18.25H12.75V16.2083H17.0833V27.0833H15ZM21.125 27.0833C20.5972 27.0833 20.1597 26.9097 19.8125 26.5625C19.4653 26.2153 19.2917 25.7778 19.2917 25.25V18.0416C19.2917 17.5139 19.4653 17.0764 19.8125 16.7291C20.1597 16.3819 20.5972 16.2083 21.125 16.2083H24.5833C25.1111 16.2083 25.5486 16.3819 25.8958 16.7291C26.2431 17.0764 26.4167 17.5139 26.4167 18.0416V25.25C26.4167 25.7778 26.2431 26.2153 25.8958 26.5625C25.5486 26.9097 25.1111 27.0833 24.5833 27.0833H21.125ZM21.375 25H24.3333V18.25H21.375V25ZM20 36.6666C17.9167 36.6666 15.9653 36.2778 14.1458 35.5C12.3264 34.7222 10.7361 33.6528 9.375 32.2916C8.01389 30.9305 6.94444 29.3403 6.16667 27.5208C5.38889 25.7014 5 23.75 5 21.6666H7.5C7.5 25.1389 8.71528 28.0903 11.1458 30.5208C13.5764 32.9514 16.5278 34.1666 20 34.1666C23.4722 34.1666 26.4236 32.9514 28.8542 30.5208C31.2847 28.0903 32.5 25.1389 32.5 21.6666C32.5 18.1944 31.3194 15.243 28.9583 12.8125C26.5972 10.3819 23.6806 9.16665 20.2083 9.16665H19.2917L22.3333 12.2083L20.5833 13.9583L14.4583 7.83331L20.5833 1.70831L22.2917 3.41665L19.0417 6.66665H20C22.0833 6.66665 24.0347 7.05553 25.8542 7.83331C27.6736 8.61109 29.2639 9.68054 30.625 11.0416C31.9861 12.4028 33.0556 13.993 33.8333 15.8125C34.6111 17.6319 35 19.5833 35 21.6666C35 23.75 34.6111 25.7014 33.8333 27.5208C33.0556 29.3403 31.9861 30.9305 30.625 32.2916C29.2639 33.6528 27.6736 34.7222 25.8542 35.5C24.0347 36.2778 22.0833 36.6666 20 36.6666Z" fill="white"/>
</svg>
