<?xml version="1.0" encoding="UTF-8"?>
<svg width="24px" height="24px" viewBox="0 0 24 24" version="1.1" xmlns="http://www.w3.org/2000/svg" xmlns:xlink="http://www.w3.org/1999/xlink">
    <title>Icon / ic_support</title>
    <g id="Icon-/-ic_support" stroke="none" stroke-width="1" fill="none" fill-rule="evenodd">
        <path d="M12,2 C6.48,2 2,6.48 2,12 C2,17.52 6.48,22 12,22 C17.52,22 22,17.52 22,12 C22,6.48 17.52,2 12,2 Z M19.46,9.12 L16.68,10.27 C16.17,8.91 15.1,7.83 13.73,7.33 L14.88,4.55 C16.98,5.35 18.65,7.02 19.46,9.12 Z M12,15 C10.34,15 9,13.66 9,12 C9,10.34 10.34,9 12,9 C13.66,9 15,10.34 15,12 C15,13.66 13.66,15 12,15 Z M9.13,4.54 L10.3,7.32 C8.92,7.82 7.83,8.91 7.32,10.29 L4.54,9.13 C5.35,7.02 7.02,5.35 9.13,4.54 Z M4.54,14.87 L7.32,13.72 C7.83,15.1 8.91,16.18 10.29,16.68 L9.12,19.46 C7.02,18.65 5.35,16.98 4.54,14.87 Z M14.88,19.46 L13.73,16.68 C15.1,16.17 16.18,15.09 16.68,13.71 L19.46,14.88 C18.65,16.98 16.98,18.65 14.88,19.46 Z" id="Shape" fill="#FFFFFF"></path>
        <rect id="Path" x="0" y="0" width="24" height="24"></rect>
    </g>
</svg>