<svg width="32" height="32" viewBox="0 0 32 32" fill="none" xmlns="http://www.w3.org/2000/svg">
<path d="M16 32C24.8366 32 32 24.8366 32 16C32 7.16344 24.8366 0 16 0C7.16344 0 0 7.16344 0 16C0 24.8366 7.16344 32 16 32Z" fill="#FADD8D"/>
<path d="M22.6522 24.3368C22.6122 24.1777 21.614 20.4443 15.9989 20.4443C10.3829 20.4443 9.38552 24.1777 9.34552 24.3368C9.29663 24.5297 9.38374 24.7297 9.55619 24.8292C9.72952 24.9279 9.94641 24.8986 10.0895 24.7608C10.1064 24.7439 11.8264 23.111 15.9989 23.111C20.1713 23.111 21.8922 24.7439 21.9082 24.7599C21.9935 24.8443 22.1073 24.8888 22.2211 24.8888C22.2957 24.8888 22.3713 24.8701 22.4397 24.8319C22.614 24.7323 22.7011 24.5306 22.6522 24.3368Z" fill="#121212"/>
<path d="M10.6675 15.1111C11.8948 15.1111 12.8898 13.7182 12.8898 12C12.8898 10.2818 11.8948 8.88892 10.6675 8.88892C9.44024 8.88892 8.44531 10.2818 8.44531 12C8.44531 13.7182 9.44024 15.1111 10.6675 15.1111Z" fill="#121212"/>
<path d="M21.3316 15.1111C22.5589 15.1111 23.5538 13.7182 23.5538 12C23.5538 10.2818 22.5589 8.88892 21.3316 8.88892C20.1043 8.88892 19.1094 10.2818 19.1094 12C19.1094 13.7182 20.1043 15.1111 21.3316 15.1111Z" fill="#121212"/>
</svg>
