<svg width="20" height="21" viewBox="0 0 20 21" fill="none" xmlns="http://www.w3.org/2000/svg">
<path d="M18.75 11.75C18.4167 11.75 18.125 11.625 17.875 11.375C17.625 11.125 17.5 10.8333 17.5 10.5C17.5 10.1667 17.625 9.875 17.875 9.625C18.125 9.375 18.4167 9.25 18.75 9.25C19.0833 9.25 19.375 9.375 19.625 9.625C19.875 9.875 20 10.1667 20 10.5C20 10.8333 19.875 11.125 19.625 11.375C19.375 11.625 19.0833 11.75 18.75 11.75ZM1.25 11.75C0.916667 11.75 0.625 11.625 0.375 11.375C0.125 11.125 0 10.8333 0 10.5C0 10.1667 0.125 9.875 0.375 9.625C0.625 9.375 0.916667 9.25 1.25 9.25C1.58333 9.25 1.875 9.375 2.125 9.625C2.375 9.875 2.5 10.1667 2.5 10.5C2.5 10.8333 2.375 11.125 2.125 11.375C1.875 11.625 1.58333 11.75 1.25 11.75ZM10 20.5C9.66667 20.5 9.375 20.375 9.125 20.125C8.875 19.875 8.75 19.5833 8.75 19.25C8.75 18.9167 8.875 18.625 9.125 18.375C9.375 18.125 9.66667 18 10 18C10.3333 18 10.625 18.125 10.875 18.375C11.125 18.625 11.25 18.9167 11.25 19.25C11.25 19.5833 11.125 19.875 10.875 20.125C10.625 20.375 10.3333 20.5 10 20.5ZM13.15 7.325C13 7.175 12.925 6.99583 12.925 6.7875C12.925 6.57917 13 6.4 13.15 6.25L16.375 3.025C16.525 2.875 16.7 2.80417 16.9 2.8125C17.1 2.82083 17.275 2.9 17.425 3.05C17.575 3.2 17.65 3.37917 17.65 3.5875C17.65 3.79583 17.575 3.975 17.425 4.125L14.2 7.35C14.05 7.5 13.875 7.57083 13.675 7.5625C13.475 7.55417 13.3 7.475 13.15 7.325ZM5.8 7.325L2.55 4.1C2.4 3.95 2.32917 3.775 2.3375 3.575C2.34583 3.375 2.425 3.2 2.575 3.05C2.725 2.9 2.90417 2.825 3.1125 2.825C3.32083 2.825 3.5 2.9 3.65 3.05L6.875 6.275C7.025 6.425 7.1 6.6 7.1 6.8C7.1 7 7.025 7.175 6.875 7.325C6.725 7.475 6.54583 7.55 6.3375 7.55C6.12917 7.55 5.95 7.475 5.8 7.325ZM16.375 17.9L13.125 14.675C12.975 14.525 12.9042 14.35 12.9125 14.15C12.9208 13.95 13 13.775 13.15 13.625C13.3 13.475 13.4792 13.4 13.6875 13.4C13.8958 13.4 14.075 13.475 14.225 13.625L17.45 16.85C17.6 17 17.675 17.175 17.675 17.375C17.675 17.575 17.6 17.75 17.45 17.9C17.3 18.05 17.1208 18.125 16.9125 18.125C16.7042 18.125 16.525 18.05 16.375 17.9ZM2.55 17.925C2.4 17.775 2.325 17.5958 2.325 17.3875C2.325 17.1792 2.4 17 2.55 16.85L5.8 13.6C5.95 13.45 6.125 13.3792 6.325 13.3875C6.525 13.3958 6.7 13.475 6.85 13.625C7 13.775 7.075 13.9542 7.075 14.1625C7.075 14.3708 7 14.55 6.85 14.7L3.6 17.95C3.45 18.1 3.275 18.1708 3.075 18.1625C2.875 18.1542 2.7 18.075 2.55 17.925ZM10 3C9.66667 3 9.375 2.875 9.125 2.625C8.875 2.375 8.75 2.08333 8.75 1.75C8.75 1.41667 8.875 1.125 9.125 0.875C9.375 0.625 9.66667 0.5 10 0.5C10.3333 0.5 10.625 0.625 10.875 0.875C11.125 1.125 11.25 1.41667 11.25 1.75C11.25 2.08333 11.125 2.375 10.875 2.625C10.625 2.875 10.3333 3 10 3Z" fill="white"/>
</svg>
