<svg xmlns="http://www.w3.org/2000/svg" width="70" height="16" viewBox="0 0 70 16">
    <g fill="none" fill-rule="evenodd">
        <g fill="#FFF" fill-rule="nonzero">
            <path d="M77.251 59.665v-.224l-.2-.067c-.522-.149-.783-.514-.783-1.095v-7.486c.373-.327.73-.577 1.073-.748.342-.172.685-.257 1.028-.257.521 0 .89.126 1.106.38.216.253.324.677.324 1.273v6.816c0 .298-.056.533-.168.704-.111.171-.309.302-.592.391l-.313.09v.223h5.185v-.224l-.202-.067c-.52-.149-.79-.514-.804-1.095v-5.787c0-.313-.011-.611-.033-.894-.023-.283-.071-.544-.146-.782.402-.343.786-.6 1.151-.771.365-.172.741-.257 1.129-.257.491 0 .849.115 1.072.346.224.231.335.66.335 1.285v6.838c0 .298-.055.536-.167.715-.112.179-.31.313-.592.402l-.224.067v.224h5.162v-.224l-.246-.067c-.536-.149-.804-.514-.804-1.095v-6.547c0-1.088-.25-1.885-.749-2.391-.499-.507-1.277-.76-2.335-.76-.64 0-1.3.16-1.978.48-.677.32-1.307.757-1.888 1.308-.223-.611-.551-1.062-.983-1.352-.432-.29-1.006-.436-1.72-.436-.686 0-1.345.171-1.978.514-.634.343-1.196.76-1.688 1.251l-.178-1.52-.224-.223L72 49.9v.224l.335.09c.298.059.5.167.604.323.104.157.156.399.156.727v6.994c-.015.298-.078.536-.19.715-.112.179-.31.305-.592.38l-.313.09v.223h5.251zM96.983 60c1.073 0 1.993-.23 2.76-.693.767-.462 1.382-1.102 1.844-1.922l-.224-.2c-.402.461-.834.811-1.296 1.05-.462.238-1.065.357-1.81.357-1.102 0-1.933-.354-2.492-1.061-.558-.708-.845-1.866-.86-3.475h6.66c.044-.134.074-.287.089-.458.015-.172.022-.34.022-.503 0-.864-.183-1.635-.548-2.313-.364-.678-.89-1.214-1.575-1.609-.685-.395-1.512-.592-2.48-.592-.924 0-1.807.223-2.648.67-.842.447-1.531 1.1-2.067 1.956-.537.856-.805 1.895-.805 3.117 0 1.177.231 2.19.693 3.04.462.848 1.102 1.5 1.922 1.954.819.455 1.758.682 2.815.682zm1.743-6.391h-3.821c.015-1.207.108-2.142.28-2.805.17-.662.409-1.124.714-1.385.306-.26.675-.391 1.107-.391.76 0 1.273.357 1.541 1.073.269.715.328 1.884.18 3.508zM107.531 60c.625 0 1.195-.082 1.71-.246.513-.164.971-.38 1.374-.648l.2.805 3.822-.246v-.224l-.201-.067c-.283-.074-.477-.205-.581-.39-.105-.187-.157-.43-.157-.727V47.33l.09-3.129-.246-.201-4.067.983v.224l.424.09c.313.059.518.163.615.312.097.149.145.38.145.693v2.905c-.372-.209-.797-.365-1.274-.47-.476-.104-.975-.156-1.497-.156-.894 0-1.72.212-2.48.637-.76.424-1.37 1.065-1.833 1.922-.461.856-.692 1.94-.692 3.251 0 1.296.205 2.358.614 3.184.41.827.965 1.438 1.665 1.833.7.395 1.49.592 2.369.592zm1.296-.827c-.76 0-1.378-.361-1.855-1.084-.477-.722-.715-1.97-.715-3.743 0-1.772.253-3.072.76-3.9.506-.826 1.117-1.24 1.832-1.24.581 0 1.147.18 1.698.537v8.872c-.52.372-1.094.558-1.72.558zm9.475-11.754c.506 0 .93-.16 1.273-.48.343-.32.514-.727.514-1.218 0-.507-.17-.917-.514-1.23-.342-.312-.767-.469-1.273-.469-.507 0-.935.157-1.285.47-.35.312-.525.722-.525 1.229 0 .491.175.897.525 1.218.35.32.778.48 1.285.48zm2.592 12.246v-.224l-.224-.067c-.283-.09-.48-.223-.592-.402-.112-.179-.167-.417-.167-.715V52l.067-3.173-.224-.224-4.09 1.319v.223l.314.067c.298.06.502.168.614.324.112.157.168.391.168.704v6.995c0 .298-.056.536-.168.715-.112.178-.316.313-.614.402l-.313.09v.223h5.229zm5.229.335c.745 0 1.378-.149 1.9-.447.52-.298.93-.7 1.228-1.207l-.223-.223c-.238.268-.477.48-.715.637-.239.156-.514.234-.827.234-.358 0-.652-.134-.883-.402-.23-.268-.346-.663-.346-1.184v-8.045h2.525v-.447h-2.503l.067-3.128h-.223l-1.832 2.033c-.328.328-.66.589-.995.782-.335.194-.734.343-1.195.447l-.537.09v.223h1.542v7.643c0 1.042.265 1.802.793 2.279.53.477 1.27.715 2.224.715zm9.408 0c1.132 0 2.111-.235 2.938-.704.827-.47 1.468-1.132 1.922-1.989.454-.856.682-1.873.682-3.05 0-1.177-.242-2.19-.727-3.04-.484-.848-1.143-1.5-1.977-1.954-.835-.455-1.78-.682-2.838-.682s-2.008.23-2.85.693c-.841.462-1.504 1.117-1.988 1.966-.484.85-.727 1.855-.727 3.017s.228 2.175.682 3.04c.454.863 1.099 1.53 1.933 2 .834.468 1.818.703 2.95.703zm0-.447c-.522 0-.943-.149-1.263-.447-.32-.298-.551-.827-.693-1.586-.141-.76-.212-1.833-.212-3.218 0-1.4.07-2.48.212-3.24.142-.76.373-1.29.693-1.587.32-.298.741-.447 1.263-.447.521 0 .938.149 1.251.447.313.298.54.827.682 1.586.141.76.212 1.84.212 3.24 0 1.386-.07 2.459-.212 3.219-.142.76-.369 1.288-.682 1.586-.313.298-.73.447-1.251.447z" transform="translate(-72 -44)"/>
        </g>
    </g>
</svg>
