<svg xmlns="http://www.w3.org/2000/svg" width="67" height="56" viewBox="0 0 67 56">
    <g fill="none" fill-rule="evenodd">
        <g fill-rule="nonzero">
            <g>
                <g>
                    <path fill="#FFF" d="M31.072 6.85c-.055-.624-.221-1.234-.49-1.802-.142-.28-.32-.54-.528-.776-.21-.226-.457-.417-.731-.563-.224-.115-.424-.27-.589-.46-.243-.231-.502-.446-.775-.642-.709-.541-1.65-.688-2.495-.388-.485.154-.92.307-1.369.471-1.487.554-2.866 1.194-3.914 2.209-.09.087-.262.1-.385.17-.32.173-.633.358-.937.557-.98.644-1.844 1.43-2.892 1.996-.324.183-.572.473-.7.818-.099.27-.307.49-.574.604-.32.183-.6.425-.826.712-.462.488-.641.957-.182 1.419.107.108-.001.234-.192.238-.065-.007-.13-.005-.196.006-.052.014-.145.073-.144.097.025.37.7.766 1.03.613.303-.144.66-.229.859-.526.193-.354.47-.658.805-.885.377-.21.48-.639.736-.952.435-.535 1.082-.826 1.524-1.362.438-.531 1.095-.815 1.636-1.23.221-.16.472-.277.739-.342.538-.117 1.017-.417 1.353-.847.207-.27.515-.45.855-.498.512-.06.994-.27 1.383-.603.144-.107.32-.166.5-.17.33-.039.643-.078.948-.102.292-.026.586-.03.878-.01.36.013.715.09 1.047.228.308.12.532.386.593.705.015.08.072.144.15.17.446.145.53.605.33 1.01-.06.132-.059.283.003.415.072.138.119.288.136.442.012.154-.003.309-.045.457-.042.155-.11.302-.198.436-.092.144-.202.277-.327.394-.046.043-.075.1-.082.16.016.547-.465.866-.727 1.284-.101.165-.218.327-.308.499-.103.177-.167.372-.19.575-.05.488-.307.932-.707 1.224-.289.19-.49.484-.562.818-.076.19-.218.348-.401.445-.36.223-.622.571-.731.976-.098.278-.29.228-.477.265-.417.084-.498.216-.4.696.034.17.027.291-.115.292-.276.003-.473.036-.577.38-.14.4-.414.74-.776.966-.868.595-1.56 1.404-2.01 2.346-.118.169-.275.309-.458.408-.241.146-.43.362-.54.618-.077.268-.263.493-.515.62-.351.164-.336.62-.63.8-.294.183-.547.421-.747.7-.444.15-.64.512-.823.894-.022.049-.115.078-.18.103-.339.11-.585.4-.631.75-.05.294-.318.444-.517.637-.658.145-1.067.65-1.52 1.09-.214.185-.412.388-.59.606-.247.33-.426.706-.677 1.035-.272.353-.758.365-1.075.649-.147.148-.277.311-.388.487-.123.168-.196.434-.35.504-.49.224-.703.659-1.005 1.031-.23.357-.65.546-1.075.484-.134-.039-.279-.024-.402.041-.123.066-.214.177-.254.308-.146.48-.627.752-.83 1.202-.153.33-.558.336-.799.555-.235.213-.53.325-.68.591-.09.153-.284.213-.446.138-.098-.034-.193-.074-.286-.12-.036-.023-.08-.031-.122-.022-.042.009-.078.034-.101.07-.064.081-.134.04-.192.009-.023-.02-.051-.035-.082-.041-.025-.01-.051-.005-.088.027-.046.037-.101.06-.16.07-.052-.003-.104-.015-.116-.06-.028-.134-.078-.262-.147-.38-.088-.131-.163-.27-.225-.413-.07-.244-.098-.497-.082-.75-.384-.376-.292-1.012-.643-1.544-.095-.104-.121-.252-.066-.381.068-.157.04-.281-.09-.343-.253-.12-.478-.304-.258-.602.388-.523.246-1.198.508-1.75.015-.03-.153-.178-.25-.253-.139-.11-.146-.196-.044-.321.434-.525.438-.542.11-.989-.22-.34-.407-.699-.557-1.074-.23-.436-.229-.956.003-1.391.18-.452.27-.933.267-1.418.042-.765.114-1.526.186-2.29.034-.344.194-.664.45-.9.142-.144.267-.303.374-.473.224-.35.227-.796.008-1.15-.12-.147-.258-.278-.411-.39-.135-.114-.162-.232-.035-.298.23-.12.462-.21.388-.573-.056-.265-.089-.539-.143-.807-.042-.137 0-.285.108-.38.257-.215.533-.415.795-.622.166-.12.246-.325.204-.523-.076-.488.1-.953.217-1.423.104-.472.404-.88.827-1.125.197-.118.208-.238.077-.496-.065-.127-.145-.236-.074-.35.11-.174.24-.334.391-.476.389-.297.59-.773.53-1.254-.025-.337-.025-.675-.002-1.011.004-.249.173-.358.385-.252.238.116.347.066.383-.163.079-.53.165-1.072.228-1.608.01-.262.143-.505.359-.659.115-.06.217-.142.301-.24.293-.409.613-.797.96-1.161.072-.079.152-.15.239-.213.084-.065.166-.135.247-.192.16-.113.287-.266.367-.443.047-.11.13-.2.236-.257.098-.034.201-.052.305-.054.096.013.192.02.289.022.089.016.18 0 .258-.047.085-.033.18-.066.278-.094.105-.013.208-.036.308-.068.217-.051.44.056.532.256.103.193.246.104.433.065.331-.06.55.087.56.335.006.184-.013.368-.056.547-.066.274.277.376.258.613-.015.233-.018.467-.006.7.007.232.02.474.004.718.031.427-.063.884-.02 1.327.05.67.185 1.333.402 1.971.065.106.184.167.31.159.256-.05.506-.129.744-.236.199-.09.346-.262.4-.47.132-.447.239-.9.318-1.359.147-.796.172-1.61.073-2.412-.118-.882-.448-1.724-.96-2.457-.262-.667-.787-1.201-1.455-1.482-.394-.198-.806-.36-1.23-.483l-.313-.085c-.106-.023-.217-.033-.327-.046-.11-.012-.222-.02-.333-.025-.112.003-.224.013-.335.028-.316.04-.627.112-.928.214-.28.102-.55.226-.81.372-.243.136-.477.288-.7.455-.206.16-.403.331-.592.511-.687.672-1.276 1.436-1.747 2.268-.163.272-.305.554-.427.846-.11.272-.179.558-.205.85-.05.286-.175.554-.363.777-.212.294-.397.605-.554.93-.119.267-.242.531-.354.8L3.3 8.89c-.105.272-.216.541-.316.815l-.29.823c-.097.275-.197.549-.285.827l-.257.835-.52 1.666c-.146.398-.237.813-.272 1.234-.033.36-.087.717-.163 1.07-.066.358-.128.718-.172 1.077-.042.421-.057.845-.046 1.268-.217.461-.343.958-.37 1.465-.037.504-.049 1.01-.126 1.507-.006.211.03.422.108.619.044.134.029.28-.041.403-.083.178-.144.366-.182.559-.036.192-.054.39-.073.587-.016.396-.094.786-.23 1.159.076.35.134.704.174 1.06.044.356.032.717-.036 1.07-.155.522-.22 1.065-.195 1.609.031.539.107 1.074.227 1.6.084.197.115.411.09.623-.048.195-.077.393-.088.594-.005.099-.007.198-.005.298.004.103.013.212.024.318.058.443.162.88.308 1.304.106.326.23.652.363.99.143.367.31.724.502 1.07.325.57.85 1.007 1.477 1.226.616.216 1.29.2 1.895-.045.478-.21.942-.448 1.39-.714l1.184-.67c.409-.226.834-.377 1.093-.758.279-.405.84-.465 1.18-.865.279-.328.623-.595 1.01-.786.348-.168.498-.51.79-.668.44-.233.537-.643.737-.99.169-.29.314-.391.637-.338.255.042.255-.288.4-.408.219-.178.512-.276.706-.47.25-.25.405-.585.643-.846.482-.527.963-1.058 1.673-1.3.18-.108.25-.333.16-.522-.147-.201-.315-.386-.459-.589-.094-.134-.07-.246.038-.268.064-.01.129.003.184.036.16.098.308.216.47.311.242.14.55.098.744-.1.246-.153.442-.373.562-.634.171-.467.456-.887.83-1.22.3-.309.623-.593.968-.85.41-.289.484-.858 1.029-1.045.251-.14.46-.343.607-.588.21-.287.323-.642.552-.906.256-.24.525-.468.806-.68.088-.105.132-.239.124-.374-.008-.12-.112-.217-.164-.33-.05-.11-.083-.228-.125-.342.127-.002.252.018.371.06.427.259.507-.039.646-.396.06-.155.315-.27.493-.381.387-.207.674-.556.8-.97.144-.556.496-1.038.985-1.35.557-.343.963-.881 1.137-1.506.16-.623.56-1.161 1.115-1.501.307-.195.498-.525.51-.884.03-.36.181-.7.431-.965.191-.222.41-.424.59-.662.239-.297.447-.617.622-.954.157-.254.127-.579-.072-.802-.12-.12-.134-.278-.005-.36.634-.407.968-1.151.878-2.085z" transform="translate(-16 -591) translate(16 591) translate(35.443 18.977)"/>
                    <path fill="#FFC2C2" d="M28.566 6.1c-.292-.642-.858-1.124-1.547-1.313-.702-.206-1.455-.168-2.133.107l-.13.045-.082.031c-.055.02-.11.043-.164.066l-.324.135c-.215.09-.426.191-.639.285-.528.206-1.073.367-1.63.479-.578.123-1.106.408-1.521.822-.106.124-.184.27-.226.426-.107.356-.37.431-.64.504-.261.08-.53.158-.57.524-.047.415-.462.55-.5.944-.022.453.004.907.076 1.355.14.236.334.436.567.586.307.26.325.269.454.013.089-.178.4-.348.691-.514.288-.17.563-.332.582-.554-.009-.24.101-.468.294-.614.263-.163.483-.401.851-.382.315.02.656-.255 1.01-.544.289-.277.617-.511.975-.694.569-.182.566-.445.746-.527.237.167.566.125.751-.096.024-.121.161-.352.287-.315.083.022.102.177.157.192.04.01.194-.144.28-.142.154.056.264.19.285.35.011.147-.02.295-.093.424-.073.032-.144.071-.21.115-.02.011-.037.024-.055.037l-.072.098c-.046.066-.096.136-.14.207-.181.282-.335.581-.28.752.242.743-.336 1.439-.89 2.089-.559.655-1.088 1.278-.869 2.112.04.12-.964 1.395-1.202 1.364-.207-.022-.409.07-.527.238-.048.236-.002.513-.173.704-.216.236-.453.471-.679.714-.235.235-.461.476-.672.713-.395.443-1.188.903-1.404 1.473-.033.09-.039.254-.109.257-.613.07-1.178.361-1.586.817-.45.443-.794.98-1.005 1.57-.06.185-.004.387.143.515s.358.159.536.078c.678-.175 1.212-.733 1.657-1.233.342-.384 1.085.043 1.477-.378.634-.689 1.362-1.132 2.097-1.702.162-.23.284-.485.362-.755.068-.264.183-.513.34-.738.244-.277.521-.524.824-.737.31-.225.597-.478.859-.755.25-.173.514-.337.775-.504.37-.48.702-.996.714-1.656 0-.186.242-.181.305-.298.066-.124-.002-.318.036-.46.102-.425.73-.357.688-.93-.04-.206-.021-.42.052-.617.2-.413.408-.821.603-1.241.098-.21.194-.423.283-.64.045-.11.088-.22.13-.331.019-.045.046-.135.072-.215.025-.081.053-.16.077-.245.045-.17.097-.34.126-.513.039-.169.063-.341.071-.515.022-.335-.034-.671-.161-.983z" transform="translate(-16 -591) translate(16 591) translate(35.443 18.977)"/>
                    <path fill="#292929" d="M25.564 6.322c.03-.246.032-.494.005-.74-.03-.234-.096-.461-.196-.674-.12-.254-.303-.475-.53-.644-.246-.167-.528-.277-.824-.322-.146-.02-.307-.029-.46-.048-.084-.01-.169-.01-.253-.003l-.27.01c-.62.109-1.195.393-1.653.818-.225.186-.422.367-.617.536-.193.167-.406.31-.635.425l-.118.055-.096.05-.194.1c-.132.065-.256.145-.385.22-.258.156-.504.331-.736.523-.459.368-.835.825-1.103 1.344-.239.497-.15.724.002.804.168.064.356.052.513-.034.703-.38 1.56-.912 2.4-1.397l.312-.185.21-.13c.099-.065.193-.136.284-.212.2-.167.447-.397.809-.722.09-.079.126.046.164.093.086.097.236.081.423.179.088.052.151.137.174.236.016.078.017.159.003.238l-.195.037-.394.122c-.131.041-.264.104-.395.155-.263.105-.523.24-.779.365-.3.157-.414.226-.58.324-.317.188-.624.382-.928.583-.608.4-1.204.822-1.81 1.271-.274.183-.576.323-.895.413-.34.128-.616.382-.768.708-.146.323-.343.622-.584.884-.105.11-.229.2-.353.32-.063.063-.122.13-.178.198-.06.086-.11.178-.15.274-.042.111-.066.228-.073.346-.007.066-.009.132-.007.198.002.081.008.162.017.243.02.19.062.378.124.559.078.221.184.432.316.628.06.082.124.16.194.234.065.07.136.136.212.196.126.097.26.184.402.259.112.055.23.106.35.152.174.052.352.084.533.097.104.005.224.006.33 0-.085.082-.16.173-.221.273-.144.218-.328.409-.543.56-.211.15-.439.282-.651.433-.312.2-.683.294-1.054.264-.31-.004-.762.295-1.232.607-.39.296-.82.535-1.279.71-.468.104-.47.126-.34.504.03.279.168.535.385.716.584.157 1.18.264 1.783.317.275-.009.546-.075.794-.193.251-.126.528-.195.81-.201.491.01.797-.268 1.09-.566.3-.29.586-.6 1.109-.656.238-.03.47-.095.687-.193.812-.422 1.53-1 2.111-1.7.599-.663 1.12-1.369 1.758-1.976.267-.25.524-.51.782-.77.259-.26.52-.542.77-.84.262-.309.5-.635.716-.976l.08-.136c.03-.052.073-.125.106-.188l.194-.404c.06-.137.107-.277.161-.415.05-.14.081-.28.123-.421.137-.54.162-1.102.074-1.653-.051-.306-.16-.601-.318-.87.083-.129.162-.259.232-.39.126-.295.211-.605.255-.922zm-6.775 5.123c.32-.264.685-.47 1.077-.613-.254.398-.561.76-.915 1.075-.321.34-.698.625-1.114.844-.088-.005-.174-.006-.258-.004.337-.49.745-.928 1.21-1.302zm-1.987 1.841c-.034.154-.025.114 0 0zm4.339-.8c.052-.064.104-.128.154-.195-.004.03-.01.056-.013.087-.042.042-.09.079-.141.109zm1.67-1.94c-.036.084-.084.162-.143.232-.064.078-.135.15-.212.216-.156.136-.333.257-.501.382l-.034.026c.295-.439.58-.867.875-1.233-.006.007-.011.016-.014.025-.026.087.073.217.028.351zm-.012-.38l.059-.075c.07-.084.145-.165.223-.243-.002.015-.006.03-.01.045-.044.108-.216.207-.272.273z" transform="translate(-16 -591) translate(16 591) translate(35.443 18.977)"/>
                </g>
                <g>
                    <path fill="#D1F6FE" d="M28.874 6.124c-.06-.196-.106-.389-.144-.58-.033-.191-.056-.383-.07-.575-.014-.407 0-.813.043-1.218.046-.491-.136-.977-.491-1.313-.35-.36-.677-.745-.976-1.15-.267-.354-.604-.647-.988-.86-.492-.254-1.037-.38-1.588-.365-.442.013-.763.206-.853.5-.018.08-.066.147-.134.19-.069.041-.15.054-.228.033-.792-.257-1.68-.026-2.454.577-1 .781-1.983 1.606-2.566 2.667-.122.223-.298.412-.51.548-.279.177-.527.428-.802.597-.703.478-1.227 1.183-1.488 2-.173.466-.376.92-.608 1.359-.775 1.491-1.757 2.904-2.233 4.528-.04.14-.19.259-.271.4-.215.358-.412.727-.602 1.1-.605 1.206-1.067 2.478-1.799 3.62-.221.36-.331.779-.315 1.203.018.333-.087.66-.295.918-.221.357-.386.747-.49 1.155-.237.738-.243 1.31.356 1.572.14.061.084.249-.093.346-.064.025-.125.06-.18.101-.044.041-.11.149-.1.172.154.379.92.478 1.177.148.237-.304.527-.582.614-1.001.05-.48.195-.944.426-1.366.267-.426.21-.93.32-1.399.195-.796.686-1.462.871-2.27.106-.392.256-.77.448-1.127.19-.36.389-.716.548-1.09.135-.293.315-.562.533-.797.45-.461.751-1.05.864-1.69.071-.402.267-.77.559-1.05.229-.225.43-.477.602-.75.166-.276.294-.574.38-.886.078-.224.202-.43.363-.603.545-.703 1.055-1.433 1.528-2.187.603-.92 1.179-1.918 2.142-2.412.127-.075.229-.188.292-.323.263-.616.804-1.063 1.451-1.198.2-.054.38-.167.516-.325.22-.32.532-.563.894-.694.332-.131.696-.15 1.039-.052.052.02.11.018.16-.004.158-.114.366-.129.538-.038.11.075.212.163.304.26.074.064.145.146.235.235.105.112.225.207.357.283.383.281.561.77.452 1.237-.01.091-.024.18-.028.264-.025.273.023.547.14.794.059.217.04.448-.053.652-.16.43-.184.9-.071 1.345.058.322-.132.385-.278.524-.32.31-.333.473-.026.896.106.15.152.276.027.351-.268.106-.42.394-.358.68.03.481-.087.96-.334 1.372-.295.522-.534 1.074-.714 1.648-.184.576-.306 1.171-.362 1.775-.057.233-.16.453-.301.645-.182.268-.29.581-.31.906.006.323-.1.638-.297.89-.285.334-.12.812-.354 1.134-.231.325-.402.69-.504 1.077-.381.358-.471.821-.537 1.306-.009.062-.088.134-.143.189-.296.267-.446.665-.402 1.066.033.333-.185.608-.328.896-.612.428-.862 1.14-1.21 1.784-.163.283-.306.578-.427.882-.158.451-.258.915-.426 1.364-.18.487-.671.68-.926 1.101-.114.212-.208.434-.28.664-.083.227-.107.534-.246.665-.45.415-.57.958-.81 1.458-.223.473-.524.819-.999.886-.317.017-.575.264-.61.584-.049.278-.149.544-.296.784-.152.237-.273.494-.36.764-.104.39-.533.557-.766.901-.224.335-.536.622-.64 1.019-.07.231-.25.412-.477.483-.261.126-.585.137-.7.525-.056.147-.16.272-.295.353-.131.075-.233.195-.286.338-.055.196-.204.471-.353.525-.559.198-.936.545-1.323.698-.196.073-.413.067-.605-.017-.13.122-.315.16-.48.1-.209-.069-.42-.126-.634-.172-.131-.026-.23-.077-.256-.228-.03-.156-.108-.243-.25-.225-.27.031-.563-.04-.519-.425.023-.332-.016-.665-.114-.983-.1-.337-.159-.685-.177-1.037 0-.04-.218-.142-.338-.19-.072-.014-.134-.06-.169-.126-.034-.065-.039-.143-.011-.212.163-.73.187-.762-.312-1.135-.351-.295-.673-.625-.962-.985-.388-.414-.594-.97-.574-1.541-.007-.574-.119-1.141-.33-1.673l-.377-1.305c-.133-.434-.247-.872-.354-1.313-.106-.386-.09-.795.047-1.17.076-.218.132-.443.166-.671.07-.476-.095-.957-.442-1.285-.16-.116-.334-.209-.519-.276-.165-.075-.233-.196-.14-.318.167-.224.344-.415.13-.788-.158-.272-.28-.566-.43-.843-.088-.139-.102-.313-.038-.465.157-.341.315-.67.488-1.006.109-.207.109-.456 0-.664-.114-.259-.194-.532-.236-.813-.04-.282-.057-.571-.085-.857-.077-.555.049-1.12.353-1.586.14-.211.108-.35-.103-.583-.103-.115-.216-.203-.19-.36.035-.236.099-.467.19-.688.254-.501.273-1.093.051-1.61-.138-.366-.254-.74-.348-1.12-.081-.277.037-.468.268-.44.257.029.347-.072.302-.34L2.621 9.51c-.074-.315-.038-.645.102-.935.082-.136.142-.284.177-.439.067-.564.201-1.117.4-1.648.039-.09.088-.173.147-.25.052-.08.125-.127.172-.2.048-.07.118-.113.156-.19.054-.072.097-.151.13-.235.048-.114.138-.204.252-.251.111-.032.228-.042.344-.03.227.056.462.067.693.033.06-.016.122-.03.186-.044.064-.009.129-.011.194-.018l.199-.02c.066-.002.132-.007.198-.015.14-.022.283 0 .41.063.123.058.23.145.315.253.177.212.32.125.521.073.15-.036.308-.022.45.039.115.064.2.173.235.302.027.102.043.206.048.312.009.1.012.201.011.303-.003.327.37.432.408.715.073.596.264 1.135.367 1.744.145.511.177 1.085.34 1.59.223.747.532 1.463.922 2.135.083.097.218.13.335.082.232-.142.446-.313.638-.508.167-.175.256-.412.246-.656 0-.523-.019-1.056-.067-1.6-.07-.898-.244-1.785-.516-2.643-.147-.455-.335-.895-.56-1.315-.237-.447-.524-.865-.856-1.245-.386-.663-.99-1.166-1.707-1.42-.412-.166-.8-.33-1.204-.473-.205-.064-.414-.122-.628-.169-.221-.04-.446-.059-.67-.058-.704.005-1.398.17-2.03.484-.675.34-1.247.857-1.657 1.5-.341.567-.575 1.194-.691 1.85-.094.516-.162 1.037-.203 1.561-.062.686-.147 1.362.017 2.03.051.336.027.68-.071 1.005-.1.412-.165.831-.195 1.254-.019.342-.042.684-.052 1.027L.112 14.53c-.018.685.005 1.37.019 2.055.03 1.371.156 2.739.228 4.105.02.497.09.99.213 1.473.197.816.319 1.677.497 2.509.12.485.299.95.45 1.423-.02.596.06 1.192.237 1.761.144.577.358 1.137.483 1.715.073.234.186.453.334.648.095.132.142.295.13.459.014.463.09.921.227 1.363.15.438.242.895.275 1.359.189.373.418.726.593 1.106.195.374.333.777.409 1.193.089.633.258 1.25.505 1.838.275.641.64 1.238 1.084 1.771.21.2.397.426.555.67.298.553.76.994 1.321 1.262.616.297 1.304.407 1.98.318.46-.063.91-.185 1.34-.363.403-.16.78-.337 1.148-.512.934-.436 1.669-1.218 2.054-2.187.173-.429.4-.833.676-1.203.268-.374.568-.724.897-1.045.355-.345.74-.614.967-1.12.237-.524.803-.78 1.088-1.334.239-.447.545-.853.906-1.204.324-.31.42-.73.687-1.009.4-.416.42-.896.554-1.344.11-.38.233-.545.57-.612.268-.053.198-.409.32-.594.215-.251.417-.515.603-.789.19-.37.273-.79.451-1.168.343-.772.704-1.532 1.336-2.099.15-.179.158-.44.02-.628-.197-.153-.411-.278-.606-.434-.129-.103-.134-.232-.034-.301.057-.037.125-.051.191-.04.184.035.36.098.545.128.282.046.503-.103.702-.432.2-.271.33-.59.377-.926.031-.586.187-1.158.458-1.676.191-.468.418-.92.678-1.351.314-.495.195-1.14.66-1.594.202-.267.337-.58.395-.912.106-.405.101-.836.23-1.226.122-.387.374-.73.537-1.111.048-.149.046-.31-.007-.456-.049-.124-.18-.176-.267-.271-.085-.094-.157-.202-.236-.304.123-.041.257-.131.368-.117.489.065.468-.29.472-.741.06-.24.17-.465.322-.66.284-.431.414-.95.368-1.467-.087-.685.014-1.38.293-2.01.33-.73.386-1.555.159-2.323z" transform="translate(-16 -591) translate(16 591) translate(25.519 .546)"/>
                    <path fill="#FFF" d="M9.057 21.537c-.041-.218-.104-.432-.188-.638-.01-.03-.027-.057-.04-.087l-.022-.044-.063-.08c-.089-.113-.19-.214-.301-.303-.2-.174-.433-.306-.683-.39-.073-.022-.147-.039-.222-.05-.103-.012-.207-.016-.311-.011-.273.018-.539.1-.777.236-.124.072-.24.158-.347.256-.093.087-.178.182-.254.284l-.055.083c.05-.453.127-.903.23-1.347.193-.113.37-.254.524-.419.582-.631 1.063-1.352 1.424-2.136.052-.102.098-.207.12-.266l.086-.21.161-.421.158-.413.079-.202.053-.135c.02-.054.037-.109.053-.163.081-.26.106-.535.073-.805-.048-.375-.258-.708-.572-.91-.11-.07-.228-.124-.353-.16-.235-.062-.481-.062-.717 0-.157.04-.31.099-.454.174-.118.059-.214.114-.302.163l-.125.07-.09.035c-.163.084-.304.205-.413.354-.023.029-.046.062-.07.094.084-.735.308-1.445.662-2.09.12-.275.138-.585.05-.872-.094-.28-.058-.59.1-.84.498-.637 1.099-1.284 1.412-2.035.321-.747-.269-.848-.5-.762-.772.306-1.443.826-1.938 1.502-.545.716-.876 1.575-.788 2.263.008.082-.161.174-.246.265-.297.353-.51.771-.623 1.221-.067.242-.133.486-.188.72-.05.235-.103.456-.161.649-.056.21-.107.425-.157.643-.012.047-.025.126-.038.204l-.037.228-.072.458c-.079.57-.115 1.144-.108 1.72-.002.11-.014.221-.036.33-.018.11-.03.208-.051.318-.046.22-.081.441-.104.665.035.314.206.427.406.422.049-.009.13.11.279.272.069.079.146.15.23.211.007.058.01.115.008.173-.01.2-.052.397-.127.582-.062.195-.139.394-.2.593-.108.396-.142.806.191 1.127-.014.156-.041.31-.082.462-.045.311-.017.63.08.928.07.38.18.753.327 1.11.11.243.258.466.44.659.177.186.388.335.621.44.542.231 1.157.202 1.675-.08.093-.057.185-.11.274-.169.181-.143.354-.296.518-.458.282-.27.539-.566.767-.884.354-.47.617-1.002.778-1.57.084-.315.096-.644.036-.964zm-1.985 1.027c-.127.163-.04.053 0 0zM7 22.524c.027.006.051.02.072.038l.001.002-.024.031-.026-.033c-.014-.02-.04-.051-.023-.039zM4.91 15.798c.008-.037.021-.073.039-.107-.018.08-.027.16-.028.242l-.006.021c-.013-.05-.014-.104-.005-.156z" transform="translate(-16 -591) translate(16 591) translate(25.519 .546)"/>
                    <path fill="#FFC2C2" d="M8.5 4.755c-.226-.37-.562-.66-.96-.826-.201-.087-.415-.14-.634-.157-.2-.017-.4 0-.596.048-.328.07-.619.264-.814.541-.04.06-.193-.008-.298-.013-.372.015-.728.16-1.008.409-.276.236-.54.487-.791.752-.489.483-.878 1.06-1.145 1.697-.058.116-.144.214-.25.285-.126.076-.238.175-.33.292-.117.238-.092.523.065.736.07.086.025.618.062 1.106.026.494.146.947.126 1.02-.145.418-.099.88.125 1.26-.068.186-.139.386-.196.59-.148.521-.197 1.043-.011 1.323.22.325.164.658.213.982.018.248-.073.492-.249.666-.282.367.312 1.282.227 1.654-.06.272-.042.277.355.256.272.02.544-.02.799-.116.328-.285.637-.594.922-.923.232-.289.023-.612.284-.902.453-.49-.459-.794-.009-1.294.096-.094.17-.208.216-.335.113-.402.118-.828.017-1.234-.057-.283-.074-.573-.05-.86l.144-.123.164-.154c.096-.108.204-.206.32-.29.228-.149.476-.26.737-.33.245-.07.764-.574 1.004-1.148.11-.258.162-.538.152-.819-.007-.107-.026-.213-.057-.316-.03-.056-.063-.2-.107-.267-.053-.217-.142-.422-.263-.608-.052-.074-.108-.145-.169-.211-.036-.04-.075-.078-.115-.116-.05-.043-.105-.086-.162-.125-.147-.098-.31-.166-.483-.199-.097-.016-.195-.022-.292-.018-.09.007-.179.022-.266.046-.077.023-.153.053-.226.088.274-.473.65-.943 1.133-1.014.148-.02.2-.224.301-.424.09-.198.243-.387.401-.326.199.087.387.198.56.33.166.124.339.238.518.34.161.117.365.153.555.098.146-.051.259-.171.302-.322.059-.366-.02-.74-.22-1.05zM4.55 7.402c-.104.098-.2.205-.287.318-.14.182-.218.305-.245.333-.08.065-.167.118-.26.157l.007-.058c.023-.125.067-.245.13-.355.123-.16.292-.276.483-.334.061-.025.122-.047.182-.07l-.01.009z" transform="translate(-16 -591) translate(16 591) translate(25.519 .546)"/>
                </g>
                <g>
                    <path fill="#FFC2C2" d="M26.9 28.958c.105-.514-.156-.871-.309-1.254-.129-.322-.12-.5.116-.726.188-.18-.077-.384-.086-.574.027-.282.04-.565.037-.847-.055-.348-.227-.674-.298-1.02-.14-.7-.282-1.4-.053-2.108.02-.208-.12-.398-.326-.44-.249-.007-.497.015-.745.005-.164-.006-.24-.094-.194-.191.03-.057.079-.1.138-.124.174-.068.356-.112.53-.184.255-.106.405-.373.364-.647.024-.287-.037-.574-.175-.826-.274-.418-.439-.897-.48-1.394-.07-.422-.104-.849-.1-1.276.02-.498-.391-.903-.214-1.442.043-.282.01-.57-.096-.835-.1-.34-.314-.646-.386-.987-.031-.348-.045-.697-.04-1.046-.03-.133-.108-.25-.22-.328-.1-.068-.24-.048-.36-.078-.118-.03-.232-.078-.349-.117.09-.085.169-.21.274-.248.466-.168.286-.416.093-.747-.085-.143-.017-.41.005-.617.075-.425-.017-.863-.257-1.223-.345-.466-.501-1.043-.439-1.619.075-.661-.109-1.326-.512-1.856-.41-.526-.631-1.173-.629-1.839-.006-.38-.2-.734-.518-.943-.308-.215-.544-.517-.678-.868-.112-.276-.205-.563-.343-.834-.092-.17-.17-.336-.28-.511-.118-.191-.257-.368-.413-.53-.15-.157-.34-.272-.551-.331-.163-.048-.338-.02-.478.075-.133.105-.321.103-.452-.005-.374-.321-.89-.423-1.359-.267-.257.076-.498.198-.712.36-.192.147-.361.32-.504.515-.177.24-.343.49-.495.747-.073.125-.143.251-.209.378l-.166.351c-.235.459-.404.948-.504 1.453-.037.215-.143.412-.301.562-.202.204-.35.468-.556.664-.136.132-.258.279-.363.438-.096.156-.176.323-.236.496-.125.345-.193.708-.203 1.074-.014.434-.06.866-.137 1.293-.244 1.437-.643 2.888-.463 4.348.016.125-.077.268-.1.408-.058.357-.097.718-.115 1.08-.039.433-.027.868-.025 1.303l-.493-.855c-.337-.581-.678-1.186-1.07-1.797-.142-.529-.43-1.006-.83-1.378-.47-.477-.771-1.078-1.356-1.509-.206-.155-.428-.297-.652-.434l-.349-.19c-.12-.063-.261-.123-.391-.181-.521-.215-1.07-.352-1.631-.407-.553-.056-1.112-.029-1.657.08-.573.11-1.123.32-1.623.621-.184.112-.357.24-.52.38-.081.073-.161.146-.238.222-.073.083-.143.167-.21.253-.134.173-.246.36-.334.56-.08.195-.138.4-.17.609-.05.387-.178.775-.26 1.163-.1.452-.116.917-.05 1.375.117.638.299 1.263.543 1.865.225.55.434 1.11.676 1.653.257.538.504 1.08.779 1.609.289.52.554 1.052.834 1.576.202.382.443.742.72 1.073.23.283.475.563.693.863.226.294.436.603.683.877.294.319.626.599.938.893.095.241.225.467.388.67.158.202.327.395.508.578.35.377.76.697 1.104 1.076.159.143.344.253.546.323.13.056.236.158.296.287.374.708 1.139 1.135 1.57 1.809.324.172.651.329.96.519.326.168.62.393.866.664.341.438.76.81 1.235 1.098.466.296.963.54 1.483.726.212.045.41.143.573.285.289.288.624.525.992.7.182.093.368.177.555.257.188.08.385.14.576.21.558.193 1.088.46 1.576.794.335.239.704.425 1.095.553.435.132.893.173 1.345.119.477-.06.951-.08 1.47-.145.573-.054 1.131-.216 1.645-.476.585-.293 1.15-.77 1.296-1.422.08-.304.188-.6.325-.883.13-.26.205-.546.218-.837-.003-.468.06-.935.189-1.385.118-.4-.044-.767.028-1.109zm-2.761 1.666c-.236.143-.378.354-.24.622.088.185.12.39.095.594-.028.17-.032.342-.013.513.018.103-.043.203-.142.235-.085.042-.178.042-.231.1-.115.11-.289.105-.47.293-.14.13-.284.054-.414-.052-.17-.128-.267-.383-.542-.274-.247.089-.387-.232-.664-.162-.189.055-.392.026-.558-.079-.194-.191-.422-.345-.672-.454-.242-.11-.498-.192-.74-.315-.293-.16-.574-.338-.842-.536-.304 0-.605-.067-.88-.197-.279-.125-.581-.19-.887-.191-.138.03-.28-.031-.354-.151-.092-.145-.207-.193-.329-.12-.236.141-.509.217-.64-.12-.236-.578-.838-.889-1.15-1.395-.017-.028-.235.027-.351.063-.171.054-.246.01-.286-.147-.17-.658-.17-.68-.728-.669-.202.002-.404-.016-.603-.054l-.584-.139c-.236-.048-.46-.144-.656-.281-.2-.14-.357-.334-.452-.559-.204-.454-.593-.757-.954-1.079-.54-.538-1.128-1.032-1.637-1.604-.24-.245-.383-.568-.404-.91-.014-.2-.048-.399-.1-.592-.112-.4-.449-.697-.86-.757-.186-.012-.373 0-.556.035-.172.02-.276-.041-.237-.179.069-.252.16-.48-.163-.667-.236-.137-.466-.295-.688-.448-.126-.068-.201-.202-.193-.344.024-.335.061-.662.091-.988.025-.197-.06-.393-.223-.509-.355-.325-.643-.715-.849-1.15-.238-.414-.301-.905-.177-1.366.056-.213-.01-.309-.275-.411-.13-.05-.26-.078-.282-.21-.034-.2-.046-.402-.035-.603.02-.227.003-.456-.052-.677-.058-.21-.18-.398-.349-.536-.214-.204-.398-.437-.546-.692-.114-.183-.003-.322.232-.31.26.004.344-.053.284-.187-.142-.312-.182-.661-.112-.997.016-.094.062-.181.131-.248.034-.032.072-.058.115-.078.05-.015.102-.024.155-.024.1.01.2.004.297-.02.388-.141.8-.208 1.213-.196.19.012.378.043.562.09.179.048.367.05.547.005.114-.036.237-.027.345.026.1.057.19.132.264.22.124.193.297.35.501.455.228.08.44.225.673.319.243.103.419.32.469.579.064.262.248.224.439.245.355.035.538.207.547.469.001.2-.009.398-.031.596-.027.318.342.42.39.679.14.551.366 1.078.668 1.56.247.43.533.836.856 1.212.394.388.839.722 1.322.993.007.01.011.023.019.034.17.237.233.535.17.82-.039.366.001.737.116 1.086.13.663.43 1.08 1.07.968.152-.026.194.134.09.292-.043.05-.079.105-.106.164-.018.052-.022.162-.002.174.317.191 1.023-.138 1.085-.494.057-.329.18-.663.042-.991-.173-.36-.265-.754-.27-1.154.052-.424-.235-.754-.354-1.14-.17-.662-.043-1.345-.208-2.014-.043-.164-.07-.331-.082-.5-.004-.17.003-.339.013-.508.023-.34.043-.679.05-1.017.006-.27.063-.536.168-.785.11-.246.182-.506.214-.773.02-.268-.003-.538-.07-.798-.08-.332-.036-.68.123-.982.138-.233.238-.486.297-.75.028-.129.044-.26.048-.393.01-.135.008-.272-.004-.407-.004-.198.042-.394.133-.57.29-.686.49-1.393.725-2.099.275-.885.529-1.83 1.244-2.488.092-.096.15-.22.164-.352.013-.302.1-.595.253-.856.13-.213.321-.381.55-.482.125-.048.22-.152.258-.281.008-.06.02-.118.038-.175.015-.053 0-.07.012-.103.01-.049.05-.087.1-.097.09-.014.18.105.128.247-.01.02-.007.04.003.018.172-.003.307.162.416.382.055.11.104.222.156.332.044.113.099.222.162.326.1.157.184.332.296.48.102.162.24.298.4.4.391.26.63.695.638 1.164-.001.328.122.644.346.884.11.168.15.37.115.567-.04.408.077.817.327 1.143.156.246-.002.362-.09.527-.2.372-.146.513.291.743.154.08.245.163.158.272-.171.215-.267.385-.066.687.22.365.317.792.274 1.217-.068 1.051.144 2.102.615 3.044.064.198.08.407.05.612-.032.28.025.563.162.809.164.227.23.511.184.788-.079.376.29.646.258.988-.032.344.007.69.114 1.019-.144.442.026.818.222 1.196.025.048-.006.138-.025.204-.112.336-.024.706.228.955.207.22.165.522.203.797-.272.608-.108 1.238-.026 1.864.023.28.07.56.14.833.123.394.312.764.43 1.16.126.429-.153.82-.117 1.234.029.2.08.398.15.589.06.193.224.41.183.568-.13.5.06.918.137 1.371.07.424-.013.799-.393 1.025z" transform="translate(-16 -591) translate(16 591) translate(0 17.559)"/>
                    <path fill="#FFF" d="M22.767 28.218c-.117-.363-.337-.685-.633-.926-.178-.15-.389-.256-.616-.307-.289-.043-.341.073-.422.257-.303.254-.138.535.017.828.173.128.278.328.286.543-.001.154-.052.305-.146.428-.121.198-.34.316-.573.308-.027-.005-.052-.018-.073-.037-.036-.094-.006-.016-.017-.043l-.005-.002c-.056-.006-.104-.01-.16-.02-.161-.03-.296-.137-.36-.287-.147-.333-.423-.396-.814-.544-.369-.126-.749-.271-.955-.717-.01-.023-.025-.044-.036-.066-.026-.103-.059-.205-.1-.303-.115-.277-.277-.531-.478-.753-.119-.12-.238-.243-.358-.366-.959-.995-1.932-2.092-2.134-3.247-.046-.268-.438-.775-.89-1.24-.353-.388-.761-.721-1.211-.99-.02-.009-.16-.157-.374-.375l-.385-.369-.242-.206c-.086-.076-.177-.147-.273-.21-.102-.07-.196-.14-.307-.207-.128-.066-.257-.128-.384-.185l-.047-.021c-.024-.01-.064-.022-.095-.03-.079-.024-.16-.039-.24-.046-.055-.004-.11-.005-.163-.001-.062.003-.124.011-.184.026-.326.075-.598.3-.734.605-.516-.549-.98-1.143-1.387-1.777-.467-.747-1.373-.616-1.742-1.34-.23-.463-.455-.957-.661-1.436-.207-.481-.406-.942-.622-1.38-.07-.164-.171-.313-.298-.439-.072-.071-.175-.103-.275-.086-.173.064-.302.21-.344.39-.108.498-.119 1.012-.03 1.513.098.576.28 1.134.543 1.656.525 1.053 1.272 1.874 1.987 2.249.087.045.107.27.157.414.318.918 1.416 1.977 2.02 2.763.647.85 1.428 1.714 2.154 2.509.29.317.34.692.502 1.043.19.25.469.417.779.467.141.01.68.517 1.244 1.005.259.23.528.445.747.62l.047.052c.168.186.34.365.513.53.127.214.287.405.474.567.134.116.28.219.433.308.09.056.183.104.28.144.178.074.366.117.557.127.034.002.073 0 .11-.002.27.173.521.372.793.543.175.107.33.242.46.4.125.152.26.334.41.528.216.228.49.393.794.476.245.081.5.132.757.152.332.024.666-.009.987-.097.086-.023.17-.05.254-.083l.123-.05c.038-.015.111-.051.163-.078.22-.113.42-.259.592-.434.272-.28.475-.621.59-.994.182-.572.18-1.186-.005-1.757z" transform="translate(-16 -591) translate(16 591) translate(0 17.559)"/>
                    <path fill="#292929" d="M24.418 29.184c-.063-.16-.163-.301-.294-.413-.113-.163-.205-.34-.275-.526-.125-.271-.287-.6-.452-.91-.243-.413-.455-.842-.634-1.286.04-.378-.008-.76-.14-1.117.055-.145.102-.293.14-.443.036-.124.044-.255.025-.383-.01-.147-.03-.294-.063-.438-.113-.353-.297-.68-.54-.962-.06-.238-.106-.48-.136-.725-.015-.08-.035-.169-.06-.27-.028-.096-.063-.199-.106-.317-.044-.118-.096-.25-.16-.396l-.1-.224-.088-.165c-.23-.429-.486-1.206-.83-1.955-.337-.747-.787-1.47-1.247-1.744-.132-.078-.258-.168-.374-.268-.126-.1-.244-.207-.359-.318-.14-.116-.258-.23-.415-.352-.088-.063-.177-.124-.268-.183l-.069-.044-.039-.023-.097-.05c-.238-.115-.504-.164-.768-.14-.204.019-.401.083-.577.188-.09.052-.172.115-.247.187-.067.063-.127.133-.18.21-.043.06-.08.126-.114.193-.024.05-.045.1-.063.152-.016.045-.034.103-.042.14l-.022.102c-.01.057-.018.115-.022.173-.004.053-.006.098-.006.132-.002.083.001.141.003.19.006.167.018.317.033.471.03.313.078.624.145.93.107.372.333.697.644.925l.138.105.1.069c.063.043.13.085.199.126.138.084.285.162.435.237.035.018.07.034.105.05-.233.015-.461.065-.678.15-.211.092-.398.232-.544.41-.107.127-.196.268-.265.42l-.048.12-.023.062-.012.039c-.016.052-.03.105-.04.16-.087.504.003 1.023.256 1.469.249.444.55.857.9 1.229.194.219.418.409.667.564.02.012.213.22.496.49.312.3.657.562 1.03.783.314.194.657.338 1.017.426h.003c.186.416.393.822.622 1.216.29.306.567.608.797.894l.279.545c.044.088.086.175.123.26.019.043.039.086.054.128.014.018.026.036.038.056.097.148.168.434.02.581-.017.017-.036.031-.058.042-.172.044-.353-.014-.467-.15-.023-.022-.05-.037-.082-.043l-.12-.044-.24-.088c-.156-.058-.317-.105-.48-.142-1.173.006-2.322-.327-3.308-.96-.304-.172-.654-.248-1.002-.216-.346.035-.692-.067-.965-.283-.725-.669-1.492-1.481-2.38-1.949-.88-.465-.907.201-.8.46.406.886.991 1.68 1.719 2.33.789.72 1.77 1.247 2.575 1.276.095.006.206.198.313.305.428.376.934.653 1.483.809.562.17 1.134.307 1.713.41.507.103 1.024.152 1.541.145.676-.002 1.388-.091 1.856-.542.087-.082.164-.175.229-.275.15-.23.274-.428.395-.635.13-.217.229-.45.294-.694.018-.233-.012-.466-.088-.686z" transform="translate(-16 -591) translate(16 591) translate(0 17.559)"/>
                </g>
                <path fill="#FFF" d="M47.95 18.576c.181.107.451.199.416.577-.008.088.025.108.115.085.249-.065.374.024.307.282-.065.218.048.24.258.19.126-.031.031.142.032.226.293-.114.399-.012.493.101.294.347.55.724.766 1.124.22.421.384.87.485 1.335.04.178.053.358.086.528.02.103-.097.204-.175.304-.189.235-.17.315.09.532.053.044.076.071-.004.124-.079.042-.139.112-.167.197-.024.155.005.307-.022.458-.02.112.112.207.272.302.167.1.196.21-.002.3-.268.125-.19.232.025.35.1.053.08.116-.043.176-.278.135-.311.274-.02.411.253.119.211.238-.028.352-.088.042-.062.071-.03.115.072.101.015.121-.21.123-.291.001-.597.015-.87-.005-.426-.03-.813-.093-.886-.237-.04-.08-.036-.162-.195-.237-.29-.138-.183-.27.047-.41.252-.155.222-.301-.05-.475-.128-.082-.206-.152-.031-.23.09-.04.12-.076.056-.112-.065-.036-.181-.073-.183-.11-.014-.345-.013-.669-.032-.976.148-.089.313-.19.078-.256.332-.163.225-.302.196-.436-.03-.13.045-.297-.275-.34-.078-.009.102-.119.069-.153-.035-.037-.214-.02-.259-.047-.047-.027-.07-.069.005-.136.2-.18.2-.305.143-.402-.183-.314-.401-.605-.65-.869-.13-.142-.274-.29-.416-.431-.125-.127-.258-.246-.397-.358-.129-.1-.25-.113-.214-.487.001-.023-.041.025-.066.056-.146.178-.141.099-.146-.127-.09.123-.111.195-.153-.025-.033-.139-.092-.116-.151-.161-.072-.175-.119-.36-.138-.549.002-.36.06-.793.325-.778.225.044.458-.008.642-.145.098-.066.22-.082.332-.044.204.068.398.165.575.288z" transform="translate(-16 -591) translate(16 591)"/>
            </g>
        </g>
    </g>
</svg>
