<svg xmlns="http://www.w3.org/2000/svg" width="13" height="36" viewBox="0 0 13 36">
    <g fill="none" fill-rule="evenodd">
        <g fill="#FFF">
            <path d="M335.81 199.181c.574.644 1.12 1.323 1.503 2.119 1.194 2.478 2.15 5.05 2.472 7.86.113.99.24 1.976.21 2.977-.015 2.257-.364 4.454-.99 6.604-.734 2.517-1.613 4.972-2.632 7.365-.344.81-.785 1.571-1.21 2.336-.11.2-.31.355-.493.488-.16.117-.35.079-.508-.051-.17-.138-.193-.343-.13-.533.078-.23.198-.446.308-.663.288-.565.615-1.11.867-1.692 1.148-2.659 2.162-5.378 2.876-8.217.983-3.91.81-7.784-.42-11.6-.258-.797-.59-1.564-.89-2.344-.356-.925-.836-1.767-1.425-2.536-.175-.228-.359-.452-.518-.693-.28-.425-.221-.92.14-1.357.243-.295.601-.33.84-.063zm-4.128-6.036c.212.138.431.283.603.468.712.768 1.594 1.274 2.49 1.766 1.92 1.055 3.842 2.108 5.755 3.178.667.372 1.322.771 1.961 1.191.573.376.653.855.286 1.467-.078.13-.185.249-.297.35-.203.182-.45.26-.702.144-.276-.128-.532-.3-.798-.45-2.574-1.455-5.148-2.91-7.724-4.362-.131-.074-.277-.124-.42-.177-.046-.018-.13-.033-.145-.01-.054.077-.137.184-.118.255.226.85.452 1.7.71 2.54.58 1.882 1.163 3.761 1.776 5.631.225.688.05 1.211-.442 1.678-.305.288-.727.238-.887-.127-.124-.284-.238-.574-.332-.869-.687-2.172-1.36-4.35-2.054-6.52-.3-.936-.648-1.856-.956-2.79-.177-.539-.403-1.07-.387-1.657 0-.537.157-1.02.47-1.451.298-.409.796-.523 1.21-.255z" transform="translate(-330 -193)"/>
        </g>
    </g>
</svg>
