<svg xmlns="http://www.w3.org/2000/svg" width="51" height="56" viewBox="0 0 51 56">
    <g fill="none" fill-rule="evenodd">
        <g fill-rule="nonzero">
            <g>
                <g>
                    <path fill="#FFF5C2" d="M21.336 12.583c-.023-.078-.052-.154-.086-.229-.026-.077-.06-.151-.1-.222-.053-.089-.114-.191-.162-.265l-.116-.18c-.079-.12-.162-.24-.25-.364-.237-.343-.54-.67-.794-1.054-.107-.16-.263-.282-.445-.345-.232-.068-.45-.125-.661-.182l-.366-.098c-.074-.02-.142-.031-.212-.044-.07-.014-.138-.025-.202-.032-.239-.03-.479-.044-.72-.042-.219-.001-.42.005-.606.011-.321.02-.643.015-.963-.017l-.043-.007-.022-.004-.035-.009-.138-.038-.278-.074c-.092-.024-.185-.045-.279-.061-.094-.017-.185-.046-.28-.06-.169-.037-.326-.113-.46-.223-.128-.114-.27-.212-.423-.29-.131-.056-.277-.094-.41-.159-.138-.07-.254-.175-.337-.305-.38-.003-.59-.326-.865-.519-.247-.18-.517-.329-.801-.442-.24-.1-.446-.263-.597-.473-.26-.33-.544-.638-.851-.924-.149-.144-.3-.287-.463-.42-.081-.066-.165-.132-.25-.196l-.248-.2c-.102-.085-.179-.196-.221-.32-.026-.075-.058-.147-.096-.216-.033-.07-.07-.138-.11-.204-.081-.13-.174-.253-.267-.377-.164-.206-.433-.33-.494-.609-.033-.132-.111-.247-.221-.326-.106-.08-.206-.168-.299-.262-.162-.19-.293-.404-.388-.636-.05-.116-.099-.237-.148-.361l-.074-.19-.062-.199-.23-.538c-.074-.194-.137-.4-.21-.606-.06-.17-.183-.223-.326-.149-.18.095-.356.2-.54.293-.138.063-.239.188-.272.336-.075.187-.111.387-.107.588.139.475.115.995.288 1.465.05.168.132.325.24.463.123.136.285.23.465.268.148.033.264.1.27.287.016.2.125.382.294.49l.82.612c.043.033.02.18-.013.262-.082.13-.074.298.02.42.593.56 1.137 1.169 1.625 1.822.124.154.27.29.408.431.233.22.487.415.72.635.25.21.472.45.661.715.161.199.381.341.629.407.162.057.318.132.463.225.148.089.292.185.43.29.138.098.289.178.448.238.166.06.326.136.476.228.29.206.673.245 1.004.381.241.107.516-.034.746.119.239.127.521.144.774.046.314-.085.613.244.903.027.053-.04.182.009.26.046.16.091.356.09.514-.003.13-.106.319-.098.439.02.03.034.062.066.096.096.028.03.06.055.094.074.092.054.193.09.298.105.163.025.336.037.43.196.16.224.354.422.577.583.094.086.181.178.261.276.04.052.08.102.117.158l.044.067.03.054c.054.086.058.195.013.286-.029.062-.057.118-.084.17-.013.028-.028.047-.045.085-.017.04-.037.078-.058.115-.078.16-.187.301-.322.416-.085.067-.173.13-.265.186-.07.045-.102.05-.15.08-.02.008-.04.014-.06.018-.02.002-.025.002-.057.008l-.09.017-.09.019-.082.01c-.055.009-.109.02-.162.036-.05.009-.1.024-.146.044-.052.019-.108.02-.161.003-.043-.02-.081-.05-.113-.086l-.086-.11c-.017-.02-.036-.037-.056-.054-.01-.009-.023-.017-.035-.024l-.01-.005-.023-.016-.05-.034c-.198-.146-.408-.273-.63-.38-.282-.114-.59-.148-.89-.098-.074.016-.147.038-.22.057-.037.009-.073.021-.11.028l-.105.05-.42.197c-.215.116-.421.246-.618.39l-.26.197-.241.208c-.581.54-1.113 1.131-1.591 1.764-.246.31-.5.604-.537 1.01-.018.04-.056.066-.098.067-.46-.134-.388.28-.546.448-.196.215-.338.414-.562.65-.203.232-.461.412-.75.52-.045.017-.083.048-.106.089-.228.43-.7.571-1.027.852-.267.23-.554.419-.818.627-.283.233-.58.452-.887.653-.347.204-.734.286-1.057.482-.076.044-.16.072-.246.084-.075 0-.15-.004-.224-.013-.072-.003-.149-.028-.221-.034-.074-.006-.149-.003-.222.01-.138.013-.277.013-.415 0-.127.01-.24.083-.303.193-.064.099-.143.141-.201.09-.237-.266-.583-.409-.938-.387-.078-.008-.14-.07-.147-.147-.003-.097-.029-.19-.076-.275-.043-.075-.11-.132-.192-.16-.345-.146-.626-.468-.55-.816.007-.035.002-.072-.014-.104-.007-.032-.02-.063-.035-.09-.028-.06-.076-.12-.027-.192.044-.073.004-.131-.031-.202-.038-.07-.06-.146-.066-.225-.004-.064.013-.12.014-.182 0-.062.007-.124.022-.184.035-.07.063-.143.086-.218.034-.078.05-.162.05-.248-.008-.1.072-.153.141-.207.077-.054.128-.138.138-.231.016-.077.075-.138.152-.157.453-.075.778-.334 1.2-.49.509-.174 1.036-.288 1.57-.34.215-.021.418.097.609.099.12-.007.24-.033.353-.078.117-.039.238-.063.361-.072.39.007.808.007 1.224.005l1.304-.008c.167.004.349.034.53.047.188.02.378-.024.54-.123.176-.103.364-.186.56-.247.212-.069.4-.198.542-.371.115-.11.242-.204.38-.28.17-.134.295-.315.363-.52.053-.179.064-.368.032-.552-.064-.202-.052-.42.033-.614.052-.098.086-.205.101-.316.02-.114.027-.23.02-.345-.015-.23-.049-.456-.099-.68-.065-.347-.194-.678-.38-.978-.166-.266-.417-.47-.712-.577-.055-.02-.1-.061-.128-.113-.134-.36-.47-.43-.744-.572-.205-.102-.4-.222-.584-.36-.168-.129-.307-.293-.407-.48-.146-.292-.432-.489-.757-.52-.53-.075-.846-.526-1.345-.684-.274-.089-.31-.437-.47-.656-.462-.62-1.125-1.095-1.384-1.857-.025-.065-.147-.114-.237-.126-.272-.036-.457-.117-.253-.439.022-.044.021-.096-.004-.138-.118-.134-.224-.277-.317-.43-.087-.155-.166-.316-.237-.48-.15-.278-.32-.544-.513-.794-.023-.037-.072-.095-.099-.087-.158.04-.341.33-.448-.004-.059-.174-.066-.366-.124-.538-.185-.41-.624-.643-1.067-.565-.364.047-.707.198-.987.435-.075.07-.116.167-.113.269.025.2.084.397.172.579.108.203.23.4.354.593.13.188.243.386.34.593.54 1.16 1.338 2.17 2.143 3.152.55.67 1.198 1.242 1.677 1.984.297.194.562.432.788.704.652.22 1.105.728 1.687 1.048.13.072.267.161.383.233l.348.217c.222.144.465.252.721.32.116.046.22.12.3.216.193.168.362.363.5.579.106.16.163.346.164.537.009.186-.065.367-.202.493-.138.126-.324.184-.508.16-.135.005-.268.028-.396.07-.276.03-.546.095-.804.196-.295.145-.586-.127-.896-.064-.131.028-.272.014-.403.052-.132.035-.272.024-.398-.03-.258-.093-.53-.147-.804-.159-.777.017-1.525.077-2.325.123-.23.017-.414.202-.43.433-.022.13-.106.155-.248.149-.288-.007-.566.109-.764.318-.143.175-.334.304-.549.37-.112.036-.22.083-.32.142-.104.069-.203.143-.297.224-.06.05-.118.1-.176.153-.056.056-.108.119-.16.18-.108.12-.208.248-.299.383-.09.138-.176.279-.26.42-.07.154-.135.309-.197.464-.08.185-.126.382-.137.583-.005.113-.001.225 0 .336-.001.11-.006.22-.01.33-.006.222.02.444.078.658.043.124.092.244.129.364.02.06.037.12.054.18L.36 21c.04.118.073.238.1.36.039.12.07.244.091.369.03.188.104.366.216.52.46.601 1.04 1.145 1.76 1.225.246.031.383.21.568.354.148.084.313.132.483.14.226-.029.455.006.662.102.128.069.267.116.41.139.146.017.293.023.439.045.33.03.663.023.991-.023l.25-.02c.077-.009.155-.015.233-.017.16-.003.32.006.479.027.407-.2.829-.372 1.261-.513.207-.086.397-.21.561-.363.04-.037.078-.078.11-.122.302-.377.694-.671 1.141-.853.038-.014.09-.079.085-.111-.06-.339.181-.408.4-.542.162-.121.299-.273.403-.446.264-.362.513-.711.935-.897.134-.064.254-.154.354-.264l.23-.243.248-.27c.155-.182.308-.365.444-.55.27-.356.504-.737.7-1.138.093-.155.195-.304.305-.448.111-.194.27-.357.463-.471.152-.087.26-.236.295-.408.019-.078.061-.188.127-.198.327-.062.489-.274.695-.438.039-.033.08-.064.122-.092.04-.028.09-.062.1-.073.025-.02.051-.04.078-.057.05-.041.122-.045.177-.009.021.016.04.034.06.053l.018.017.01.007c.007.007.015.013.024.018.064.043.128.085.196.125.297.175.637.262.982.252.107-.008.214.004.317.034.095.023.191.04.288.05.165.014.33.02.496.016.149 0 .296-.036.43-.102l.111-.048c.119-.063.24-.11.357-.166.115-.06.226-.128.332-.204.104-.07.2-.154.284-.247.075-.08.138-.17.184-.269.127-.274.241-.515.368-.75.128-.24.275-.446.452-.723.202-.365.256-.793.15-1.196z" transform="translate(-16 -591) translate(16 591) translate(18.521 31.595)"/>
                    <path fill="#292929" d="M14.137 10.451c-.109-.019-.213-.057-.308-.112-.12-.097-.177-.281-.301-.336-.104-.048-.32.089-.417.029-.433-.267-.858-.258-1.25-.362-.061-.017-.124-.028-.188-.033-.061-.01-.125-.019-.186-.035-.058-.018-.111-.048-.158-.087-.046-.05-.078-.112-.09-.18-.057-.048-.14-.124-.147-.133-.048-.043-.105-.073-.167-.089-.081-.024-.157-.063-.224-.114l.154-.473c.06-.194.117-.395.166-.616.057-.245.088-.497.09-.749.002-.166-.018-.332-.06-.494-.052-.213-.15-.412-.289-.583-.14-.173-.307-.323-.493-.444-.082-.054-.167-.102-.254-.145-.085-.044-.173-.08-.264-.108-.078-.02-.158-.037-.238-.048h-.034l.002-.068.002-.463c.012-.32-.024-.641-.106-.951-.027-.09-.061-.177-.101-.262-.027-.054-.057-.106-.089-.157l-.051-.078c-.026-.033-.052-.065-.08-.096-.222-.262-.545-.417-.888-.427-.12 0-.24.016-.356.046-.083.027-.162.061-.239.103-.035.018-.068.038-.101.06l-.037.032c-.05.044-.095.09-.14.138-.084.098-.153.208-.202.328-.098.14-.216.263-.352.366-.11.073-.232.124-.362.15-.154.026-.268.157-.273.313.003.15-.002.294-.01.435-.053-.087-.13-.157-.223-.2-.282-.168-.321-.438-.265-.737.046-.167.116-.327.206-.474-.12-.378-.007-.798-.048-1.196-.008-.055-.03-.107-.065-.15-.153-.145-.384-.173-.566-.067-.225.19-.38.475-.663.583-.24.09-.284.265-.218.682.06.27.09.544.094.82-.017.42-.007.842.03 1.262.028.202.108.392.231.553.036.054.087.09.119.146.097.167.104.372.017.546-.062.09-.164.147-.198.257-.067.238.145.34.243.493.049.076.095.152.135.228.047.086.093.178.135.266l.158.345c.052.122.104.244.153.373.039.101.09.198.15.287.059.077.132.142.215.19.345.194.741.278 1.135.24l.013.028c.125.265.261.528.408.774.133.24.29.466.47.673.244.329.652.491 1.054.419.116-.021.233-.034.35-.04.253-.013.493-.114.68-.284.052.056.103.106.158.157.206.179.436.327.684.441.138.07.28.128.423.183.386.187.837.181 1.218-.015.29-.143.611-.215.935-.209.182.005.345-.114.397-.289.05-.158.167-.287.32-.35.052-.026.106-.052.157-.08.159-.088.154-.159-.001-.212zm-6.188-5.45c.013.04.02.083.023.125-.004.076-.016.151-.035.225-.034.124-.085.243-.152.352.004-.086.013-.172.026-.258.024-.154.07-.303.138-.444zm-.102 1.59c-.013-.078-.026-.155-.035-.232-.006-.047-.01-.093-.014-.14.033.022.063.047.09.076.089.102.062.188-.041.296zM6.063 5.197c-.024.231-.052.455-.066.673l-.014-.066c-.025-.206.003-.414.08-.607zm.05 1.16c.02.043.039.085.056.127.053.105.084.22.094.338l-.005-.012c-.045-.106-.077-.218-.112-.329-.012-.04-.021-.082-.032-.123z" transform="translate(-16 -591) translate(16 591) translate(18.521 31.595)"/>
                    <path fill="#FFF" d="M13.827 13.745c-.072-.224-.22-.416-.417-.543-.187-.044-.354-.15-.473-.3-.096-.126-.171-.266-.224-.414-.08-.234-.29-.15-.37-.457-.053-.248-.198-.232-.362-.222-.16.013-.335.007-.367-.246-.005-.1-.034-.198-.083-.285-.178-.248-.43-.435-.718-.534-.079-.036-.16-.074-.238-.115.013-.062.025-.124.034-.187.058-.483.027-.971-.091-1.442-.1-.458-.221-.876-.324-1.36-.017-.07-.048-.136-.093-.192-.053-.082-.117-.156-.19-.22-.165-.156-.36-.277-.572-.355-.189-.077-.394-.104-.596-.077-.043.007-.085.016-.126.028l-.174.048c-.117.034-.225.09-.32.165-.01.01-.084.047-.189.125-.12.096-.22.215-.295.349-.085.155-.14.324-.163.499-.333-.347-.656-.7-.776-1.192-.074-.317-.77-.257-.805-.593-.038-.429-.045-.894-.313-1.266-.082-.124-.22-.2-.368-.206-.149-.005-.291.062-.381.18-.251.407-.35.89-.28 1.362.037.467.31.884.722 1.106.048.022-.01.135-.02.207-.067.47.405.986.61 1.361.24.423.528.817.86 1.173.13.144.095.37.154.567.122.13.307.184.48.137.098-.023.447.198.807.329.115.044.232.082.351.114.037.173.128.33.261.448.165.165.347.528.593.85.113.156.245.298.393.423.117.101.263.164.418.177.14-.002.28.035.401.107.118.06.23.134.35.191.183.103.316.274.369.476.054.098.144.172.25.206.16.06.326.101.496.12.222.028.446.037.67.027.226-.012.452-.037.675-.073.182-.004.357-.071.496-.189.054-.076.017-.157-.062-.307zm-5.19-4.989h-.002l-.004-.001h.007c.007.152.01.216 0 .001z" transform="translate(-16 -591) translate(16 591) translate(18.521 31.595)"/>
                </g>
                <g>
                    <path fill="#FFF5C2" d="M24.472 2.998c-.196-.573-.38-1.105-.656-1.727-.175-.335-.462-.599-.812-.744-.448-.2-.93-.31-1.42-.323-.464-.022-.9.038-1.37.023-.201-.003-.399.06-.562.179-.732.622-1.326 1.179-1.87 1.707-.288.28-.555.551-.814.796-.297.272-.611.53-.88.824-.124.13-.276.23-.445.29-.17.052-.332.13-.478.231-.228.188-.455.427-.79.449-.191.339-.578.38-.878.544-.277.142-.533.321-.761.533-.196.172-.433.29-.689.34-.105.026-.207.055-.308.086-.104.026-.206.054-.306.086-.199.064-.394.138-.586.22-.39.16-.77.345-1.137.552-.118.06-.25.088-.382.078-.312-.011-.623.03-.92.125-.256.06-.474.272-.756.223-.293-.049-.494.171-.745.262-.118.04-.24.072-.362.094-.124.017-.25.028-.378.035-.27.016-.542.017-.814.003l-.595.038-.66.007c-.185.003-.275.103-.246.262.038.202.085.402.119.605.017.15.104.285.233.364.151.128.326.225.515.286.243.023.484.065.721.124.12.026.24.056.36.076.122.018.244.03.366.035.347.013.698-.047.92-.39.061-.138.22-.203.36-.148.19.065.397.034.559-.082.29-.185.582-.345.87-.52.047-.027.172.052.234.114.115.116.235.199.39.143.74-.32 1.508-.569 2.295-.741.188-.05.37-.126.553-.193.295-.113.574-.262.867-.378.293-.132.6-.226.917-.278.245-.054.466-.185.632-.373.12-.12.255-.221.403-.304.144-.087.293-.166.446-.237.146-.077.285-.168.414-.272.129-.113.27-.212.42-.294.152-.082.293-.182.421-.298.125-.122.256-.238.394-.346.202-.15.244-.434.487-.54.218-.119.378-.321.445-.56.115-.276.545-.233.598-.578.01-.064.135-.113.218-.138.183-.042.328-.18.382-.358.035-.18.18-.317.36-.344.212-.024.408-.123.552-.279.108-.123.21-.255.385-.236.262 0 .524-.04.774-.12.347-.074.738-.028.927.235.084.11.157.23.218.355.058.123.078.26.059.396l-.127.607c-.044.234-.189.452-.236.673 0 .006 0 .012-.002.018.002.036-.019.069-.052.082-.02.012-.042.02-.064.025l-.08.018c-.147.016-.29.06-.42.13-.125.065-.253.123-.384.174l-.283.138c-.132.076-.274.146-.399.235-.256.163-.478.377-.65.627-.171.25-.268.543-.28.846l.008.458c.002.076 0 .152.006.229.006.077.025.144.037.216.185.838.526 1.633 1.006 2.344.211.345.403.676.766.841.03.028.041.073.027.112-.292.376.11.437.194.627.06.117.097.219.157.325.05.104.082.201.121.303.02.094.027.191.018.287-.02.096-.07.183-.14.25-.022.017-.032.046-.023.072.013.032.023.065.029.098 0 .047-.005.094-.019.139-.023.097-.057.19-.101.28-.09.18-.199.35-.27.535-.05.152-.128.297-.191.444-.077.145-.141.293-.214.44-.148.345-.313.683-.494 1.012-.215.367-.537.676-.724 1.065-.183.382-.616.483-.836.812-.101.144-.24.26-.352.397-.095.106-.119.258-.061.388.042.109.034.2-.044.214-.35.03-.665.226-.848.527-.052.05-.13.06-.193.023-.186-.133-.299-.16-.409-.088-.026.022-.06.031-.066.044-.007.015-.02.027-.036.032-.03.015-.064.018-.096.008-.034-.016-.06-.048-.067-.085-.008-.037.003-.076.028-.104.058-.082-.089-.003-.035-.159.07-.123-.13-.26-.123-.456.004-.15-.018-.334-.005-.504.046-.214.046-.435.001-.65-.066-.224.176-.396.07-.634-.025-.087-.005-.18.054-.249.347-.381.446-.848.66-1.275.257-.5.548-.981.872-1.44.119-.171.372-.282.52-.49.18-.257.228-.62.37-.954.026-.057.044-.114.072-.185.031-.077.056-.158.08-.238.048-.16.083-.323.107-.488.044-.324.023-.652-.06-.968-.04-.155-.099-.306-.173-.448-.04-.07-.075-.143-.116-.211l-.142-.196c-.205-.255-.456-.468-.742-.627-.214-.133-.439-.247-.672-.34-.124-.047-.253-.077-.384-.09-.066-.008-.133-.01-.199-.004-.051.004-.102.014-.151.03-.185.05-.376.076-.568.074-.181-.005-.36.044-.514.14-.047.026-.1.04-.154.039h-.162c-.263.02-.493.184-.6.426-.079.129-.162.263-.345.238-.312-.043-.592.097-.885.136-.499.067-.991.12-1.32.55-.031.039-.078.061-.128.06-.333-.047-.508.195-.741.352-.342.258-.76.393-1.187.384-.328-.029-.648.115-.846.378-.331.416-.885.458-1.228.774-.212.168-.5-.001-.753-.009-.362.001-.728.045-1.097.057-.37.026-.743-.033-1.089-.172-.061-.024-.173.036-.238.093-.2.175-.383.264-.468-.112-.014-.045-.05-.08-.096-.091-.167 0-.333-.024-.494-.069-.16-.04-.316-.097-.466-.167-.268-.091-.542-.165-.82-.223-.036-.012-.1-.023-.117 0-.093.132-.067.468-.333.285-.14-.093-.234-.243-.364-.333-.15-.11-.34-.153-.523-.12-.216.021-.422.099-.598.225-.31.196-.555.482-.701.82-.033.103-.017.216.042.307.14.187.314.345.514.464l.17.098.175.078.352.147c.235.084.467.168.686.27 1.249.562 2.579.676 3.877.702.893.015 1.76-.13 2.701-.12.346-.141.707-.244 1.075-.307.526-.44 1.178-.574 1.737-.883.513-.283 1.077-.455 1.477-.9.109-.093.234-.164.37-.21.597-.286 1.188-.562 1.789-.792.295-.118.598-.216.906-.293.275-.083.566-.093.845-.028.064.018.13.029.198.032l.084.005c.012 0 .023 0 .035.002.092.034.191.042.287.021.09-.012.093.068.069.129-.024.066-.073.112-.034.146.03.032.02.07.053.115.017.018.02.045.01.068-.006.01-.013.02-.023.027-.01.007-.03.034-.046.05-.145.123-.277.26-.393.412-.077.12-.165.243-.262.369l-.332.421c-.227.29-.462.575-.71.859-.139.172-.13.42.022.58.077.104.036.177-.066.264-.204.172-.322.424-.326.69.015.204-.047.406-.174.567-.123.17-.214.36-.271.56-.077.253-.136.511-.178.772-.047.26-.084.521-.108.784-.028.156-.032.316-.014.473.082.37.009.796.178 1.238.05.124.107.273.173.412.064.14.135.272.21.402.075.131.157.258.247.38l.134.19c.047.063.1.121.151.185.036.044.075.089.117.132.045.04.092.077.142.113.05.036.103.07.157.1.055.027.113.05.172.067.12.04.244.07.37.088.128.024.258.036.388.037.116.004.233 0 .348-.015.106-.01.21-.027.314-.052.374-.076.716-.265.979-.541.168-.186.4-.18.616-.255.156-.064.292-.169.392-.304.07-.09.133-.183.202-.268.035-.043.075-.081.118-.115.04-.032.087-.057.136-.074.226-.112.43-.263.606-.445.438-.344.75-.834 1.309-1.058.207-.361.457-.696.746-.996.134-.167.238-.355.307-.557.018-.05.03-.103.038-.156.094-.473.306-.914.617-1.282.03-.041.038-.094.022-.142-.206-.273-.033-.456.097-.694.082-.198.125-.41.126-.623.012-.242.035-.454.056-.755.04-.28.04-.554.11-.853.02-.196.005-.393-.043-.584-.15-.51-.37-1-.652-1.45-.24-.383-.521-.737-.838-1.058-.11-.135-.211-.276-.303-.423-.067-.083-.124-.173-.169-.27-.036-.093-.06-.19-.072-.29-.01-.156-.093-.298-.225-.381-.055-.04-.123-.114-.104-.17.012-.032.021-.065.028-.1.01-.029.019-.059.025-.09.005-.027.007-.056.008-.084v-.045c-.001-.036-.01-.071-.022-.105-.01-.06.01-.12.055-.16.059-.05.03-.042.31-.168.181-.078.403-.156.634-.28.273-.138.51-.337.69-.583.113-.137.237-.264.37-.38.04-.042.077-.085.106-.122.193-.257.425-.557.438-.854.012-.228.058-.443.088-.665.04-.224.027-.454-.038-.672z" transform="translate(-16 -591) translate(16 591) translate(25.712 18.74)"/>
                    <path fill="#FFF" d="M19.787 9.15c-.12-.202-.303-.359-.52-.446-.421.009-.841-.019-1.256-.083-.156-.005-.311.026-.453.091-.143.067-.307.076-.457.025-.277-.115-.428.012-.611.145-.179.124-.394.254-.646.068-.1-.077-.213-.138-.333-.18-.109-.034-.213-.06-.316-.08-.046-.008-.119-.02-.183-.027-.065-.008-.13-.013-.195-.018-.26-.018-.516-.01-.77-.003-.367.026-.736.008-1.099-.054-.024-.112-.05-.22-.074-.317-.05-.207-.1-.37-.108-.413-.033-.176.052-.391-.098-.643-.03-.048-.063-.093-.1-.135-.05-.058-.105-.11-.164-.158l-.051-.04-.075-.05c-.053-.031-.107-.06-.163-.084-.157-.065-.327-.092-.497-.077-.044.004-.089.01-.133.02-.037.009-.073.02-.11.033-.069.025-.135.057-.198.096-.044.03-.087.063-.127.098l-.058.054-.035.04c-.075.09-.14.188-.193.292-.123.212-.233.433-.33.66-.114.316-.13.661-.043.987.075.292.238.555.466.752.133.116.3.187.476.201.025.152.047.3.063.441.032.262-.009.527-.118.767-.078.202-.24.36-.444.432-.072.018-.157-.076-.199-.182-.037-.106-.063-.1-.119-.076-.006-.03-.01-.06-.017-.09-.026-.124-.053-.247-.087-.369-.03-.119-.069-.255-.1-.337-.06-.188-.134-.372-.218-.55-.141-.286-.097-.588-.246-.916-.172-.243-.46-.377-.757-.353-.06 0-.119-.01-.175-.032L8.6 8.57c-.053-.009-.106-.015-.16-.018l-.085-.003c-.037.002-.073.006-.11.013-.077.011-.153.036-.223.072-.075.037-.143.087-.201.146-.051.053-.095.112-.131.176-.028.053-.052.109-.073.165-.026.09-.044.182-.052.275-.016.265.005.531.064.79.033.123.058.247.073.374-.036.116-.05.237-.043.358.005.064.022.143.03.198.008.052.018.104.03.156.037.145.091.286.162.418-.097.021-.196.029-.294.022-.114-.006-.22-.054-.3-.135-.44-.455-.803-1.009-1.268-1.43-.232-.212-.411-.233-.541-.161-.117.074-.192.2-.201.337.013.736.307 1.439.822 1.965.266.285.586.514.941.673.09.038.156.064.265.1.11.035.215.065.314.088.174.039.354.047.53.024.07-.016.215.14.339.22.204.122.43.205.666.243.236.045.48.032.71-.038.189-.057.359-.164.491-.31.262.016.525-.002.782-.055.307-.068.604-.175.884-.318.264-.135.503-.28.746-.413.16-.115.287-.27.37-.449.125-.247.208-.513.244-.787.022-.152.029-.306.021-.46.181.065.37.13.56.185.251.078.509.136.77.171.061.007.113.012.176.014.068.002.133.001.195-.002.111-.004.22-.027.324-.068.421-.174.845-.148 1.262-.25.299-.062.608-.052.901.029.258.054.7-.153 1.093-.444.397-.288.741-.646.98-.793.352-.216.345-.246.125-.497z" transform="translate(-16 -591) translate(16 591) translate(25.712 18.74)"/>
                    <path fill="#292929" d="M12.17 11.855c-.057-.058-.13-.102-.157-.183-.042-.122-.017-.309-.066-.391-.038-.068-.21.008-.246-.073-.14-.345-.416-.438-.69-.627-.043-.243-.099-.484-.167-.721-.03-.16-.034-.324-.01-.485.025-.111-.004-.228-.077-.315-.117-.119-.237-.236-.362-.342l-.094-.078c-.052-.043-.102-.09-.149-.14-.109-.106-.237-.192-.378-.252-.175-.073-.368-.089-.552-.046-.153.04-.296.113-.42.212-.082.06-.157.119-.227.177-.141.113-.266.244-.372.39-.114.163-.182.353-.2.551-.022.17.024.34.128.475.165.175.284.388.347.62.076.203.161.38.363.396.05.3.201.573.429.774-.043.023-.09.035-.139.035h-.09l-.052-.005c-.08-.004-.16-.012-.239-.025-.16-.024-.318-.066-.47-.127-.054-.02-.113-.026-.17-.016-.042.003-.084.01-.125.02.01-.36-.017-.751.021-1.092.015-.132.02-.265.015-.397.004-.076-.003-.152-.019-.227-.037-.155-.12-.296-.238-.404-.068-.066-.126-.142-.171-.226-.022-.04-.042-.082-.06-.124l-.067-.174c-.057-.154-.131-.3-.22-.437-.15-.224-.361-.398-.61-.5-.134-.055-.277-.086-.423-.092-.147-.008-.294.01-.435.054-.261.08-.488.246-.644.47-.102.141-.166.306-.188.479-.017.127-.004.256.038.377.014.153.003.307-.031.457-.007.033-.016.066-.029.098-.012.023-.027.045-.044.065-.034.04-.07.077-.109.112-.098.094-.134.205-.053.285.038.034.074.07.108.108-.186-.026-.327-.182-.333-.37-.004-.129.016-.257.059-.379-.222-.21-.238-.522-.395-.787-.027-.039-.063-.07-.106-.09-.187-.075-.4-.046-.561.075-.158.194-.221.45-.457.614-.202.138-.188.29.003.586.138.18.253.375.344.582.116.32.26.628.43.922.02.039.046.074.077.106.03.03.059.052.107.097.08.072.17.134.266.183.06.033.12.039.174.072.084.058.156.131.214.216.06.088.1.187.118.292-.002.133.017.266.056.393.037.111.129.195.243.22.086.01.17.024.255.046.32.075.626.204.903.383.096.087.23.116.353.077.272-.118.502-.315.66-.565.32.17.661.3 1.014.387.151.04.308.052.464.036.074-.009.148-.024.22-.045l.055-.016.068-.025c.045-.018.088-.037.13-.058.103-.048.214-.077.327-.084.112-.019.228-.033.337-.061.295-.071.565-.223.779-.44.13-.139.235-.3.31-.476.115.024.229.055.34.093.15.052.314-.013.386-.153.072-.123.19-.211.327-.246.042-.01.085-.023.125-.037.126-.044.135-.114.052-.204z" transform="translate(-16 -591) translate(16 591) translate(25.712 18.74)"/>
                </g>
                <g>
                    <path fill="#FFF5C2" d="M27.605 4.218c-.255-.37-.533-.721-.834-1.054-.28-.294-.77-.315-1.055-.625-.497-.53-1.205-.074-1.772-.588-.13-.118-.278-.215-.437-.29-1.274-.577-2.632-.392-3.904-.695-1.06-.251-2.122-.494-3.198-.68-.275-.048-.546-.09-.817-.123l-.403-.05-.221-.023c-.115-.01-.23-.015-.345-.014-.45-.009-.887.15-1.225.447-.161.15-.297.326-.4.52-.053.098-.1.198-.142.3l-.051.131-.036.1c-.346.982-.688 1.96-1.11 2.958-.103.211-.243.4-.416.56-.423.443-.154.874-.426 1.31-.092.147-.256.25-.324.403-.065.144.02.335-.116.486-.451.556-.793 1.192-1.007 1.874-.048.347-.101.693-.161 1.039-.283.803-.416 1.82-.73 2.568-.245.58-.751 1.041-1.019 1.64-.309 1.049-.54 2.027-1.008 3.045-.285.621.142 1.133-.139 1.697-.363.73-.769 1.559-.884 2.356-.114.79.356.599.509.44.86-.899 1.854-2.847 1.763-4.063-.006-.074.126-.18.196-.27.444-.578.702-1.693.992-2.383.312-.743.603-1.57.884-2.332.113-.305.342-.47.52-.697.104-.21.126-.45.064-.676-.07-.194.65-2.11.746-2.176 1.415-.989 1.304-4.074 2.588-5.284.149-.14.312-.59.436-1.052.062-.23.113-.465.148-.664.017-.099.032-.193.036-.261l.003-.049-.006-.023-.015-.044c.037-.178.189-.31.37-.322.034-.002.067-.003.1-.002.034 0 .058.002.13.01l.372.042c.225.028.39.05.43.061.168.044.309.191.47.213.219.03.45-.04.673-.02.686.051 1.301.725 1.969.41.25.057.336.26 1.117.382.727.107 2.284.907 3 .828.424-.047.81.113 1.21.21.28.074.53.229.722.446.336.335 1.696.396 2.154.65.332.18.345.17.462-.095.122-.163.172-.37.137-.571zM21.076 25.067c-.186-.285-.387-.56-.602-.826-.185-.212-.409-.053-.597-.292-.323-.41-.558.343-.908-.047-.067-.08-.152-.143-.248-.184-.671-.247-1.269.332-1.908.287-.529-.037-1.057-.102-1.584-.135-1.076-.068-2.046.188-3.11.116-.13-.031-.246-.107-.327-.215-.275-.273-.43.202-.676.09-.083-.038-.157-.173-.238-.183-.077-.01-.153.161-.245.077-.282-.245-.655-.36-1.026-.315-.169.092-.339.176-.51.254-.417.026-.916.296-1.314.26-.309-.028-.593-.397-.912-.445-.538.09-1.035.228-1.578.125-.331-.065-.532.606-.836.523-.394-.105-.839-.227-1.24-.038-.13.064-.225.183-.257.325-.033.142 0 .29.09.405.526.592 1.596.909 2.178.323.035-.036.102.066.154.106.333.253.906.09 1.277.126.412.028.825.033 1.238.016.162-.002.272.18.406.283.124.021.234-.048.332-.209.083-.157 1.098-.163 1.145-.087.69 1.13 2.123-.284 2.906.59.183.206.956-.059 1.122-.245.396-.045.795-.064 1.194-.056.086.025.169.17.251.169.111-.002.22-.12.331-.142.341-.064.721.579 1.014.071.13.008.197.221.595.169.367-.046 1.248.412 1.58.092.195-.188.407-.134.614-.162.159-.022.29.087.427.244.227.26.876-.188 1.14-.101.194.063.198.047.19-.29.019-.228-.005-.458-.068-.68z" transform="translate(-16 -591) translate(16 591)"/>
                    <path fill="#292929" d="M26.164 14.874c.222-.544.467-1.163.395-1.758-.072-.59-.55-.446-.68-.328-.738.672-1.356 2.118-.947 3.027.025.055-.096.134-.15.2-.352.429-.36 1.26-.51 1.774-.16.553-.277 1.17-.4 1.737-.05.227-.263.347-.405.514-.059.175-.021.367.099.507.127.148-.196 1.575-.285 1.623-.309.17-.54.453-.646.789-.06.173-.105.35-.134.532-.032.191-.054.374-.075.532-.016.137-.043.272-.08.404-.022.087-.071.164-.142.218-.07.051-.16.067-.243.045-.137-.023-.267-.075-.381-.152-.118-.085-.481-.012-.812.106-.275.088-.531.226-.757.406-.017.015-.413.115-.82.207-.406.101-.824.196-.887.2-.128.005-.277-.11-.396-.08-.159.037-.287.19-.442.25-.47.179-1.168-.3-1.458.309-.184.046-.337-.142-.886.079-.504.19-1.878.16-2.245.637-.214.274-.524.327-.8.464-.215.085-.455.084-.669-.005-.401-.124-1.142.66-1.527.74-.286.055-.286.072-.153.382.059.224.175.43.338.595.37.15.732.32 1.093.429.32.1.56-.175.892-.046.56.217.629-.613 1.223-.416.124.046.257.066.39.058.967-.081 1.608-.892 2.5-1.102.732-.175 1.475-.296 2.212-.435.75-.143 1.451-.331 2.156-.507.352-.089.706-.17 1.065-.24.175-.036.38-.065.62-.12.29-.06.57-.164.83-.306.257-.147.5-.238.754-.39.147-.087.266-.215.343-.368.052-.11.083-.23.089-.352-.019-.207.013-.415.093-.607.074-.124.234-.203.271-.315.035-.107-.106-.254.008-.365.402-.394.542-.892.653-1.396-.034-.26-.06-.521-.08-.781.114-.602.008-1.366.172-1.925.127-.433.576-.773.724-1.221.083-.785.094-1.518.362-2.279.163-.464-.444-.849-.272-1.27z" transform="translate(-16 -591) translate(16 591)"/>
                    <path fill="#FFF" d="M36.768 20.384c-.16-.63-.49-1.117-.64-1.538-.483-1.332-1.25-2.462-2.081-3.58-.185-.2-.335-.427-.444-.676-.324-.96-.923-1.81-1.485-2.66-.419-.607-.766-1.26-1.036-1.947-.35-.951-.898-1.817-1.61-2.54-.364-.369-.7-.796-1.067-1.232-.293-.363-.616-.701-.964-1.012.132-.591.086-1.033-.314-1.234-.117-.058-.05-.266.113-.382.06-.033.116-.074.166-.12.048-.056.083-.122.102-.193-.098-.404-.75-.483-1.007-.1-.235.352-.524.682-.63 1.161l-.003.013c-.332-.072-.677-.066-1.006.017-.427.112-.816.203-1.194.323-.373.108-.723.283-1.032.518-.234.19-.477.38-.716.55-.227.165-.465.315-.712.45-.437.237-.712.615-1.077.839-.55.33-.782.774-1.091 1.185-.261.344-.448.48-.788.49-.27.008-.358.355-.545.516-.283.237-.626.405-.887.655-.333.32-.581.712-.903 1.043-.647.67-1.292 1.346-2.109 1.753-.196.097-.369.466-.297.591.106.185.24.346.343.533.032.052.038.116.017.174-.02.057-.067.102-.125.121-.06.024-.127.024-.188 0-.146-.071-.273-.167-.423-.235-.228-.103-.491-.01-.817.253-.3.208-.558.471-.76.776-.32.544-.734 1.027-1.223 1.426-.405.369-.835.71-1.287 1.02-.525.344-.806.942-1.442 1.184-.322.16-.615.374-.864.633-.328.309-.596.672-.95.945-.368.248-.75.475-1.143.68-.133.094-.239.222-.305.372-.048.122.013.224.011.34-.002.115-.024.236-.038.355-.12-.023-.283-.013-.354-.077-.109-.127-.295-.151-.433-.056-.18.125-.346.272-.492.437-.24.167-.504.297-.782.384-.144.06-.285.126-.423.196l-.052.026c-.017.01-.047.032-.07.047l-.147.103c-.1.065-.193.138-.28.218-.32.266-.529.643-.583 1.056-.024.26.011.52.103.764.096.236.239.45.421.627.393.38.844.693 1.337.928.119.066.25.133.368.188.104.048.208.094.313.137.205.08.415.145.63.195.418.097.85.128 1.277.093.834-.075 1.673.033 2.46.316.433.156.904.166 1.343.029.44-.13.902-.159 1.355-.087.366.05.723.127 1.09.169.461.054.928.102 1.396.11.395.008.722-.097.874-.323.092-.135.268-.183.416-.113.743.378 1.613.45 2.614.297.653-.1 1.317-.178 1.98-.297.675-.104 1.333-.3 1.955-.585.068-.033.137-.062.207-.094l.106-.043c.033-.012.072-.026.12-.046.18-.068.358-.14.545-.225.078-.035.152-.08.22-.13l.106-.08c.032-.03.061-.062.092-.094.056-.067.106-.14.148-.216l.11-.24.1-.269c.023-.057.051-.112.082-.166.42-.815.645-1.717.658-2.634.026-.541.086-1.08.179-1.615.308-1.826.881-3.621 1.072-5.458.047-.17.107-.338.181-.5.136-.44.271-.88.395-1.324.402-1.427.732-2.884 1.348-4.225.187-.418.28-.873.272-1.33-.007-.305.062-.607.2-.879.042.029.084.056.13.082.202.13.336.342.365.58.071.289.015.583.343.87.282.25.253.655.555.914.207.167.372.381.48.624.183.71.593 1.322.963 1.968.227.394.391.82.583 1.233.588.527.95 1.389 1.553 1.885.147.104.251.257.293.432.048.21.148.348.287.377.322.03.572.295.583.62.058.75.6 1.5.794 2.246.106.086.227.152.357.194.156.045.261.192.254.355-.002.242.028.484.09.72.056.13.176.206.387.346.141.093.264.212.36.35.09.13.145.28.16.436.003.25-.096.49-.275.665-.214.217-.47.387-.751.501-.575.255-1.073.697-1.57 1.114l-2.34 1.995c-.331.293-.727.504-1.154.616-.241.068-.477.156-.705.261-.484.22-.869.614-1.077 1.103-.048.185-.07.376-.062.566-.006.172-.093.296-.245.3-.277.008-.53-.01-.797.379l-.609.847c-.094.155-.242.269-.415.32l-1.148.288c-.251.065-.47.221-.613.438-.407.5-.869.951-1.377 1.347-.454.42-1.008.714-1.61.856-.26.055-.369.176-.468.482-.048.15-.068.288-.22.381-.227.14-.464.265-.71.37-.594.212-1.1.616-1.437 1.148-.212.354-.5.705-.758 1.057-.188.256-.42.326-.533.165-.127-.18-.268-.158-.466.078l-.689.821-.34.412-.324.402c-.198.263-.445.432-.596.353-.08-.032-.141-.088-.198-.107-.03-.01-.06-.023-.088-.039-.014-.01-.027-.015-.042-.026-.02-.012-.044-.03-.066-.044-.11-.083-.215-.174-.314-.272l-.775-.773c-.462-.457-.904-1.041-1.437-1.284-.747-.338-.917-1.114-1.521-1.513-.298-.195-.591-.432-.889-.6-.312-.182-.57-.444-.745-.76-.186-.308-.367-.289-.576-.323-.337-.034-.632-.24-.78-.545-.104-.224-.18-.445-.265-.667-.138-.359-.559-.458-.74-.741-.428-.605-.917-1.165-1.459-1.672-.46-.454-.947-.88-1.46-1.275-.697-.489-1.454-.887-2.252-1.186-.112-.034-.23.029-.263.14-.025.26-.019.52.019.778.044.249.167.477.352.65.392.398.788.792 1.186 1.183l3.79 3.725c.349.534.78 1.008 1.279 1.405.582.498.965 1.102 1.506 1.61l2.334 2.214 1.179 1.123c.27.262.572.489.9.674.449.251.967.355 1.479.297.176-.023.35-.064.517-.121.083-.03.168-.062.246-.099.077-.035.138-.066.202-.102.22-.122.425-.267.614-.432.084-.072.157-.141.227-.21.065-.064.128-.13.19-.197.124-.133.24-.273.35-.418.24-.281.526-.519.847-.702.39-.243.77-.506 1.134-.788 1.163-.932 2.312-1.882 3.467-2.825 1.157-.943 2.297-1.91 3.479-2.816.433-.323.844-.675 1.23-1.055.645-.648 1.398-1.227 2.087-1.85.403-.366.773-.763 1.157-1.145 1.156-.613 2.026-1.619 3.052-2.41.2-.177.374-.379.52-.601.103-.145.244-.258.407-.329.446-.236.865-.518 1.252-.84.484-.351.942-.738 1.368-1.157.18-.314.292-.662.331-1.021.034-.347.005-.696-.085-1.032zM24.318 10.18c-.137.915-.524 1.775-.74 2.682-.088.355-.218.7-.385 1.025-.344.652-.527 1.376-.535 2.113-.006.46-.114.915-.316 1.33-.328.661-.51 1.386-.531 2.125-.02.27-.082.536-.182.788-.306.979-.557 1.973-.751 2.98l-.306 1.58c.001.08-.086.121-.155.118-.05.004-.098.012-.145.025-.062.014-.14.02-.21.03-.151.015-.304.02-.456.013-.165.002-.328.04-.477.113-.703.365-1.487.397-2.289.28-.264-.035-.534-.015-.79.061-.932.33-1.94.374-2.899.128-.088-.022-.18-.025-.27-.008-.722.2-1.424-.031-2.132-.058-.55-.021-1.111-.071-1.602.077-.606.163-1.246.147-1.843-.047-.41-.142-.848-.185-1.278-.126-.26.008-.516-.05-.747-.166-.47-.208-.978-.313-1.491-.308-.071-.002-.142-.016-.208-.04-.046-.015-.087-.042-.117-.079-.038-.06-.066-.126-.084-.195.01-.05.03-.099.062-.14-.086.063-.184.11-.287.138-.15.047-.266.028-.16-.03.08-.04.165-.075.252-.102.051-.018.05-.02-.007-.056-.026-.012-.042-.037-.041-.066 0-.028.017-.053.043-.064l.087-.05c.055-.032.11-.062.167-.091.113-.058.226-.11.337-.156.299-.123.58-.255.847-.397.147-.078.29-.164.428-.256.147-.096.29-.194.433-.295.283-.203.559-.416.823-.644.26-.234.512-.48.755-.737.208-.182.44-.335.688-.455.33-.177.621-.415.86-.703.212-.3.491-.546.814-.72.445-.22.612-.701.991-.94.39-.243.745-.537 1.056-.875.529-.24.862-.669 1.177-1.116.065-.063.141-.113.225-.147.405-.193.724-.529.898-.943.135-.33.464-.547.732-.8.747-.301 1.318-.944 1.919-1.515.274-.247.536-.51.784-.784.348-.407.634-.849.987-1.251.383-.431.909-.554 1.328-.916.196-.182.38-.378.549-.587.176-.202.322-.5.511-.598.601-.32.944-.821 1.388-1.25.414-.407.85-.687 1.318-.668.309.028.607-.116.777-.375.141-.207.333-.375.558-.486.21-.112.406-.184.587-.278-.111.404-.11.826-.194 1.236-.189.91-.613 1.743-.753 2.676z" transform="translate(-16 -591) translate(16 591)"/>
                </g>
            </g>
        </g>
    </g>
</svg>
